<svg width="1024" height="771" viewBox="0 0 1024 771" fill="none" xmlns="http://www.w3.org/2000/svg">
<g clip-path="url(#clip0_17_283)">
<rect width="1024" height="771" fill="white"/>
<path d="M307.048 56.0946C311.109 58.322 315.561 62.012 318.392 65.5542C324.232 72.8663 325.094 82.1611 323.948 90.863C322.744 100.005 319.176 108.398 314.39 116.3C300.523 139.196 282.412 149.047 261.147 164.324C258.691 166.122 256.199 167.874 253.67 169.581C257.922 153.547 262.142 137.243 268.157 121.745C273.941 121.548 279.483 119.844 284.468 117.194C296.944 110.56 307.399 98.4379 311.06 85.2374C313.983 74.6975 312.885 65.638 307.048 56.0946Z" fill="black"/>
<path d="M698.782 613.703C700.444 615.836 701.424 618.52 702.544 620.934C694.063 626.995 685.321 632.704 676.319 638.06C667.316 643.417 658.085 648.402 648.624 653.015C576.627 688.498 480.046 695.885 401.642 672.193C399.575 671.652 397.493 670.793 395.465 670.102C399.506 668.464 403.503 666.732 407.782 665.686C422.395 669.348 437.027 672.462 451.982 674.424C454.703 674.806 457.427 675.156 460.156 675.473C462.885 675.79 465.617 676.076 468.351 676.329C471.086 676.582 473.823 676.802 476.562 676.991C479.3 677.178 482.041 677.334 484.783 677.457C487.525 677.581 490.267 677.671 493.009 677.729C495.753 677.788 498.495 677.813 501.237 677.806C503.979 677.8 506.72 677.761 509.46 677.689C512.2 677.617 514.937 677.513 517.672 677.377C520.408 677.24 523.141 677.071 525.871 676.87C528.601 676.668 531.326 676.434 534.048 676.167C536.77 675.901 539.488 675.603 542.2 675.272C544.914 674.941 547.621 674.578 550.323 674.183C553.024 673.788 555.72 673.36 558.409 672.901C561.098 672.442 563.78 671.95 566.455 671.427C569.129 670.904 571.796 670.349 574.456 669.763C577.114 669.176 579.764 668.558 582.405 667.909C585.046 667.259 587.677 666.577 590.298 665.864C592.92 665.152 595.532 664.408 598.133 663.633C600.733 662.859 603.323 662.053 605.901 661.217C608.478 660.38 611.044 659.513 613.598 658.615C616.152 657.717 618.692 656.789 621.22 655.831C623.748 654.872 626.263 653.883 628.764 652.865C631.264 651.846 633.75 650.798 636.222 649.719C638.693 648.642 641.149 647.534 643.59 646.397C646.031 645.26 648.456 644.094 650.865 642.899C653.274 641.704 655.666 640.48 658.041 639.228C660.416 637.976 662.774 636.695 665.114 635.386C667.454 634.078 669.776 632.741 672.079 631.376C674.383 630.011 676.668 628.62 678.934 627.2C681.199 625.78 683.445 624.334 685.671 622.861C687.898 621.388 690.104 619.888 692.289 618.361C694.474 616.835 696.638 615.282 698.782 613.703Z" fill="black"/>
<path d="M402.15 349.676L403.082 350.078C404.543 354.301 401.824 362.347 400.718 366.521C398.224 367.129 393.446 368.846 391.034 368.24C391.079 367.284 391.223 366.427 391.381 365.486C389.198 364.35 371.862 368.969 368.347 369.742C366.422 379.445 365.091 389.321 363.506 399.089C371.398 397.494 378.64 394.332 385.808 390.991C384.807 397 384.035 403.061 383.172 409.092C380.911 408.66 378.79 407.922 376.614 407.198L360.915 410.921C359.396 418.836 357.967 426.767 356.628 434.714C366.455 432.343 376.246 429.738 386.159 427.684L387.335 420.345C391.132 419.545 394.945 418.82 398.776 418.169L397.619 424.815L395.575 436.868C374.998 441.903 354.332 446.45 333.877 451.93C334.112 448.868 334.326 445.341 335.955 442.658C337.665 439.843 340.125 438.967 343.322 438.186C345.689 424.479 348.135 410.787 350.661 397.11C352.091 389.391 354.227 381.373 354.715 373.556C354.907 370.473 353.527 372.158 352.14 370.285C350.584 368.183 351.658 364.137 351.962 361.754C368.761 358.041 385.303 353.095 402.15 349.676Z" fill="black"/>
<path d="M472.514 333.369L473.002 333.85C473.488 338.498 471.069 346.817 470.193 351.674C466.449 352.831 462.675 353.767 458.85 354.668C458.807 352.797 458.88 350.924 458.916 349.055C450.864 350.781 442.858 352.52 434.941 354.716C433.351 363.91 431.644 373.081 429.821 382.231C434.983 381.273 440.228 380.408 445.198 378.78C449.217 377.463 452.838 375.324 457.06 374.596C456.476 379.194 455.931 383.771 454.901 388.296C445.92 390.505 436.856 391.633 427.955 394.317C426.549 402.481 424.891 410.604 423.446 418.762C431.078 416.983 439.288 415.573 446.61 412.945C452.969 410.663 448.184 408.542 459.316 407.079L458.306 412.155L456.251 423.104C437.739 426.748 419.464 431.4 401.036 435.385C401.473 431.781 402.072 428.224 402.719 424.653C405.179 423.911 407.602 423.149 410 422.248L416.741 383.667C418.412 374.294 420.641 364.717 421.11 355.192C418.677 355.832 416.186 356.294 413.717 356.802C413.669 353.554 414.197 350.361 414.636 347.158C427.576 343.37 441.248 341.307 454.406 338.2C460.47 336.768 466.245 333.712 472.514 333.369Z" fill="black"/>
<path d="M705.089 627.433C706.553 629.622 707.619 632.533 708.763 634.912C693.176 645.773 676.277 655.879 659.03 664.242C656.89 665.272 654.739 666.281 652.576 667.269C650.413 668.257 648.24 669.224 646.057 670.17C643.872 671.115 641.678 672.04 639.473 672.944C637.268 673.848 635.054 674.73 632.829 675.591C630.604 676.451 628.371 677.29 626.127 678.108C623.884 678.926 621.631 679.722 619.37 680.496C617.109 681.271 614.839 682.023 612.561 682.752C610.282 683.483 607.996 684.192 605.702 684.878C603.407 685.564 601.105 686.229 598.796 686.871C596.487 687.513 594.17 688.133 591.845 688.73C589.522 689.327 587.192 689.902 584.855 690.455C582.518 691.007 580.175 691.537 577.825 692.044C575.476 692.551 573.121 693.037 570.761 693.499C568.4 693.961 566.034 694.4 563.663 694.817C561.292 695.234 558.917 695.627 556.536 695.998C554.155 696.369 551.771 696.717 549.382 697.043C546.993 697.368 544.601 697.67 542.205 697.949C539.809 698.229 537.409 698.485 535.007 698.718C532.604 698.952 530.198 699.162 527.79 699.349C525.382 699.536 522.972 699.699 520.559 699.84C518.146 699.981 515.732 700.099 513.315 700.193C510.899 700.288 508.482 700.359 506.064 700.407C503.644 700.456 501.225 700.481 498.805 700.483C496.384 700.485 493.964 700.464 491.543 700.419C489.122 700.375 486.701 700.307 484.281 700.216C481.861 700.125 479.441 700.012 477.022 699.874C474.604 699.737 472.186 699.577 469.77 699.394C467.353 699.211 464.939 699.004 462.525 698.775C460.112 698.546 457.701 698.293 455.292 698.017C452.884 697.742 450.478 697.443 448.075 697.122C445.671 696.8 443.271 696.456 440.874 696.089C438.477 695.721 436.084 695.331 433.695 694.919C414.265 691.532 395.167 686.109 376.362 680.31C374.334 679.803 372.358 679.025 370.39 678.331C374.265 676.806 378.185 675.432 382.138 674.09C392.097 677.076 402.145 679.74 412.282 682.081C422.419 684.423 432.621 686.438 442.888 688.124C445.11 688.468 447.335 688.791 449.563 689.093C451.791 689.395 454.021 689.677 456.254 689.939C458.487 690.201 460.721 690.442 462.958 690.663C465.195 690.884 467.434 691.085 469.674 691.265C471.913 691.446 474.155 691.605 476.398 691.745C478.64 691.884 480.883 692.003 483.127 692.101C485.371 692.199 487.615 692.277 489.86 692.334C492.105 692.391 494.349 692.428 496.594 692.444C498.838 692.46 501.082 692.456 503.326 692.431C505.569 692.406 507.812 692.361 510.055 692.295C512.296 692.229 514.537 692.143 516.776 692.036C519.015 691.929 521.252 691.801 523.488 691.653C525.723 691.505 527.957 691.336 530.189 691.148C532.42 690.959 534.648 690.75 536.874 690.519C539.101 690.29 541.324 690.04 543.544 689.77C545.764 689.499 547.981 689.208 550.195 688.897C552.408 688.586 554.618 688.255 556.824 687.903C559.029 687.551 561.231 687.179 563.428 686.788C565.625 686.395 567.818 685.983 570.005 685.551C572.194 685.118 574.377 684.666 576.555 684.194C578.733 683.721 580.905 683.228 583.072 682.716C585.239 682.204 587.4 681.671 589.555 681.119C591.711 680.567 593.86 679.995 596.002 679.403C598.145 678.811 600.281 678.2 602.411 677.569C604.541 676.938 606.663 676.287 608.778 675.617C610.893 674.947 613.001 674.257 615.101 673.548C617.202 672.839 619.295 672.111 621.38 671.364C623.464 670.616 625.54 669.85 627.609 669.064C629.677 668.278 631.737 667.473 633.787 666.65C635.839 665.826 637.881 664.983 639.914 664.122C641.947 663.26 643.971 662.38 645.984 661.482C647.999 660.582 650.003 659.665 651.998 658.729C670.792 649.789 688.084 639.034 705.089 627.433Z" fill="black"/>
<path d="M520.98 316.891C521.115 316.952 521.267 316.983 521.383 317.073C523.073 318.386 526.965 353.831 527.887 359.275C528.756 364.407 533.108 394.368 535.826 396.274L538.856 395.678L539.436 396.183C539.712 399.229 538.727 402.622 538.152 405.615C529.561 407.316 520.952 408.936 512.323 410.475C512.706 407.329 513.261 404.248 513.876 401.141C516.447 400.303 519.139 399.752 521.778 399.124C521.167 395.125 520.114 391.148 519.209 387.194C515.713 387.841 495.575 390.844 493.587 392.395C493.147 392.739 492.829 393.202 492.449 393.605C490.132 397.575 488.186 401.755 486.154 405.866C488.273 405.682 490.39 405.347 492.497 405.075C492.264 408.589 491.644 411.918 490.907 415.357C481.582 417.98 471.707 419.289 462.125 420.945L463.077 411.843L469.585 409.227C475.91 400.331 480.387 389.722 485.346 380.053C492.749 365.618 500.393 351.302 507.664 336.804C510.617 330.916 513.174 324.287 516.644 318.726C517.436 317.46 519.566 317.235 520.98 316.891Z" fill="black"/>
<path d="M513.185 353.027C515.586 357.52 516.682 370.828 517.578 376.479C513.673 377.074 509.792 377.902 505.916 378.637L499.313 379.916C503.284 370.686 508.381 361.875 513.185 353.027Z" fill="#FEFEFE"/>
<path d="M600.708 307.9C601.656 308.027 601.373 307.957 602.298 308.211C608.102 309.807 613.356 312.663 616.298 317.883C619.594 323.73 619.291 330.714 617.269 336.799C613.743 347.408 605.198 354.292 594.994 359.066C598.869 366.743 602.71 374.367 607.558 381.564L616.311 379.92C615.903 383.081 615.278 386.233 614.742 389.375C609.254 390.563 603.748 391.579 598.106 391.913C590.632 385.118 586.655 371.454 581.379 362.662L572.237 364.311L570.984 372.552L568.196 389.399L575.716 388.54L573.9 398.012C564.205 400.616 554.12 402.329 544.248 404.299C544.822 400.901 545.539 397.585 546.375 394.242L554.766 392.172C557.562 369.278 562.519 346.393 566.551 323.678L559.979 324.22C560.057 320.942 560.501 317.698 560.886 314.448C573.222 311.014 587.743 307.515 600.708 307.9Z" fill="black"/>
<path d="M594.392 319.687C596.282 319.903 598.201 320.188 599.926 321.017C602.398 322.205 604.319 324.009 605.064 326.576C606.306 330.862 604.523 336.073 602.161 339.666C598.291 345.552 592.706 348.495 585.693 349.901C582.138 350.602 578.571 351.244 574.99 351.825C576.539 341.857 578.164 331.901 579.865 321.958C584.677 321.047 589.477 320.024 594.392 319.687Z" fill="#FEFEFE"/>
<path d="M681.115 291.249C686.883 291.535 693.09 293.169 698.017 296.124C704.971 300.294 709.559 306.858 711.42 314.369C714.658 327.442 710.517 342.155 703.161 353.149C689.584 373.441 668.669 377.631 645.368 382.364C638.017 383.879 630.65 385.331 623.267 386.719C623.938 383.071 624.717 379.445 625.603 375.842C628.207 375.284 630.792 374.626 633.38 374.01C635.285 365.416 636.321 356.521 637.854 347.841C640.242 334.318 642.973 320.866 645.267 307.323L637.769 307.836L638.772 297.597C650.002 294.368 669.419 291.038 681.115 291.249Z" fill="black"/>
<path d="M678.974 303.433C681.871 303.615 685.115 304.518 687.721 305.743C692.406 307.947 695.73 311.69 697.429 316.344C700.682 325.257 697.903 336.703 693.68 344.806C687.69 356.295 677.592 362.16 665.063 366.05C659.256 367.598 653.382 368.896 647.441 369.942C648.497 360.949 650.4 352.04 652.017 343.135C654.261 330.475 656.604 317.834 659.045 305.211C665.743 304.138 672.116 302.928 678.974 303.433Z" fill="#FEFEFE"/>
<path d="M329.031 360.353C333.712 361.166 338.916 363.109 341.875 366.827C344.342 369.928 345.157 374.037 344.587 377.783C342.378 392.305 309.028 414.131 296.162 423.179C300.984 422.606 305.864 422.039 310.747 422.14C315.866 422.246 322.211 423.05 325.877 426.866C327.882 428.952 328.564 431.551 328.346 434.285C327.494 445.002 315.826 455.519 307.695 461.852C291.499 474.468 271.886 482.133 254.011 492.3C227.973 507.111 203.21 524.213 179.502 542.118C176.708 544.328 174.045 546.692 171.354 549.014L171.697 546.625C172.003 544.574 172.187 542.272 173.098 540.382C174.886 536.675 178.282 533.077 181.008 529.944C184.527 525.941 188.177 522.047 191.956 518.262C195.735 514.477 199.637 510.81 203.662 507.259C207.686 503.708 211.826 500.281 216.08 496.977C220.334 493.673 224.695 490.499 229.162 487.456C233.613 462.856 237.808 438.141 242.998 413.684C237.595 416.82 232.524 420.424 227.074 423.51C222.97 421.548 215.803 418.313 213.937 414.16C214.334 412.47 215.281 411.686 216.667 410.556C223.669 404.848 232.589 400.526 240.512 395.972C259.3 385.176 280.931 371.707 301.492 364.597C310.564 361.459 319.289 359.613 329.031 360.353Z" fill="black"/>
<path d="M301.9 435.52C303.357 435.816 304.104 436.157 305.31 436.935C305.619 437.647 305.975 438.053 305.785 438.835C303.831 446.837 262.303 469.682 253.324 474.97L251.44 475.925C250.723 475.227 250.88 475.596 250.786 474.583C250.225 468.615 253.877 458.546 258.026 454.279C268.09 443.927 286.906 435.954 301.9 435.52Z" fill="#FEFEFE"/>
<path d="M322.252 378.868C323.044 379.158 322.71 378.903 323.154 379.739C317.049 390.929 272.527 422.572 259.893 433.132L259.416 433.296L258.908 432.926C258.987 426.563 263.381 410.688 265.481 404.395C280.997 394.42 303.994 383.216 322.252 378.868Z" fill="#FEFEFE"/>
<path d="M713.336 643.396C719.848 656.597 725.834 670.015 732.348 683.219C726.925 687.707 720.623 691.418 714.553 695.08C708.122 698.892 701.578 702.525 694.921 705.98C688.264 709.434 681.504 712.705 674.641 715.791C667.78 718.878 660.827 721.775 653.782 724.483C646.738 727.191 639.613 729.706 632.409 732.026C536.868 763.656 425.104 760.53 332.028 718.204C322.037 713.994 312.445 708.677 303.007 703.445C321.607 697.878 339.109 689.109 357.753 683.577C365.04 686.422 372.41 689.05 379.862 691.461C387.314 693.872 394.834 696.061 402.421 698.027C410.008 699.995 417.649 701.736 425.342 703.253C433.035 704.768 440.765 706.055 448.534 707.114C451.446 707.508 454.363 707.868 457.283 708.195C460.204 708.522 463.128 708.816 466.054 709.075C468.98 709.334 471.909 709.56 474.84 709.753C477.771 709.945 480.704 710.104 483.637 710.228C486.571 710.352 489.505 710.443 492.439 710.5C495.374 710.557 498.308 710.58 501.241 710.569C504.175 710.558 507.107 710.513 510.038 710.435C512.969 710.356 515.897 710.244 518.824 710.098C521.751 709.952 524.674 709.771 527.596 709.558C530.516 709.344 533.432 709.097 536.345 708.816C539.258 708.534 542.166 708.219 545.069 707.871C547.972 707.522 550.869 707.14 553.761 706.725C556.653 706.31 559.539 705.861 562.417 705.378C565.297 704.896 568.168 704.38 571.032 703.832C573.896 703.283 576.752 702.701 579.6 702.086C582.448 701.471 585.287 700.823 588.116 700.142C590.946 699.461 593.766 698.747 596.576 698.001C599.386 697.255 602.185 696.476 604.973 695.665C607.762 694.853 610.539 694.01 613.304 693.134C616.069 692.258 618.822 691.35 621.563 690.41C624.304 689.47 627.031 688.499 629.745 687.496C632.459 686.492 635.16 685.458 637.846 684.392C640.532 683.326 643.204 682.229 645.86 681.101C648.517 679.973 651.158 678.814 653.783 677.624C656.409 676.434 659.018 675.214 661.611 673.963C664.203 672.712 666.779 671.432 669.337 670.121C671.896 668.81 674.437 667.47 676.96 666.1C679.482 664.73 681.986 663.33 684.471 661.902C686.957 660.474 689.423 659.017 691.87 657.53C694.316 656.044 696.743 654.53 699.15 652.987C701.556 651.444 703.942 649.873 706.307 648.274C708.671 646.676 711.014 645.05 713.336 643.396Z" fill="black"/>
<path d="M737.074 456.055C738.575 456.239 740.17 456.377 741.616 456.833C743.432 457.404 744.985 458.451 745.84 460.124C747.486 463.341 748.633 466.916 750.1 470.221L761.692 495.638L802.564 583.412L837.623 659.365C842.862 670.8 850.055 683.279 853.75 695.079C855.689 701.268 855.878 707.725 853.678 713.804C849.69 724.83 837.277 731.986 826.785 736.83C812.896 743.243 793.106 750.623 777.508 745.254C772.439 743.509 768.338 740.363 765.722 735.857C762.527 730.351 761.103 722.497 758.883 716.439C755.873 708.228 752.146 700.165 748.472 692.188L690.783 566.531C681.671 546.684 673.328 526.289 663.371 506.806C655.768 509.215 648.337 512.277 640.907 515.116C640.658 520.332 640.715 526.004 639.247 531.038C638.394 533.967 636.843 536.997 634.341 538.954C630.617 541.866 625.783 543.906 621.56 546.138L600.304 557.485C565.293 576.38 530.104 594.71 494.66 612.88C456.287 632.811 415.112 650.371 374.419 665.8C355.412 673.007 336.137 679.623 317.044 686.633C307.789 690.032 283.421 700.248 274.907 700.789C266.887 701.298 258.961 698.18 252.903 693.206C241.406 683.765 233.667 667.769 232.547 653.649C231.542 640.977 235.842 630.325 244.558 620.979C245.465 620.001 246.424 619.071 247.436 618.191C248.448 617.31 249.505 616.481 250.61 615.706C251.715 614.93 252.86 614.212 254.046 613.551C255.232 612.891 256.453 612.291 257.707 611.751C265.035 608.68 272.801 606.248 280.319 603.594L320.516 589.477C369.45 572.433 418.523 555.738 467.734 539.392C507.908 525.739 547.771 511.354 588.138 498.184C597.19 495.232 613.263 488.231 622.113 488.054C627.908 487.938 631.926 491.861 635.752 495.473C642.155 493.412 648.732 491.534 654.899 488.926C655.969 486.253 657.066 483.96 659.185 481.88C668.865 472.383 705.594 460.659 720.085 457.722C725.728 456.578 731.28 455.999 737.074 456.055Z" fill="black"/>
<path d="M809.442 677.301C812.698 677.555 815.129 678.374 817.461 680.669C818.931 682.116 819.908 683.834 819.81 685.864C819.717 687.796 819.113 688.89 817.647 690.162C814.224 689.778 811.975 688.794 809.54 686.363C808.11 684.937 807.095 683.126 807.194 681.137C807.285 679.318 808.153 678.456 809.442 677.301Z" fill="#FEFEFE"/>
<path d="M793.738 708.959C794.565 709.089 795.406 709.242 796.211 709.472C799.005 710.27 801.485 713.018 802.831 715.378C803.671 716.851 804.284 718.823 803.454 720.394C802.739 721.749 801.814 721.858 800.415 722.332C796.457 721.522 793.045 720.083 790.707 716.756C789.81 715.479 789.394 713.962 789.87 712.477C790.493 710.531 791.954 709.773 793.738 708.959Z" fill="#FEFEFE"/>
<path d="M275.082 653.076C277.064 653.321 279.069 653.61 280.873 654.503C281.267 654.699 281.65 654.914 282.022 655.146C282.394 655.378 282.753 655.628 283.099 655.894C283.444 656.161 283.776 656.442 284.092 656.739C284.409 657.037 284.709 657.348 284.993 657.674C285.277 657.998 285.544 658.336 285.792 658.687C286.041 659.036 286.27 659.397 286.481 659.768C286.692 660.139 286.883 660.519 287.053 660.907C287.223 661.296 287.373 661.691 287.502 662.094C288.476 665.248 288.081 668.63 286.252 671.383C283.942 674.862 280.404 676.164 276.296 676.901C273.858 676.845 271.691 676.391 269.547 675.199C269.203 675.007 268.871 674.798 268.549 674.574C268.227 674.35 267.918 674.112 267.621 673.858C267.324 673.605 267.041 673.339 266.772 673.058C266.503 672.778 266.25 672.487 266.012 672.183C265.774 671.879 265.552 671.565 265.347 671.241C265.142 670.916 264.955 670.583 264.786 670.242C264.616 669.9 264.465 669.552 264.333 669.197C264.2 668.841 264.087 668.48 263.993 668.115C263.879 667.697 263.789 667.276 263.721 666.85C263.652 666.425 263.608 665.998 263.586 665.569C263.565 665.139 263.567 664.711 263.593 664.283C263.618 663.855 263.667 663.43 263.739 663.008C263.811 662.586 263.906 662.169 264.023 661.757C264.141 661.345 264.281 660.94 264.443 660.542C264.605 660.145 264.789 659.756 264.994 659.378C265.199 658.999 265.424 658.632 265.669 658.276C268.037 654.916 271.069 653.886 275.082 653.076Z" fill="#FEFEFE"/>
<path d="M693.899 492.359L699.041 490.39C699.775 497.567 704.044 505.987 706.616 512.817C711.805 526.622 717.078 540.399 722.435 554.148C731.566 577.733 740.174 601.302 747.89 625.311C746.925 624.838 746.936 624.182 746.538 623.259C729.922 579.35 710.385 536.329 693.899 492.359Z" fill="#FEFEFE"/>
<path d="M737.569 461.612C738.64 461.851 738.683 461.653 739.362 462.559C738.798 464.676 737.024 466.148 735.326 467.506C730.838 471.099 725.134 473.619 719.838 475.972C703.094 483.414 684.493 489.435 665.563 487.94C665.092 487.757 664.584 487.419 664.142 487.173C664.423 485.882 664.773 485.493 665.741 484.525C677.683 472.598 720.435 461.944 737.569 461.612Z" fill="#FEFEFE"/>
<path d="M620.458 499.58C621.114 499.735 621.972 499.885 622.596 500.173C624.107 500.87 625.073 501.886 625.601 503.396C627.064 507.573 629.071 526.496 626.541 529.627C620.793 536.739 475.096 597.781 454.86 605.406C436.99 612.14 418.3 618.109 399.755 623.081L399.352 622.338L398.723 623.063L398.997 623.25C399.375 622.625 399.29 622.599 400.079 622.19C403.407 620.469 408.227 619.563 411.861 618.311C419.57 615.632 427.201 612.772 434.753 609.73C456.926 600.887 478.644 590.956 500.556 581.562C529.212 569.278 558.055 557.325 586.27 544.176C598.225 538.604 612.124 534.158 622.847 526.652C622.477 519.295 622.264 511.866 620.736 504.603C610.156 506.444 598.073 511.919 587.822 515.368C559.326 524.954 530.983 534.957 502.396 544.309C468.441 556.136 434.42 567.801 400.333 579.302C386.542 584.015 372.894 589.101 359.063 593.714C337.725 600.832 316.678 608.436 295.558 616.074C285.96 619.544 274.943 622.391 266.067 627.23C258.336 631.445 253.431 637.709 248.931 644.829C249.979 641.685 251.074 638.588 252.67 635.658C256.316 628.961 261.543 624.684 268.541 621.232C276.542 617.284 285.287 614.337 293.7 611.213C307.946 605.929 322.248 600.78 336.608 595.766C381.223 579.976 426.065 564.756 471.133 550.106C505.529 538.809 539.662 526.76 573.924 515.115C589.343 509.876 604.785 504.099 620.458 499.58Z" fill="#FEFEFE"/>
<path d="M699.036 490.391C714.041 484.632 731.09 480.201 742.825 469.173C764.057 517.186 786.495 564.725 806.037 613.376C811.111 626.009 820.409 646.374 823.063 658.963C819.18 652.046 798.571 610.043 795.136 607.606C796.035 611.56 797.864 615.428 799.364 619.23C803.982 630.933 816.048 656.754 817.269 667.724C817.335 668.315 817.403 668.9 817.454 669.492C814.092 664.26 811.594 658.371 808.83 652.837C803.862 642.891 798.398 633.615 791.341 624.807C794.412 635.674 808.695 660.431 807.66 669.8L806.738 670.957L807.048 670.146C806.84 669.982 806.624 669.824 806.422 669.653C801.091 665.142 786.803 634.46 779.67 625.476C785.276 642.925 795.397 661.421 798.209 679.266C792.782 673.32 783.699 652.017 779.594 643.902C776.301 638.024 771.714 628.01 767.955 622.935C769.175 627.984 772.13 633.359 774.174 638.221C777.963 647.414 781.638 656.646 785.199 665.917C787.822 672.568 790.958 679.226 792.505 686.175C775.133 658.514 762.424 628.65 750.747 598.626C745.684 585.61 740.821 572.522 735.021 559.767C733.325 556.037 732.003 552.305 729.881 548.75C732.52 557.818 736.498 566.524 739.534 575.479C746.67 596.53 753.365 618.072 762.358 638.526C768.442 652.362 776.498 665.47 781.688 679.65C782.863 682.858 784.846 688.35 782.937 691.43C782.505 692.126 782.262 691.975 781.503 692.108C777.623 690.361 775.324 682.712 773.885 679.042C767.26 662.141 761.61 644.927 755.042 628.007C741.716 593.676 727.498 559.576 713.646 525.418C710.993 518.877 702.206 494.32 699.036 490.391Z" fill="#FEFEFE"/>
<path d="M914.404 47.6218C918.222 48.0346 921.825 48.4667 925.512 49.5921C935.788 52.7286 944.947 59.6105 949.964 68.7593C954.544 77.1114 954.768 86.7945 953.068 95.7828C951.45 104.336 947.736 112.555 944.514 120.628L932.426 151.012C921.146 179.77 910.635 208.792 900.893 238.076C912.78 232.147 925.162 227.198 936.524 220.367C955.582 208.908 969.518 197.026 974.253 175.49C975.359 174.757 976.517 174.527 977.887 174.782C981.994 175.548 986.093 179.91 988.242 183.105C992.306 189.148 992.606 195.43 991.109 202.116C987.582 217.867 974.225 234.138 958.031 239.602C949.914 242.34 941.13 243.304 932.937 245.911C929.334 247.036 925.771 248.262 922.248 249.59C918.726 250.916 915.251 252.341 911.822 253.864C908.393 255.388 905.017 257.008 901.693 258.723C898.37 260.437 895.105 262.244 891.898 264.144C889.069 270.693 887.187 277.767 884.971 284.544C881.346 295.627 877.631 306.681 873.828 317.707C891.163 315.364 908.87 314.764 925.712 320.714C938.508 325.234 949.591 333.496 955.421 345.402C965.827 366.657 958.297 398.035 950.22 418.982C937.147 452.881 908.884 494.116 873.174 509.039C859.293 514.839 842.557 516.726 827.991 511.19C815.863 506.581 807.968 496.718 802.914 485.642C790.145 457.663 801.215 421.846 809.646 394.284C813.683 381.085 817.943 367.817 823.238 355.036C805.722 361.331 788.849 369.717 771.919 377.24C771.896 383.44 772.217 389.555 774.377 395.507C777.824 405.013 784.33 410.912 793.629 415.402C792.059 419.911 790.756 424.516 789.373 429.083C785.072 427.51 780.986 425.7 777.12 423.279C762.776 414.298 755.951 400.993 752.372 385.62C731.09 394.937 710.228 405.187 688.891 414.406C668.156 423.348 647.161 431.73 625.908 439.554C604.655 447.377 583.176 454.629 561.472 461.311C496.86 480.866 430.784 495.923 366.152 515.495C323.228 528.493 281.206 542.546 242.084 563.874C250.831 575.246 261.956 584.92 273.124 594.116C269.589 595.253 266.174 596.511 262.753 597.911C257.477 593.403 252.445 588.663 247.655 583.692C242.866 578.721 238.344 573.543 234.089 568.157C231.808 569.207 229.572 570.395 227.325 571.512C231.516 576.586 235.902 581.506 240.484 586.27C245.065 591.035 249.829 595.63 254.774 600.057C252.131 601.269 249.893 602.819 247.539 604.455C237.294 595.798 228.069 585.948 219.229 576.021C216.5 577.323 213.89 578.818 211.261 580.286C219.277 591.188 230.039 600.682 239.795 610.212C224.984 625.186 220.582 637.483 221.352 658.062C216.018 653.92 211.256 648.822 206.444 644.139C189.667 627.808 175.405 611.426 162.134 592.422C129.848 606.549 96.0248 621.823 59.9435 624.776C107.144 608.4 141.825 577.631 180.617 549.056C220.327 519.805 262.472 492.748 309.453 474.787C339.723 463.213 372.238 455.661 403.864 447.857C448.502 436.878 493.362 426.712 538.444 417.36L613.706 401.817C625.688 399.285 637.798 397.016 649.662 394.054C673.489 388.105 697.02 380.276 720.03 372.064C731.722 367.892 743.472 363.81 754.882 359.001C758.078 351.689 761.423 344.687 766.05 338.077C786.893 308.305 827.048 281.733 857.084 260.531C864.174 243.045 869.607 224.408 874.951 206.342C866.799 215.897 858.624 226.067 847.596 232.813C839.703 237.64 820.011 243.819 810.634 241.607C804.219 240.094 801.188 234.001 798.159 229.04C794.815 234.394 791.57 240.356 787.118 244.929C784.925 247.181 782.426 249.056 779.424 250.266C771.875 253.31 753.416 255.283 744.985 255.574C744.76 255.482 744.535 255.391 744.312 255.297C736.582 252.018 734.724 244.802 731.884 237.919C725.044 245.92 720.546 256.84 711.027 262.455C704.951 266.038 673.385 273.111 666.984 271.322C664.728 270.691 663.133 269.05 662.065 267.122C658.232 260.203 659.094 249.709 660.116 242.335C661.781 230.325 665.544 218.368 669.065 206.786C675.231 187.241 681.701 167.792 688.475 148.44C664.287 169.41 638.741 222.391 632.917 252.743C631.209 261.646 631.078 269.379 636.692 277.227C631.307 279.142 609.937 284.302 604.834 284.684C602.114 284.887 599.247 284.33 597.196 282.471C593.232 278.881 592.027 271.213 591.701 266.263C586.952 274.05 582.609 282.098 578.27 290.1C571.522 292.365 547.071 299.224 540.65 297.615C537.1 296.726 534.134 294.138 532.271 291.212C517.238 267.607 548.646 201.859 555.354 175.819C535.417 194.376 517.147 224.546 506.477 249.092C500.546 262.739 493.703 281.841 496.3 296.877C497.058 301.265 499.067 305.373 500.868 309.467C489.308 313.057 477.056 315.257 465.334 318.511C465.803 309.582 465.692 300.553 465.839 291.605C460.328 301.442 453.752 312.028 444.124 318.678C437.433 323.3 427.789 327.224 419.302 325.691C418.689 325.575 418.084 325.431 417.485 325.258C416.887 325.085 416.299 324.883 415.721 324.655C415.143 324.426 414.577 324.171 414.025 323.889C413.473 323.607 412.937 323.3 412.417 322.967C411.896 322.634 411.394 322.278 410.91 321.898C410.427 321.519 409.964 321.118 409.521 320.694C409.08 320.272 408.661 319.83 408.265 319.368C407.869 318.906 407.499 318.426 407.153 317.93C403.959 313.407 402.697 307.76 402.151 302.462C399.49 276.685 412.409 250.957 420.501 227.042C422.503 221.125 424.716 215.107 425.863 208.964L426.01 208.157C411.142 226.335 381.211 276.989 376.838 298.947C374.097 312.713 375.118 322.292 383.508 334.138C374.029 338.326 360.869 341.631 350.343 342.499C347.684 340.414 344.985 337.876 343.012 335.192C332.869 321.388 340.679 303.373 343.574 288.827C345.595 278.295 347.503 267.742 349.3 257.17C345.66 258.733 342.192 260.475 338.712 262.33C333.518 291.364 325.39 329.432 304.488 351.992C297.908 359.094 288.307 364.836 277.999 365.146C267.377 365.466 257.589 360.709 249.884 353.978C233.63 337.413 231.661 318.292 231.851 296.837C229.235 298.28 226.776 300.002 224.285 301.625C222.37 311.627 222.09 322.451 220.987 332.603C218.659 354.029 216.136 375.516 212.493 396.756C209.419 414.187 205.485 431.426 200.69 448.473C189.865 487.292 174.894 524.762 138.711 548.515C123.063 558.788 102.596 564.963 83.2868 561.496C66.6766 558.515 51.76 548.457 42.1268 535.338C27.6333 515.598 24.8695 490.508 29.0989 467.62C39.1017 413.489 88.1561 365.921 131.886 333.639C147.207 322.33 163.525 312.14 179.616 301.835C182.252 288.241 183.337 274.072 184.852 260.301C188.563 226.575 191.431 192.72 199.174 159.618C190.021 167.227 182.32 177.26 174.684 186.21C135.335 232.33 91.1618 300.768 76.097 358.838C73.6219 359.16 71.2374 359.491 68.7386 358.967C64.1828 358.012 60.8129 355.269 58.3958 351.542C49.8095 338.301 51.786 320.173 55.3903 306.022C69.19 251.842 127.357 184.547 172.442 150.727C183.389 142.516 195.466 135.967 207.488 129.275C209.859 124.007 211.362 118.165 213.451 112.754C220.795 93.7301 231.703 75.3419 249.175 63.1955C258.471 56.7324 269.569 52.1976 281.447 54.0457C287.258 54.9503 292.892 57.3437 296.415 62.025C299.949 66.7214 300.791 72.6486 299.858 78.1732C299.754 78.805 299.633 79.4335 299.495 80.0586C299.357 80.6843 299.204 81.3059 299.034 81.9232C298.864 82.5405 298.678 83.1532 298.475 83.7613C298.272 84.3694 298.054 84.9723 297.819 85.5699C297.585 86.1671 297.335 86.758 297.07 87.3428C296.804 87.9276 296.523 88.5056 296.227 89.077C295.931 89.6482 295.62 90.2118 295.294 90.7677C294.968 91.3236 294.627 91.8712 294.272 92.4105C293.917 92.9499 293.548 93.4804 293.164 94.0018C292.781 94.5234 292.384 95.0356 291.974 95.5383C291.564 96.0404 291.14 96.5324 290.703 97.0143C290.266 97.4962 289.817 97.9675 289.355 98.4283C288.893 98.8883 288.419 99.3372 287.933 99.775C287.447 100.213 286.95 100.639 286.441 101.053C285.932 101.466 285.413 101.868 284.883 102.257C284.352 102.646 283.811 103.022 283.261 103.385C276.005 108.142 269.019 109.046 260.331 107.482C242.212 150.08 234.085 196.814 229.005 242.47C227.567 255.396 226.015 268.408 225.36 281.409C229.124 279.725 232.728 277.966 236.282 275.921C240.007 260.803 245.657 246.582 253.981 233.253C257.403 227.773 262.056 222.552 264.588 216.635C266.126 213.041 266.377 209.354 266.674 205.521C267.532 194.429 269.457 185.706 278.146 177.796C283.347 173.059 290.454 171.37 297.587 171.65C305.797 171.973 313.179 175.489 318.749 181.202C334.381 197.234 340.047 223.768 339.439 244.622C344.135 241.828 348.593 238.656 353.034 235.522C357.798 206.264 363.071 176.53 370.282 147.76C378.798 113.781 397.553 54.4748 431.011 35.9119C436.537 32.8463 443.597 30.8316 450.016 32.5946C453.336 33.5069 455.869 35.4631 457.569 38.3157C460.528 43.2756 460.898 49.637 460.486 55.1519C459.314 70.8494 452.97 87.2408 447.704 101.995C436.128 133.631 423.231 164.754 409.013 195.365C399.504 216.077 386.136 241.81 379.781 263.3C392.194 240.925 425.701 178.886 449.037 169.466C452.234 168.175 455.832 167.652 459.148 169.057C480.625 178.164 457.606 229.19 452.424 243.102C447.931 255.164 443.342 267.191 439.563 279.49C438.428 283.18 435.244 291.717 437.458 295.308C438.122 296.386 438.809 297.024 440.132 297.285C445.325 298.308 451.393 291.44 454.165 287.991C459.48 281.375 467.488 269.541 470.253 261.722C474.382 250.041 476.135 226.592 478.178 213.385C484.846 170.272 492.022 127.502 504.713 85.6482C509.529 69.769 514.814 53.363 523.399 38.9567C528.33 30.6824 535.24 22.6011 543.312 16.9132C550.491 11.8553 563.056 4.92407 572.58 6.58914C575.468 7.09432 577.491 8.4922 579.059 10.8313C581.711 14.7832 582.627 19.5887 582.605 24.169C582.481 50.9897 557.235 112.573 545.059 138.246C537.638 153.892 529.661 169.4 521.829 184.865C517.884 192.655 513.038 200.603 510.109 208.788C508.575 213.072 507.759 217.75 506.75 222.182C509.019 218.093 511.5 214.087 513.954 210.098C528.011 187.262 545.196 163.481 567.145 146.865C571.392 143.65 576.682 139.847 582.12 138.717C584.761 138.168 587.341 138.415 589.626 139.927C594.819 143.365 595.288 150.99 595.108 156.394C594.621 171.076 589.014 186.478 584.896 200.537C580.331 216.324 575.618 232.068 570.758 247.77C569.109 253.102 564.127 265.355 565.178 270.548C565.904 271.025 566.121 271.391 567.05 271.311C570.137 271.047 573.005 267.944 575.024 265.916C592.47 248.392 601.45 217.324 608.881 194.742C613.389 181.042 620.056 164.46 619.242 149.91C618.825 142.477 616.291 137.236 610.505 132.12C617.731 128.896 626.771 127.512 634.732 129.144C641.173 130.464 647.54 133.699 651.184 139.095C653.995 143.256 654.957 148.126 654.726 152.953C653.842 171.339 638.777 197.336 634.764 217.021L634.656 217.587C648.331 190.731 658.546 153.481 681.83 132.84C688.568 126.867 696.876 122.129 704.947 117.895C709.056 115.74 715.052 112.047 719.981 113.615C722.595 114.446 724.416 116.609 725.594 118.882C727.302 122.182 727.809 126.07 727.374 129.658C726.208 139.297 721.733 149.398 718.478 158.55C713.438 172.824 708.273 187.054 702.981 201.241C707.006 196.517 711.678 185.225 714.966 179.287C729.729 152.624 744.484 125.739 766.76 103.989C770.83 100.016 775.135 95.7355 780.338 93.0749C784.788 90.7971 789.725 89.7557 794.711 91.3507C799.205 92.7874 802.273 95.631 804.332 99.6518C806.635 104.154 807.421 109.611 806.826 114.516C805.364 126.581 799.901 138.723 795.533 150.061C787.688 170.426 778.847 190.6 771.879 211.263C770.281 216.001 765.67 227.066 768.026 231.422C768.969 232.127 769.391 232.564 770.674 232.495C778.294 232.087 787.089 221.21 791.054 215.953C807.377 194.317 844.968 118.36 839.665 93.1961C838.337 86.8972 834.172 83.1294 828.808 79.6213C835.157 75.808 842.695 72.9954 850.356 72.8535C857.431 72.7227 863.922 75.2018 868.995 79.9972C874.045 84.7702 876.45 91.04 876.863 97.6184C878.313 120.73 855.59 172.747 845.49 195.311C843.395 199.989 836.898 211.056 837.025 215.283C837.762 215.753 837.791 215.915 838.733 215.913C845.11 215.897 854.672 207.598 858.926 203.623C866.853 196.217 874.273 186.69 879.71 177.485C892.492 155.845 914.812 98.8339 917.209 74.1038C917.631 69.7408 917.977 64.7019 917.027 60.3692C916.234 56.7457 914.23 52.2418 914.348 48.6205C914.358 48.2878 914.385 47.9551 914.404 47.6218Z" fill="black"/>
<path d="M302.112 191.688C303.485 192.023 304.981 192.374 306.204 193.088C311.604 196.235 314.108 204.669 315.609 210.12C317.21 215.933 322.199 246.497 318.413 251.403C317.993 251.948 316.267 252.094 315.549 252.252C314.074 251.989 312.547 251.749 311.127 251.269C306.731 249.783 303.801 245.911 301.924 242.049C296.553 231 294.159 205.604 299.103 194.413C299.819 192.79 300.39 192.309 302.112 191.688Z" fill="#FEFEFE"/>
<path d="M846.574 289.716L846.859 290.23C845.722 295.212 843.535 300.082 841.751 304.877L832.332 330.348C817.902 335.9 803.177 340.887 788.7 346.372L788.412 345.971C789.471 342.875 792.183 339.701 794.162 337.079C808.072 318.652 827.052 302.712 846.574 289.716Z" fill="#FEFEFE"/>
<path d="M568.147 21.796L568.546 22.4066C568.969 30.9273 565.884 40.5005 563.633 48.6937C552.273 90.0354 534.862 130.001 515.541 168.409L515.04 168.39C515.823 162.777 517.424 157.087 518.629 151.534C525.186 121.326 545.33 42.0793 568.147 21.796Z" fill="#FEFEFE"/>
<path d="M444.849 45.1216C445.205 45.44 445.431 45.5948 445.656 46.0569C453.08 61.3107 400.906 180.495 391.57 201.96L390.998 203C390.966 202.846 390.919 202.694 390.901 202.54C390.472 198.701 393.471 187.829 394.361 183.654C401.75 148.975 423.287 71.7888 444.849 45.1216Z" fill="#FEFEFE"/>
<path d="M770.237 117.163C770.21 117.474 770.206 117.789 770.155 118.099C769.491 122.118 761.115 138.367 758.941 143.325C751.231 160.907 718.955 240.822 706.964 248.41C703.884 250.36 701.478 250.792 697.843 250.146C697.801 249.521 697.747 249.067 697.775 248.459C698.028 243.023 700.492 236.73 702.206 231.516C713.613 196.835 733.743 160.159 757.144 131.513C761.172 126.582 765.29 121.295 770.237 117.163Z" fill="#FEFEFE"/>
<path d="M281.831 254.288C294.059 264.607 300.908 267.099 317.097 268.041C315.35 289.409 306.428 320.284 294.274 337.978C293.431 339.056 292.536 340.095 291.59 341.094C289.84 342.975 287.083 346.088 284.107 345.838C282.531 345.707 281.232 344.471 280.406 343.274C267.533 324.614 277.633 275.11 281.831 254.288Z" fill="#FEFEFE"/>
<path d="M909.305 336.789C913.573 337.378 917.797 338.273 921.79 339.892C928.959 342.802 934.707 347.812 937.612 354.776C944.547 371.397 934.612 397.501 927.605 413.179C913.508 444.727 889.424 477.756 854.679 490.561C849.578 492.038 844.305 493.406 838.965 491.697C834.892 490.395 832.021 487.399 830.222 483.779C817.315 457.806 842.49 401.626 852.488 376.216C857.09 364.434 861.497 352.584 865.709 340.665C880.364 336.944 894.007 334.909 909.305 336.789Z" fill="#FEFEFE"/>
<path d="M175.652 326.004C175.765 327.393 175.571 328.651 175.399 330.026C174.204 339.575 172.223 349.053 170.603 358.54C162.892 403.669 153.597 450.078 128.4 489.494C122.378 498.912 115.497 508.29 106.153 515C98.7644 520.307 90.1924 523.369 80.7085 521.853C71.045 520.308 63.4768 514.611 57.8674 507.207C57.7273 506.993 57.5834 506.783 57.4469 506.567C48.4984 492.408 49.7475 475.842 53.5274 460.567C65.0101 414.166 108.501 374.941 146.333 346.558C155.695 339.535 165.379 331.8 175.652 326.004Z" fill="#FEFEFE"/>
<path d="M307.048 56.0946C311.109 58.322 315.561 62.012 318.392 65.5542C324.232 72.8663 325.094 82.1611 323.948 90.863C322.744 100.005 319.176 108.398 314.39 116.3C300.523 139.196 282.412 149.047 261.147 164.324C258.691 166.122 256.199 167.874 253.67 169.581C257.922 153.547 262.142 137.243 268.157 121.745C273.941 121.548 279.483 119.844 284.468 117.194C296.944 110.56 307.399 98.4379 311.06 85.2374C313.983 74.6975 312.885 65.638 307.048 56.0946Z" fill="black"/>
<path d="M698.782 613.703C700.444 615.836 701.424 618.52 702.544 620.934C694.063 626.995 685.321 632.704 676.319 638.06C667.316 643.417 658.085 648.402 648.624 653.015C576.627 688.498 480.046 695.885 401.642 672.193C399.575 671.652 397.493 670.793 395.465 670.102C399.506 668.464 403.503 666.732 407.782 665.686C422.395 669.348 437.027 672.462 451.982 674.424C454.703 674.806 457.427 675.156 460.156 675.473C462.885 675.79 465.617 676.076 468.351 676.329C471.086 676.582 473.823 676.802 476.562 676.991C479.3 677.178 482.041 677.334 484.783 677.457C487.525 677.581 490.267 677.671 493.009 677.729C495.753 677.788 498.495 677.813 501.237 677.806C503.979 677.8 506.72 677.761 509.46 677.689C512.2 677.617 514.937 677.513 517.672 677.377C520.408 677.24 523.141 677.071 525.871 676.87C528.601 676.668 531.326 676.434 534.048 676.167C536.77 675.901 539.488 675.603 542.2 675.272C544.914 674.941 547.621 674.578 550.323 674.183C553.024 673.788 555.72 673.36 558.409 672.901C561.098 672.442 563.78 671.95 566.455 671.427C569.129 670.904 571.796 670.349 574.456 669.763C577.114 669.176 579.764 668.558 582.405 667.909C585.046 667.259 587.677 666.577 590.298 665.864C592.92 665.152 595.532 664.408 598.133 663.633C600.733 662.859 603.323 662.053 605.901 661.217C608.478 660.38 611.044 659.513 613.598 658.615C616.152 657.717 618.692 656.789 621.22 655.831C623.748 654.872 626.263 653.883 628.764 652.865C631.264 651.846 633.75 650.798 636.222 649.719C638.693 648.642 641.149 647.534 643.59 646.397C646.031 645.26 648.456 644.094 650.865 642.899C653.274 641.704 655.666 640.48 658.041 639.228C660.416 637.976 662.774 636.695 665.114 635.386C667.454 634.078 669.776 632.741 672.079 631.376C674.383 630.011 676.668 628.62 678.934 627.2C681.199 625.78 683.445 624.334 685.671 622.861C687.898 621.388 690.104 619.888 692.289 618.361C694.474 616.835 696.638 615.282 698.782 613.703Z" fill="black"/>
<path d="M402.15 349.676L403.082 350.078C404.543 354.301 401.824 362.347 400.718 366.521C398.224 367.129 393.446 368.846 391.034 368.24C391.079 367.284 391.223 366.427 391.381 365.486C389.198 364.35 371.862 368.969 368.347 369.742C366.422 379.445 365.091 389.321 363.506 399.089C371.398 397.494 378.64 394.332 385.808 390.991C384.807 397 384.035 403.061 383.172 409.092C380.911 408.66 378.79 407.922 376.614 407.198L360.915 410.921C359.396 418.836 357.967 426.767 356.628 434.714C366.455 432.343 376.246 429.738 386.159 427.684L387.335 420.345C391.132 419.545 394.945 418.82 398.776 418.169L397.619 424.815L395.575 436.868C374.998 441.903 354.332 446.45 333.877 451.93C334.112 448.868 334.326 445.341 335.955 442.658C337.665 439.843 340.125 438.967 343.322 438.186C345.689 424.479 348.135 410.787 350.661 397.11C352.091 389.391 354.227 381.373 354.715 373.556C354.907 370.473 353.527 372.158 352.14 370.285C350.584 368.183 351.658 364.137 351.962 361.754C368.761 358.041 385.303 353.095 402.15 349.676Z" fill="black"/>
<path d="M472.514 333.369L473.002 333.85C473.488 338.498 471.069 346.817 470.193 351.674C466.449 352.831 462.675 353.767 458.85 354.668C458.807 352.797 458.88 350.924 458.916 349.055C450.864 350.781 442.858 352.52 434.941 354.716C433.351 363.91 431.644 373.081 429.821 382.231C434.983 381.273 440.228 380.408 445.198 378.78C449.217 377.463 452.838 375.324 457.06 374.596C456.476 379.194 455.931 383.771 454.901 388.296C445.92 390.505 436.856 391.633 427.955 394.317C426.549 402.481 424.891 410.604 423.446 418.762C431.078 416.983 439.288 415.573 446.61 412.945C452.969 410.663 448.184 408.542 459.316 407.079L458.306 412.155L456.251 423.104C437.739 426.748 419.464 431.4 401.036 435.385C401.473 431.781 402.072 428.224 402.719 424.653C405.179 423.911 407.602 423.149 410 422.248L416.741 383.667C418.412 374.294 420.641 364.717 421.11 355.192C418.677 355.832 416.186 356.294 413.717 356.802C413.669 353.554 414.197 350.361 414.636 347.158C427.576 343.37 441.248 341.307 454.406 338.2C460.47 336.768 466.245 333.712 472.514 333.369Z" fill="black"/>
<path d="M705.089 627.433C706.553 629.622 707.619 632.533 708.763 634.912C693.176 645.773 676.277 655.879 659.03 664.242C656.89 665.272 654.739 666.281 652.576 667.269C650.413 668.257 648.24 669.224 646.057 670.17C643.872 671.115 641.678 672.04 639.473 672.944C637.268 673.848 635.054 674.73 632.829 675.591C630.604 676.451 628.371 677.29 626.127 678.108C623.884 678.926 621.631 679.722 619.37 680.496C617.109 681.271 614.839 682.023 612.561 682.752C610.282 683.483 607.996 684.192 605.702 684.878C603.407 685.564 601.105 686.229 598.796 686.871C596.487 687.513 594.17 688.133 591.845 688.73C589.522 689.327 587.192 689.902 584.855 690.455C582.518 691.007 580.175 691.537 577.825 692.044C575.476 692.551 573.121 693.037 570.761 693.499C568.4 693.961 566.034 694.4 563.663 694.817C561.292 695.234 558.917 695.627 556.536 695.998C554.155 696.369 551.771 696.717 549.382 697.043C546.993 697.368 544.601 697.67 542.205 697.949C539.809 698.229 537.409 698.485 535.007 698.718C532.604 698.952 530.198 699.162 527.79 699.349C525.382 699.536 522.972 699.699 520.559 699.84C518.146 699.981 515.732 700.099 513.315 700.193C510.899 700.288 508.482 700.359 506.064 700.407C503.644 700.456 501.225 700.481 498.805 700.483C496.384 700.485 493.964 700.464 491.543 700.419C489.122 700.375 486.701 700.307 484.281 700.216C481.861 700.125 479.441 700.012 477.022 699.874C474.604 699.737 472.186 699.577 469.77 699.394C467.353 699.211 464.939 699.004 462.525 698.775C460.112 698.546 457.701 698.293 455.292 698.017C452.884 697.742 450.478 697.443 448.075 697.122C445.671 696.8 443.271 696.456 440.874 696.089C438.477 695.721 436.084 695.331 433.695 694.919C414.265 691.532 395.167 686.109 376.362 680.31C374.334 679.803 372.358 679.025 370.39 678.331C374.265 676.806 378.185 675.432 382.138 674.09C392.097 677.076 402.145 679.74 412.282 682.081C422.419 684.423 432.621 686.438 442.888 688.124C445.11 688.468 447.335 688.791 449.563 689.093C451.791 689.395 454.021 689.677 456.254 689.939C458.487 690.201 460.721 690.442 462.958 690.663C465.195 690.884 467.434 691.085 469.674 691.265C471.913 691.446 474.155 691.605 476.398 691.745C478.64 691.884 480.883 692.003 483.127 692.101C485.371 692.199 487.615 692.277 489.86 692.334C492.105 692.391 494.349 692.428 496.594 692.444C498.838 692.46 501.082 692.456 503.326 692.431C505.569 692.406 507.812 692.361 510.055 692.295C512.296 692.229 514.537 692.143 516.776 692.036C519.015 691.929 521.252 691.801 523.488 691.653C525.723 691.505 527.957 691.336 530.189 691.148C532.42 690.959 534.648 690.75 536.874 690.519C539.101 690.29 541.324 690.04 543.544 689.77C545.764 689.499 547.981 689.208 550.195 688.897C552.408 688.586 554.618 688.255 556.824 687.903C559.029 687.551 561.231 687.179 563.428 686.788C565.625 686.395 567.818 685.983 570.005 685.551C572.194 685.118 574.377 684.666 576.555 684.194C578.733 683.721 580.905 683.228 583.072 682.716C585.239 682.204 587.4 681.671 589.555 681.119C591.711 680.567 593.86 679.995 596.002 679.403C598.145 678.811 600.281 678.2 602.411 677.569C604.541 676.938 606.663 676.287 608.778 675.617C610.893 674.947 613.001 674.257 615.101 673.548C617.202 672.839 619.295 672.111 621.38 671.364C623.464 670.616 625.54 669.85 627.609 669.064C629.677 668.278 631.737 667.473 633.787 666.65C635.839 665.826 637.881 664.983 639.914 664.122C641.947 663.26 643.971 662.38 645.984 661.482C647.999 660.582 650.003 659.665 651.998 658.729C670.792 649.789 688.084 639.034 705.089 627.433Z" fill="black"/>
<path d="M520.98 316.891C521.115 316.952 521.267 316.983 521.383 317.073C523.073 318.386 526.965 353.831 527.887 359.275C528.756 364.407 533.108 394.368 535.826 396.274L538.856 395.678L539.436 396.183C539.712 399.229 538.727 402.622 538.152 405.615C529.561 407.316 520.952 408.936 512.323 410.475C512.706 407.329 513.261 404.248 513.876 401.141C516.447 400.303 519.139 399.752 521.778 399.124C521.167 395.125 520.114 391.148 519.209 387.194C515.713 387.841 495.575 390.844 493.587 392.395C493.147 392.739 492.829 393.202 492.449 393.605C490.132 397.575 488.186 401.755 486.154 405.866C488.273 405.682 490.39 405.347 492.497 405.075C492.264 408.589 491.644 411.918 490.907 415.357C481.582 417.98 471.707 419.289 462.125 420.945L463.077 411.843L469.585 409.227C475.91 400.331 480.387 389.722 485.346 380.053C492.749 365.618 500.393 351.302 507.664 336.804C510.617 330.916 513.174 324.287 516.644 318.726C517.436 317.46 519.566 317.235 520.98 316.891Z" fill="black"/>
<path d="M513.185 353.027C515.586 357.52 516.682 370.828 517.578 376.479C513.673 377.074 509.792 377.902 505.916 378.637L499.313 379.916C503.284 370.686 508.381 361.875 513.185 353.027Z" fill="#FEFEFE"/>
<path d="M600.708 307.9C601.656 308.027 601.373 307.957 602.298 308.211C608.102 309.807 613.356 312.663 616.298 317.883C619.594 323.73 619.291 330.714 617.269 336.799C613.743 347.408 605.198 354.292 594.994 359.066C598.869 366.743 602.71 374.367 607.558 381.564L616.311 379.92C615.903 383.081 615.278 386.233 614.742 389.375C609.254 390.563 603.748 391.579 598.106 391.913C590.632 385.118 586.655 371.454 581.379 362.662L572.237 364.311L570.984 372.552L568.196 389.399L575.716 388.54L573.9 398.012C564.205 400.616 554.12 402.329 544.248 404.299C544.822 400.901 545.539 397.585 546.375 394.242L554.766 392.172C557.562 369.278 562.519 346.393 566.551 323.678L559.979 324.22C560.057 320.942 560.501 317.698 560.886 314.448C573.222 311.014 587.743 307.515 600.708 307.9Z" fill="black"/>
<path d="M594.392 319.687C596.282 319.903 598.201 320.188 599.926 321.017C602.398 322.205 604.319 324.009 605.064 326.576C606.306 330.862 604.523 336.073 602.161 339.666C598.291 345.552 592.706 348.495 585.693 349.901C582.138 350.602 578.571 351.244 574.99 351.825C576.539 341.857 578.164 331.901 579.865 321.958C584.677 321.047 589.477 320.024 594.392 319.687Z" fill="#FEFEFE"/>
<path d="M681.115 291.249C686.883 291.535 693.09 293.169 698.017 296.124C704.971 300.294 709.559 306.858 711.42 314.369C714.658 327.442 710.517 342.155 703.161 353.149C689.584 373.441 668.669 377.631 645.368 382.364C638.017 383.879 630.65 385.331 623.267 386.719C623.938 383.071 624.717 379.445 625.603 375.842C628.207 375.284 630.792 374.626 633.38 374.01C635.285 365.416 636.321 356.521 637.854 347.841C640.242 334.318 642.973 320.866 645.267 307.323L637.769 307.836L638.772 297.597C650.002 294.368 669.419 291.038 681.115 291.249Z" fill="black"/>
<path d="M678.974 303.433C681.871 303.615 685.115 304.518 687.721 305.743C692.406 307.947 695.73 311.69 697.429 316.344C700.682 325.257 697.903 336.703 693.68 344.806C687.69 356.295 677.592 362.16 665.063 366.05C659.256 367.598 653.382 368.896 647.441 369.942C648.497 360.949 650.4 352.04 652.017 343.135C654.261 330.475 656.604 317.834 659.045 305.211C665.743 304.138 672.116 302.928 678.974 303.433Z" fill="#FEFEFE"/>
<path d="M329.031 360.353C333.712 361.166 338.916 363.109 341.875 366.827C344.342 369.928 345.157 374.037 344.587 377.783C342.378 392.305 309.028 414.131 296.162 423.179C300.984 422.606 305.864 422.039 310.747 422.14C315.866 422.246 322.211 423.05 325.877 426.866C327.882 428.952 328.564 431.551 328.346 434.285C327.494 445.002 315.826 455.519 307.695 461.852C291.499 474.468 271.886 482.133 254.011 492.3C227.973 507.111 203.21 524.213 179.502 542.118C176.708 544.328 174.045 546.692 171.354 549.014L171.697 546.625C172.003 544.574 172.187 542.272 173.098 540.382C174.886 536.675 178.282 533.077 181.008 529.944C184.527 525.941 188.177 522.047 191.956 518.262C195.735 514.477 199.637 510.81 203.662 507.259C207.686 503.708 211.826 500.281 216.08 496.977C220.334 493.673 224.695 490.499 229.162 487.456C233.613 462.856 237.808 438.141 242.998 413.684C237.595 416.82 232.524 420.424 227.074 423.51C222.97 421.548 215.803 418.313 213.937 414.16C214.334 412.47 215.281 411.686 216.667 410.556C223.669 404.848 232.589 400.526 240.512 395.972C259.3 385.176 280.931 371.707 301.492 364.597C310.564 361.459 319.289 359.613 329.031 360.353Z" fill="black"/>
<path d="M301.9 435.52C303.357 435.816 304.104 436.157 305.31 436.935C305.619 437.647 305.975 438.053 305.785 438.835C303.831 446.837 262.303 469.682 253.324 474.97L251.44 475.925C250.723 475.227 250.88 475.596 250.786 474.583C250.225 468.615 253.877 458.546 258.026 454.279C268.09 443.927 286.906 435.954 301.9 435.52Z" fill="#FEFEFE"/>
<path d="M322.252 378.868C323.044 379.158 322.71 378.903 323.154 379.739C317.049 390.929 272.527 422.572 259.893 433.132L259.416 433.296L258.908 432.926C258.987 426.563 263.381 410.688 265.481 404.395C280.997 394.42 303.994 383.216 322.252 378.868Z" fill="#FEFEFE"/>
<path d="M713.336 643.396C719.848 656.597 725.834 670.015 732.348 683.219C726.925 687.707 720.623 691.418 714.553 695.08C708.122 698.892 701.578 702.525 694.921 705.98C688.264 709.434 681.504 712.705 674.641 715.791C667.78 718.878 660.827 721.775 653.782 724.483C646.738 727.191 639.613 729.706 632.409 732.026C536.868 763.656 425.104 760.53 332.028 718.204C322.037 713.994 312.445 708.677 303.007 703.445C321.607 697.878 339.109 689.109 357.753 683.577C365.04 686.422 372.41 689.05 379.862 691.461C387.314 693.872 394.834 696.061 402.421 698.027C410.008 699.995 417.649 701.736 425.342 703.253C433.035 704.768 440.765 706.055 448.534 707.114C451.446 707.508 454.363 707.868 457.283 708.195C460.204 708.522 463.128 708.816 466.054 709.075C468.98 709.334 471.909 709.56 474.84 709.753C477.771 709.945 480.704 710.104 483.637 710.228C486.571 710.352 489.505 710.443 492.439 710.5C495.374 710.557 498.308 710.58 501.241 710.569C504.175 710.558 507.107 710.513 510.038 710.435C512.969 710.356 515.897 710.244 518.824 710.098C521.751 709.952 524.674 709.771 527.596 709.558C530.516 709.344 533.432 709.097 536.345 708.816C539.258 708.534 542.166 708.219 545.069 707.871C547.972 707.522 550.869 707.14 553.761 706.725C556.653 706.31 559.539 705.861 562.417 705.378C565.297 704.896 568.168 704.38 571.032 703.832C573.896 703.283 576.752 702.701 579.6 702.086C582.448 701.471 585.287 700.823 588.116 700.142C590.946 699.461 593.766 698.747 596.576 698.001C599.386 697.255 602.185 696.476 604.973 695.665C607.762 694.853 610.539 694.01 613.304 693.134C616.069 692.258 618.822 691.35 621.563 690.41C624.304 689.47 627.031 688.499 629.745 687.496C632.459 686.492 635.16 685.458 637.846 684.392C640.532 683.326 643.204 682.229 645.86 681.101C648.517 679.973 651.158 678.814 653.783 677.624C656.409 676.434 659.018 675.214 661.611 673.963C664.203 672.712 666.779 671.432 669.337 670.121C671.896 668.81 674.437 667.47 676.96 666.1C679.482 664.73 681.986 663.33 684.471 661.902C686.957 660.474 689.423 659.017 691.87 657.53C694.316 656.044 696.743 654.53 699.15 652.987C701.556 651.444 703.942 649.873 706.307 648.274C708.671 646.676 711.014 645.05 713.336 643.396Z" fill="black"/>
<path d="M737.074 456.055C738.575 456.239 740.17 456.377 741.616 456.833C743.432 457.404 744.985 458.451 745.84 460.124C747.486 463.341 748.633 466.916 750.1 470.221L761.692 495.638L802.564 583.412L837.623 659.365C842.862 670.8 850.055 683.279 853.75 695.079C855.689 701.268 855.878 707.725 853.678 713.804C849.69 724.83 837.277 731.986 826.785 736.83C812.896 743.243 793.106 750.623 777.508 745.254C772.439 743.509 768.338 740.363 765.722 735.857C762.527 730.351 761.103 722.497 758.883 716.439C755.873 708.228 752.146 700.165 748.472 692.188L690.783 566.531C681.671 546.684 673.328 526.289 663.371 506.806C655.768 509.215 648.337 512.277 640.907 515.116C640.658 520.332 640.715 526.004 639.247 531.038C638.394 533.967 636.843 536.997 634.341 538.954C630.617 541.866 625.783 543.906 621.56 546.138L600.304 557.485C565.293 576.38 530.104 594.71 494.66 612.88C456.287 632.811 415.112 650.371 374.419 665.8C355.412 673.007 336.137 679.623 317.044 686.633C307.789 690.032 283.421 700.248 274.907 700.789C266.887 701.298 258.961 698.18 252.903 693.206C241.406 683.765 233.667 667.769 232.547 653.649C231.542 640.977 235.842 630.325 244.558 620.979C245.465 620.001 246.424 619.071 247.436 618.191C248.448 617.31 249.505 616.481 250.61 615.706C251.715 614.93 252.86 614.212 254.046 613.551C255.232 612.891 256.453 612.291 257.707 611.751C265.035 608.68 272.801 606.248 280.319 603.594L320.516 589.477C369.45 572.433 418.523 555.738 467.734 539.392C507.908 525.739 547.771 511.354 588.138 498.184C597.19 495.232 613.263 488.231 622.113 488.054C627.908 487.938 631.926 491.861 635.752 495.473C642.155 493.412 648.732 491.534 654.899 488.926C655.969 486.253 657.066 483.96 659.185 481.88C668.865 472.383 705.594 460.659 720.085 457.722C725.728 456.578 731.28 455.999 737.074 456.055Z" fill="black"/>
<path d="M809.442 677.301C812.698 677.555 815.129 678.374 817.461 680.669C818.931 682.116 819.908 683.834 819.81 685.864C819.717 687.796 819.113 688.89 817.647 690.162C814.224 689.778 811.975 688.794 809.54 686.363C808.11 684.937 807.095 683.126 807.194 681.137C807.285 679.318 808.153 678.456 809.442 677.301Z" fill="#FEFEFE"/>
<path d="M793.738 708.959C794.565 709.089 795.406 709.242 796.211 709.472C799.005 710.27 801.485 713.018 802.831 715.378C803.671 716.851 804.284 718.823 803.454 720.394C802.739 721.749 801.814 721.858 800.415 722.332C796.457 721.522 793.045 720.083 790.707 716.756C789.81 715.479 789.394 713.962 789.87 712.477C790.493 710.531 791.954 709.773 793.738 708.959Z" fill="#FEFEFE"/>
<path d="M275.082 653.076C277.064 653.321 279.069 653.61 280.873 654.503C281.267 654.699 281.65 654.914 282.022 655.146C282.394 655.378 282.753 655.628 283.099 655.894C283.444 656.161 283.776 656.442 284.092 656.739C284.409 657.037 284.709 657.348 284.993 657.674C285.277 657.998 285.544 658.336 285.792 658.687C286.041 659.036 286.27 659.397 286.481 659.768C286.692 660.139 286.883 660.519 287.053 660.907C287.223 661.296 287.373 661.691 287.502 662.094C288.476 665.248 288.081 668.63 286.252 671.383C283.942 674.862 280.404 676.164 276.296 676.901C273.858 676.845 271.691 676.391 269.547 675.199C269.203 675.007 268.871 674.798 268.549 674.574C268.227 674.35 267.918 674.112 267.621 673.858C267.324 673.605 267.041 673.339 266.772 673.058C266.503 672.778 266.25 672.487 266.012 672.183C265.774 671.879 265.552 671.565 265.347 671.241C265.142 670.916 264.955 670.583 264.786 670.242C264.616 669.9 264.465 669.552 264.333 669.197C264.2 668.841 264.087 668.48 263.993 668.115C263.879 667.697 263.789 667.276 263.721 666.85C263.652 666.425 263.608 665.998 263.586 665.569C263.565 665.139 263.567 664.711 263.593 664.283C263.618 663.855 263.667 663.43 263.739 663.008C263.811 662.586 263.906 662.169 264.023 661.757C264.141 661.345 264.281 660.94 264.443 660.542C264.605 660.145 264.789 659.756 264.994 659.378C265.199 658.999 265.424 658.632 265.669 658.276C268.037 654.916 271.069 653.886 275.082 653.076Z" fill="#FEFEFE"/>
<path d="M693.899 492.359L699.041 490.39C699.775 497.567 704.044 505.987 706.616 512.817C711.805 526.622 717.078 540.399 722.435 554.148C731.566 577.733 740.174 601.302 747.89 625.311C746.925 624.838 746.936 624.182 746.538 623.259C729.922 579.35 710.385 536.329 693.899 492.359Z" fill="#FEFEFE"/>
<path d="M737.569 461.612C738.64 461.851 738.683 461.653 739.362 462.559C738.798 464.676 737.024 466.148 735.326 467.506C730.838 471.099 725.134 473.619 719.838 475.972C703.094 483.414 684.493 489.435 665.563 487.94C665.092 487.757 664.584 487.419 664.142 487.173C664.423 485.882 664.773 485.493 665.741 484.525C677.683 472.598 720.435 461.944 737.569 461.612Z" fill="#FEFEFE"/>
<path d="M620.458 499.58C621.114 499.735 621.972 499.885 622.596 500.173C624.107 500.87 625.073 501.886 625.601 503.396C627.064 507.573 629.071 526.496 626.541 529.627C620.793 536.739 475.096 597.781 454.86 605.406C436.99 612.14 418.3 618.109 399.755 623.081L399.352 622.338L398.723 623.063L398.997 623.25C399.375 622.625 399.29 622.599 400.079 622.19C403.407 620.469 408.227 619.563 411.861 618.311C419.57 615.632 427.201 612.772 434.753 609.73C456.926 600.887 478.644 590.956 500.556 581.562C529.212 569.278 558.055 557.325 586.27 544.176C598.225 538.604 612.124 534.158 622.847 526.652C622.477 519.295 622.264 511.866 620.736 504.603C610.156 506.444 598.073 511.919 587.822 515.368C559.326 524.954 530.983 534.957 502.396 544.309C468.441 556.136 434.42 567.801 400.333 579.302C386.542 584.015 372.894 589.101 359.063 593.714C337.725 600.832 316.678 608.436 295.558 616.074C285.96 619.544 274.943 622.391 266.067 627.23C258.336 631.445 253.431 637.709 248.931 644.829C249.979 641.685 251.074 638.588 252.67 635.658C256.316 628.961 261.543 624.684 268.541 621.232C276.542 617.284 285.287 614.337 293.7 611.213C307.946 605.929 322.248 600.78 336.608 595.766C381.223 579.976 426.065 564.756 471.133 550.106C505.529 538.809 539.662 526.76 573.924 515.115C589.343 509.876 604.785 504.099 620.458 499.58Z" fill="#FEFEFE"/>
<path d="M699.036 490.391C714.041 484.632 731.09 480.201 742.825 469.173C764.057 517.186 786.495 564.725 806.037 613.376C811.111 626.009 820.409 646.374 823.063 658.963C819.18 652.046 798.571 610.043 795.136 607.606C796.035 611.56 797.864 615.428 799.364 619.23C803.982 630.933 816.048 656.754 817.269 667.724C817.335 668.315 817.403 668.9 817.454 669.492C814.092 664.26 811.594 658.371 808.83 652.837C803.862 642.891 798.398 633.615 791.341 624.807C794.412 635.674 808.695 660.431 807.66 669.8L806.738 670.957L807.048 670.146C806.84 669.982 806.624 669.824 806.422 669.653C801.091 665.142 786.803 634.46 779.67 625.476C785.276 642.925 795.397 661.421 798.209 679.266C792.782 673.32 783.699 652.017 779.594 643.902C776.301 638.024 771.714 628.01 767.955 622.935C769.175 627.984 772.13 633.359 774.174 638.221C777.963 647.414 781.638 656.646 785.199 665.917C787.822 672.568 790.958 679.226 792.505 686.175C775.133 658.514 762.424 628.65 750.747 598.626C745.684 585.61 740.821 572.522 735.021 559.767C733.325 556.037 732.003 552.305 729.881 548.75C732.52 557.818 736.498 566.524 739.534 575.479C746.67 596.53 753.365 618.072 762.358 638.526C768.442 652.362 776.498 665.47 781.688 679.65C782.863 682.858 784.846 688.35 782.937 691.43C782.505 692.126 782.262 691.975 781.503 692.108C777.623 690.361 775.324 682.712 773.885 679.042C767.26 662.141 761.61 644.927 755.042 628.007C741.716 593.676 727.498 559.576 713.646 525.418C710.993 518.877 702.206 494.32 699.036 490.391Z" fill="#FEFEFE"/>
<path d="M914.404 47.6218C918.222 48.0346 921.825 48.4667 925.512 49.5921C935.788 52.7286 944.947 59.6105 949.964 68.7593C954.544 77.1114 954.768 86.7945 953.068 95.7828C951.45 104.336 947.736 112.555 944.514 120.628L932.426 151.012C921.146 179.77 910.635 208.792 900.893 238.076C912.78 232.147 925.162 227.198 936.524 220.367C955.582 208.908 969.518 197.026 974.253 175.49C975.359 174.757 976.517 174.527 977.887 174.782C981.994 175.548 986.093 179.91 988.242 183.105C992.306 189.148 992.606 195.43 991.109 202.116C987.582 217.867 974.225 234.138 958.031 239.602C949.914 242.34 941.13 243.304 932.937 245.911C929.334 247.036 925.771 248.262 922.248 249.59C918.726 250.916 915.251 252.341 911.822 253.864C908.393 255.388 905.017 257.008 901.693 258.723C898.37 260.437 895.105 262.244 891.898 264.144C889.069 270.693 887.187 277.767 884.971 284.544C881.346 295.627 877.631 306.681 873.828 317.707C891.163 315.364 908.87 314.764 925.712 320.714C938.508 325.234 949.591 333.496 955.421 345.402C965.827 366.657 958.297 398.035 950.22 418.982C937.147 452.881 908.884 494.116 873.174 509.039C859.293 514.839 842.557 516.726 827.991 511.19C815.863 506.581 807.968 496.718 802.914 485.642C790.145 457.663 801.215 421.846 809.646 394.284C813.683 381.085 817.943 367.817 823.238 355.036C805.722 361.331 788.849 369.717 771.919 377.24C771.896 383.44 772.217 389.555 774.377 395.507C777.824 405.013 784.33 410.912 793.629 415.402C792.059 419.911 790.756 424.516 789.373 429.083C785.072 427.51 780.986 425.7 777.12 423.279C762.776 414.298 755.951 400.993 752.372 385.62C731.09 394.937 710.228 405.187 688.891 414.406C668.156 423.348 647.161 431.73 625.908 439.554C604.655 447.377 583.176 454.629 561.472 461.311C496.86 480.866 430.784 495.923 366.152 515.495C323.228 528.493 281.206 542.546 242.084 563.874C250.831 575.246 261.956 584.92 273.124 594.116C269.589 595.253 266.174 596.511 262.753 597.911C257.477 593.403 252.445 588.663 247.655 583.692C242.866 578.721 238.344 573.543 234.089 568.157C231.808 569.207 229.572 570.395 227.325 571.512C231.516 576.586 235.902 581.506 240.484 586.27C245.065 591.035 249.829 595.63 254.774 600.057C252.131 601.269 249.893 602.819 247.539 604.455C237.294 595.798 228.069 585.948 219.229 576.021C216.5 577.323 213.89 578.818 211.261 580.286C219.277 591.188 230.039 600.682 239.795 610.212C224.984 625.186 220.582 637.483 221.352 658.062C216.018 653.92 211.256 648.822 206.444 644.139C189.667 627.808 175.405 611.426 162.134 592.422C129.848 606.549 96.0248 621.823 59.9435 624.776C107.144 608.4 141.825 577.631 180.617 549.056C220.327 519.805 262.472 492.748 309.453 474.787C339.723 463.213 372.238 455.661 403.864 447.857C448.502 436.878 493.362 426.712 538.444 417.36L613.706 401.817C625.688 399.285 637.798 397.016 649.662 394.054C673.489 388.105 697.02 380.276 720.03 372.064C731.722 367.892 743.472 363.81 754.882 359.001C758.078 351.689 761.423 344.687 766.05 338.077C786.893 308.305 827.048 281.733 857.084 260.531C864.174 243.045 869.607 224.408 874.951 206.342C866.799 215.897 858.624 226.067 847.596 232.813C839.703 237.64 820.011 243.819 810.634 241.607C804.219 240.094 801.188 234.001 798.159 229.04C794.815 234.394 791.57 240.356 787.118 244.929C784.925 247.181 782.426 249.056 779.424 250.266C771.875 253.31 753.416 255.283 744.985 255.574C744.76 255.482 744.535 255.391 744.312 255.297C736.582 252.018 734.724 244.802 731.884 237.919C725.044 245.92 720.546 256.84 711.027 262.455C704.951 266.038 673.385 273.111 666.984 271.322C664.728 270.691 663.133 269.05 662.065 267.122C658.232 260.203 659.094 249.709 660.116 242.335C661.781 230.325 665.544 218.368 669.065 206.786C675.231 187.241 681.701 167.792 688.475 148.44C664.287 169.41 638.741 222.391 632.917 252.743C631.209 261.646 631.078 269.379 636.692 277.227C631.307 279.142 609.937 284.302 604.834 284.684C602.114 284.887 599.247 284.33 597.196 282.471C593.232 278.881 592.027 271.213 591.701 266.263C586.952 274.05 582.609 282.098 578.27 290.1C571.522 292.365 547.071 299.224 540.65 297.615C537.1 296.726 534.134 294.138 532.271 291.212C517.238 267.607 548.646 201.859 555.354 175.819C535.417 194.376 517.147 224.546 506.477 249.092C500.546 262.739 493.703 281.841 496.3 296.877C497.058 301.265 499.067 305.373 500.868 309.467C489.308 313.057 477.056 315.257 465.334 318.511C465.803 309.582 465.692 300.553 465.839 291.605C460.328 301.442 453.752 312.028 444.124 318.678C437.433 323.3 427.789 327.224 419.302 325.691C418.689 325.575 418.084 325.431 417.485 325.258C416.887 325.085 416.299 324.883 415.721 324.655C415.143 324.426 414.577 324.171 414.025 323.889C413.473 323.607 412.937 323.3 412.417 322.967C411.896 322.634 411.394 322.278 410.91 321.898C410.427 321.519 409.964 321.118 409.521 320.694C409.08 320.272 408.661 319.83 408.265 319.368C407.869 318.906 407.499 318.426 407.153 317.93C403.959 313.407 402.697 307.76 402.151 302.462C399.49 276.685 412.409 250.957 420.501 227.042C422.503 221.125 424.716 215.107 425.863 208.964L426.01 208.157C411.142 226.335 381.211 276.989 376.838 298.947C374.097 312.713 375.118 322.292 383.508 334.138C374.029 338.326 360.869 341.631 350.343 342.499C347.684 340.414 344.985 337.876 343.012 335.192C332.869 321.388 340.679 303.373 343.574 288.827C345.595 278.295 347.503 267.742 349.3 257.17C345.66 258.733 342.192 260.475 338.712 262.33C333.518 291.364 325.39 329.432 304.488 351.992C297.908 359.094 288.307 364.836 277.999 365.146C267.377 365.466 257.589 360.709 249.884 353.978C233.63 337.413 231.661 318.292 231.851 296.837C229.235 298.28 226.776 300.002 224.285 301.625C222.37 311.627 222.09 322.451 220.987 332.603C218.659 354.029 216.136 375.516 212.493 396.756C209.419 414.187 205.485 431.426 200.69 448.473C189.865 487.292 174.894 524.762 138.711 548.515C123.063 558.788 102.596 564.963 83.2868 561.496C66.6766 558.515 51.76 548.457 42.1268 535.338C27.6333 515.598 24.8695 490.508 29.0989 467.62C39.1017 413.489 88.1561 365.921 131.886 333.639C147.207 322.33 163.525 312.14 179.616 301.835C182.252 288.241 183.337 274.072 184.852 260.301C188.563 226.575 191.431 192.72 199.174 159.618C190.021 167.227 182.32 177.26 174.684 186.21C135.335 232.33 91.1618 300.768 76.097 358.838C73.6219 359.16 71.2374 359.491 68.7386 358.967C64.1828 358.012 60.8129 355.269 58.3958 351.542C49.8095 338.301 51.786 320.173 55.3903 306.022C69.19 251.842 127.357 184.547 172.442 150.727C183.389 142.516 195.466 135.967 207.488 129.275C209.859 124.007 211.362 118.165 213.451 112.754C220.795 93.7301 231.703 75.3419 249.175 63.1955C258.471 56.7324 269.569 52.1976 281.447 54.0457C287.258 54.9503 292.892 57.3437 296.415 62.025C299.949 66.7214 300.791 72.6486 299.858 78.1732C299.754 78.805 299.633 79.4335 299.495 80.0586C299.357 80.6843 299.204 81.3059 299.034 81.9232C298.864 82.5405 298.678 83.1532 298.475 83.7613C298.272 84.3694 298.054 84.9723 297.819 85.5699C297.585 86.1671 297.335 86.758 297.07 87.3428C296.804 87.9276 296.523 88.5056 296.227 89.077C295.931 89.6482 295.62 90.2118 295.294 90.7677C294.968 91.3236 294.627 91.8712 294.272 92.4105C293.917 92.9499 293.548 93.4804 293.164 94.0018C292.781 94.5234 292.384 95.0356 291.974 95.5383C291.564 96.0404 291.14 96.5324 290.703 97.0143C290.266 97.4962 289.817 97.9675 289.355 98.4283C288.893 98.8883 288.419 99.3372 287.933 99.775C287.447 100.213 286.95 100.639 286.441 101.053C285.932 101.466 285.413 101.868 284.883 102.257C284.352 102.646 283.811 103.022 283.261 103.385C276.005 108.142 269.019 109.046 260.331 107.482C242.212 150.08 234.085 196.814 229.005 242.47C227.567 255.396 226.015 268.408 225.36 281.409C229.124 279.725 232.728 277.966 236.282 275.921C240.007 260.803 245.657 246.582 253.981 233.253C257.403 227.773 262.056 222.552 264.588 216.635C266.126 213.041 266.377 209.354 266.674 205.521C267.532 194.429 269.457 185.706 278.146 177.796C283.347 173.059 290.454 171.37 297.587 171.65C305.797 171.973 313.179 175.489 318.749 181.202C334.381 197.234 340.047 223.768 339.439 244.622C344.135 241.828 348.593 238.656 353.034 235.522C357.798 206.264 363.071 176.53 370.282 147.76C378.798 113.781 397.553 54.4748 431.011 35.9119C436.537 32.8463 443.597 30.8316 450.016 32.5946C453.336 33.5069 455.869 35.4631 457.569 38.3157C460.528 43.2756 460.898 49.637 460.486 55.1519C459.314 70.8494 452.97 87.2408 447.704 101.995C436.128 133.631 423.231 164.754 409.013 195.365C399.504 216.077 386.136 241.81 379.781 263.3C392.194 240.925 425.701 178.886 449.037 169.466C452.234 168.175 455.832 167.652 459.148 169.057C480.625 178.164 457.606 229.19 452.424 243.102C447.931 255.164 443.342 267.191 439.563 279.49C438.428 283.18 435.244 291.717 437.458 295.308C438.122 296.386 438.809 297.024 440.132 297.285C445.325 298.308 451.393 291.44 454.165 287.991C459.48 281.375 467.488 269.541 470.253 261.722C474.382 250.041 476.135 226.592 478.178 213.385C484.846 170.272 492.022 127.502 504.713 85.6482C509.529 69.769 514.814 53.363 523.399 38.9567C528.33 30.6824 535.24 22.6011 543.312 16.9132C550.491 11.8553 563.056 4.92407 572.58 6.58914C575.468 7.09432 577.491 8.4922 579.059 10.8313C581.711 14.7832 582.627 19.5887 582.605 24.169C582.481 50.9897 557.235 112.573 545.059 138.246C537.638 153.892 529.661 169.4 521.829 184.865C517.884 192.655 513.038 200.603 510.109 208.788C508.575 213.072 507.759 217.75 506.75 222.182C509.019 218.093 511.5 214.087 513.954 210.098C528.011 187.262 545.196 163.481 567.145 146.865C571.392 143.65 576.682 139.847 582.12 138.717C584.761 138.168 587.341 138.415 589.626 139.927C594.819 143.365 595.288 150.99 595.108 156.394C594.621 171.076 589.014 186.478 584.896 200.537C580.331 216.324 575.618 232.068 570.758 247.77C569.109 253.102 564.127 265.355 565.178 270.548C565.904 271.025 566.121 271.391 567.05 271.311C570.137 271.047 573.005 267.944 575.024 265.916C592.47 248.392 601.45 217.324 608.881 194.742C613.389 181.042 620.056 164.46 619.242 149.91C618.825 142.477 616.291 137.236 610.505 132.12C617.731 128.896 626.771 127.512 634.732 129.144C641.173 130.464 647.54 133.699 651.184 139.095C653.995 143.256 654.957 148.126 654.726 152.953C653.842 171.339 638.777 197.336 634.764 217.021L634.656 217.587C648.331 190.731 658.546 153.481 681.83 132.84C688.568 126.867 696.876 122.129 704.947 117.895C709.056 115.74 715.052 112.047 719.981 113.615C722.595 114.446 724.416 116.609 725.594 118.882C727.302 122.182 727.809 126.07 727.374 129.658C726.208 139.297 721.733 149.398 718.478 158.55C713.438 172.824 708.273 187.054 702.981 201.241C707.006 196.517 711.678 185.225 714.966 179.287C729.729 152.624 744.484 125.739 766.76 103.989C770.83 100.016 775.135 95.7355 780.338 93.0749C784.788 90.7971 789.725 89.7557 794.711 91.3507C799.205 92.7874 802.273 95.631 804.332 99.6518C806.635 104.154 807.421 109.611 806.826 114.516C805.364 126.581 799.901 138.723 795.533 150.061C787.688 170.426 778.847 190.6 771.879 211.263C770.281 216.001 765.67 227.066 768.026 231.422C768.969 232.127 769.391 232.564 770.674 232.495C778.294 232.087 787.089 221.21 791.054 215.953C807.377 194.317 844.968 118.36 839.665 93.1961C838.337 86.8972 834.172 83.1294 828.808 79.6213C835.157 75.808 842.695 72.9954 850.356 72.8535C857.431 72.7227 863.922 75.2018 868.995 79.9972C874.045 84.7702 876.45 91.04 876.863 97.6184C878.313 120.73 855.59 172.747 845.49 195.311C843.395 199.989 836.898 211.056 837.025 215.283C837.762 215.753 837.791 215.915 838.733 215.913C845.11 215.897 854.672 207.598 858.926 203.623C866.853 196.217 874.273 186.69 879.71 177.485C892.492 155.845 914.812 98.8339 917.209 74.1038C917.631 69.7408 917.977 64.7019 917.027 60.3692C916.234 56.7457 914.23 52.2418 914.348 48.6205C914.358 48.2878 914.385 47.9551 914.404 47.6218Z" fill="black"/>
<path d="M302.112 191.688C303.485 192.023 304.981 192.374 306.204 193.088C311.604 196.235 314.108 204.669 315.609 210.12C317.21 215.933 322.199 246.497 318.413 251.403C317.993 251.948 316.267 252.094 315.549 252.252C314.074 251.989 312.547 251.749 311.127 251.269C306.731 249.783 303.801 245.911 301.924 242.049C296.553 231 294.159 205.604 299.103 194.413C299.819 192.79 300.39 192.309 302.112 191.688Z" fill="#FEFEFE"/>
<path d="M846.574 289.716L846.859 290.23C845.722 295.212 843.535 300.082 841.751 304.877L832.332 330.348C817.902 335.9 803.177 340.887 788.7 346.372L788.412 345.971C789.471 342.875 792.183 339.701 794.162 337.079C808.072 318.652 827.052 302.712 846.574 289.716Z" fill="#FEFEFE"/>
<path d="M568.147 21.796L568.546 22.4066C568.969 30.9273 565.884 40.5005 563.633 48.6937C552.273 90.0354 534.862 130.001 515.541 168.409L515.04 168.39C515.823 162.777 517.424 157.087 518.629 151.534C525.186 121.326 545.33 42.0793 568.147 21.796Z" fill="#FEFEFE"/>
<path d="M444.849 45.1216C445.205 45.44 445.431 45.5948 445.656 46.0569C453.08 61.3107 400.906 180.495 391.57 201.96L390.998 203C390.966 202.846 390.919 202.694 390.901 202.54C390.472 198.701 393.471 187.829 394.361 183.654C401.75 148.975 423.287 71.7888 444.849 45.1216Z" fill="#FEFEFE"/>
<path d="M770.237 117.163C770.21 117.474 770.206 117.789 770.155 118.099C769.491 122.118 761.115 138.367 758.941 143.325C751.231 160.907 718.955 240.822 706.964 248.41C703.884 250.36 701.478 250.792 697.843 250.146C697.801 249.521 697.747 249.067 697.775 248.459C698.028 243.023 700.492 236.73 702.206 231.516C713.613 196.835 733.743 160.159 757.144 131.513C761.172 126.582 765.29 121.295 770.237 117.163Z" fill="#FEFEFE"/>
<path d="M281.831 254.288C294.059 264.607 300.908 267.099 317.097 268.041C315.35 289.409 306.428 320.284 294.274 337.978C293.431 339.056 292.536 340.095 291.59 341.094C289.84 342.975 287.083 346.088 284.107 345.838C282.531 345.707 281.232 344.471 280.406 343.274C267.533 324.614 277.633 275.11 281.831 254.288Z" fill="#FEFEFE"/>
<path d="M909.305 336.789C913.573 337.378 917.797 338.273 921.79 339.892C928.959 342.802 934.707 347.812 937.612 354.776C944.547 371.397 934.612 397.501 927.605 413.179C913.508 444.727 889.424 477.756 854.679 490.561C849.578 492.038 844.305 493.406 838.965 491.697C834.892 490.395 832.021 487.399 830.222 483.779C817.315 457.806 842.49 401.626 852.488 376.216C857.09 364.434 861.497 352.584 865.709 340.665C880.364 336.944 894.007 334.909 909.305 336.789Z" fill="#FEFEFE"/>
<path d="M175.652 326.004C175.765 327.393 175.571 328.651 175.399 330.026C174.204 339.575 172.223 349.053 170.603 358.54C162.892 403.669 153.597 450.078 128.4 489.494C122.378 498.912 115.497 508.29 106.153 515C98.7644 520.307 90.1924 523.369 80.7085 521.853C71.045 520.308 63.4768 514.611 57.8674 507.207C57.7273 506.993 57.5834 506.783 57.4469 506.567C48.4984 492.408 49.7475 475.842 53.5274 460.567C65.0101 414.166 108.501 374.941 146.333 346.558C155.695 339.535 165.379 331.8 175.652 326.004Z" fill="#FEFEFE"/>
</g>
<defs>
<clipPath id="clip0_17_283">
<rect width="1024" height="771" fill="white"/>
</clipPath>
</defs>
</svg>
