<svg width="163" height="140" viewBox="0 0 163 140" fill="none" xmlns="http://www.w3.org/2000/svg">
<g clip-path="url(#clip0_154_3195)">
<path d="M57.3163 123.893C59.2521 123.928 61.3644 124.093 63.2803 123.845L63.1268 124.228C63.0304 124.204 62.9443 124.191 62.8447 124.198L57.473 124.232L57.3163 123.893Z" fill="white"/>
<path d="M40.369 123.979L45.6158 123.975C46.2395 123.981 46.6375 124.024 47.0933 123.576L47.1363 124.048C46.7015 124.414 41.5479 124.227 40.6537 124.169L40.369 123.979Z" fill="white"/>
<path d="M132.609 0.516602C132.895 1.46395 132.913 10.3082 132.656 11.0277L132.319 11.1786C132.16 11.0484 132.01 10.9508 131.943 10.7469L132.232 10.7021C132.283 10.6575 132.351 10.6267 132.386 10.5683C132.626 10.1693 132.417 1.96361 132.609 0.516602Z" fill="white"/>
<path d="M89.0995 0H90.0639L90.4408 0.605769L90.4947 8.4007C90.4947 9.01121 90.6681 10.5412 90.3143 11.0109C89.9341 11.1253 89.6439 11.1962 89.2422 11.1694C89.183 11.0715 89.078 10.9411 89.0414 10.8365C88.8518 10.2876 88.9821 8.87223 88.9784 8.25876L88.9762 3.32061C88.9794 2.22091 88.9207 1.08776 89.0995 0Z" fill="white"/>
<path d="M103.251 0H103.643C103.929 0.203668 104.084 0.355477 104.237 0.672404C104.087 1.52216 103.446 1.35041 102.899 1.84111C102.718 2.00373 102.528 2.45927 102.419 2.69231C101.817 3.97051 101.808 8.03002 102.683 9.21889C103.167 9.87673 104.103 9.83861 104.396 10.6346L104.192 10.9712C103.637 11.1501 103.173 11.1903 102.608 11.0116C101.921 10.7944 101.469 10.2432 101.167 9.61003C100.208 7.59683 100.232 4.01148 101.011 1.95192C101.45 0.795049 102.2 0.492439 103.251 0Z" fill="white"/>
<path d="M30.4344 140L30.5588 139.797L30.6824 139.821C31.3481 139.93 32.2432 139.786 32.9415 139.785L39.7866 139.784L65.1042 139.781H113.614L129.196 139.784C130.83 139.786 132.532 139.996 134.15 139.926L134.161 140H30.4344Z" fill="white"/>
<path d="M61.765 0H61.9443C62.7008 0.39429 63.6598 0.14264 64.4729 0.311275C64.8628 0.392119 65.0119 0.624276 65.2133 0.93667L65.0954 1.27885C64.4185 1.51036 63.7062 1.48971 62.9997 1.50629C63.1742 2.90116 63.1235 4.51938 63.025 5.92308C63.3217 6.36871 63.6292 6.08359 64.1062 6.23183C64.4988 6.35395 64.6517 6.43246 64.831 6.79808L64.6748 7.15438C64.3044 7.49269 63.8731 7.50675 63.396 7.56813C63.0508 8.00805 63.1359 9.10431 63.0875 9.70819C63.6975 9.72941 64.6345 9.81782 65.1487 10.1635C65.2736 10.5124 65.2688 10.5002 65.111 10.8365C64.2069 11.229 62.5921 11.0579 61.5943 11.0964C61.4468 10.1382 61.5437 9.11201 61.4403 8.13599C61.3902 7.66371 61.2023 7.25965 61.1043 6.79808C61.7235 5.32591 61.4995 3.52567 61.5162 1.95054C61.5232 1.2901 61.4392 0.595867 61.765 0Z" fill="white"/>
<path d="M33.4505 0H34.2026C34.3603 0.236374 34.5283 0.493629 34.6201 0.763808C35.2294 2.55603 35.2663 4.83574 35.5237 6.71058L36.0418 9.7538C36.0937 10.1474 36.203 10.5998 36.0318 10.9712C35.9182 11.0291 35.7846 11.1014 35.6575 11.1196C34.5397 11.2789 34.8526 9.5816 34.1527 9.08654C32.8115 9.09817 33.2326 10.5086 32.4345 11.0451C32.0561 11.1139 31.9577 11.181 31.617 10.9712L31.5754 10.8029C31.5015 10.4371 31.6222 10.014 31.6648 9.64212L32.0835 6.70271L32.8359 2.03496C32.9825 1.29772 33.0235 0.650052 33.4505 0Z" fill="white"/>
<path d="M115.782 0H116.536C116.785 0.345799 116.951 0.756609 117.051 1.16913C117.255 2.01123 117.259 2.86453 117.393 3.71436L117.984 7.52597C118.179 8.60456 118.487 9.79122 118.418 10.8905C118.083 11.1454 117.962 11.1129 117.556 11.1166C117.014 10.6101 116.963 9.89558 116.675 9.22115C116.306 9.08056 116.194 9.15525 115.829 9.26369C115.347 9.62694 115.156 10.3575 114.938 10.9031C114.611 11.0975 114.431 11.1705 114.049 11.1251L113.856 10.8365C114.05 8.67914 114.429 6.55652 114.758 4.41842C114.971 3.03622 114.968 1.18127 115.782 0Z" fill="white"/>
<path d="M75.1092 0H75.366C75.7871 0.319986 76.4807 0.274428 76.9922 0.403772C77.5807 0.552499 78.0115 0.860235 78.4816 1.23142C78.8747 2.00992 79.0798 2.75237 79.082 3.62895C79.0852 4.99554 78.5193 6.00837 77.5845 6.94034C77.9582 7.43971 78.3206 7.97225 78.5645 8.54883C78.83 9.17603 79.2031 10.3696 78.9441 10.9969C78.4934 11.0538 78.019 11.1695 77.5894 10.9791L77.0078 8.81731C76.8759 8.42784 76.8247 8.24783 76.4537 8.06653C75.9632 8.64861 76.7079 10.1862 76.2917 10.9712C76.1705 11.0333 76.0521 11.0773 75.9153 11.0926C75.5055 11.1381 75.169 11.107 74.8723 10.8365L74.8007 3.27587C74.8007 2.35918 74.5756 0.763232 75.1092 0Z" fill="white"/>
<path d="M128.248 0H128.774H131.542H132.339L132.609 0.516961C132.417 1.96397 132.626 10.1697 132.386 10.5687C132.351 10.6271 132.283 10.6579 132.232 10.7025L131.943 10.7473C130.843 9.00011 130.621 6.77955 129.464 5.07341C129.488 6.23388 130.107 10.1092 129.595 11.0008C129.351 11.0623 129.117 11.1186 128.863 11.0992C128.484 11.0702 128.425 11.0563 128.172 10.7692L128.129 3.74642C128.134 2.51917 128.051 1.21239 128.248 0ZM128.774 0L130.233 3.53405C130.533 4.33084 130.831 5.384 131.315 6.07826C131.329 4.63871 131.178 3.20848 131.228 1.76968C131.25 1.13639 131.236 0.570683 131.542 0H128.774Z" fill="white"/>
<path d="M45.8863 0H46.4354H50.8022H51.1791L51.2277 0.338642C51.3354 1.63915 51.5596 10.4694 51.0787 11.0197C50.7107 11.1112 50.3749 11.2352 50.0018 11.1136C49.7521 10.7182 49.8087 10.2203 49.8019 9.76801C49.7851 8.63892 49.7864 7.51999 49.8895 6.39423L49.7142 6.24233C49.313 6.69475 49.1661 7.37563 48.9813 7.94231C48.6923 8.17912 48.6878 8.21003 48.3191 8.20034C47.8475 7.51041 47.682 6.53579 47.3552 5.74603L47.2038 10.8806C46.7911 11.1409 46.6406 11.1319 46.1653 11.16C45.7192 10.5267 45.871 8.89878 45.8686 8.10002L45.8863 0ZM46.4354 0L48.6164 5.75788C49.1681 3.99682 49.7252 1.48852 50.8022 0H46.4354Z" fill="white"/>
<path d="M0.812824 76.8989C0.726278 75.1661 0.919315 73.3897 1.01025 71.6564C1.3882 64.4529 2.39314 56.5994 5.59716 50.0386C6.65677 47.869 7.83256 45.9154 9.5531 44.1992C12.3939 41.3655 15.7081 40.1044 19.7174 40.1213C21.4263 40.1285 23.0269 40.3995 24.6946 40.76L24.7683 45.7227C23.8122 45.506 22.8623 45.1943 21.884 45.1071C20.2019 44.9572 18.1724 45.5718 16.7644 46.448C12.4125 49.1562 10.5283 55.2129 9.481 59.9417C8.39983 64.8233 7.96868 69.6539 7.72933 74.6347C7.47965 79.8303 7.45881 84.9597 7.76013 90.1536C8.22219 98.118 8.9476 107.366 13.2994 114.292C14.775 116.641 17.0005 118.576 19.7453 119.187C21.3416 119.542 23.2128 119.333 24.8157 119.092L24.7429 122.336C24.7437 122.812 24.8249 123.368 24.5595 123.781C23.8206 124.148 22.9979 124.202 22.1887 124.287C19.5978 124.56 17.2072 124.414 14.7295 123.585C10.7069 122.239 7.69476 118.485 5.89502 114.797C2.394 107.622 1.29762 99.3027 0.961659 91.4158C0.901184 89.9964 0.667606 88.4333 0.812942 87.0268L0.53064 86.9073V77.082L0.812824 76.8989ZM0.53064 77.082V86.9073L0.812942 87.0268C1.08074 85.8196 0.742746 84.306 0.74147 83.0594C0.73939 81.0267 0.991333 78.9149 0.812824 76.8989L0.53064 77.082Z" fill="white"/>
<path d="M0.53064 77.0815L0.812824 76.8984C0.991333 78.9144 0.73939 81.0263 0.74147 83.059C0.742746 84.3055 1.08074 85.8191 0.812942 87.0264L0.53064 86.9068V77.0815Z" fill="white"/>
<path d="M101.699 40.5868C101.932 40.5632 102.071 40.6298 102.277 40.7215L102.316 45.6401L93.2846 45.6197C91.5346 45.6223 89.7082 45.735 87.9738 45.5201C88.1881 48.0781 88.0109 50.7842 88.012 53.3566L88.0179 69.1151L88.0185 82.6805C88.0179 85.0261 88.1924 87.5046 87.9237 89.8324L98.967 89.6445L98.9724 94.8272C98.3408 95.0985 96.8955 94.9198 96.1616 94.9192L91.2778 94.9112C90.1545 94.9106 89.0464 94.9688 87.9296 94.8072C88.0944 95.9579 88.0077 97.2088 88.0093 98.3708L88.0168 104.743L88.0206 113.643C88.0201 115.386 88.1062 117.165 87.9361 118.899L102.28 118.732L102.282 121.926L102.275 123.845L81.229 123.979C80.9065 123.477 81.0728 118.779 81.0734 117.889L81.0815 102.439C81.0825 99.9598 80.8946 97.3682 81.1105 94.9052C80.2748 95.0458 79.3751 94.9462 78.5302 94.9139C78.3902 93.4783 78.2944 91.381 78.646 89.9907C79.283 89.5341 80.4337 89.6999 81.2085 89.7193C80.8192 87.5929 81.082 85.0756 81.0815 82.9062L81.0777 68.7839L81.0745 50.115L81.0739 44.6305C81.0739 43.3163 81.0282 41.9826 81.2209 40.6794L101.699 40.5868Z" fill="white"/>
<path d="M40.3692 123.979C40.306 123.886 40.251 123.791 40.207 123.688C39.891 122.944 40.1263 66.0022 40.123 59.5417L40.1187 45.9751L40.1236 42.6317C40.1253 42.046 40.0413 41.3621 40.2779 40.819C40.3784 40.7471 40.4529 40.6852 40.5786 40.6643C41.5259 40.5068 42.7453 40.6577 43.7166 40.6637C48.4611 40.6931 53.0372 41.1331 56.8789 44.2477C62.0794 48.4644 63.5542 54.4673 64.2257 60.8254C64.496 62.4176 64.3996 64.1989 64.384 65.8126C64.3738 66.9089 64.4475 68.1334 64.2208 69.2076C63.4164 77.6814 59.7893 85.7987 53.0978 91.2528L51.8877 92.0734C58.4313 99.4611 62.0686 109.359 63.1525 119.067C63.3055 120.437 63.5688 122.069 63.4535 123.439C63.4401 123.594 63.3728 123.724 63.2802 123.845C61.3643 124.093 59.2519 123.928 57.3162 123.893C57.2655 123.839 57.0986 123.699 57.0776 123.641C56.9452 123.272 57.0286 122.422 57.0017 121.991L56.6269 117.623C56.4648 116.017 56.1391 114.308 55.7476 112.743C54.0658 106.014 50.9733 100.215 46.9976 94.5654C46.947 94.6979 46.942 94.6575 46.9569 94.7765C47.3461 97.9109 47.0556 101.334 47.0556 104.506L47.0935 123.576C46.6376 124.023 46.2396 123.98 45.616 123.975L40.3692 123.979ZM47.085 45.5129L46.9356 89.3127C49.1685 88.0366 50.9885 86.1843 52.4797 84.1031C53.4195 82.5895 54.3118 81.049 54.9808 79.3916C57.0168 74.351 57.5105 69.0456 57.4179 63.662C57.3705 60.9256 57.209 58.1363 56.5882 55.4639C55.8392 52.2411 54.4989 48.7266 51.5555 46.8972C50.1981 46.0535 48.6301 45.8066 47.085 45.5129ZM64.2257 60.8254C63.9188 62.2254 64.0485 63.7789 64.0555 65.2085C64.0625 66.5223 63.9624 67.9196 64.2208 69.2076C64.4475 68.1334 64.3738 66.9089 64.384 65.8126C64.3996 64.1989 64.496 62.4176 64.2257 60.8254Z" fill="white"/>
<path d="M64.2256 60.8262C64.496 62.4184 64.3996 64.1996 64.384 65.8134C64.3737 66.9097 64.4475 68.1342 64.2208 69.2084C63.9623 67.9204 64.0625 66.5231 64.0555 65.2092C64.0485 63.7796 63.9187 62.2262 64.2256 60.8262Z" fill="white"/>
<path d="M162.069 41.3018C161.917 41.4901 161.787 41.723 161.74 41.9618C161.502 43.182 161.515 44.4691 161.299 45.702L158.038 66.5673L154.228 91.3699L152.434 102.598L150.291 116.51C149.904 118.922 149.822 121.593 149.043 123.904C148.205 124.044 146.374 124.134 145.664 123.712C145.326 123.016 145.305 122.184 145.193 121.428L144.676 117.862L143.716 111.424L139.655 85.0193L137.463 70.56L131.392 110.095L129.82 120.402C129.64 121.503 129.633 122.801 129.156 123.817C128.207 124.128 127.052 123.979 126.059 123.943C125.681 123.593 125.601 123.344 125.505 122.84L124.331 114.953L120.875 92.8669L118.968 80.0962L115.711 58.9616C114.74 52.9013 113.56 46.7696 112.952 40.6631L119.575 40.6103L127.926 96.7303C128.275 95.255 128.394 93.7898 128.601 92.294L129.569 85.6741L134.029 55.6576L135.57 45.0965C135.725 44.0714 135.79 43.0157 135.976 42C136.057 41.5587 136.192 40.998 136.453 40.6336L139.483 40.6138L147.814 96.8019C148.187 95.0272 148.352 93.2605 148.611 91.4712L150.033 81.815L154.012 54.9904L155.442 45.3557C155.626 44.0938 155.608 42.5593 156.019 41.3686C156.07 41.2204 156.163 40.9031 156.287 40.8112C156.663 40.5322 157.343 40.6391 157.806 40.6384C159.173 40.6361 160.73 40.5154 162.069 40.7586V41.3018Z" fill="white"/>
</g>
<defs>
<clipPath id="clip0_154_3195">
<rect width="161.538" height="140" fill="white" transform="translate(0.53064)"/>
</clipPath>
</defs>
</svg>
