<svg width="246" height="140" viewBox="0 0 246 140" fill="none" xmlns="http://www.w3.org/2000/svg">
<g clip-path="url(#clip0_154_3120)">
<path d="M242.336 83.5469C242.368 83.9304 242.4 84.1281 242.616 84.4495C242.566 84.9198 242.427 85.0637 242.131 85.4083L241.698 85.4433C241.53 85.218 241.5 85.1096 241.487 84.8301L241.623 84.7344C241.827 84.3075 241.829 84.1414 241.767 83.6928C241.861 83.7643 241.968 83.818 242.072 83.8752L242.336 83.5469Z" fill="#091218"/>
<path d="M111.708 90.3428L114.736 91.2666C114.395 91.8724 113.685 92.4935 113.197 93.0047L111.708 90.3428Z" fill="#091218"/>
<path d="M242.336 83.5468C242.453 82.9079 242.644 82.0448 243.013 81.4912C243.224 81.1747 243.567 81.1934 243.904 81.1348L244.213 81.3669C244.287 82.1912 244.526 84.7457 244.081 85.3777L243.645 85.456C243.352 85.1711 243.42 84.8265 243.414 84.4317L243.564 82.236C243.233 82.9735 242.821 83.6661 242.616 84.4494C242.4 84.128 242.368 83.9303 242.336 83.5468Z" fill="#091218"/>
<path d="M235.529 81.2945C236.587 81.0781 237.878 81.157 238.954 81.2733L239.069 81.5114C238.635 82.0152 238.289 81.6677 237.798 82.1L237.817 84.5382L237.963 85.3382C237.703 85.4383 237.472 85.5413 237.239 85.6922L237.025 85.8327L236.993 82.1611C236.542 81.6632 235.98 82.2183 235.469 81.7603L235.529 81.2945Z" fill="#091218"/>
<path d="M241.487 84.8308L240.229 81.876C240.26 82.4788 240.261 83.1118 240.389 83.7034C240.523 84.3235 240.563 84.6567 240.359 85.267C240.021 85.4583 240.018 85.4464 239.632 85.3814C239.326 84.3881 239.518 82.3551 239.779 81.3702C240.157 81.1927 240.265 81.2331 240.687 81.2819C241.183 81.9465 241.306 82.7924 241.685 83.5362L241.767 83.6935C241.829 84.1421 241.827 84.3082 241.623 84.7351L241.487 84.8308Z" fill="#091218"/>
<path d="M90.3347 62.2972C90.7458 63.6874 91.0786 64.8419 91.9772 66.0102C94.3631 65.4457 96.7545 64.7339 99.0748 63.9452C99.7615 63.7115 100.84 63.502 101.288 62.9533C101.325 61.0328 100.118 59.093 99.3844 57.3933C98.1742 54.5893 97.0246 50.9774 97.1932 47.9058C95.9702 46.2628 94.5894 44.4541 93.9436 42.4798C93.4068 40.8378 93.5641 38.3907 93.8214 36.6802C94.0595 35.0948 94.5574 33.4153 95.2115 31.9552L94.5963 30.7538C93.7489 29.03 94.5998 26.3118 95.0577 24.5505C95.1277 24.2823 95.3555 23.7514 95.3367 23.5024C95.286 22.8428 94.9665 22.0388 94.8201 21.3867C94.5066 19.9906 94.1803 17.269 94.7097 15.9429C95.3155 14.4266 96.6924 13.5787 97.4752 12.2531C97.6354 11.982 97.5994 12.0308 97.5407 11.774C97.0897 9.79377 97.6487 7.1037 98.7209 5.3813C98.8974 5.09687 99.1019 4.86024 99.3179 4.60736L99.45 4.44616C100.044 3.74715 100.934 3.24729 101.736 2.82729C102.695 2.32595 103.699 1.79405 104.729 1.45588C105.859 1.08567 107.038 0.913133 108.178 0.591725C108.823 0.409823 109.405 0.107638 110.083 0.0548915C112.809 -0.15708 115.86 -0.195033 118.577 0.0874314C119.259 0.158417 119.922 0.384682 120.6 0.482288C121.259 0.576443 121.917 0.545387 122.578 0.666162C124.189 0.961444 125.756 1.48398 127.368 1.75806C128.762 1.99468 130.18 1.97891 131.582 2.13764C133.149 2.31511 134.863 2.65673 136.342 3.20687C137.364 3.58645 138.299 4.11095 139.294 4.54426C140.585 5.10722 141.891 5.53215 142.968 6.48011C144.575 7.89342 145.88 9.57786 147.017 11.3831C147.412 12.0106 147.865 12.682 148.098 13.3909C148.358 14.1801 148.36 15.1222 148.435 15.9503C148.523 16.9293 148.688 17.9261 148.724 18.9051C148.753 19.6746 148.553 20.4481 148.5 21.2156C148.393 22.7778 148.324 24.2502 147.989 25.7893C147.807 26.6248 147.458 27.4027 147.219 28.221C146.996 28.9846 146.886 29.7837 146.679 30.5547C146.453 31.3957 146.127 32.2076 145.925 33.055C145.683 34.0655 145.768 35.0549 145.644 36.0728C145.45 37.6533 144.989 39.2302 144.543 40.7569C144.222 41.8557 143.932 42.9935 143.344 43.9843C143.07 44.4453 142.635 44.8258 142.261 45.2074L139.498 48.1311C138.945 48.7187 138.251 49.2402 137.986 50.0334C137.659 51.0159 137.767 52.3695 137.604 53.4215C137.457 54.366 137.031 55.4786 137.036 56.4005C137.047 58.6207 139.182 60.4605 140.198 62.2805C140.774 63.3127 140.924 64.2316 141.691 65.1919L141.846 65.3955C142.628 66.3976 144.857 67.8519 146.136 68.0111C146.491 68.0555 146.847 68.0466 147.203 68.0269C147.186 68.334 146.864 68.6623 146.691 68.9172C146.215 69.6196 145.756 70.3305 145.365 71.0842C144.791 72.1889 144.242 73.4888 143.961 74.6986C143.67 75.6332 143.576 76.5536 143.48 77.5227L143.461 77.6662C143.286 79.1125 143.424 80.6027 143.618 82.0397C141.648 80.9187 139.892 80.3937 137.623 81.0267L135.363 81.8908C134.047 83.2474 132.629 84.5158 131.722 86.2052L131.625 86.3831C131.368 86.8648 131.296 87.3518 131.143 87.8669C130.664 87.9069 130.302 87.5692 129.868 87.372C129.241 87.0881 128.543 86.8312 127.877 86.6533C126.358 86.2471 124.362 86.4162 122.855 86.774C122.681 86.815 122.536 86.8258 122.358 86.8159C121.314 87.0126 120.485 87.339 119.546 87.8369C117.981 88.7064 116.593 89.6687 115.215 90.8089L114.736 91.2674L111.707 90.3436C111.038 89.6332 110.039 88.9362 109.174 88.4826C107.775 87.7496 105.876 87.2823 104.349 87.7432C103.306 88.3165 102.285 88.35 101.32 89.0604C100.873 89.3897 100.57 89.434 100.02 89.4227C99.5426 89.225 99.3144 89.0633 98.9822 88.6655L98.2136 88.321C95.1647 88.492 92.7285 89.0313 90.3495 91.0899C89.5642 91.7697 88.914 92.5796 88.1765 93.3062L88.0681 93.0785C87.3311 91.5513 86.3733 91.0613 85.0467 90.1414L84.5237 89.8659L84.0539 89.9024L83.7823 89.8826C82.4651 89.7486 81.7281 88.1706 80.6466 87.5697C80.0792 87.2547 79.2865 87.2098 78.659 87.09C77.7022 86.9071 76.768 86.5951 75.9482 86.0602C72.7933 84.0036 70.7943 80.1847 68.8546 77.0805C68.3744 76.3125 67.808 75.7747 67.2529 75.0845C66.8354 74.5659 66.5638 73.9394 66.1403 73.4247C65.3269 72.4354 64.1103 71.8872 63.3162 70.8707C63.2092 70.7643 63.1924 70.7569 63.0998 70.6075C62.7286 70.0095 62.4717 68.9635 62.5999 68.2748L62.6398 68.0801C62.8 67.1543 63.2827 66.759 63.9398 66.1423L63.7125 65.6971C63.4586 65.2229 63.2205 64.8118 63.2511 64.2533C63.3354 62.6975 64.5663 61.7609 65.6133 60.7873L65.5118 60.1583C65.4142 58.0252 67.2795 57.4347 68.4488 56.1865C68.4612 55.7246 68.4533 55.2228 68.5898 54.7781C68.8368 53.9741 69.5235 53.2367 70.2915 52.9014C72.2259 52.058 78.3721 54.5997 80.409 55.3613L83.7729 56.5217L84.0056 56.3551L83.8069 55.8045C83.9795 54.7012 84.0672 53.4895 84.8565 52.6298C85.831 51.568 88.49 49.9565 89.9669 49.9472C90.7931 49.9422 91.3379 50.4717 91.9062 51.0001C92.3193 52.2103 90.9114 52.8413 90.4515 53.8568L90.3919 53.9993C89.9955 54.9117 90.2312 56.0238 90.1311 57.0053C90.0379 57.9183 89.716 58.8312 89.7781 59.7516C89.8329 60.5724 90.1553 61.4804 90.3347 62.2972Z" fill="white"/>
<path d="M144.198 14.1387C144.478 14.1687 144.725 14.3847 144.917 14.5897C145.296 14.994 145.513 15.2498 145.513 15.7965L145.391 15.7876C144.924 15.6841 144.316 15.5303 144.028 15.1492L144.198 14.1387Z" fill="#091218"/>
<path d="M135.345 4.75207L135.534 4.74023C136.112 4.83242 136.745 5.52798 137.078 5.98298C137.511 6.57453 137.541 7.37509 137.44 8.07361L137.38 8.06819C136.383 7.76502 136.799 6.43847 136.348 5.77397C136.136 5.46143 135.69 5.22086 135.44 4.89452L135.345 4.75207Z" fill="#091218"/>
<path d="M139.462 6.62871L139.775 6.57201C140.372 6.53406 140.97 6.68786 141.416 7.06202C141.209 7.64371 140.833 7.23997 140.386 7.45046C140.217 7.53032 140.095 7.68462 139.949 7.80145C139.737 8.21011 139.523 8.533 139.236 8.89286L138.978 8.84553C138.855 8.19384 139.095 7.17885 139.462 6.62871Z" fill="#091218"/>
<path d="M139.567 13.9941C139.955 14.037 140.422 14.3422 140.767 14.528C141.343 14.8401 142.582 15.4498 142.769 16.0798L142.608 16.0143C142.233 15.8575 141.776 15.5963 141.365 15.5963C140.787 15.5963 139.895 15.8403 139.43 15.4967C139.548 14.9978 139.551 14.5044 139.567 13.9941Z" fill="#091218"/>
<path d="M114.67 2.48828C116.052 2.76483 117.714 3.25483 118.843 4.10617L118.795 4.5592C118.626 4.61687 118.675 4.60504 118.415 4.64941C117.335 4.83476 115.509 3.12863 114.67 2.48828Z" fill="#091218"/>
<path d="M134.606 6.19558C134.754 6.18129 134.875 6.23896 135.015 6.28185C135.227 6.79305 135.483 7.34073 135.513 7.90023C135.539 8.41143 135.283 8.75552 134.971 9.12622L134.689 9.00889C134.396 8.44002 134.093 7.91552 133.98 7.27911C134.091 6.79305 134.277 6.56382 134.606 6.19558Z" fill="#091218"/>
<path d="M108.303 3.37329C109.626 3.7297 111.293 4.24632 112.379 5.08977C113.297 5.80308 113.949 6.76582 114.585 7.72364C113.447 7.13061 112.582 6.3754 111.549 5.63794C110.471 4.86843 109.335 4.21033 108.303 3.37329Z" fill="#091218"/>
<path d="M136.738 27.57L137.119 27.5527C138.205 27.992 138.987 29.2505 139.911 29.9736C140.437 30.3848 141.343 30.5933 141.725 31.106L141.614 31.4796L141.18 31.5102C140.078 31.0241 138.937 30.2946 138.077 29.4467C137.608 28.9858 136.743 28.2187 136.738 27.57Z" fill="#091218"/>
<path d="M140.285 18.7604L140.431 18.716C141.097 18.5869 142.216 19.3366 142.851 19.588C143.488 19.8409 144.269 19.9366 144.812 20.3689C145.177 20.6583 145.313 21.0196 145.369 21.4702C144.983 21.5786 144.506 21.307 144.131 21.1581C143.03 20.7209 140.768 19.872 140.285 18.7604Z" fill="#091218"/>
<path d="M137.928 18.9053L138.128 18.9989C139.608 19.6768 140.803 20.7815 142.149 21.6806C142.973 22.2318 143.853 22.6039 144.647 23.2152L144.673 23.5263L144.069 23.6559V24.0015C144.164 24.1982 144.201 24.3781 144.25 24.5901C143.358 24.5817 141.746 22.3584 141.023 21.6836L137.928 18.9053Z" fill="#091218"/>
<path d="M138.743 22.9485C139.176 22.9347 139.593 23.2245 139.979 23.4128C141.314 24.0645 142.668 24.695 143.841 25.6203C143.889 26.7467 144.713 27.4896 145.3 28.4109C144.176 27.634 143.348 26.4914 142.22 25.7357C141.318 25.1313 140.155 24.8488 139.361 24.099C139.005 23.7633 138.776 23.4473 138.743 22.9485Z" fill="#091218"/>
<path d="M138.751 26.3713C139.706 26.8687 140.639 27.6235 141.686 27.8739C142.128 27.7674 142.035 27.4958 142.408 27.2375C143.461 27.9744 144.65 28.7075 145.001 30.0251L145.03 30.6754L144.791 30.7853C143.435 29.5223 141.528 29.0077 140.081 27.8931C139.545 27.48 139.145 26.9146 138.751 26.3713Z" fill="#091218"/>
<path d="M95.1681 77.0298C94.1842 77.7017 93.0223 77.9447 91.8752 78.1936C91.4029 77.6874 91.0776 77.0894 90.7236 76.4983C91.8988 76.0636 93.8495 75.2763 95.0429 75.718C95.1573 76.1897 95.215 76.5452 95.1681 77.0298Z" fill="#091218"/>
<path d="M141.373 43.4116L141.566 43.1991C142.469 42.1767 143.494 40.6964 143.733 39.3407L143.772 39.1298C143.928 38.2168 143.752 37.2856 143.743 36.3657L145.011 35.6436C144.583 37.8742 144.211 40.8098 143.027 42.7762C142.614 43.4629 141.985 44.0263 141.431 44.5972C141.003 45.0379 140.536 45.6013 140.021 45.9385C139.909 46.0119 139.86 46.0233 139.747 46.0622C140.188 45.1074 140.776 44.2738 141.373 43.4116Z" fill="#091218"/>
<path d="M104.206 9.66211C104.872 9.82479 105.745 10.9389 106.191 11.4353C106.903 12.2275 107.049 12.4044 106.99 13.4835C106.617 13.4806 105.958 12.7367 105.653 12.47L105.22 12.3265C104.786 12.6726 104.467 13.1439 104.129 13.5796L102.709 10.6727L102.909 10.4489C103.291 10.4839 103.716 10.5879 104.064 10.3932L104.206 9.66211Z" fill="#091218"/>
<path d="M98.9823 88.6655L100.498 86.2249L104.35 87.7432C103.307 88.3165 102.285 88.35 101.32 89.0604C100.873 89.3896 100.57 89.434 100.02 89.4227C99.5428 89.225 99.3146 89.0633 98.9823 88.6655Z" fill="#091218"/>
<path d="M143.48 77.5223C142.51 77.368 141.206 77.2285 140.336 76.7775C139.994 76.5995 140.013 76.5162 139.926 76.1677C140.068 75.5318 140.38 74.848 140.975 74.5079C141.699 74.0933 143.169 74.5281 143.961 74.6982C143.67 75.6328 143.576 76.5532 143.48 77.5223Z" fill="#091218"/>
<path d="M135.669 69.2202L136.698 68.6006C136.738 68.7056 136.777 68.9117 136.874 68.9674L127.683 80.0402L127.331 79.8489L127.749 79.489L127.751 79.2726L128.182 78.9113L128.184 78.6949L128.616 78.3336C128.72 77.9742 128.926 77.8603 129.194 77.6114L129.195 77.395L129.446 77.2145C129.604 76.8453 129.849 76.7911 130.024 76.4923C130.221 76.1557 130.352 76.0058 130.638 75.7342L130.639 75.5173L131.901 74.3258C132.234 73.8328 131.801 74.2716 132.149 73.9255C132.362 73.7145 132.58 73.5657 132.704 73.2862C132.805 73.0604 132.724 73.1634 132.957 72.9519L133.129 72.8095L133.093 72.5571C132.385 73.2571 131.514 73.9753 130.914 74.7631C129.887 76.1143 128.318 77.1154 127.357 78.5007C127.244 78.6643 127.141 78.7974 127.005 78.9414L126.715 78.8566C127.72 77.2983 129.346 75.9452 130.636 74.6221L135.669 69.2202Z" fill="white"/>
<path d="M96.2695 28.5397C98.3291 28.3617 99.2351 29.147 100.764 30.4233L100.727 30.4849C100.401 30.4405 99.632 30.4386 99.3707 30.3015C98.9956 30.1043 99.0468 30.0265 98.5766 29.9732L98.4321 30.1936C98.6328 30.3553 98.7033 30.335 98.7368 30.6022C98.0013 30.9586 97.0824 31.4757 96.2656 31.5167C96.0225 31.3643 95.7909 31.2253 95.605 31.003C95.1643 30.4741 95.0938 29.8855 95.1283 29.2229C95.4113 28.7147 95.7322 28.727 96.2695 28.5397Z" fill="#091218"/>
<path d="M127.725 5.18466C128.46 5.18466 129.125 6.3012 129.843 6.66205L130.14 6.48409C130.124 6.03846 130.097 5.68451 130.279 5.26352L130.675 5.17578C131.597 5.43557 132.596 5.78507 133.336 6.41212C133.365 6.88043 133.212 7.02438 132.979 7.42318C132.984 8.34254 132.953 9.18895 132.781 10.095L132.652 10.4529L132.371 10.5579C131.429 9.86874 132.401 9.42311 132.106 8.62994L131.793 8.64818L131.257 9.32747L131.127 9.51726H131.032C131.041 8.84586 131.094 8.28141 130.609 7.75592C130.366 7.49317 130.385 7.56071 130.06 7.5474C129.911 7.80621 129.772 8.00092 129.561 8.2124C129.105 7.98071 129.024 7.36747 128.786 6.9174C128.47 6.3229 128.049 5.78311 127.725 5.18466Z" fill="#091218"/>
<path d="M115.215 90.809C114.978 89.1379 115.218 87.1379 115.508 85.4658C115.624 84.7974 116.809 84.0668 117.342 83.6907C117.971 84.9157 118.402 86.8688 119.451 87.762L119.546 87.8369C117.981 88.7065 116.593 89.6688 115.215 90.809Z" fill="#091218"/>
<path d="M124.477 3.45204C124.73 3.4407 124.875 3.48063 125.1 3.59746C126.86 4.51584 127.171 5.87542 127.73 7.65402C128.023 8.5862 128.238 9.91521 127.773 10.8173C127.432 10.9839 127.431 11.0165 127.07 10.9233C126.828 10.5388 126.914 10.2425 126.952 9.82401C127.047 8.75528 127.242 6.57444 126.519 5.70634L126.233 5.69549L126.102 5.97944C126.187 6.60352 126.318 7.6619 125.971 8.21402C125.808 8.47331 124.623 8.73113 124.283 8.84007L123.517 11.7436L122.569 10.5284L122.613 10.1346C122.622 9.57162 122.775 8.78338 122.461 8.32L122.117 8.27268L121.842 8.50683C121.618 9.7269 121.316 11.1875 120.425 12.1173C120.174 12.3795 119.883 12.5397 119.518 12.5585C119.695 11.8885 119.541 11.4054 119.49 10.7454C119.434 9.99852 119.509 9.21965 119.316 8.48957C119.107 7.6969 118.68 6.97571 118.457 6.18895L120.077 6.87711C121.732 6.04204 123.112 6.39451 124.858 6.23134C125.389 6.18204 125.819 5.40317 126.162 4.99056L124.619 3.59352L124.477 3.45204Z" fill="#091218"/>
<path d="M113.992 4.60744C114.695 4.60005 116.779 6.53442 117.361 7.054C117.875 7.51442 118.47 8.07935 118.515 8.80794C117.935 8.95534 117.458 8.16266 116.901 7.92259L118.132 10.4495C118.66 11.7824 117.854 13.1445 117.333 14.3715C116.597 13.9224 115.82 13.5443 115.107 13.0567C114.463 12.6155 113.875 12.0516 113.21 11.6533C112.274 11.0923 111.186 10.6782 110.219 10.1335C110.492 10.7497 110.913 11.1317 111.384 11.5956C110.826 12.0832 110.057 12.4425 109.417 12.8206C108.763 10.5264 107.985 9.21956 106.373 7.49569L106.596 7.2921C107.219 7.42076 107.813 7.8235 108.371 8.12963C110.025 9.03618 111.453 10.1586 113.058 11.1066C112.56 10.0068 111.897 9.119 111.255 8.11188C110.995 7.70371 110.833 7.1861 110.523 6.81934C110.123 6.3461 109.421 5.89407 108.937 5.47604C109.436 5.64217 110.007 5.80089 110.449 6.09371C111.1 6.52406 111.666 7.15998 112.212 7.71259C113.155 8.66646 114.18 9.64301 114.876 10.798C115.197 11.3314 115.241 12.2084 115.763 12.5036L116.01 12.3518C116.187 11.9762 116.39 11.5749 116.424 11.1554C116.54 9.73322 115.421 7.48386 114.536 6.40773C113.976 5.72695 113.949 5.4711 113.992 4.60744Z" fill="#091218"/>
<path d="M85.0469 90.1409C85.7252 88.9298 86.8122 87.7698 87.7098 86.7045C89.2976 84.8195 91.0752 82.4843 93.1151 81.0996C95.4414 82.4158 97.7381 84.1318 99.8001 85.8335C99.3436 86.7292 98.8162 87.5199 98.2138 88.3205C95.1648 88.4915 92.7286 89.0308 90.3496 91.0894C89.5643 91.7692 88.9141 92.5791 88.1767 93.3057L88.0682 93.078C87.3312 91.5508 86.3734 91.0608 85.0469 90.1409Z" fill="#091218"/>
<path d="M136.874 68.9677L140.335 64.7051L145.214 68.3352L145.099 68.4688C143.963 69.8121 143.089 71.3901 141.936 72.7033C141.195 73.5463 140.076 74.0609 139.46 74.9754C139.02 75.628 138.955 75.9154 139.019 76.6761C139.046 76.999 138.805 77.2405 138.631 77.5092C137.642 79.0378 136.303 80.3461 135.363 81.8906C134.047 83.2472 132.629 84.5156 131.722 86.2049L131.625 86.3829C131.368 86.8645 131.295 87.3515 131.143 87.8667C130.664 87.9066 130.302 87.5689 129.868 87.3718C129.241 87.0878 128.543 86.831 127.877 86.653C126.357 86.2468 124.362 86.4159 122.854 86.7738C122.68 86.8147 122.536 86.8256 122.358 86.8157C123.798 86.3666 124.625 84.732 125.39 83.5538L127.683 80.0405L136.874 68.9677Z" fill="#091218"/>
<path d="M95.3811 75.1793C94.1458 74.1362 93.0948 68.3119 92.6398 66.5225L98.6036 64.802C99.3839 64.5521 100.495 63.9191 101.265 63.8467L101.54 64.2346C101.651 65.9077 102.6 67.1766 102.834 68.8246C103.501 73.5091 103.519 78.3421 104.409 83.0074C104.479 83.7883 104.51 85.0675 105.075 85.6463C105.366 85.6192 105.368 85.6665 105.594 85.4525C106.517 84.8462 107.726 84.2808 108.413 83.4176L108.511 83.2899L108.963 83.317L109.309 83.7503C109.142 84.3902 108.701 84.6835 108.243 85.1513L106.058 87.4317L102.187 86.0736C101.586 85.8444 100.91 85.6428 100.502 85.1188C100.074 84.5682 99.6565 84.2167 99.0719 83.845C98.7648 83.6493 98.226 83.4072 97.9913 83.1356C97.5334 82.6052 97.2026 80.8296 96.9581 80.1059C96.645 79.1806 96.2122 78.3106 95.9544 77.3665L95.4191 77.3956L95.1681 77.0299C95.215 76.5453 95.1573 76.1898 95.0429 75.7181C95.0991 75.3824 95.1149 75.3977 95.3811 75.1793Z" fill="#091218"/>
<path d="M95.3813 75.179C95.6869 75.5166 96.0694 75.8977 96.067 76.3842L95.9546 77.3662L95.4192 77.3953L95.1683 77.0295C95.2151 76.5449 95.1575 76.1895 95.0431 75.7178C95.0993 75.382 95.1151 75.3973 95.3813 75.179Z" fill="white"/>
<path d="M118.194 71.4771L128.169 65.4423C131.424 63.29 134.275 61.2684 136.394 57.9138L138.931 62.0468C139.254 62.5994 139.715 63.2215 139.903 63.8337L135.669 69.2208L130.637 74.6226C129.346 75.9457 127.72 77.2989 126.716 78.8571L126.534 79.0376L120.371 86.2816L114.89 73.4671L105.339 84.8963C104.904 83.9509 105.038 82.295 104.866 81.2031C104.888 80.3725 104.69 79.5182 104.585 78.6954L104.063 74.6202L103.866 71.6876C103.949 70.5498 103.613 69.4288 103.775 68.2689C104.003 68.0209 104.095 67.8435 104.451 67.8011C105.127 67.7202 106.061 68.0623 106.765 68.1595C107.884 68.3137 109.167 68.2896 110.248 68.5942C111.269 68.8821 112.5 70.2368 113.321 70.9028C114.191 71.6077 115.127 72.2411 116.044 72.883L118.194 71.4771Z" fill="#091218"/>
<path d="M83.8933 56.6466C84.021 56.55 84.4666 56.2818 84.5277 56.1655C84.8408 55.5705 84.7806 54.5915 85.0453 53.9245C85.8809 51.8205 88.7578 50.9613 90.7597 50.6133C90.3072 51.2423 88.991 52.7596 88.9195 53.4715C88.8879 53.782 89.028 54.3267 89.0787 54.6486L89.2064 55.359L88.9722 55.4965C88.5227 55.2998 88.1924 55.0716 87.6989 55.1174C87.727 55.3319 87.7684 55.5246 87.8301 55.7322L87.4436 56.2729C87.6541 56.9537 88.7701 57.1824 89.1034 57.7981C89.2315 58.0352 89.0427 59.5161 89.0694 59.906C89.1438 60.9826 89.446 62.0376 89.7353 63.0718C90.0429 63.97 90.667 65.2492 90.7518 66.1656C90.844 67.1599 90.493 68.4544 90.3333 69.4522C90.0661 71.1203 89.8191 72.787 89.7561 74.4779C89.7344 75.063 89.6451 75.8724 89.8443 76.43C90.3481 77.8403 91.7806 79.3207 92.7202 80.4791C89.7245 83.0489 86.4838 86.4203 84.5238 89.8655L84.054 89.902L84.1644 89.7221C84.1339 89.6087 84.1413 89.4776 84.0732 89.3819C83.8287 89.0374 83.287 88.6938 82.9789 88.3729C82.5658 87.942 82.1734 87.2849 81.708 86.9319C81.0682 86.4459 79.4769 86.404 78.6463 86.1654C77.3099 85.7814 76.1164 84.9961 75.0792 84.0861C73.7744 82.9415 72.6223 81.5291 71.701 80.0596C70.6056 78.3131 69.6705 76.006 68.0294 74.7199C67.7859 74.5296 67.6587 74.4562 67.5651 74.1456L67.9185 73.7399C67.9584 73.6655 68.0043 73.5782 67.986 73.4959C67.951 73.3352 64.5689 71.2559 64.0074 70.3873C63.7663 70.0146 63.6786 69.5123 63.5889 69.0859C63.618 68.6767 63.6096 68.1389 63.755 67.7603C63.9162 67.3393 64.4254 67.1195 64.8168 66.9524C66.2592 66.9706 68.9532 67.6632 70.2285 66.8523C70.512 66.6724 70.4513 66.6462 70.5218 66.347C70.1299 66.1124 69.5019 66.2977 69.042 66.3677C67.8224 66.5531 66.6556 66.4298 65.4345 66.3288C65.1964 66.1843 65.0125 66.0714 64.8577 65.8329C64.4974 65.2763 64.1494 64.3417 64.3209 63.6752C65.0298 60.9151 68.1251 62.0898 70.019 62.5212C70.8644 62.7139 71.7335 62.8273 72.5937 62.9308C73.1488 62.9979 73.8266 63.1453 74.3137 62.8603C74.3841 62.4714 74.4305 62.4285 74.2471 62.0864L67.8145 61.1315C67.3575 61.0167 66.8518 60.7258 66.6319 60.2915C66.414 59.8597 66.4835 59.4012 66.6457 58.9635C66.8779 58.3369 67.4951 57.7336 68.1019 57.4649C69.0632 57.04 70.0757 57.6808 70.9645 58.0486C70.3912 58.5134 70.0535 58.648 69.7109 59.3426L69.9086 59.5338C70.475 59.3465 70.6806 58.961 71.1144 58.5928C71.4742 58.2871 71.7789 58.4163 72.2196 58.4528L72.6056 58.7417C72.6243 58.7535 72.9186 58.9053 72.9418 58.9029C72.9674 58.9004 73.2686 58.715 73.3026 58.7072C73.6467 58.6303 74.2032 58.75 74.5616 58.7811C75.5209 58.8644 77.2315 59.0517 78.1331 58.7767C78.3682 58.7047 78.3401 58.609 78.4279 58.404C78.3564 58.3074 78.3229 58.1629 78.213 58.1146C78.1252 58.0762 77.6436 58.1171 77.5198 58.1171L75.4253 58.0934C74.2432 58.0367 70.65 57.3974 69.8706 56.6165C69.5241 56.269 69.3929 55.8978 69.3999 55.4137C69.4082 54.8019 69.6394 54.1951 70.1211 53.7998C70.6318 53.3812 71.4299 53.4143 72.0564 53.469C73.1025 53.5592 74.1337 53.8456 74.8189 54.6462L75.0768 54.6117C76.0365 54.3952 77.1763 54.9533 78.0868 55.2673L83.3244 57.0518C83.9633 57.3357 84.7018 57.6843 85.1972 58.1841C85.7858 58.7786 86.1732 59.6876 86.5765 60.4148C87.3657 61.8355 88.1737 63.1965 88.8056 64.6961C88.9713 65.09 89.0763 65.3557 89.478 65.5198L89.6905 65.264C89.6165 64.6744 89.4386 64.1819 89.201 63.6431C88.6006 62.2826 87.8404 60.9767 87.1079 59.6837C86.6913 58.9482 86.2378 58.0017 85.5861 57.4472C85.1464 57.0725 84.4291 56.8561 83.8933 56.6466Z" fill="#091218"/>
<path d="M71.7237 65.9863C72.3103 65.9873 72.6081 66.3117 73.0976 66.5932C73.7941 66.9939 74.1742 67.5865 74.646 68.2229L74.5814 68.5862C74.0401 68.5689 73.4353 68.6419 73.033 68.2224C72.5869 67.7565 71.7005 66.6454 71.7237 65.9863Z" fill="white"/>
<path d="M69.1378 68.874L69.4464 68.9618L70.3806 72.7009C70.456 73.1672 70.4491 73.5409 70.1957 73.9288L69.8566 73.7844C69.3952 73.2658 68.5773 72.0856 68.4832 71.4142C68.4492 71.1737 68.7578 70.9296 68.9091 70.7512C68.8588 70.1187 68.7583 69.4173 69.1378 68.874Z" fill="white"/>
<path d="M75.3434 62.3756L75.7589 62.3096C77.1683 62.9001 78.2198 64.6023 78.9651 65.8584L76.6694 65.2999C76.1982 64.3963 75.5277 63.3749 75.3434 62.3756Z" fill="white"/>
<path d="M77.5573 82.4891C77.1773 81.6748 76.4911 81.7172 75.9355 81.1236C75.5781 80.7416 76.0247 80.5824 76.0903 80.1392C75.4445 79.6122 74.5069 78.893 74.1757 78.1176L74.3137 77.8435C74.4581 77.8622 74.6183 77.8317 74.747 77.9007C75.1995 78.1437 75.7576 78.857 76.1805 79.2105C76.9688 79.8696 77.8107 80.4621 78.6463 81.0591L77.5573 82.4891Z" fill="white"/>
<path d="M78.3922 68.8741L78.7082 68.8164C78.8926 68.9032 79.0025 68.986 79.1154 69.159C79.7981 70.2056 82.4438 76.8802 82.2565 77.8232C82.045 77.8572 82.1796 77.8474 81.8533 77.8015C80.7712 76.2541 80.2058 73.7899 79.5324 72.0039C79.1528 70.9953 78.5332 69.9418 78.3922 68.8741Z" fill="white"/>
<path d="M78.6463 81.0588C79.5523 81.7682 80.3169 82.586 81.1934 83.3102C81.8392 83.8436 82.5811 84.2966 83.1435 84.9192C81.1732 84.5209 79.262 83.7908 77.473 82.8779C77.4888 82.7339 77.4863 82.6176 77.5573 82.4889L78.6463 81.0588Z" fill="white"/>
<path d="M82.5784 66.4185L82.855 66.415C83.059 66.5541 83.2069 66.6664 83.3164 66.8952C83.724 67.747 83.8271 68.8798 84.0445 69.8056C84.2091 70.5066 84.4896 71.1982 84.6099 71.9066C84.6976 72.4212 84.6119 72.9295 84.7243 73.451C84.9076 74.2994 85.6983 76.1889 85.4336 76.9505L85.0008 76.9964C84.6735 76.6114 84.5995 76.0267 84.5059 75.5412C84.2387 74.153 84.2308 72.5312 83.7043 71.2199C83.4293 70.5352 82.4749 69.7563 82.4576 69.0903L82.8343 68.8059C83.1424 68.4929 82.6267 66.9262 82.5784 66.4185Z" fill="white"/>
<path d="M81.852 57.3209L81.9737 57.2958C82.6422 57.2494 83.9653 58.1052 84.4321 58.5725C86.0638 60.2077 85.6995 63.5859 86.0091 65.712C86.117 66.4524 86.5129 67.2008 86.5286 67.9308L86.156 68.1004C85.559 67.6099 85.2361 66.1774 85.001 65.4394C84.7402 64.6236 84.9369 64.3214 84.9285 63.5312C84.9246 63.1442 84.7717 62.7612 84.7358 62.3757C84.6998 61.9936 84.7555 61.6047 84.72 61.2202C84.5913 59.8286 82.8014 58.5597 81.8234 57.663L81.852 57.3209Z" fill="white"/>
<path d="M104.42 34.1065L104.485 34.3672C104.737 35.4798 104.135 36.8665 104.157 38.0403L104.398 38.1398C105.394 37.2067 105.484 34.1853 105.522 32.8366C105.56 31.5234 105.617 30.0494 105.422 28.7539C104.348 28.4399 103.298 28.1062 102.268 27.6689C100.939 27.105 99.4859 26.0929 97.9986 26.1053C97.0581 26.1132 96.2018 26.4913 95.3381 26.8161L95.4259 26.5972C95.8966 25.3969 95.8533 24.2251 95.9987 22.9676C96.1451 21.6977 96.3157 20.2539 96.715 19.0392C97.4746 16.7287 99.4095 14.2708 101.11 12.5829C101.967 14.1274 102.656 14.9565 104.407 15.4544C105.89 15.8764 107.628 15.837 109.164 15.9094C109.755 15.9375 110.52 16.0992 111.044 15.7743L111.502 15.3987C111.834 15.5501 111.948 15.7201 112.153 16.0159C113.567 16.3506 116.254 16.3679 117.495 15.6072L118.001 15.2479C118.307 15.3006 118.521 15.3967 118.795 15.5402L121.67 15.3795C121.95 15.3578 122.447 15.3893 122.702 15.2982C123.046 15.1749 123.494 14.7091 123.747 14.4409L125.873 12.0752C125.652 12.7496 124.916 13.5718 125.005 14.2196C125.375 14.4562 126.356 14.3729 126.788 14.2477C127.441 14.0589 128.221 13.0912 128.843 13.2322C131.455 13.8247 133.735 12.1718 136.196 12.5953C136.481 12.6441 136.714 12.5016 136.992 12.4829C137.452 12.4523 137.844 12.4577 138.292 12.4025L138.581 12.407C138.204 12.6608 137.694 12.5731 137.245 12.6899C136.975 12.7599 136.838 12.7432 136.567 12.7279C136.18 12.7057 136.033 12.7397 135.693 12.8965C134.959 13.2341 134.085 13.4185 133.312 13.6655L129.323 14.9432C130.31 16.1549 131.82 17.9818 132.273 19.4819C132.233 19.6603 132.091 20.0389 132.108 20.2041C132.181 20.8868 132.742 21.7179 132.638 22.4204C132.606 22.6408 132.344 23.042 132.244 23.255C131.669 24.479 131.307 24.9562 132.082 26.2344C132.716 27.2805 133.505 27.9524 133.886 29.1581L133.963 29.3711C134.271 30.2653 134.102 31.1236 134.136 32.0469L134.43 35.6297C134.452 36.0231 134.398 36.7177 134.512 37.077C134.673 37.5853 135.466 38.3316 135.842 38.69C136.348 38.8241 136.671 38.8467 137.135 38.5401C137.529 38.2794 137.635 37.8046 137.768 37.3802C138.073 36.4022 138.372 35.0929 139.107 34.3421C139.888 33.544 141.804 33.5055 142.834 33.6377C143.474 33.7195 144.382 33.8999 144.789 34.4486C145.023 34.7636 144.985 34.8375 144.936 35.2028L144.296 34.8508C143.478 34.3426 141.945 34.067 141.018 34.3174C139.773 34.6536 138.621 36.4367 138.08 37.535C137.908 37.8825 137.792 38.3656 137.925 38.7412C138.284 39.7503 139.337 40.0136 138.887 41.3219C138.683 41.9149 137.957 42.5484 137.531 43.0073L137.755 40.2788C137.386 39.9712 136.891 40.0047 136.414 40.0422C136.231 40.0565 136.078 40.121 135.909 40.1881L135.706 40.4952L135.863 40.8309L136.123 40.9122C136.381 40.996 136.496 41.067 136.662 41.2898L136.667 41.4934C136.684 42.118 136.666 43.1212 137.117 43.587C137.327 43.8049 137.566 43.8276 137.859 43.8296C138.689 43.8365 139.349 43.4135 139.881 42.8052C140.387 42.2265 140.967 41.2598 140.926 40.474C140.893 39.8366 140.271 39.422 139.82 39.0553L138.786 38.2315C140.415 37.8406 141.266 37.4024 142.364 36.0872C142.482 36.9198 142.763 37.9387 142.751 38.7624C142.732 40.1501 141.885 41.5491 141.075 42.6341L140.795 43.0029C141.054 43.0502 141.094 43.0024 141.267 43.238L141.373 43.411C140.776 44.2732 140.188 45.1068 139.747 46.0617L139.62 46.176C139.311 47.1758 138.116 48.0064 137.283 48.6048C136.569 48.2972 136.022 48.002 135.415 47.5036L135.194 48.6398C135.813 49.1062 136.42 49.5814 137.107 49.9472C136.979 52.1265 136.781 54.9384 135.957 56.9807C135.381 58.4083 134.18 59.8921 133.044 60.9125C132.114 61.7486 131.061 62.4249 130.06 63.1698C127.81 64.8443 125.587 66.3548 123.157 67.7622C121.352 68.8062 119.159 69.8139 117.561 71.1458C117.847 71.238 117.96 71.275 118.194 71.4766L116.043 72.8825C115.126 72.2407 114.191 71.6072 113.321 70.9023C112.5 70.2363 111.269 68.8817 110.248 68.5938C109.167 68.2891 107.883 68.3133 106.764 68.159C106.061 68.0619 105.127 67.7198 104.45 67.8006C104.095 67.843 104.003 68.0205 103.775 68.2684C103.613 69.4284 103.949 70.5493 103.866 71.6871L104.062 74.6197L104.585 78.695C104.69 79.5177 104.888 80.372 104.866 81.2027C104.823 81.9081 104.816 82.3971 104.409 83.0069C103.519 78.3415 103.501 73.5086 102.834 68.824C102.6 67.176 101.65 65.9072 101.54 64.2341L101.559 64.1291C101.547 63.4744 101.609 62.9543 101.718 62.3036L102.109 62.5802C101.716 60.2105 100.749 58.4073 99.8758 56.2087C99.5953 55.5018 99.1053 53.9919 99.409 53.2766L99.8566 53.1322L99.9655 52.8433C99.2078 51.0755 98.7918 49.0234 97.8946 47.3379C97.1606 45.9582 95.8947 44.9727 95.1917 43.4929C93.5605 40.0565 94.786 36.45 95.9573 33.1067C96.5824 33.2448 97.2883 33.4686 97.9271 33.4705L98.147 33.4676C97.9513 33.0944 97.7655 32.7355 97.6274 32.3358C97.9247 31.7891 98.6104 31.6358 99.1733 31.3878C99.1502 31.9335 98.9658 32.7617 99.34 33.2024C99.4888 33.3774 99.8073 33.5327 100.006 33.6529L100.11 33.8595C100.16 34.1464 100.131 34.4412 100.372 34.6211C101.21 35.2467 102.459 35.5188 103.487 35.4429C103.86 35.155 103.859 35.1811 103.938 34.7187L103.7 34.3012L101.085 34.0557C101.229 33.9763 101.371 33.9098 101.527 33.8536L102.042 33.6633C102.613 33.4518 102.929 33.1486 103.331 32.7074L103.48 32.5428L104.42 34.1065Z" fill="#091218"/>
<path d="M116.677 33.7303C115.858 33.7934 115.298 33.9882 114.565 34.3372L114.318 34.456L114.059 34.3579L114.01 34.0345C114.551 33.4099 115.225 33.1787 116.026 33.0742L116.201 33.126C116.579 33.2137 116.964 33.2004 117.35 33.2029L117.269 33.5627L116.677 33.7303Z" fill="white"/>
<path d="M110.526 40.7123L110.997 40.5693C111.371 40.8134 111.568 40.8715 111.746 41.29C111.328 41.6854 110.685 41.8929 110.163 42.1246L109.119 42.4899L108.88 42.3011L108.951 41.9777C109.452 41.4596 109.917 41.0933 110.526 40.7123Z" fill="white"/>
<path d="M97.9181 21.3604C98.5964 21.1031 100.951 21.5892 101.706 21.8002C102.218 21.9431 102.283 21.9091 102.539 22.3715C101.866 22.6441 99.9811 22.232 99.2264 22.0535C98.658 21.919 98.2326 21.8771 97.9181 21.3604Z" fill="white"/>
<path d="M108.672 62.9531L108.957 63.0976L109.098 64.8426L107.964 66.1224C107.68 65.9848 107.652 65.9434 107.48 65.6969C107.378 64.6809 108.131 63.765 108.672 62.9531Z" fill="white"/>
<path d="M113.454 43.0228C113.805 42.9508 113.781 42.9824 114.091 43.1031C114.382 43.5389 114.598 44.4854 114.48 45.0109C114.345 45.6083 113.893 45.8947 113.405 46.2004C113.078 46.2497 113.029 46.265 112.73 46.1323C112.643 45.4087 113.533 45.1878 113.627 44.6476C113.702 44.2073 113.38 43.5665 113.454 43.0228Z" fill="white"/>
<path d="M112.521 32.769C112.696 32.7429 112.825 32.7528 113 32.769C113.158 33.4316 112.351 33.8614 112.382 34.35C112.407 34.7492 113.267 35.2634 113.307 35.8865L112.874 35.9767L112.008 35.433C111.613 35.1012 111.458 34.8503 111.382 34.3573C111.666 33.6588 111.96 33.2709 112.521 32.769Z" fill="white"/>
<path d="M109.791 44.8684L111.358 44.8408C111.803 44.8995 111.943 45.0779 112.223 45.4062L112.152 45.8667C111.687 46.1639 111.415 46.1077 110.871 46.1225L110.768 46.0776L110.594 46.0086C110.152 45.8272 109.901 45.7276 109.42 45.81L108.686 45.8918L108.512 45.6231C108.85 45.1445 109.262 45.0769 109.791 44.8684Z" fill="white"/>
<path d="M121.761 35.9319C122.228 35.8905 122.669 35.7869 123.111 35.9708L123.15 36.2794C123.041 36.4115 122.997 36.4781 122.877 36.5831C122.286 37.0972 121.438 37.0243 120.712 36.9898C120.06 36.869 119.53 36.7659 118.94 36.4431L118.861 36.1626L119.157 35.9718C120.038 36.1069 120.879 36.0122 121.761 35.9319Z" fill="white"/>
<path d="M100.875 45.0449L101.064 45.1415C100.892 45.6828 100.018 46.1309 99.5521 46.476C99.6053 47.2603 99.7315 48.2639 99.2297 48.9023L98.9531 48.6553L98.2433 45.9722L100.875 45.0449Z" fill="white"/>
<path d="M97.8559 23.0933C99.7099 22.907 102.131 23.5281 103.639 24.6343C103.907 24.8315 104.125 24.9251 104.175 25.2594L103.775 25.2042C101.627 24.2444 99.7415 23.8234 97.4211 23.4527L97.3058 23.2378L97.8559 23.0933Z" fill="white"/>
<path d="M140.795 43.0029C141.054 43.0503 141.095 43.0024 141.268 43.2381L141.373 43.4111C140.776 44.2733 140.189 45.1069 139.747 46.0617L139.62 46.1761C139.234 46.2594 138.908 46.3279 138.593 46.5779C138.205 46.8855 137.785 47.1107 137.355 47.3513C138.077 45.5801 139.336 44.2067 140.795 43.0029Z" fill="white"/>
<path d="M115.999 36.8132L116.219 36.7501C117.74 36.4745 119.301 37.4205 120.766 37.6374C121.72 37.7789 123.125 37.6621 123.994 37.9583C124.119 38.0007 124.204 38.117 124.309 38.1964L124.231 38.5459L124.061 38.5878C122.368 38.8649 120.081 38.1299 118.433 37.7759C117.688 37.6157 116.577 37.5156 115.947 37.1021L115.999 36.8132Z" fill="white"/>
<path d="M118.591 23.6524C120.162 23.5538 123.058 23.9176 124.361 24.8261L124.305 25.115C123.749 25.1559 123.076 24.8996 122.531 24.7768C121.762 24.6033 120.985 24.4865 120.204 24.376C118.192 24.1483 116.565 24.4638 114.679 25.15L114.464 24.9706C114.654 24.589 114.867 24.5037 115.257 24.343C116.31 23.9092 117.47 23.7771 118.591 23.6524Z" fill="white"/>
<path d="M135.194 48.6399L134.751 50.5866C134.057 52.9261 132.808 55.8243 130.562 57.0394C130.874 55.8652 131.853 54.9897 132.507 53.9919C134.759 50.554 134.577 46.8184 134.584 42.8782L134.826 42.6707L135.18 42.8782C135.563 44.2999 135.196 45.8966 135.395 47.3641L135.415 47.5036L135.194 48.6399Z" fill="white"/>
<path d="M103.589 41.4347L103.824 41.4229C103.886 41.4993 103.984 41.5569 104.01 41.6511C104.015 41.6688 103.843 42.1155 103.827 42.1569C103.567 42.8233 103.262 43.4455 103.444 44.177C103.751 45.403 105.353 46.2188 106.343 46.8025L104.826 47.3097C104.208 47.4705 103.289 47.7983 102.711 47.5538C102.132 46.5432 102.003 45.1506 101.815 44.0089C102.214 42.9633 102.641 42.1036 103.589 41.4347Z" fill="white"/>
<path d="M128.076 44.1787L128.421 44.1831C128.797 44.4681 128.892 44.5997 129.047 45.0453C128.821 46.3443 128.488 47.6122 127.877 48.7903C127.692 49.1472 127.334 49.4046 127.171 49.7555C126.99 50.1499 126.996 50.6872 126.896 51.1166C126.513 52.7522 125.572 53.7436 124.398 54.866C124.226 54.9651 124.039 55.0105 123.85 55.0701C123.791 54.9779 123.664 54.903 123.672 54.7936C123.693 54.5348 124.123 53.9181 124.265 53.6608C124.934 52.4456 125.175 51.2019 125.618 49.9074C125.836 49.2739 126.2 48.7691 126.274 48.0844C126.398 46.9388 126.997 47.3228 127.673 46.7707C127.765 46.6948 127.912 44.5726 128.076 44.1787Z" fill="white"/>
<path d="M116.178 43.4561L116.452 43.4753C117.584 45.1134 118.987 46.2871 120.862 47.0058C121.814 47.3711 122.797 47.5589 123.752 47.9622L122.586 51.2404L122.132 51.6968L121.876 51.544C121.896 51.0984 121.938 50.6128 121.829 50.1761C121.485 48.8091 119.508 48.5399 118.472 47.8523C117.413 47.1498 116.991 46.2841 116.354 45.2391C116.09 44.8068 115.768 44.3917 115.661 43.8894L116.178 43.4561Z" fill="white"/>
<path d="M116.026 33.0745C116.68 32.7211 117.571 33.1741 118.138 32.7699L118.001 32.5751C117.392 32.5811 116.06 32.8571 115.618 32.5564L115.584 32.1206C116.271 31.5695 118.246 31.9205 119.084 32.0097C120.814 32.1936 121.954 32.8315 123.331 33.8603C123.721 34.1521 124.283 34.5455 124.572 34.9404C124.651 35.0483 124.656 35.1085 124.682 35.2248L124.5 35.4161C123.713 35.3002 122.898 34.721 122.214 34.3261L122.033 34.4982C121.08 35.3968 120.289 35.4836 119.012 35.4466L118.308 35.3855C117.826 34.6944 117.494 34.0506 116.677 33.7306L117.269 33.563L117.35 33.2032C116.964 33.2007 116.579 33.214 116.201 33.1263L116.026 33.0745Z" fill="white"/>
<path d="M103.252 56.4541C103.811 56.6474 104.382 56.8485 104.961 56.9732C106.051 57.2084 107.276 57.1502 108.389 57.2744C109.681 57.4189 111.119 58.0262 112.412 57.7896C114.11 57.4785 115.703 56.6705 117.34 56.1416C116.983 56.6252 116.569 57.027 116.142 57.447L115.365 58.0745C114.701 58.5877 113.592 59.6036 112.775 59.8181C112.391 59.9186 111.035 59.3513 110.614 59.2275C108.904 58.7252 107.33 58.6798 105.598 58.4373C104.725 58.3156 103.878 57.7812 103.369 57.0649C103.174 56.7898 103.2 56.7869 103.252 56.4541Z" fill="white"/>
<path d="M119.229 26.9716C119.707 26.9218 120.234 26.8439 120.709 26.9371C121.43 27.0786 122.153 27.4665 122.817 27.7722C124.097 28.3622 125.418 28.9597 126.61 29.7159C127.206 30.0945 127.553 30.3444 127.709 31.036L127.46 31.2874C125.347 31.4546 123.157 30.4736 121.216 29.7465C120.356 29.497 119.37 29.746 118.506 29.8633L115.903 30.2024C115.253 30.3114 114.391 30.5322 113.76 30.3163C113.123 30.0984 112.485 29.4704 112.199 28.8695C112.01 28.4707 112.038 28.2927 112.193 27.8959C112.997 27.397 114.522 27.5686 115.479 27.4759L119.229 26.9716Z" fill="white"/>
<path d="M105.194 50.8516L104.353 50.7323C103.9 51.2637 104.599 51.8217 104.566 52.4103C104.558 52.5705 104.424 52.6982 104.353 52.8422L104.064 52.9112C103.293 52.2235 102.818 51.0902 102.122 50.2778C101.826 50.3685 101.932 50.3074 101.693 50.4888C101.395 50.7151 101.15 50.963 100.778 51.0606C100.547 51.1212 100.494 51.0217 100.309 50.9083C100.229 50.4794 100.172 50.3256 100.418 49.9554C100.7 49.53 101.038 49.0518 101.537 48.97C102.598 50.0491 104.037 49.9046 105.462 50.1634C107.879 50.5287 110.368 49.881 112.815 50.3143C114.37 50.3655 116.516 51.0488 118.001 50.579C118.432 50.4424 118.834 50.0032 119.157 49.702C119.623 49.7084 119.892 49.9219 120.205 50.2842C120.573 50.7111 120.604 51.0039 120.602 51.5442L120.312 51.7813C119.891 51.6807 119.687 51.5136 119.373 51.2381C118.581 51.455 117.849 52.1288 117.147 52.5543C115.688 53.4386 113.552 54.5655 111.791 54.4778C110.779 54.4275 109.779 54.1441 108.758 54.0864C108.04 54.046 106.321 54.2555 105.752 53.9493C105.409 53.765 105.099 53.2725 105.034 52.8949L105.014 52.4828L105.292 52.2028C107.7 52.2496 110.115 52.3285 112.52 52.1604C113.824 52.0697 115.059 52.0697 116.205 51.3618C115.042 51.1957 113.648 51.381 112.574 50.9576L112.566 50.9433C110.007 50.8753 107.764 51.7153 105.194 50.8516Z" fill="white"/>
<path d="M102.109 62.5808C102.211 63.5899 102.241 64.9608 103.068 65.6372C105.061 67.2664 106.932 67.5582 109.408 67.785C110.878 67.9201 112.409 68.0349 113.885 67.9003C115.261 67.7746 116.949 66.2332 118.065 65.4494L122.886 62.2037C124.248 61.2587 125.68 60.0579 127.172 59.3451C127.728 59.0794 128.219 58.9418 128.832 59.0108L128.905 59.2425C127.906 60.4256 126.837 61.6639 125.669 62.6863C124.533 63.6821 123.35 64.4979 122.261 65.5736C121.999 65.2793 122.038 65.1851 122.006 64.7853C121.554 64.8603 121.212 65.2556 120.861 65.5489C119.148 66.977 117.275 69.7903 114.968 70.2084L114.798 70.0304C114.942 69.7578 115.079 69.503 115.185 69.2121C114.725 69.4152 114.481 69.5429 114.188 69.958C114.514 70.7102 115.553 71.5226 116.174 72.0456L117.561 71.1465C117.847 71.2387 117.96 71.2756 118.194 71.4773L116.043 72.8832C115.127 72.2413 114.191 71.6079 113.321 70.903C112.5 70.237 111.269 68.8823 110.248 68.5944C109.167 68.2898 107.884 68.3139 106.765 68.1596C106.061 68.0625 105.127 67.7204 104.451 67.8013C104.095 67.8437 104.003 68.0211 103.775 68.2691C103.613 69.429 103.949 70.55 103.866 71.6877L104.063 74.6204L104.585 78.6956C104.69 79.5184 104.888 80.3727 104.866 81.2033C104.823 81.9087 104.816 82.3977 104.409 83.0075C103.519 78.3422 103.501 73.5092 102.834 68.8246C102.6 67.1767 101.651 65.9078 101.54 64.2347L101.559 64.1297C101.547 63.4751 101.609 62.955 101.718 62.3043L102.109 62.5808Z" fill="white"/>
<path d="M168.499 59.611C169.595 59.4118 171.45 59.362 172.521 59.646L176.677 60.4101C181.488 61.5483 185.805 64.9117 188.373 69.1083C189.596 71.1072 190.587 74.0127 190.911 76.3267C191.088 77.5975 190.986 78.965 190.972 80.2516C190.96 81.2981 191.002 82.4029 190.744 83.4248C190.352 84.9756 190.238 86.6068 189.834 88.1798C189.526 89.3782 188.952 90.5382 188.589 91.737C189.192 90.8847 189.621 89.955 190.198 89.112C191.48 87.2378 193.854 85.4459 195.836 84.351C198.867 82.677 203.239 81.8931 206.54 83.2813C207.535 83.6993 208.873 85.4543 209.144 86.4574C209.281 86.9662 209.2 87.4976 209.384 88.0009L209.472 88.2267L209.369 88.5466C209.216 89.1012 209.101 89.6641 208.851 90.1867C208.505 90.9079 207.572 92.0984 206.775 92.3227C206.464 92.4099 206.51 92.405 206.306 92.6313L206.415 92.787L206.55 92.9926L206.669 93.1577C206.908 93.6048 206.819 94.2403 206.764 94.7258C206.529 96.7923 205.925 98.8903 205.154 100.818C206.893 99.6485 208.281 98.355 209.594 96.7307C210.128 96.0696 210.719 95.3632 211.043 94.5715C211.346 93.8311 211.461 93.0473 211.663 92.2783L212.773 88.4791C212.232 88.3938 211.444 88.4046 211.092 87.9378C210.827 87.5863 210.802 86.9115 210.906 86.4979C211.268 85.0653 212.802 83.8226 214.022 83.0817C215.892 81.9454 217.749 81.2222 219.967 81.7675C220.404 82.1554 220.6 82.5306 220.818 83.0595C220.88 83.2098 221.039 83.5214 221.059 83.6653C221.132 84.212 220.337 85.7225 220.107 86.2741L222.56 84.0508C224.374 82.3822 227.617 80.502 230.129 80.6642C231.382 80.7451 232.133 81.5269 232.919 82.4034C233.062 85.1827 231.685 87.5868 230.766 90.1438C229.738 93.0059 228.618 96.1924 228.269 99.2117C230.163 97.9084 232.051 96.006 233.457 94.1737L235.193 91.6927C236.211 90.3444 238.65 88.3514 240.376 88.1685L240.542 88.1557L241.125 88.1103C241.974 88.0847 243.4 88.4475 244.003 89.0701L245.067 90.2591C245.451 91.7493 245.509 95.1419 244.853 96.5291L244.644 96.9821C243.169 100.281 241.004 103.355 238.08 105.556C235.799 107.274 233.528 108.697 231.041 110.09C230.483 110.402 229.922 110.473 229.35 110.71C228.879 110.906 228.452 111.203 227.978 111.397C226.986 111.802 225.75 112.133 224.702 112.371C224.115 112.505 223.639 112.832 223.069 112.987C219.887 113.857 216.366 114.664 213.086 114.892C212.725 114.917 212.491 115.188 212.134 115.15C211.26 115.056 210.551 115.378 209.685 115.464C208.8 115.551 207.61 115.39 206.791 115.671L206.603 115.739C205.856 115.486 205.031 115.832 204.248 115.907C202.596 116.065 200.753 115.797 199.156 116.084C198.931 116.125 198.804 116.202 198.571 116.135C198.225 116.035 197.832 116.1 197.479 116.164C194.972 116.615 192.451 116.43 189.923 116.59C188.669 116.669 187.427 116.93 186.168 116.993C185.295 117.037 183.985 116.843 183.178 117.106L182.991 117.172C182.202 116.917 181.662 117.227 180.897 117.304L178.586 117.453L174.977 117.557C173.811 117.615 172.66 117.835 171.494 117.919L167.682 118.055C166.688 118.12 165.708 118.355 164.712 118.436C163.826 118.508 162.208 118.267 161.442 118.61L161.257 118.699L161.071 118.592C160.47 118.294 159.449 118.694 158.8 118.764C156.847 118.975 154.842 118.935 152.879 119.052C151.88 119.111 150.896 119.354 149.897 119.431C149.321 119.476 148.595 119.378 148.055 119.583L147.896 119.663C147.132 119.271 147.002 119.76 146.452 119.69C146.436 119.688 146.116 119.513 146.091 119.506C145.904 119.455 145.408 119.558 145.213 119.601C143.022 120.093 140.687 119.919 138.449 120.054C137.494 120.112 136.537 120.307 135.575 120.377L131.339 120.518L126.825 121.01L126.544 121.04C124.703 120.966 123.064 121.212 121.231 121.396L118.779 121.53C118.43 121.564 118.135 121.579 117.784 121.548C116.883 121.466 116.079 121.718 115.188 121.817C114.521 121.892 113.801 121.839 113.149 121.998L112.927 122.057C112.409 121.83 111.273 121.885 110.732 122.042L110.491 122.119C109.81 121.761 108.345 122.25 107.571 122.31L103.126 122.509L99.6335 122.877C98.2798 122.958 96.9109 122.88 95.5612 122.994C94.4338 123.088 93.2581 123.34 92.1494 123.563L91.8028 123.313L91.4519 123.419L88.4631 134.1C87.8898 135.733 86.3414 137.604 84.7442 138.349L84.5677 138.428L84.265 138.57C83.8086 138.749 82.7743 138.829 82.3302 138.598L82.1912 138.518C81.3536 138.064 81.0879 137.582 80.666 136.771L83.1781 127.588C83.4936 126.403 83.708 125.076 84.1812 123.96L84.2502 123.801L79.5938 124.159C78.0592 124.483 76.5281 124.377 74.9649 124.479L72.0027 124.819L67.2925 124.936L66.2824 128.611C66.0803 129.325 65.6904 129.992 65.5879 130.73L65.5233 131.176C65.0969 133.52 64.1755 137.561 62.1238 138.984C61.4618 139.443 60.9299 140.01 60.0953 140.112L59.8715 140.136C59.0488 140.246 58.4281 140.214 57.6162 140.088C57.2574 139.69 56.8985 139.325 56.651 138.846C56.4987 137.779 56.9956 136.743 57.248 135.722C58.0752 132.375 58.8969 128.91 60.0386 125.658C59.4072 125.738 58.7638 125.801 58.1265 125.773C57.8514 125.761 57.2381 125.661 56.9833 125.763C56.9093 125.793 56.792 126.052 56.7294 126.065C56.6929 126.072 56.4765 125.895 56.4055 125.879C55.9668 125.78 55.0864 125.874 54.6501 125.972C54.415 126.025 54.3455 126.06 54.0946 126.011C53.2703 125.849 52.2957 126.177 51.4493 126.248L46.5848 126.46C45.7507 126.515 44.9176 126.724 44.0737 126.787C42.5386 126.902 40.9124 126.772 39.3995 127.066C36.6202 127.606 33.7142 127.708 30.9152 128.172C30.2916 128.275 29.7252 128.28 29.1188 128.496C28.3784 128.761 27.5995 128.8 26.8364 128.986C24.4131 129.577 20.8432 130.579 18.8841 132.122C18.3163 132.57 17.6686 132.91 17.0434 133.271C16.5796 133.103 15.839 132.75 15.4591 132.437C15.2351 132.253 14.9262 131.492 14.7651 131.207C15.7419 128.443 17.9092 125.935 20.4514 124.466C21.3934 123.922 22.4411 123.543 23.3329 122.919L23.1163 122.842C20.0891 124.227 16.4666 124.914 13.1357 124.888C12.3945 124.883 11.5481 124.936 10.8388 124.722C9.90508 124.441 9.02539 124.477 8.09651 124.272C6.60803 123.943 4.99591 123.295 3.74483 122.416C2.79815 121.751 0.891492 120.109 0.750802 118.902C0.705351 118.512 0.404499 118.501 0.291858 118.105C0.0605129 117.291 0.0451317 115.398 0.466709 114.664C0.567963 114.488 0.659999 114.351 0.740449 114.161C1.26254 112.925 2.17156 111.79 3.23043 110.959C5.55768 109.134 8.33013 107.982 11.2843 107.701C11.3321 107.314 11.3648 106.913 11.4761 106.538L13.9227 97.83C14.0969 97.1763 14.169 96.5005 14.351 95.8503L17.177 85.966C17.6538 84.2924 17.8621 82.4009 18.4427 80.78C18.6461 80.2127 18.9756 79.6857 19.3524 79.2169C20.3468 77.9796 22.0845 76.4548 23.7244 76.2897L23.9107 76.2739C24.1493 76.2493 24.3919 76.2064 24.6329 76.2227C25.5873 76.2882 26.4105 77.4629 26.9903 78.1832L25.1224 85.0476L23.9245 89.7563C23.4942 91.2672 22.9305 92.7698 22.5601 94.292L20.5461 102.224C20.0433 104.192 19.6934 106.221 18.7658 108.04L19.4786 108.419C20.5012 108.965 21.6146 110 22.2635 110.969C23.0409 112.13 23.1087 113.637 22.7854 114.982C22.6142 115.695 21.8711 116.679 21.2441 117.059C20.7157 117.379 20.0217 117.617 19.4033 117.444C18.7139 117.253 17.9112 116.514 17.7418 115.811C17.6986 115.632 17.8424 115.342 17.8016 115.161C17.7574 114.966 17.5394 114.665 17.4404 114.478L17.195 114.446L16.834 115.071C16.426 115.869 15.9734 116.3 15.334 116.91L15.0609 117.167C14.1045 117.966 12.4616 118.576 11.2432 118.453C10.3912 118.368 9.88117 117.998 9.35203 117.352C8.83191 115.73 9.74713 114.099 9.91912 112.471L9.27586 113.161C8.41772 114.131 7.92802 114.84 8.0062 116.17C8.96348 117.795 9.56917 118.868 11.6348 119.115C12.2039 119.183 12.8191 119.174 13.3622 119.365C14.4866 119.761 16.3668 119.772 17.5202 119.457C18.32 119.238 19.1765 119.295 19.9887 119.089C22.8494 118.365 25.4897 116.623 27.4374 114.421C32.2955 108.932 34.7578 102.181 35.8768 95.0216C36.2455 92.6633 36.5482 90.4499 36.3767 88.0458L36.351 87.4789C36.3643 86.912 36.2993 86.3628 36.2017 85.8053C35.6998 82.9333 34.3945 79.6847 32.1456 77.7449C31.4288 77.1263 30.5331 76.6846 29.7661 76.1305C29.4674 75.9146 29.2421 75.7706 28.8931 75.6434L28.6234 75.8372L28.4839 75.5172C27.5749 75.0543 26.4514 74.8394 25.4616 74.6082C25.0041 74.5432 24.5536 74.6373 24.0946 74.6146C22.7533 74.5491 21.5246 74.6984 20.2279 75.0154L19.985 75.0716C15.9516 76.0334 11.6961 78.8881 9.58618 82.4877C9.04289 83.4144 7.74424 86.036 8.10188 87.0741L8.16868 87.2028L8.11539 87.432C7.96282 88.206 8.0941 89.1682 8.10839 89.9594C8.11574 90.3646 7.99797 91.3998 8.13324 91.7439C8.67431 93.1193 11.1279 93.3613 12.2847 94.0391C12.8326 94.36 13.1621 94.7761 13.5123 95.2957C13.6031 95.7339 13.6376 96.2629 13.4042 96.6676C12.3235 98.5418 10.1674 98.0173 8.4826 98.4802L8.2409 98.5507C7.43304 98.2712 6.52989 98.3727 5.69206 98.1696C3.87093 97.7279 1.77635 95.9582 0.842936 94.3704L0.501414 93.8074L0.417019 93.6492L0.207069 93.24C-0.435354 91.7636 -0.243938 86.3174 0.35259 84.8361C1.13881 82.884 2.02253 81.0926 3.37368 79.4436C6.67315 75.4172 12.2093 72.2829 17.2385 71.0722C18.9641 70.6567 20.6084 70.4694 22.3572 70.2505C22.9387 70.178 23.4779 69.9789 24.0749 69.9212C25.4335 69.7891 26.5574 70.071 27.882 70.2431C28.7304 70.353 29.5906 70.3895 30.4252 70.5906C33.8793 71.4222 36.9613 73.2669 39.6484 75.5384C41.3684 76.9917 42.5667 79.0448 43.566 81.0354C43.9066 81.7137 44.3803 82.5064 44.435 83.272C44.4799 83.8956 44.823 84.3688 44.9788 84.9603C45.176 85.7111 45.3643 86.7113 45.4668 87.4803C45.5338 87.9822 45.5215 88.5816 45.7138 89.0514L45.7946 89.2372C45.4949 89.7405 45.6275 90.6535 45.5575 91.2559C45.38 92.7821 45.1873 94.4478 44.8979 95.9528C44.4932 98.0533 43.705 100.104 42.9907 102.111C43.7922 101.171 44.1822 100.082 44.8915 99.126C45.2041 98.705 45.6536 98.3934 46.0076 98.0089C47.9538 95.8946 50.5428 94.4557 53.2279 93.5117C54.8621 92.9369 57.6478 92.6401 59.3238 93.171L59.5107 93.2341L60.5888 93.6172C62.1105 94.3063 63.1152 95.4988 63.6525 97.0713C63.9961 98.0774 63.863 99.1935 63.4169 100.141C63.0057 101.015 62.3826 102.303 61.4056 102.637C61.1547 102.723 61.0147 102.772 60.8116 102.957C60.9634 103.267 60.8821 103.151 61.1167 103.419L61.2883 103.607C61.5796 105.242 60.8279 106.945 60.4843 108.518C60.3724 109.029 60.3738 109.639 60.1441 110.109C59.9602 110.486 59.8247 110.872 59.6812 111.266C61.1493 109.96 62.5236 108.68 63.8541 107.233C64.3209 106.725 64.9529 106.145 65.2714 105.529C65.5795 104.933 65.6347 104.18 65.8141 103.535C66.036 102.736 66.3505 101.929 66.5072 101.117C66.6383 100.437 66.9297 99.9152 67.1722 99.2748L66.9479 98.9879C66.6556 98.9234 66.3258 98.8627 66.0793 98.6843C65.7446 98.4417 65.4296 98.0025 65.3611 97.5914C65.2679 97.0274 65.4641 96.3038 65.8008 95.8478C67.1564 94.012 69.499 92.3419 71.7962 92.0545L72.0752 92.0229C73.0848 91.8987 73.9736 91.8844 74.8145 92.5593C75.2543 92.9117 75.1645 93.6418 75.2094 94.1801C76.7553 93.0153 77.8571 92.0885 79.6978 91.4196C80.5841 91.0977 81.4734 90.8739 82.4071 91.177C83.2471 91.4496 84.195 91.6853 84.9221 92.2137C86.1664 93.1178 87.6058 95.0191 87.9006 96.5227C88.0362 97.2128 87.9292 97.9399 88.0524 98.6315C88.0948 98.8691 88.1564 99.0008 88.0845 99.2443C87.9129 99.826 87.9563 100.539 87.9065 101.152C87.8331 102.058 87.6798 102.822 87.3894 103.679C87.0882 104.57 86.6746 105.316 86.196 106.12C87.0843 105.688 88.0702 105.254 88.7756 104.545C90.2323 103.079 90.3082 99.9738 91.0348 98.0696C91.1625 97.7353 91.2069 97.6895 91.1571 97.3252C90.7898 97.2616 90.3831 97.2256 90.077 96.9959C89.7517 96.7519 89.5914 96.2343 89.5481 95.8404C89.4608 95.0551 89.969 94.0904 90.4526 93.4998C91.8236 91.8253 94.4722 90.2636 96.6279 90.0403C97.2303 89.9781 97.9426 89.9367 98.4193 90.3484C99.0893 90.9271 99.3185 91.3244 99.4126 92.1965L99.5871 92.2408C100.926 90.9572 102.859 89.9121 104.69 89.5823C106.385 89.2772 108.033 89.6617 109.427 90.6722C110.767 91.6444 111.957 93.9248 112.173 95.555C112.202 95.7739 112.224 95.9636 112.28 96.1791C112.36 96.4832 112.468 96.742 112.399 97.06C111.897 99.4006 111.57 101.601 110.797 103.896L110.924 104.048C111.284 103.921 111.587 103.845 111.836 103.535C111.794 103.117 111.772 102.776 111.901 102.371C112.14 101.618 112.397 100.549 112.423 99.7648C112.498 97.552 114.078 95.204 115.414 93.5102C117.577 90.7693 120.94 88.4801 124.498 88.1182L124.717 88.1C126.266 87.9595 127.476 88.0196 128.885 88.7285C130.105 89.3422 131.395 90.516 131.769 91.8746C131.982 92.6441 132.011 94.5829 131.594 95.2701C131.251 95.835 131.148 96.4906 130.813 97.0703C129.288 99.7062 127.049 102.343 124.51 104.063C123.533 104.725 122.339 105.21 121.412 105.904L121.493 106.135C122.126 106.391 122.884 106.422 123.561 106.343C126.911 105.949 130.268 103.39 132.299 100.824C133.197 99.6894 133.86 98.3929 134.761 97.2784C134.962 97.0294 135.065 96.9348 135.155 96.6257C134.507 96.0923 133.461 95.2996 133.102 94.54C132.981 94.2836 132.822 94.1446 132.696 93.9075C132.47 93.4836 132.467 92.8176 132.445 92.3424C132.366 90.6594 132.429 89.4827 132.994 87.9146C133.543 86.3899 134.628 84.9879 135.93 84.0173C137.594 82.778 139.279 82.3541 141.329 82.7253C141.862 82.8214 143.269 84.3091 143.548 84.8327C144.07 85.8151 144.354 87.1767 143.984 88.2488C143.597 89.3728 143.397 90.4233 142.904 91.53L147.209 91.5103C147.498 91.5167 148.147 91.4693 148.406 91.5645C148.889 91.7429 149.712 92.8413 150.086 93.2371C150.118 93.911 150.221 94.7382 150.029 95.3894C149.712 96.461 148.889 97.1793 148.174 97.9843C146.982 99.3271 145.328 101.399 145.117 103.214C145.061 103.698 145.04 104.398 145.369 104.787L145.736 104.69C145.995 104.394 146.237 104.143 146.368 103.765C146.575 103.167 146.953 102.612 147.319 102.098C149.386 99.191 153.452 97.8413 156.812 97.2636C157.138 96.432 157.251 95.6196 157.491 94.7707L159.516 87.4513C159.629 87.0421 159.633 86.5984 159.755 86.2046C159.896 85.75 160.181 85.3414 160.257 84.8681C160.533 83.1669 161.105 81.5318 161.544 79.8696L164.046 70.5349L164.209 69.9932C164.748 68.3565 166.475 67.0438 167.968 66.3009L168.188 66.1954C168.897 65.8479 169.691 65.8868 170.467 65.8632C170.772 66.0337 171.452 66.2979 171.67 66.5341C171.926 66.8106 172.164 67.5308 172.343 67.8917C172.04 70.6222 171.048 73.3068 170.338 75.9535L166.347 90.83C165.764 92.9758 165.463 95.52 164.497 97.5204L164.415 97.686C164.844 98.3298 165.868 98.5078 166.454 98.9968C166.954 99.4143 167.579 100.367 167.892 100.942C168.074 101.276 168.253 101.559 168.495 101.852L168.575 101.947C168.54 102.216 168.578 102.114 168.443 102.355L168.342 102.524L168.783 103.246C168.642 103.521 168.516 103.769 168.437 104.068C168.227 104.859 167.916 105.825 167.276 106.383C166.811 106.787 165.638 107.283 165.01 107.152C164.299 107.003 163.672 106.031 163.224 105.485C163.291 104.91 163.136 104.619 162.877 104.113L162.616 104.172C162.423 104.628 162.198 105.096 161.91 105.501C161.156 106.56 159.073 107.921 157.737 108.082C157.03 108.168 156.238 108.036 155.695 107.552C155.418 107.305 154.768 106.756 154.611 106.442C154.58 106.38 154.637 105.9 154.643 105.825C154.687 105.284 154.748 104.726 154.953 104.219C155.176 103.668 155.559 103.134 155.527 102.524L155.24 102.541C154.68 102.636 154.117 103.412 153.882 103.874C153.499 104.627 153.46 105.221 153.748 106.008L153.823 106.207C154.217 107.34 154.789 107.727 155.856 108.257C157.109 108.879 158.134 108.713 159.45 108.93C160.452 109.095 161.452 109.467 162.483 109.111C163.179 108.87 164.01 108.915 164.742 108.831C165.578 108.737 166.447 108.473 167.221 108.145C170.543 106.735 173.207 104.286 175.244 101.325C175.652 100.732 176.199 100.061 176.465 99.3956C176.534 99.2236 176.598 99.092 176.698 98.9332C178.029 96.8441 178.95 94.4064 179.713 92.0594C181.01 88.0729 181.743 84.0834 181.869 79.8981C181.913 78.4449 181.968 76.965 181.801 75.5172C181.756 75.1322 181.61 74.7743 181.56 74.3928C181.423 73.363 180.952 72.4919 180.497 71.5711C179.682 69.9202 178.825 68.356 177.456 67.0857C175.735 65.49 172.317 64.0796 169.963 64.1851C168.445 64.2531 167.056 64.1891 165.597 64.6707L165.299 64.7639C165.006 64.8082 164.908 64.7742 164.623 64.9039C163.451 65.4362 162.21 65.8143 161.086 66.4419C160.097 66.994 159.329 67.6866 158.462 68.393C158.07 68.7129 157.583 68.9762 157.279 69.3868C155.731 71.4829 154.303 73.2674 153.668 75.8786C153.284 77.458 153.248 80.6445 154.179 81.9996C154.698 82.7553 155.85 82.9974 156.702 83.1369C157.455 83.2606 158.574 83.6791 158.922 84.4127C159.082 84.7518 159.076 85.8546 158.919 86.173C158.559 86.9046 157.332 87.6415 156.549 87.8151C154.31 88.312 150.932 88.0886 148.98 86.8178C147.951 86.1489 147.221 85.1575 146.551 84.1514C146.283 83.7486 145.945 83.3479 145.859 82.8633C145.802 82.5493 145.846 82.6439 145.742 82.4152C144.998 80.7855 145.147 77.2658 145.619 75.5251C145.896 74.5042 146.132 73.572 146.64 72.629C147.549 70.9396 148.787 69.0856 150.116 67.7014C153.529 64.1482 158.753 61.6898 163.473 60.4776C165.133 60.0512 166.873 60.0911 168.499 59.611ZM168.534 60.485C161.4 61.0336 154.25 63.7351 149.509 69.2961C146.954 72.2943 145.595 76.059 145.964 79.9982C146.148 81.9617 147.099 83.9108 148.64 85.1694C150.417 86.6196 152.514 86.975 154.738 86.732C155.774 86.6181 156.911 86.4175 157.601 85.5558C157.818 85.2847 157.794 85.2019 157.813 84.8543C157.139 84.0001 155.949 83.972 154.973 83.6362C151.973 82.6055 151.929 79.0182 152.247 76.3996C152.706 72.6246 155.11 69.1423 158.084 66.8688C161.774 64.0476 166.454 62.3612 171.129 63.0489C174.607 63.5605 177.64 65.5659 179.71 68.3772C183.202 73.119 183.005 79.1282 182.128 84.6675C180.854 92.7254 177.505 101.984 170.635 106.891C166.738 109.674 162.078 110.381 157.398 109.567C155.708 109.273 153.952 108.617 152.962 107.128C152.41 106.297 152.143 105.008 152.413 104.023C152.751 102.79 153.801 101.802 154.915 101.227C155.485 100.934 156.122 100.746 156.731 100.55C156.377 101.692 154.999 105.165 155.583 106.186C155.762 106.496 156.067 106.748 156.416 106.838C157.309 107.068 158.503 106.524 159.229 106.036C160.673 105.067 161.585 103.783 161.902 102.053L161.929 101.902C162.46 102.366 163.218 102.908 163.57 103.52C164.126 104.488 163.769 105.427 165.01 105.82C165.813 105.681 166.296 105.401 166.764 104.714C167.292 103.939 167.303 102.947 167.09 102.064C166.765 100.715 165.589 99.5962 164.427 98.9268C163.938 98.6448 163.418 98.4551 162.886 98.2707L167.322 81.9183L169.525 73.7091C169.983 72.0069 170.528 70.2717 170.861 68.5414C170.933 68.1682 170.983 67.8296 170.822 67.4653C170.657 67.0936 170.325 66.8032 169.946 66.6691C169.112 66.3758 167.877 66.9807 167.202 67.4199C166.312 67.9986 165.504 68.7879 165.025 69.7452C164.636 70.5216 164.446 71.4331 164.222 72.2681L163.093 76.4489L158.294 94.227L157.565 97.0945C157.531 97.231 157.422 97.8221 157.337 97.9251C157.27 98.0065 157.128 97.9552 157.023 97.9705C153.951 98.422 151.031 99.3143 148.672 101.429C148.132 101.913 147.679 102.497 147.317 103.124C146.678 104.231 146.556 105.771 144.79 105.438C144.346 105.354 144.141 105.093 143.941 104.725C143.5 103.919 143.777 102.765 144.05 101.947C144.672 100.078 145.962 98.3929 147.226 96.9116C147.706 96.3491 148.425 95.6827 148.717 95.0142C148.926 94.5326 148.92 94.0056 148.715 93.5225C148.51 93.0404 148.094 92.5366 147.596 92.3439C146.995 92.1117 146.156 92.228 145.52 92.2428C144.261 92.2729 143.016 92.3439 141.758 92.2507L140.917 92.1925C141.903 90.3553 143.135 87.5055 142.41 85.3789C142.152 84.6202 141.361 83.7827 140.617 83.4854C139.558 83.062 138.264 83.3479 137.275 83.8295C135.487 84.6996 133.943 86.4841 133.338 88.3711C132.838 89.9259 132.802 92.2117 133.618 93.6541C134.252 94.7771 135.129 95.4357 136.194 96.1086C133.236 100.426 129.938 105.828 124.318 106.853C122.753 107.139 121.071 107.077 119.727 106.144C118.746 105.461 118.064 104.432 117.868 103.246C117.697 102.21 117.744 101.203 117.837 100.165C118.086 97.4115 119.411 94.0914 121.612 92.334C122.264 91.8129 123.097 91.4181 123.953 91.4955C124.351 91.5315 124.74 91.7474 124.98 92.0683C125.533 92.8082 125.328 94.1565 125.153 94.9955C124.683 97.2473 122.95 99.4257 121.393 101.048C120.869 101.594 119.35 102.849 119.157 103.535C119.013 104.045 119.129 104.2 119.373 104.628C119.763 104.868 119.914 104.973 120.372 104.828C121.265 104.544 122.173 103.887 122.936 103.356C125.714 101.42 128.55 98.7701 129.938 95.6181C130.466 94.4167 130.844 93.0103 130.3 91.7424C129.787 90.549 128.842 89.6119 127.633 89.1332C125.549 88.3085 122.523 89.0184 120.573 89.9244C117.197 91.494 114.581 94.6642 113.33 98.146C112.87 99.4247 112.635 100.824 112.538 102.175C112.506 102.609 112.62 103.445 112.499 103.824C112.455 103.963 112.316 104.052 112.224 104.165C111.149 104.685 109.922 104.801 108.747 104.926C110.253 101.795 111.795 97.8531 110.581 94.3645C110.054 92.8496 108.984 91.4023 107.517 90.6969C106.111 90.0205 104.576 90.1285 103.147 90.6648C101.554 91.2628 100.171 92.2709 99.038 93.5339C98.4499 94.1895 97.8889 95.0019 97.2106 95.5525C97.5764 94.5893 98.5125 92.5544 98.0669 91.5625C97.9116 91.217 97.6059 90.9601 97.2392 90.8561C95.8668 90.4677 93.2788 91.7844 92.2238 92.5829C91.4681 93.1553 90.2145 94.2289 90.1411 95.2242C90.1194 95.5215 90.2239 95.6146 90.36 95.868C90.9614 96.1377 91.5914 95.974 92.2253 95.8932L90.918 100.714C90.6607 101.725 90.4714 103.015 89.9597 103.928C89.5007 104.747 88.6351 105.498 87.8168 105.943C86.8141 106.489 85.6902 106.531 84.5756 106.584C86.1575 103.614 87.5417 99.7121 86.4893 96.3462C85.9983 94.7746 84.8802 93.1567 83.3738 92.4237C81.9979 91.7543 80.2657 91.8731 78.8607 92.3971C76.2737 93.3618 74.8441 95.4455 72.9876 97.3134C73.3455 96.3615 74.2822 94.3882 73.9036 93.3712C73.767 93.0039 73.4703 92.7175 73.0862 92.6234C71.5009 92.2354 69.2185 93.4634 67.9886 94.3857C67.294 94.9062 66.1483 95.9208 65.9842 96.7982C65.9517 96.9713 65.9591 97.0664 65.9551 97.2527C66.1833 97.5303 66.2257 97.653 66.6033 97.7013C67.0539 97.7585 67.5843 97.6476 68.0344 97.5924L66.6684 102.74C66.4407 103.605 66.2642 104.67 65.8871 105.478C65.5351 106.231 64.8287 106.964 64.2761 107.579C63.0156 108.981 61.658 110.469 60.0238 111.44C59.7226 111.618 59.416 111.714 59.0774 111.791C58.8822 111.715 58.7195 111.726 58.647 111.508C58.0653 109.762 61.1271 104.207 59.4841 103.248C58.9822 102.955 58.4498 103.074 57.914 103.236C56.5948 103.636 55.4176 104.776 54.8133 106.007C53.716 108.244 52.8873 111.442 50.2475 112.436C49.6801 112.65 49.0003 112.636 48.46 112.351C47.6974 111.948 47.1966 111.126 46.96 110.323C46.0766 107.328 47.2518 103.6 48.7883 101.019C49.9138 99.1284 51.6574 97.2912 53.8663 96.7672C54.8251 96.5399 56.1221 96.4911 56.969 97.0452C57.3205 97.2744 57.6409 97.6737 57.7217 98.0927C57.7917 98.4536 57.7779 99.1403 57.597 99.4656C57.4122 99.7979 56.9251 100.072 56.6219 100.289C56.1867 100.6 55.8805 100.719 55.6937 101.224C55.9076 101.661 56.0905 101.895 56.5638 102.06C57.703 102.458 59.1972 102.229 60.2393 101.664C61.2065 101.139 61.9143 100.319 62.2367 99.261C62.5345 98.2855 62.4403 96.9244 61.902 96.0543C61.1345 94.8126 59.7739 94.1569 58.3833 93.8858C57.2934 93.6734 55.9841 93.731 54.8892 93.8922C50.8948 94.4803 47.4381 96.7563 45.0024 99.9536C42.966 102.626 41.1726 106.82 41.6922 110.239C41.9702 112.068 42.8763 113.742 44.405 114.818C45.7606 115.772 47.4495 116.099 49.0718 115.773C50.9332 115.399 52.4476 114.126 53.6011 112.679L53.6903 112.895C54.0748 113.811 54.5811 114.689 55.5596 115.065C56.8379 115.557 58.4232 115.127 59.6004 114.548C61.5811 113.573 63.1452 112.042 64.7267 110.536L62.7105 117.626L51.1718 118.328C43.4304 118.731 35.4045 119.146 27.9914 121.617C23.6569 123.161 18.2224 125.356 16.0867 129.773C15.8776 130.205 15.7564 130.732 15.9404 131.196C16.0854 131.562 16.2175 131.592 16.5451 131.779C17.1838 131.749 17.6913 131.273 18.2089 130.932C19.0253 130.393 19.8216 129.907 20.7227 129.523C22.8659 128.608 25.1491 127.979 27.4231 127.483C34.4423 125.95 41.6385 125.553 48.7879 125.058L60.9807 124.212L58.4651 133.502C58.1033 134.858 57.4107 136.561 57.3954 137.952C57.3924 138.225 57.5009 138.464 57.6039 138.71C58.0062 139.026 58.2526 139.153 58.7742 139.104C60.0199 138.988 61.2419 138.086 61.9853 137.115C63.231 135.488 63.5929 133.051 64.1193 131.095L66.1217 123.797L85.1696 122.489L82.6442 131.825C82.2824 133.204 81.433 135.293 81.679 136.699C81.9038 137.063 81.9935 137.22 82.4012 137.402C83.6567 137.482 84.6619 136.889 85.5674 136.063C86.091 135.587 86.5716 134.955 86.8807 134.315C87.5383 132.953 90.0765 122.238 90.2412 122.116C90.4664 121.947 103.358 121.222 104.807 121.125L173.886 116.33L197.14 114.909C206.353 114.332 215.526 113.94 224.39 111.108C231.449 108.852 238.888 104.922 242.57 98.2076C243.462 96.5798 244.17 94.7751 244.222 92.9019C244.257 91.6384 244.12 90.7038 243.187 89.776C242.546 89.1391 241.56 88.9725 240.687 89.0105C238.662 89.0982 236.95 90.5332 235.69 92.0141C234.066 93.9223 230.349 99.6096 227.791 99.7358C227.638 99.7431 227.559 99.7215 227.4 99.6978C227.059 99.3296 227.004 98.982 227.036 98.4925C227.114 97.305 227.48 96.0519 227.794 94.9072C228.386 92.7427 229.104 90.6323 229.902 88.5353C230.453 87.0884 231.145 85.5795 231.359 84.0385C231.461 83.3079 231.443 82.5991 230.929 82.0258C230.484 81.5274 229.933 81.3903 229.277 81.4234C228.148 81.4801 227.08 81.9242 226.082 82.4231C222.756 84.0843 220.53 86.6541 218.015 89.29C218.586 87.5405 219.727 84.7498 219.484 82.9604C219.206 82.5379 219.052 82.3146 218.518 82.2387C216.642 81.9715 214.143 83.4864 212.814 84.7153C212.299 85.1905 211.86 85.7146 211.555 86.349L211.595 86.9267C211.724 87.0229 211.837 87.1466 211.982 87.2156C212.482 87.4513 213.292 86.9953 213.605 87.5045L212.343 92.1565C212.114 93.0296 211.956 94.0342 211.595 94.8594C211.289 95.5579 210.663 96.2629 210.173 96.8431C208.893 98.3565 207.417 100.034 205.695 101.035C205.316 101.256 205.018 101.403 204.582 101.442C204.358 101.349 204.297 101.383 204.198 101.133C203.994 100.62 204.226 99.9655 204.346 99.4449L205.372 95.3223C205.499 94.7771 205.712 94.0879 205.592 93.5284C205.495 93.071 205.088 92.8861 204.726 92.6874C203.572 92.6317 202.64 93.1114 201.793 93.8661C200.37 95.1335 200.085 96.6351 199.32 98.2682C198.753 99.4774 197.917 100.568 196.898 101.431C196.426 101.831 195.653 102.283 195.017 102.279C194.38 102.276 193.718 101.917 193.317 101.437C192.183 100.083 192.151 98.1711 192.34 96.5034C192.705 93.2889 194.273 89.711 196.865 87.6859C198.208 86.6374 199.839 86.0222 201.553 86.2923C202.162 86.3884 202.74 86.6852 203.079 87.2156C203.348 87.6371 203.372 88.3346 203.222 88.7985C202.891 89.8199 201.54 89.9604 201.26 90.8438C201.448 91.25 201.637 91.4827 202.054 91.6508C203.041 92.0491 204.579 91.882 205.527 91.4398C206.606 90.936 207.502 89.988 207.847 88.836C208.146 87.8372 208.024 86.5585 207.47 85.6776C206.703 84.4565 205.347 83.7348 203.947 83.5012C200.365 82.9022 196.63 84.1948 193.792 86.3431C190.572 88.7812 187.867 92.9832 187.344 97.0363C187.048 99.3296 187.246 101.433 188.733 103.29C189.618 104.396 191.048 105.338 192.471 105.486C194.494 105.696 196.232 105.112 197.78 103.822C198.294 103.394 198.73 102.863 199.172 102.363L199.218 102.48C199.592 103.4 200.115 104.29 201.072 104.688C202.339 105.215 203.808 104.828 204.997 104.284C207.093 103.326 208.733 101.69 210.357 100.102C210.048 101.052 209.289 102.669 209.658 103.626C209.819 104.046 210.125 104.172 210.503 104.349C211.868 104.291 213.06 103.601 213.969 102.592C215.608 100.776 215.547 98.1558 216.484 95.9986C217.767 93.0409 220.011 90.3853 222.368 88.2099C222.991 87.6346 223.933 86.735 224.8 86.6285C224.966 86.6083 224.972 86.6167 225.112 86.6379C225.324 86.9558 225.236 87.0875 225.158 87.4557C224.931 88.5318 224.3 89.6567 223.902 90.6895C223.046 92.9073 222.31 95.2291 221.928 97.5771C221.694 99.0175 221.725 100.714 222.591 101.947C223.099 102.669 223.941 103.1 224.8 103.209C226.925 103.478 229.006 102.313 230.624 101.039C231.778 100.129 232.861 99.0855 233.828 97.9794C234.919 96.7317 237.322 92.6998 238.954 92.6199C239.335 92.7934 239.349 92.8457 239.567 93.209C239.738 95.556 237.542 99.0308 236.053 100.748C233.959 103.165 231.204 104.74 228.267 105.909C222.546 108.185 216.339 108.93 210.236 109.335L167.348 111.741C169.344 110.716 171.387 109.962 173.315 108.77C180.232 104.491 185.385 97.5125 187.879 89.815C189.904 83.5638 190.744 76.2306 187.636 70.1854C185.408 65.8528 181.547 62.8472 176.934 61.3743C174.221 60.5081 171.362 60.3396 168.534 60.485ZM224.122 88.5155L224.004 88.5851C223.147 89.1061 222.885 89.7489 222.245 90.4124C221.229 91.4679 220.145 92.3858 219.356 93.6339L217.697 96.499C217.51 96.8036 217.439 97.0516 217.367 97.3972C217.009 99.1289 216.673 100.766 215.846 102.346L215.727 102.585C214.934 104.111 213.457 105.02 211.868 105.562C211.237 105.777 210.724 105.716 210.14 105.413C209.65 105.158 209.294 104.917 208.962 104.474L208.77 103.534C208.212 103.691 207.166 104.559 206.637 104.923C205.104 105.979 203.549 106.392 201.702 106.053C200.552 105.841 199.832 105.334 199.11 104.434C198.255 104.901 197.722 105.8 196.783 106.148L196.588 106.222C194.877 106.855 192.594 106.847 190.828 106.441C188.858 104.837 187.057 103.379 186.739 100.719C186.667 100.119 186.609 99.5134 186.453 98.9298C186.238 98.1287 187.052 96.1663 187.167 95.2429C186.863 95.7423 186.505 96.2609 186.263 96.7923C186.096 97.1591 186.043 97.5455 185.833 97.8955C184.186 100.642 182.073 103.047 179.812 105.291C178.937 106.159 178.057 107.115 177.058 107.841C175.476 108.992 173.751 109.862 172.158 110.961C173.434 110.699 174.737 110.394 176.04 110.325C178.297 110.205 180.912 110.582 183.088 110.008C183.43 109.918 183.782 109.881 184.132 109.837L191.06 109.739C192.131 109.671 193.137 109.392 194.222 109.347L200.789 109.234C201.802 109.175 202.738 108.896 203.755 108.843L209.35 108.775C210.328 108.717 211.239 108.459 212.205 108.395C213.695 108.294 215.094 108.31 216.568 108.014C217.508 107.825 218.48 107.813 219.427 107.636C225.45 106.511 232.701 104.755 236.416 99.4193C237.458 97.9241 238.353 95.9286 238.968 94.2201L238.737 94.1096C237.875 94.7086 237.355 95.7862 236.749 96.6232C236.087 97.5391 235.222 98.526 234.477 99.3887C233.309 100.74 231.877 101.719 230.475 102.799C229.559 103.504 228.47 103.891 227.394 104.27C226.334 104.643 225.158 104.628 224.104 104.251L223.879 104.173C223.427 104.012 223.09 103.868 222.739 103.535L222.553 103.361C222.097 102.927 221.835 102.578 221.564 102.019L221.478 101.856C221.164 101.213 221.213 100.377 221.22 99.6751C221.244 97.0472 221.796 94.6637 222.715 92.2117C222.931 91.6365 223.079 91.0558 223.347 90.4992C223.66 89.8515 224.067 89.3191 224.236 88.6107L224.122 88.5155ZM41.3841 105.99C40.1414 107.975 39.223 110.018 37.7165 111.86C35.3898 114.705 32.8155 117.518 29.6853 119.521C28.7146 120.141 27.6671 120.701 26.6546 121.251C26.3105 121.438 25.7815 121.617 25.5217 121.889C26.9597 121.642 28.1453 120.911 29.5201 120.488C31.8863 119.76 34.3974 119.306 36.8267 118.865C39.2767 118.42 41.745 118.339 44.2112 118.118C44.8683 118.059 45.5038 117.858 46.1515 117.796C47.1527 117.701 48.11 117.837 49.1137 117.636C50.496 117.675 51.9936 117.773 53.3364 117.398C55.1874 116.883 57.7779 117.18 59.7084 117.163C60.574 117.156 61.4337 117.015 62.2964 117.027C62.5818 115.819 62.8445 114.685 63.2951 113.522C61.865 114.838 60.3448 116.104 58.3552 116.424C57.6862 116.531 56.9853 116.479 56.3104 116.476C55.2836 116.471 54.2286 115.436 53.5533 114.756C51.9714 116.271 50.6039 116.881 48.4453 117.085C46.7805 117.243 44.9329 116.703 43.6744 115.597C42.2902 114.38 40.974 112.114 40.8808 110.254C40.8448 109.54 40.7926 108.558 40.975 107.868C41.1588 107.174 41.4803 106.731 41.5226 105.982L41.3841 105.99ZM201.217 87.537C200.694 87.6558 200.722 87.5558 200.249 87.5079C200.156 87.4986 199.684 87.7426 199.582 87.7865C197.928 88.4948 196.457 89.7179 195.498 91.2603C194.806 92.372 194.305 93.6709 194.006 94.9422C193.845 95.625 193.797 96.3294 193.594 96.9988C193.384 97.6934 193.472 98.7296 193.67 99.4193C193.913 100.262 193.997 100.799 194.716 101.397C195.445 101.529 195.674 101.51 196.365 101.218C197.356 100.352 198.151 99.4217 198.695 98.2076C199.264 96.9382 199.605 95.4776 200.456 94.3645L200.586 94.1905C201.016 93.6384 201.585 93.2765 202.158 92.8901L202.029 92.826C201.367 92.4917 200.949 92.162 200.539 91.5428C200.465 91.0558 200.44 90.7822 200.627 90.3208C201.428 89.742 202.307 89.1618 203.029 88.4934C202.575 88.101 202.146 87.7613 201.621 87.4685C201.559 87.4769 201.259 87.5005 201.217 87.537ZM54.9528 97.8527L53.8234 98.1716C52.5284 98.5019 50.6369 100.605 49.97 101.762C49.0762 103.311 48.8302 104.998 48.0997 106.568L48.2821 107.001L48.1633 107.184C47.8715 107.676 47.9227 109.411 48.1194 109.956C48.3772 110.673 48.7405 111.301 49.3286 111.792C50.179 111.915 50.4777 111.668 51.1703 111.201C52.4668 109.989 53.3216 108.538 53.8525 106.848C54.3267 105.339 55.3166 104.197 56.5869 103.288C55.8766 102.856 55.2057 102.687 55.0405 101.802C54.9622 101.383 55.0637 100.785 55.3541 100.459C55.8761 99.8738 57.0138 99.5834 57.2332 98.8415C57.0094 98.3781 56.7772 98.1943 56.3592 97.9029C55.8495 97.8068 55.4679 97.7846 54.9528 97.8527ZM123.424 92.8482C121.57 93.7251 120.299 96.2471 119.659 98.107L119.253 99.681C119.037 100.603 118.892 101.704 118.963 102.65C119.268 102.626 119.238 102.568 119.436 102.354C121.574 100.16 124.826 97.0748 124.713 93.7187C124.704 93.4461 124.656 93.2174 124.572 92.9596C124.217 92.7121 123.998 92.7427 123.565 92.8127L123.424 92.8482Z" fill="#5B7E75"/>
<path d="M22.6285 70.8859C26.2294 70.6468 29.8102 71.0043 33.1598 72.4171C37.4939 74.245 40.9934 77.6399 42.7464 82.0263C45.402 88.6723 43.928 96.9126 41.1512 103.289C37.6374 111.358 31.1949 118.397 22.8874 121.624C17.7925 123.603 10.4391 124.407 5.3208 122.08C3.46101 121.234 1.95646 119.888 1.26464 117.922C0.781641 116.549 0.967485 114.921 1.6351 113.646C2.97851 111.078 6.0134 109.711 8.63475 108.898C9.43497 108.649 10.2499 108.518 11.0737 108.377C11.1486 108.364 11.7591 108.291 11.8025 108.253C11.9839 108.093 12.3822 105.969 12.4921 105.561L16.7352 89.8831L18.2532 84.2421C18.7213 82.4705 19.0028 80.5799 20.1611 79.1109C20.9541 78.1053 22.429 77.1174 23.7404 77.0164C24.3463 76.97 24.6455 77.1401 25.0788 77.5246C25.3302 78.0033 25.3632 78.374 25.2937 78.9123C25.1409 80.0934 24.7244 81.3011 24.4118 82.4537L22.8396 88.2809L17.3938 108.601C18.1544 108.899 18.9468 109.238 19.6021 109.736C20.6083 110.502 21.5336 111.704 21.6665 112.996C21.7762 114.063 21.4718 114.732 20.845 115.563C20.4612 115.843 20.0076 116.191 19.5055 116.181C18.3088 116.159 18.4842 114.604 18.0413 113.854C17.6951 113.267 16.9901 112.728 16.4869 112.267C16.0441 113.825 15.4498 115.05 14.1398 116.056C13.3072 116.695 12.0805 117.416 11.0027 117.235C10.6334 117.174 10.2982 116.955 10.0954 116.632C9.42344 115.564 10.7956 112.136 11.1714 110.874C10.4584 111.121 9.70112 111.373 9.05377 111.764C8.01348 112.393 7.11605 113.257 6.86089 114.483C6.64572 115.518 6.87706 116.728 7.47586 117.597C8.49214 119.072 10.1749 119.634 11.8512 119.942C16.1954 120.74 20.7541 120.173 24.4848 117.709C31.2467 113.241 34.7782 104.477 36.2768 96.8298C37.4363 90.9128 37.9529 84.2505 34.3641 79.0326C32.5087 76.3346 29.5194 74.1557 26.2604 73.5637L26.0046 73.5198C21.6513 72.7207 17.1567 74.0867 13.5433 76.5318C10.2166 78.7826 7.50909 82.1821 6.76403 86.1962C6.27413 88.836 6.30652 92.5465 9.10321 93.8844C10.1461 94.3833 11.6006 94.2985 12.2933 95.3041C12.2322 95.6058 12.2178 95.7216 12.0231 95.9612C11.3781 96.7549 10.2485 97.0142 9.27358 97.1216C7.03141 97.3686 4.93422 97.0664 3.1368 95.6018C1.58654 94.3389 0.674472 92.442 0.493014 90.4662C0.12512 86.459 1.2848 82.884 3.87475 79.7996C8.53611 74.2479 15.5642 71.5445 22.6285 70.8859Z" fill="white"/>
<path d="M168.533 60.485C171.362 60.3396 174.221 60.5082 176.933 61.3743C181.547 62.8473 185.407 65.8528 187.636 70.1854C190.744 76.2306 189.904 83.5638 187.879 89.815C185.385 97.5125 180.232 104.491 173.315 108.77C171.387 109.962 169.344 110.716 167.347 111.741L210.236 109.335C216.338 108.93 222.546 108.185 228.267 105.909C231.204 104.74 233.958 103.165 236.053 100.748C237.542 99.0309 239.737 95.556 239.567 93.209C239.348 92.8457 239.334 92.7935 238.953 92.6199C237.321 92.6998 234.919 96.7317 233.828 97.9794C232.86 99.0856 231.778 100.129 230.623 101.039C229.006 102.313 226.924 103.478 224.8 103.209C223.94 103.1 223.099 102.669 222.591 101.947C221.725 100.714 221.694 99.0175 221.928 97.5771C222.31 95.2292 223.046 92.9073 223.901 90.6895C224.3 89.6568 224.931 88.5319 225.158 87.4557C225.236 87.0875 225.324 86.9559 225.112 86.6379C224.972 86.6167 224.966 86.6083 224.8 86.6285C223.932 86.735 222.99 87.6347 222.367 88.2099C220.011 90.3854 217.767 93.0409 216.483 95.9987C215.547 98.1559 215.607 100.776 213.969 102.592C213.059 103.601 211.868 104.291 210.502 104.349C210.125 104.172 209.819 104.046 209.657 103.626C209.289 102.669 210.047 101.052 210.356 100.102C208.733 101.69 207.093 103.326 204.997 104.284C203.807 104.828 202.339 105.216 201.072 104.688C200.115 104.29 199.591 103.4 199.218 102.48L199.172 102.363C198.73 102.863 198.294 103.394 197.78 103.822C196.232 105.112 194.494 105.696 192.47 105.486C191.047 105.338 189.618 104.396 188.733 103.291C187.246 101.433 187.047 99.3296 187.343 97.0364C187.866 92.9833 190.572 88.7813 193.792 86.3431C196.63 84.1948 200.365 82.9023 203.947 83.5012C205.347 83.7349 206.703 84.4566 207.47 85.6776C208.023 86.5585 208.146 87.8373 207.846 88.836C207.501 89.988 206.606 90.936 205.526 91.4398C204.578 91.882 203.041 92.0491 202.054 91.6508C201.636 91.4827 201.448 91.25 201.259 90.8438C201.539 89.9604 202.891 89.82 203.222 88.7985C203.372 88.3347 203.348 87.6371 203.078 87.2157C202.739 86.6852 202.161 86.3885 201.553 86.2923C199.839 86.0222 198.207 86.6374 196.865 87.6859C194.272 89.711 192.705 93.2889 192.34 96.5035C192.151 98.1712 192.183 100.083 193.316 101.437C193.718 101.917 194.38 102.276 195.017 102.279C195.652 102.283 196.425 101.831 196.898 101.431C197.917 100.568 198.753 99.4775 199.32 98.2683C200.085 96.6351 200.37 95.1335 201.793 93.8661C202.64 93.1114 203.572 92.6318 204.726 92.6875C205.087 92.8861 205.494 93.071 205.592 93.5285C205.712 94.088 205.499 94.7771 205.372 95.3223L204.346 99.4449C204.226 99.9655 203.993 100.62 204.197 101.133C204.297 101.383 204.358 101.349 204.581 101.442C205.018 101.403 205.316 101.256 205.695 101.035C207.417 100.035 208.893 98.3565 210.173 96.8431C210.663 96.2629 211.289 95.558 211.595 94.8594C211.956 94.0342 212.113 93.0296 212.343 92.1566L213.605 87.5045C213.292 86.9953 212.482 87.4513 211.982 87.2157C211.836 87.1466 211.723 87.0229 211.594 86.9268L211.555 86.349C211.86 85.7146 212.299 85.1906 212.813 84.7154C214.143 83.4864 216.642 81.9716 218.518 82.2388C219.051 82.3147 219.206 82.538 219.484 82.9604C219.727 84.7499 218.586 87.5405 218.015 89.29C220.53 86.6542 222.755 84.0844 226.081 82.4231C227.08 81.9242 228.147 81.4801 229.277 81.4234C229.933 81.3904 230.483 81.5274 230.929 82.0258C231.442 82.5991 231.46 83.308 231.359 84.0385C231.144 85.5795 230.452 87.0885 229.902 88.5353C229.104 90.6323 228.386 92.7427 227.793 94.9073C227.48 96.0519 227.114 97.305 227.036 98.4925C227.004 98.9821 227.058 99.3296 227.4 99.6978C227.559 99.7215 227.638 99.7432 227.79 99.7358C230.349 99.6096 234.066 93.9223 235.69 92.0141C236.95 90.5333 238.662 89.0983 240.687 89.0105C241.56 88.9726 242.546 89.1392 243.187 89.7761C244.12 90.7038 244.257 91.6385 244.222 92.9019C244.169 94.7752 243.462 96.5799 242.569 98.2076C238.888 104.922 231.449 108.852 224.389 111.108C215.526 113.94 206.353 114.332 197.139 114.909L173.885 116.33L104.806 121.125C103.358 121.222 90.4661 121.947 90.2409 122.116C90.0762 122.238 87.538 132.953 86.8804 134.315C86.5713 134.955 86.0907 135.587 85.5671 136.063C84.6616 136.889 83.6564 137.482 82.4009 137.402C81.9932 137.22 81.9035 137.064 81.6787 136.699C81.4327 135.293 82.2821 133.204 82.6439 131.825L85.1693 122.489L66.1214 123.797L64.119 131.095C63.5926 133.051 63.2307 135.488 61.985 137.115C61.2416 138.086 60.0196 138.988 58.7739 139.104C58.2523 139.153 58.0059 139.026 57.6036 138.71C57.5006 138.464 57.3921 138.225 57.3951 137.952C57.4104 136.561 58.103 134.858 58.4648 133.502L60.9804 124.212L48.7876 125.058C41.6382 125.553 34.442 125.95 27.4228 127.483C25.1488 127.979 22.8656 128.608 20.7224 129.523C19.8213 129.907 19.025 130.393 18.2086 130.932C17.691 131.273 17.1835 131.749 16.5448 131.779C16.2172 131.592 16.0851 131.562 15.9401 131.196C15.7561 130.732 15.8773 130.206 16.0864 129.773C18.2221 125.356 23.6566 123.161 27.9911 121.617C35.4042 119.146 43.4301 118.731 51.1715 118.328L62.7102 117.626L64.7264 110.536C63.1449 112.042 61.5808 113.573 59.6001 114.548C58.4229 115.127 56.8376 115.557 55.5593 115.065C54.5808 114.689 54.0745 113.811 53.69 112.895L53.6008 112.679C52.4473 114.126 50.9329 115.399 49.0715 115.773C47.4492 116.099 45.7603 115.772 44.4047 114.818C42.876 113.742 41.9699 112.068 41.6919 110.239C41.1723 106.82 42.9657 102.626 45.0021 99.9537C47.4378 96.7564 50.8945 94.4804 54.8889 93.8923C55.9838 93.7311 57.293 93.6734 58.383 93.8859C59.7736 94.157 61.1342 94.8126 61.9017 96.0544C62.44 96.9245 62.5342 98.2855 62.2364 99.2611C61.914 100.319 61.2061 101.139 60.239 101.664C59.1968 102.229 57.7027 102.458 56.5635 102.06C56.0902 101.895 55.9073 101.661 55.6934 101.225C55.8802 100.719 56.1864 100.6 56.6216 100.289C56.9248 100.072 57.4118 99.7979 57.5967 99.4656C57.7776 99.1403 57.7914 98.4536 57.7214 98.0928C57.6406 97.6738 57.3202 97.2745 56.9687 97.0452C56.1218 96.4911 54.8248 96.5399 53.866 96.7672C51.6571 97.2912 49.9135 99.1285 48.788 101.019C47.2515 103.6 46.0763 107.328 46.9597 110.323C47.1963 111.126 47.6971 111.948 48.4597 112.351C49 112.636 49.6798 112.65 50.2472 112.436C52.887 111.442 53.7157 108.244 54.813 106.007C55.4173 104.776 56.5945 103.636 57.9137 103.236C58.4495 103.074 58.9819 102.955 59.4838 103.248C61.1268 104.207 58.065 109.762 58.6467 111.508C58.7192 111.726 58.8819 111.715 59.0771 111.791C59.4157 111.714 59.7223 111.619 60.0235 111.44C61.6577 110.469 63.0153 108.981 64.2758 107.579C64.8284 106.964 65.5348 106.231 65.8868 105.478C66.2639 104.67 66.4404 103.606 66.6681 102.74L68.0341 97.5924C67.584 97.6476 67.0536 97.7585 66.6031 97.7014C66.2254 97.653 66.183 97.5303 65.9548 97.2528C65.9588 97.0664 65.9514 96.9713 65.9839 96.7983C66.148 95.9208 67.2937 94.9063 67.9883 94.3857C69.2182 93.4634 71.5006 92.2354 73.0859 92.6234C73.47 92.7176 73.7667 93.004 73.9033 93.3712C74.2818 94.3882 73.3452 96.3615 72.9873 97.3134C74.8438 95.4456 76.2734 93.3618 78.8604 92.3971C80.2654 91.8731 81.9976 91.7543 83.3735 92.4238C84.88 93.1568 85.998 94.7747 86.489 96.3462C87.5414 99.7121 86.1572 103.614 84.5753 106.584C85.6899 106.531 86.8138 106.489 87.8165 105.943C88.6348 105.498 89.5004 104.747 89.9594 103.928C90.4711 103.015 90.6604 101.725 90.9177 100.714L92.225 95.8932C91.5911 95.974 90.9611 96.1377 90.3597 95.868C90.2236 95.6147 90.1191 95.5215 90.1408 95.2242C90.2142 94.229 91.4678 93.1553 92.2235 92.583C93.2785 91.7844 95.8665 90.4677 97.2389 90.8561C97.6057 90.9602 97.9113 91.217 98.0666 91.5626C98.5122 92.5544 97.5761 94.5893 97.2103 95.5526C97.8886 95.0019 98.4496 94.1895 99.0377 93.5339C100.171 92.2709 101.554 91.2628 103.147 90.6649C104.576 90.1285 106.111 90.0206 107.517 90.6969C108.984 91.4023 110.053 92.8497 110.581 94.3645C111.795 97.8532 110.252 101.795 108.747 104.926C109.921 104.801 111.149 104.685 112.224 104.166C112.316 104.052 112.455 103.963 112.499 103.824C112.62 103.445 112.506 102.609 112.537 102.175C112.634 100.824 112.87 99.4247 113.33 98.146C114.581 94.6642 117.196 91.494 120.573 89.9245C122.523 89.0184 125.548 88.3085 127.632 89.1333C128.842 89.6119 129.787 90.549 130.3 91.7425C130.844 93.0104 130.466 94.4168 129.937 95.6181C128.55 98.7701 125.714 101.42 122.936 103.356C122.173 103.887 121.265 104.544 120.371 104.828C119.914 104.973 119.763 104.868 119.373 104.628C119.129 104.201 119.013 104.045 119.157 103.535C119.35 102.849 120.869 101.594 121.393 101.048C122.95 99.4257 124.682 97.2473 125.153 94.9955C125.328 94.1565 125.533 92.8083 124.98 92.0683C124.74 91.7474 124.351 91.5315 123.953 91.4955C123.097 91.4181 122.263 91.813 121.611 92.334C119.411 94.0914 118.086 97.4115 117.837 100.165C117.744 101.203 117.697 102.21 117.868 103.246C118.063 104.432 118.746 105.462 119.727 106.144C121.07 107.077 122.752 107.139 124.318 106.853C129.938 105.828 133.236 100.426 136.194 96.1086C135.129 95.4357 134.252 94.7771 133.617 93.6542C132.801 92.2118 132.838 89.9259 133.337 88.3711C133.943 86.4841 135.486 84.6996 137.274 83.8295C138.264 83.3479 139.558 83.062 140.617 83.4854C141.361 83.7827 142.151 84.6202 142.41 85.3789C143.135 87.5055 141.903 90.3553 140.916 92.1925L141.758 92.2507C143.016 92.3439 144.261 92.2729 145.52 92.2428C146.156 92.228 146.995 92.1117 147.596 92.3439C148.094 92.5366 148.51 93.0404 148.715 93.5225C148.92 94.0056 148.926 94.5326 148.716 95.0142C148.425 95.6827 147.705 96.3492 147.225 96.9116C145.961 98.393 144.671 100.078 144.05 101.947C143.777 102.766 143.5 103.919 143.94 104.726C144.141 105.093 144.345 105.354 144.79 105.438C146.555 105.771 146.678 104.231 147.316 103.124C147.678 102.497 148.132 101.913 148.672 101.429C151.03 99.3143 153.951 98.4221 157.023 97.9705C157.127 97.9552 157.27 98.0065 157.337 97.9252C157.422 97.8221 157.531 97.2311 157.565 97.0945L158.294 94.227L163.093 76.449L164.221 72.2682C164.445 71.4331 164.636 70.5216 165.025 69.7452C165.504 68.7879 166.312 67.9987 167.201 67.4199C167.877 66.9807 169.112 66.3759 169.945 66.6692C170.324 66.8033 170.657 67.0936 170.821 67.4653C170.983 67.8296 170.933 68.1683 170.861 68.5414C170.527 70.2717 169.983 72.0069 169.525 73.7091L167.321 81.9183L162.886 98.2707C163.417 98.4551 163.938 98.6449 164.427 98.9268C165.588 99.5963 166.765 100.715 167.09 102.065C167.302 102.947 167.292 103.939 166.764 104.714C166.296 105.401 165.813 105.681 165.01 105.82C163.768 105.427 164.126 104.488 163.569 103.52C163.218 102.908 162.46 102.366 161.929 101.902L161.902 102.053C161.585 103.783 160.673 105.067 159.228 106.036C158.502 106.524 157.309 107.068 156.416 106.838C156.066 106.748 155.761 106.496 155.583 106.186C154.998 105.165 156.377 101.692 156.731 100.55C156.122 100.746 155.485 100.934 154.915 101.227C153.801 101.802 152.75 102.79 152.413 104.023C152.143 105.008 152.41 106.297 152.962 107.128C153.952 108.617 155.708 109.273 157.397 109.567C162.078 110.381 166.738 109.674 170.635 106.891C177.505 101.984 180.853 92.7254 182.128 84.6676C183.005 79.1282 183.201 73.119 179.71 68.3773C177.64 65.5659 174.607 63.5606 171.128 63.0489C166.454 62.3612 161.774 64.0476 158.084 66.8688C155.11 69.1423 152.706 72.6246 152.247 76.3997C151.929 79.0183 151.973 82.6055 154.973 83.6363C155.949 83.972 157.139 84.0001 157.813 84.8544C157.794 85.2019 157.818 85.2847 157.601 85.5559C156.911 86.4176 155.774 86.6182 154.737 86.7321C152.514 86.9751 150.417 86.6197 148.64 85.1694C147.099 83.9109 146.147 81.9617 145.963 79.9983C145.595 76.059 146.954 72.2943 149.509 69.2961C154.25 63.7351 161.399 61.0337 168.533 60.485ZM102.155 94.2531L101.804 94.4252C98.4205 96.1259 96.2456 100.499 95.134 103.957L91.8834 115.886L152.96 112.472C151.269 111.771 149.643 111.283 148.325 109.928C147.763 109.35 147.38 108.701 146.905 108.057L146.755 108.144C145.387 108.914 143.702 109.324 142.147 108.933C140.812 108.597 139.971 107.602 139.259 106.497L139.194 106.324C138.56 104.591 138.829 103.006 139.606 101.379C140.285 99.9566 141.351 98.7661 142.39 97.5988C140.907 97.5283 139.569 97.3124 138.139 96.921C134.952 102.502 130.42 108.433 123.941 110.2C121.452 110.879 118.611 110.997 116.304 109.667C115.013 108.924 113.883 107.729 113.206 106.401L113.048 106.529C111.633 107.639 109.967 108.043 108.183 107.799L106.985 107.533C105.003 110.092 102.645 111.839 99.3616 112.229C98.2307 112.363 97.0871 112.251 96.1978 111.479C95.6319 110.987 95.3085 110.289 95.2572 109.543C95.1729 108.311 95.7965 106.931 96.6286 106.049C98.0222 104.572 100.169 104.255 102.098 104.263L105.073 104.413C105.603 102.341 105.859 100.204 105.725 98.0632C105.673 97.2291 105.567 96.3147 105.115 95.592C104.744 94.997 104.167 94.434 103.466 94.2615C103.052 94.16 102.576 94.2226 102.155 94.2531ZM77.9889 95.9928C74.7852 97.3721 72.7754 100.975 71.543 104.082C69.8753 108.286 69.0614 112.986 67.8019 117.338L86.8409 116.176L88.2661 110.649L88.971 108.34C88.7147 108.315 87.8949 108.918 87.6001 109.059C87.1899 109.256 86.7256 109.37 86.2804 109.454C85.1604 109.665 83.8694 109.523 82.7499 109.345C80.8742 111.719 78.4587 113.579 75.3629 113.92C74.2902 114.037 73.0583 114.045 72.1759 113.332C71.5588 112.832 71.1521 112.129 71.0899 111.331C70.9968 110.138 71.5376 108.827 72.314 107.942C73.4221 106.679 75.1771 106.069 76.823 105.997L80.9269 106.068C81.5525 103.797 82.1623 99.6623 81.0142 97.4697C80.7011 96.8712 80.044 96.1845 79.3672 96.0223C78.9378 95.9193 78.4281 95.9721 77.9889 95.9928ZM100.964 106.372C100.232 106.621 99.5962 106.905 99.2482 107.643C99.0771 108.006 98.9771 108.667 99.1535 109.044C99.3423 109.447 99.649 109.752 100.093 109.841C100.698 109.962 101.191 109.698 101.697 109.407C102.694 108.688 103.472 107.82 104.082 106.751C103.053 106.562 102.015 106.32 100.964 106.372Z" fill="white"/>
<path d="M138.282 86.0604L138.602 86.05C138.815 86.197 139.02 86.33 139.155 86.5578C139.846 87.7177 139.241 89.8094 138.89 90.9998L138.581 91.0925C138.229 90.8036 137.942 90.3989 137.714 90.007C137.245 89.1981 136.99 88.2442 137.264 87.3219C137.444 86.7195 137.747 86.368 138.282 86.0604Z" fill="#091218"/>
<path d="M100.965 106.374C102.016 106.321 103.053 106.563 104.082 106.752C103.473 107.821 102.694 108.689 101.698 109.408C101.191 109.7 100.699 109.963 100.093 109.842C99.6493 109.753 99.3427 109.448 99.1539 109.045C98.9774 108.668 99.0775 108.007 99.2485 107.644C99.5966 106.906 100.232 106.622 100.965 106.374ZM100.977 107.724C100.567 108.083 100.432 108.278 100.296 108.808L100.454 109.191C100.9 109.143 101.211 108.952 101.594 108.738L103.162 107.585C102.465 107.612 101.65 107.558 100.977 107.724Z" fill="#091218"/>
<path d="M76.5782 108.087C77.7564 108.004 78.803 108.264 79.9442 108.532C79.2215 109.539 78.4944 110.327 77.5469 111.119C77.1215 111.315 76.6768 111.549 76.1977 111.555C75.7575 111.56 75.3518 111.407 75.0836 111.045C74.844 110.722 74.8061 110.087 74.9051 109.705C75.1299 108.844 75.8442 108.471 76.5782 108.087Z" fill="#091218"/>
<path d="M77.9892 95.9932C78.4284 95.9725 78.9382 95.9197 79.3675 96.0228C80.0444 96.1849 80.7015 96.8716 81.0145 97.4701C82.1626 99.6628 81.5528 103.798 80.9272 106.069L76.8234 105.997C75.1774 106.07 73.4225 106.68 72.3143 107.942C71.5379 108.828 70.9971 110.139 71.0903 111.332C71.1524 112.13 71.5591 112.832 72.1763 113.332C73.0587 114.046 74.2906 114.038 75.3632 113.92C78.459 113.579 80.8745 111.719 82.7502 109.345C83.8697 109.524 85.1608 109.666 86.2808 109.454C86.7259 109.371 87.1903 109.256 87.6004 109.06C87.8952 108.918 88.715 108.316 88.9713 108.341L88.2664 110.649L86.8413 116.177L67.8022 117.338C69.0618 112.986 69.8756 108.286 71.5433 104.083C72.7757 100.975 74.7855 97.3725 77.9892 95.9932ZM78.6375 97.2354C76.1682 98.2337 74.2146 101.116 73.2046 103.505L71.4763 108.165C71.9214 107.712 72.4326 107.263 72.7831 106.732L72.964 106.622C75.4436 105.126 77.797 105.276 80.5782 105.387C80.9051 103.608 81.2117 99.5109 80.1464 97.9754C79.8654 97.5706 79.5672 97.338 79.0796 97.2542L78.6375 97.2354ZM83.883 110.612L83.6996 110.733C83.0948 111.143 82.5782 111.784 82.0433 112.286C80.6951 113.552 79.0974 114.302 77.3543 114.828C77.0792 114.911 77.1734 114.885 76.8766 114.904C76.5937 114.922 76.4162 115.012 76.1589 115.124C75.0941 115.586 73.5699 115.276 72.5268 114.83C71.7577 114.501 70.7886 113.25 70.4396 112.519L69.5034 116.289L71.1726 116.202L86.2901 115.581C86.6633 114.585 87.0675 113.476 87.3086 112.444C87.4856 111.687 87.5521 111.161 87.8681 110.42C86.7437 110.768 85.638 111.29 84.4953 110.801C84.3114 110.722 84.0787 110.626 83.883 110.612Z" fill="#5B7E75"/>
<path d="M102.155 94.2533C102.576 94.2228 103.052 94.1601 103.466 94.2617C104.167 94.4342 104.744 94.9972 105.115 95.5922C105.567 96.3149 105.673 97.2293 105.725 98.0634C105.859 100.204 105.603 102.341 105.073 104.414L102.098 104.263C100.169 104.255 98.0222 104.572 96.6286 106.049C95.7965 106.931 95.1729 108.311 95.2572 109.543C95.3085 110.289 95.6319 110.987 96.1978 111.479C97.0871 112.252 98.2307 112.364 99.3616 112.23C102.645 111.839 105.003 110.093 106.985 107.534L108.183 107.799C109.967 108.043 111.633 107.639 113.048 106.529L113.206 106.401C113.883 107.729 115.013 108.924 116.304 109.668C118.611 110.998 121.453 110.879 123.941 110.2C130.42 108.433 134.952 102.502 138.139 96.9212C139.569 97.3126 140.907 97.5285 142.39 97.599C141.351 98.7663 140.285 99.9568 139.606 101.379C138.829 103.006 138.56 104.591 139.194 106.324L139.259 106.497C139.971 107.602 140.812 108.597 142.147 108.934C143.702 109.325 145.387 108.914 146.755 108.144L146.905 108.057C147.38 108.701 147.763 109.351 148.325 109.928C149.643 111.283 151.269 111.772 152.96 112.473L91.8834 115.886L95.134 103.957C96.2456 100.499 98.4205 96.1261 101.804 94.4254L102.155 94.2533ZM138.912 98.336C138.403 99.2839 137.711 100.06 137.104 100.936C136.332 102.05 135.658 103.273 134.813 104.331C133.218 106.327 131.362 107.797 129.252 109.199C128.219 109.885 127.131 110.625 125.938 111.001C125.533 111.128 125.12 111.202 124.724 111.357C124.108 111.599 123.424 111.652 122.793 111.858C122.338 112.006 121.785 111.983 121.306 112.002C119.496 112.077 118.114 111.9 116.488 111.042C115.077 110.296 114.082 109.299 113.016 108.14L112.888 108.225C112.299 108.607 111.605 108.968 110.899 109.056C110.015 109.167 109.042 109.09 108.147 109.089C108.017 109.088 107.53 109.054 107.432 109.112C107.169 109.267 106.775 109.819 106.543 110.055C105.763 110.848 104.967 111.592 104.014 112.172L103.841 112.281C103.039 112.772 101.452 113.268 100.526 113.389C99.6559 113.502 98.8928 113.561 98.0281 113.383C97.7299 113.321 97.4243 113.332 97.1211 113.336L95.6003 112.287C95.0822 111.921 94.8569 111.142 94.6203 110.575C94.3443 112.038 94.0756 113.64 93.4796 115.017L93.666 115.19C94.1895 115.131 94.75 115.106 95.2543 114.95C96.6346 114.522 98.7385 114.675 100.201 114.726C101.448 114.723 102.893 114.775 104.1 114.435C105.875 113.937 108.361 114.281 110.22 114.217C111.5 114.173 112.67 113.852 113.928 113.783L119.538 113.693C120.667 113.639 121.733 113.355 122.85 113.294L128.617 113.181C129.791 113.112 130.868 112.818 132.053 112.773L137.394 112.699C138.356 112.646 139.237 112.403 140.184 112.334C141.934 112.205 143.713 112.283 145.468 112.245L149.559 112.092L148.274 111.196C147.683 110.819 147.269 110.195 146.918 109.601C146.676 109.568 146.662 109.518 146.448 109.655C145.956 109.971 145.669 110.057 145.099 110.127C144.881 110.154 144.772 110.204 144.581 110.303C144.01 110.596 143.432 110.462 142.837 110.323C142.362 110.212 141.514 110.163 141.109 109.96C140.483 109.646 139.418 108.539 139.06 107.974C138.477 107.055 137.857 105.573 138.017 104.474L138.038 104.315C138.291 102.608 139.208 100.537 140.404 99.278C140.618 99.0537 140.664 98.999 140.698 98.6973C140.237 98.4193 139.615 98.5509 139.069 98.3143L138.912 98.336ZM103.113 95.3713L102.14 95.8056C101.66 96.0289 101.19 96.5648 100.817 96.9345C99.2275 98.511 98.0829 100.377 97.2093 102.436C96.7144 103.602 96.355 104.809 95.7615 105.932C95.6417 106.158 95.6846 106.057 95.6191 106.324L96.884 105.154L97.0605 105.024C99.2457 103.431 102.188 103.204 104.803 103.484C105.022 102.01 104.977 100.511 104.965 99.0247C104.957 98.1901 105.001 97.1514 104.691 96.3632L104.538 96.2863C104.017 96.0225 103.573 95.7287 103.113 95.3713Z" fill="#5B7E75"/>
</g>
<defs>
<clipPath id="clip0_154_3120">
<rect width="245.493" height="140" fill="white" transform="translate(0.0377197)"/>
</clipPath>
</defs>
</svg>
