<svg width="231" height="140" viewBox="0 0 231 140" fill="none" xmlns="http://www.w3.org/2000/svg">
<g clip-path="url(#clip0_2006_133)">
<path d="M194.031 126.458C194.288 126.618 194.414 126.65 194.469 126.971C194.56 127.51 194.484 128.202 194.481 128.76L194.414 133.034C194.41 133.803 194.541 134.63 194.453 135.391C194.402 135.832 194.157 136.206 194.024 136.626L194.031 126.458Z" fill="white"/>
<path d="M208.426 126.38L217.148 126.384L217.131 127.754L213.419 127.792L213.391 136.4L213.367 139.839L211.819 139.826L211.815 127.769L208.114 127.767L208.129 126.492L208.426 126.38Z" fill="white"/>
<path d="M201.179 140.172C199.765 139.614 198.803 139.003 198.174 137.543C197.881 136.864 197.85 135.811 197.343 135.275C197.265 134.218 197.069 132.191 197.45 131.222C198.14 129.473 198.064 127.44 200.071 126.544C201.002 126.129 202.317 126.023 203.271 126.412C203.845 126.646 204.51 127.144 204.831 127.682C205.027 128.012 205.126 128.373 205.336 128.698C205.505 128.958 205.496 129.234 205.503 129.533C205.119 129.721 204.436 129.614 204.002 129.6C203.131 128.981 201.902 128.11 200.769 128.256C200.403 128.304 200.052 128.499 199.841 128.804C199.559 129.212 199.455 129.776 199.353 130.253C198.972 132.033 198.959 134.253 199.331 136.04C199.529 136.995 200.212 137.843 201.027 138.364C201.41 138.609 201.898 138.795 202.355 138.706C202.784 138.622 203.255 138.348 203.496 137.977C203.796 137.517 203.896 136.898 204.007 136.371C204.441 136.384 205.181 136.296 205.5 136.57C205.5 137.434 205.033 138.452 204.426 139.067C203.915 139.586 203.165 139.93 202.495 140.172H201.179Z" fill="white"/>
<path d="M123.905 126.38L130.517 126.396L130.517 127.754L127.174 127.766C126.539 127.769 125.842 127.715 125.22 127.837C125.005 128.23 125.046 128.705 125.033 129.143C125.002 130.16 124.973 131.172 125.075 132.187C126.361 132.345 127.679 132.269 128.97 132.234L128.983 133.766L125.102 133.764C124.995 134.686 125.051 135.667 125.048 136.597C125.039 137.15 124.961 137.796 125.172 138.314C125.493 138.555 125.979 138.471 126.366 138.472L129.216 138.47C129.737 138.472 130.374 138.365 130.745 138.739L130.668 139.838L123.457 139.829L123.511 126.463L123.905 126.38Z" fill="white"/>
<path d="M48.3488 126.369L55.5251 126.38L55.5119 127.755L50.1256 127.786C50.0264 129.108 49.7549 130.86 50.1311 132.137C51.2159 132.488 52.8628 132.267 54.0163 132.231L54.014 133.748L50.0728 133.651L50.0442 135.753C50.0407 136.507 49.9187 137.668 50.2225 138.35C50.6875 138.561 51.3878 138.471 51.9004 138.473L55.6611 138.472L55.6945 139.843L48.3276 139.847L48.3488 126.369Z" fill="white"/>
<path d="M222.802 126.24C224.817 126.166 225.969 126.558 227.545 127.84L226.645 129.03C226.29 128.655 225.886 128.267 225.416 128.044C225.073 127.881 224.783 127.873 224.429 128.006C223.329 128.423 222.793 129.814 222.335 130.807C223.123 131.399 223.952 131.945 224.79 132.463C225.402 132.84 226.066 133.19 226.593 133.684C227.335 134.381 227.816 135.306 227.823 136.336C227.828 137.314 227.376 138.307 226.683 138.99C225.738 139.922 224.743 140.027 223.483 140.028C221.707 139.784 220.841 139.056 219.602 137.848L220.802 136.858L222.138 138.264C222.212 138.357 222.298 138.362 222.41 138.381C223.279 138.53 224.152 138.563 224.893 138.012L225.002 137.931C225.426 137.634 225.748 137.263 225.971 136.79C226.145 136.42 226.226 135.886 226.069 135.496C225.871 135.004 225.388 134.668 224.971 134.374C223.826 133.566 222.524 132.971 221.431 132.089C220.9 131.66 220.462 131.087 220.255 130.431C219.995 129.614 220.143 128.671 220.536 127.925C221.045 126.961 221.791 126.546 222.802 126.24Z" fill="white"/>
<path d="M194.024 136.627C194.086 137.021 193.909 137.551 193.748 137.909C193.378 138.738 192.684 139.486 191.822 139.807C190.907 140.149 189.615 140.212 188.722 139.767C187.784 139.301 187.2 138.416 186.902 137.434C186.66 136.635 186.421 135.536 186.336 134.712C186.243 133.79 186.088 127.664 186.355 127.193C186.474 126.984 186.49 126.729 186.526 126.493C187.022 126.311 187.674 126.393 188.2 126.399L188.124 134.604C188.197 135.733 188.424 137.654 189.369 138.402C189.688 138.654 190.11 138.749 190.509 138.69C191.128 138.598 191.541 138.294 191.914 137.81C192.307 137.303 192.462 136.657 192.547 136.029C192.684 135.019 192.59 133.896 192.591 132.87L192.588 126.376C193.081 126.37 193.543 126.383 194.031 126.459L194.024 136.627Z" fill="white"/>
<path d="M104.247 125.177C104.543 125.639 104.717 126.314 104.891 126.838L105.885 129.919C106.964 133.192 108.244 136.499 109.069 139.842L107.411 139.836C107.087 138.731 106.8 136.96 106.108 136.063C105.568 135.772 104.799 135.895 104.2 135.915C103.735 135.907 102.98 135.801 102.574 136.031C102.014 136.348 101.392 139.143 101.189 139.846L99.5051 139.828L104.247 125.177ZM104.261 129.707L102.792 134.544L104.51 134.546L105.794 134.539C105.36 132.993 104.954 131.144 104.261 129.707Z" fill="white"/>
<path d="M18.0454 125.48L18.1784 125.431C18.5541 125.702 22.5501 138.264 23.0089 139.834L21.2806 139.828C21.1001 139.295 20.8729 138.745 20.7341 138.202C20.5558 137.506 20.4842 136.634 20.008 136.063C19.4866 135.776 18.7846 135.886 18.2061 135.907C17.7616 135.907 16.9254 135.808 16.5313 135.979C15.9136 136.247 15.2826 139.178 15.0828 139.85L13.3865 139.824L18.0454 125.48ZM18.1754 129.724L16.6952 134.547L18.4877 134.546L19.6794 134.55L18.1754 129.724Z" fill="white"/>
<path d="M84.9542 140.172C84.8201 139.83 84.8215 139.552 84.8311 139.193C84.4054 139.241 83.9715 139.621 83.5737 139.799C82.4723 140.289 80.9197 140.163 79.9718 139.395C79.5084 139.02 79.2065 138.568 78.8811 138.077C78.632 137.701 78.5123 137.221 78.3925 136.789C77.8523 134.84 77.9525 131.859 78.3875 129.885L78.7518 128.594C79.0158 127.792 79.7601 126.831 80.5356 126.477C81.4346 126.068 82.832 126.054 83.7437 126.428C84.5389 126.755 85.0763 127.368 85.3997 128.158C85.6342 128.73 85.6966 129.374 85.7709 129.982C85.3725 129.988 84.6596 130.087 84.2956 129.961C84.0094 129.861 83.6246 129.473 83.3742 129.284C82.6716 128.752 81.2585 127.885 80.4754 128.705C80.2509 128.94 80.0797 129.331 80.018 129.648C79.867 130.422 79.9708 131.453 79.9713 132.253C79.9722 133.659 79.897 135.129 80.0001 136.529C80.0449 137.139 80.468 137.924 80.9399 138.316C81.3325 138.642 81.9021 138.758 82.4004 138.684C83.0758 138.584 83.6696 138.266 84.0802 137.711C84.7937 136.749 84.7906 135.531 84.8621 134.386L82.6671 134.344C82.3239 134.344 81.8777 134.422 81.5944 134.205C81.4628 133.827 81.4285 133.596 81.4684 133.192C81.8946 132.777 85.1708 132.986 85.9209 132.996L86.3775 133.024L86.3847 137.614C86.3851 138.437 86.4689 139.364 86.3173 140.172H84.9542Z" fill="white"/>
<path d="M143.243 126.38C144.473 126.306 145.731 126.182 146.952 126.415C148.021 126.62 148.798 127.217 149.398 128.124C149.982 129.009 149.992 130.624 149.789 131.63C149.351 133.798 147.795 134.459 145.747 134.611C145.288 134.645 144.78 134.567 144.397 134.824C144.265 135.416 144.314 136.055 144.312 136.66L144.311 139.842L142.736 139.831L142.733 130.354L142.736 127.847C142.739 127.391 142.686 126.879 142.847 126.449L143.243 126.38ZM144.326 127.775L144.321 133.267C145.485 133.277 146.568 133.365 147.535 132.598C148.11 131.972 148.36 131.336 148.331 130.466C148.311 129.896 148.211 129.365 147.953 128.857L147.915 128.781C147.69 128.336 147.369 128.063 146.887 127.917C146.112 127.683 145.13 127.766 144.326 127.775Z" fill="white"/>
<path d="M154.234 126.38L156.094 126.402C157.421 126.426 158.967 126.339 159.961 127.393C160.77 128.251 161.104 129.375 161.059 130.546C160.998 132.167 159.921 133.05 158.814 134.07L162.323 139.807C161.789 139.87 161.158 140.009 160.638 139.849C160.26 139.733 159.981 139.076 159.816 138.75L158.354 136.269C158.016 135.668 157.72 135.038 157.273 134.509C156.988 134.379 156.688 134.329 156.377 134.325C156.033 134.322 155.629 134.351 155.385 134.591L155.371 139.841L153.786 139.829L153.787 130.17C153.787 129.046 153.612 127.533 153.887 126.454L154.234 126.38ZM155.436 127.77L155.378 132.953C156.681 132.972 157.61 133.012 158.731 132.262C159.312 131.529 159.569 130.746 159.465 129.796C159.408 129.274 159.29 128.651 158.85 128.311C157.991 127.647 156.476 127.766 155.436 127.77Z" fill="white"/>
<path d="M26.4894 126.38C28.1953 126.397 30.881 126.049 32.1889 127.359C33.0955 128.266 33.3301 129.421 33.2982 130.659C33.2581 132.222 32.1381 133.096 31.0877 134.09L34.6232 139.816C34.146 139.866 33.4696 140.014 33.0093 139.877L32.9229 139.847L32.8441 139.822C32.5426 139.705 32.2382 139.05 32.07 138.762L30.5017 136.049C30.2022 135.521 29.9272 134.873 29.4717 134.464C28.8648 134.331 28.4126 134.327 27.8017 134.439C27.5348 134.764 27.6729 139.037 27.6638 139.839L26.0732 139.83L26.1051 126.493L26.4894 126.38ZM27.6865 127.768L27.6826 132.953C29.0505 132.964 29.8046 132.942 31.0132 132.261C31.6522 131.405 31.8541 130.547 31.6989 129.478C31.6289 128.994 31.4176 128.512 31.0041 128.23C30.1367 127.638 28.6977 127.756 27.6865 127.768Z" fill="white"/>
<path d="M59.3342 126.351C61.1546 126.438 63.2022 126.138 64.8892 126.897C65.0973 126.991 65.2435 127.092 65.4116 127.246C66.1992 127.969 66.6208 128.976 66.6689 130.034C66.7634 132.109 65.726 132.729 64.4615 134.117L67.9377 139.809C67.4454 139.868 66.7677 140.017 66.2961 139.854C65.9204 139.724 65.7773 139.327 65.5782 139.005L63.7165 135.784C63.4846 135.38 63.2304 134.773 62.8532 134.493C62.4734 134.211 61.5122 134.382 61.0801 134.444C60.9432 134.92 61.0211 135.593 61.0197 136.097L61.0151 139.841L59.3368 139.858L59.3342 126.351ZM61.0491 127.768L61.0239 132.95C62.2696 132.964 63.1961 133.005 64.2968 132.33C64.7744 131.771 64.9346 131.554 64.8815 130.81C64.8191 129.938 65.3261 129.08 64.5263 128.358C63.6799 127.594 62.1099 127.768 61.0491 127.768Z" fill="white"/>
<path d="M224.774 52.1474C225.969 52.0848 226.878 52.1186 227.969 52.6884C229.072 53.2653 229.869 54.3217 230.231 55.5002C230.619 56.7648 230.45 58.1243 229.81 59.2795C229.043 60.6629 227.86 61.2527 226.412 61.6562C225.298 61.7026 224.391 61.6769 223.379 61.1233C221.988 60.3629 221.098 58.9853 220.75 57.4569C220.686 57.1724 220.657 56.3248 220.803 56.0883C221.11 55.5933 221.203 54.9658 221.505 54.4453C222.265 53.132 223.365 52.5279 224.774 52.1474ZM224.957 52.7212C223.662 53.0853 222.691 53.6355 222.003 54.8398C221.491 55.7384 221.336 56.9614 221.614 57.9619C221.902 59.0077 222.641 60.02 223.6 60.547C224.51 61.0477 225.4 61.1803 226.428 61.0419C227.678 60.6962 228.662 60.0241 229.302 58.88C229.855 57.8891 229.921 56.7252 229.615 55.6458C229.324 54.6198 228.534 53.6872 227.603 53.1752C226.755 52.7077 225.903 52.6614 224.957 52.7212Z" fill="white"/>
<path d="M224.065 54.2701C224.771 54.2723 225.559 54.2135 226.252 54.3351C226.631 54.4016 226.978 54.5872 227.184 54.9227C227.395 55.2647 227.414 55.8247 227.314 56.2063C227.181 56.7059 226.936 56.8984 226.519 57.149C226.414 57.2118 226.367 57.2397 226.317 57.3577L227.534 59.3551L227.457 59.5028C227.272 59.5184 227.093 59.5365 226.912 59.4839L226.634 59.3809L225.621 57.6463C225.422 57.3549 225.271 57.3751 224.945 57.3201C224.678 57.5959 224.771 58.9794 224.743 59.4154C224.438 59.4747 224.34 59.547 224.062 59.3903L224.065 54.2701ZM224.907 54.8866C224.672 55.3515 224.784 56.0647 224.8 56.5816C225.246 56.5818 225.909 56.6634 226.296 56.443C226.548 56.049 226.571 55.9175 226.571 55.4496C226.326 55.1158 226.064 54.9659 225.641 54.9123L225.062 54.8882L224.965 54.8863L224.907 54.8866Z" fill="white"/>
<path d="M90.6149 126.372C92.3453 126.401 94.8149 126.083 96.1308 127.428C96.9046 128.219 97.2191 129.397 97.1877 130.478C97.1396 132.127 96.0893 133.026 94.9599 134.07L98.4467 139.813C97.9743 139.868 97.358 139.997 96.896 139.885C96.3694 139.757 96.0774 138.976 95.8163 138.534L93.4786 134.567C92.8715 134.241 92.2994 134.314 91.6548 134.465C91.452 134.96 91.5325 135.629 91.531 136.164L91.5327 139.843L89.7539 139.83C89.677 138.866 89.7348 137.859 89.7343 136.891L89.7241 130.927L89.7144 127.489C89.7177 127.298 89.6625 126.758 89.7322 126.606C89.7663 126.531 89.8286 126.473 89.8767 126.406L90.6149 126.372ZM91.5556 127.767L91.5408 132.948C92.7291 132.965 93.7443 133.032 94.7729 132.327C95.5115 131.488 95.6312 130.708 95.5618 129.606C95.5317 129.127 95.3772 128.663 95.0118 128.333C94.2132 127.613 92.5653 127.746 91.5556 127.767Z" fill="white"/>
<path d="M3.9493 126.38C5.56142 126.288 7.74251 126.004 9.15784 126.954C9.88706 127.443 10.2941 128.148 10.4415 128.999C10.5396 129.566 10.5747 130.542 10.3208 131.067C10.1442 131.432 9.84189 131.731 9.62353 132.071C9.47603 132.3 9.31289 132.647 9.47524 132.911C9.56339 133.054 9.86325 133.252 10.0025 133.382C10.5459 133.892 10.9129 134.519 11.0469 135.255C11.2769 136.518 11.027 137.486 10.3054 138.528L10.1716 138.656C8.38039 140.332 5.65532 139.898 3.39825 139.826L3.42672 129.59C3.43129 128.649 3.23534 127.328 3.50308 126.453L3.9493 126.38ZM5.07175 133.699C4.92561 134.287 4.97418 134.905 4.97592 135.508L4.99308 138.47C5.85524 138.475 7.03955 138.607 7.85382 138.352C8.21906 138.237 8.55192 137.993 8.8876 137.812C9.1883 137.37 9.40282 137.047 9.48342 136.513L9.50406 136.391C9.58787 135.824 9.37268 135.064 9.0223 134.611C8.66984 134.155 8.08734 133.714 7.50065 133.635C7.09249 133.58 6.6563 133.712 6.24682 133.734C5.85836 133.756 5.46299 133.693 5.07175 133.699ZM4.9928 127.769L4.99703 132.091C6.10629 132.113 7.24974 132.224 8.19408 131.523C8.75451 130.885 8.98396 130.431 8.92356 129.569C8.88418 129.006 8.67748 128.564 8.23696 128.202C7.50003 127.597 5.91505 127.765 4.9928 127.769Z" fill="white"/>
<path d="M37.207 126.381C38.6649 126.302 40.3473 126.108 41.7589 126.578C43.3715 127.115 43.4535 128.218 44.1258 129.541L44.1777 129.642C43.8856 130.576 43.6384 131.14 43.0979 131.954C42.9816 132.129 42.6337 132.631 42.6563 132.683C42.6999 132.784 43.0134 133.032 43.1049 133.123C43.7811 133.793 44.2511 134.335 44.4306 135.303C44.6397 136.431 44.4118 137.483 43.7553 138.418C43.6763 138.527 43.5991 138.618 43.5003 138.71C41.7696 140.317 38.9701 139.899 36.7979 139.829L36.8337 126.458L37.207 126.381ZM38.5958 133.766C38.6032 135.179 38.831 137.122 38.4804 138.466C39.7891 138.477 41.0142 138.637 42.1601 137.88C42.677 137.254 42.9913 136.735 42.896 135.894C42.8147 135.179 42.431 134.5 41.8575 134.065C41.7523 133.985 41.5368 133.8 41.4158 133.764C41.2301 133.708 40.8147 133.764 40.6092 133.765L38.5958 133.766ZM38.5061 127.805C38.7399 129.238 38.5741 130.64 38.438 132.064C39.5896 132.092 40.5618 132.16 41.5849 131.539C42.0732 130.984 42.3418 130.463 42.3084 129.702C42.2865 129.205 42.1411 128.628 41.7515 128.294L41.3003 127.963C40.8299 127.629 39.106 127.782 38.5061 127.805Z" fill="white"/>
<path d="M178.402 126.26C179.224 126.252 180.172 126.338 180.931 126.665C182.279 127.247 182.743 128.445 183.262 129.702L183.305 129.802C183.469 130.213 183.428 130.778 183.457 131.222C183.534 132.372 183.505 133.425 183.464 134.573C183.431 135.515 183.484 136.231 183.097 137.116C182.522 138.427 182.012 139.06 180.671 139.583C179.229 140.122 177.233 139.859 175.695 139.821L175.7 126.419L178.402 126.26ZM177.291 127.766L177.284 138.46C178.724 138.485 179.874 138.696 181.047 137.691C182.005 136.143 181.972 134.479 181.94 132.72C181.922 131.835 181.917 130.929 181.71 130.065C181.469 129.058 181.14 128.494 180.269 127.929L177.291 127.766Z" fill="white"/>
<path d="M168.414 140.173C167.43 140.006 166.36 139.856 165.606 139.125C163.814 137.386 163.95 134.168 163.975 131.859C163.983 131.113 164.083 130.297 164.323 129.59C164.664 128.589 165.031 127.406 165.966 126.794C166.827 126.23 167.829 126.011 168.847 126.212C169.891 126.417 170.676 126.93 171.262 127.825C171.783 128.621 171.792 129.742 172.361 130.434C172.448 131.25 172.415 132.085 172.415 132.906C172.414 133.706 172.505 134.663 172.393 135.444C172.353 135.727 172.177 136.065 172.087 136.348C171.793 137.263 171.573 138.11 170.959 138.884C170.301 139.715 169.519 139.95 168.519 140.173H168.414ZM168.141 127.468C167.333 127.669 166.741 127.904 166.288 128.65C165.551 129.866 165.56 131.667 165.561 133.05C165.561 134.213 165.565 135.385 165.871 136.516C166.063 137.225 166.369 138.078 167.058 138.449C167.444 138.656 167.842 138.674 168.265 138.728C168.986 138.556 169.563 138.308 169.954 137.64C170.78 136.225 170.729 134.13 170.709 132.536C170.697 131.52 170.674 130.459 170.387 129.477C170.201 128.838 169.841 128.079 169.233 127.745C168.881 127.553 168.535 127.501 168.141 127.468Z" fill="white"/>
<path d="M112.228 126.389C113.847 126.286 115.996 125.979 117.442 126.852C119.115 127.862 119.265 129.561 119.629 131.253C119.691 131.545 119.908 131.785 119.953 132.075C120.017 132.482 120.021 133.176 119.923 133.575C119.861 133.825 119.73 134.02 119.686 134.286C119.517 135.319 119.475 136.363 119.109 137.355C118.919 137.869 118.646 138.277 118.31 138.705C116.533 140.268 113.951 139.837 111.753 139.875C111.749 138.533 111.648 126.722 111.882 126.413L112.228 126.389ZM113.455 127.767L113.456 138.458C114.697 138.485 116.08 138.722 117.049 137.787L117.26 137.575C118.106 136.113 118.108 134.498 118.092 132.854C118.081 131.821 118.048 130.768 117.768 129.766C117.58 129.093 117.205 128.368 116.566 128.027C115.824 127.631 114.313 127.783 113.455 127.767Z" fill="white"/>
<path d="M153.661 52.2761L161.034 52.2602C161.667 52.2604 163.053 52.0908 163.584 52.453C163.721 52.5459 164.002 52.8706 164.052 53.0256C164.218 53.5363 164.013 54.6113 163.996 55.1647L163.984 58.772L164.074 87.2249C164.103 88.153 163.869 89.3261 164.048 90.2113C164.256 91.2427 164.129 92.3152 164.16 93.3545L164.178 96.4799C164.187 96.8656 164.268 97.2356 164.262 97.6301C164.247 98.568 164.118 99.5021 164.119 100.438L164.227 105.844L164.113 113.059L164.104 115.973C164.103 116.361 164.185 116.835 163.969 117.166C163.785 117.447 163.548 117.59 163.224 117.652L162.486 117.788C162.16 117.888 161.828 117.984 161.485 117.998C160.756 118.026 160.006 117.806 159.276 117.77C158.826 117.747 158.413 117.939 157.974 117.952C157.631 117.962 157.181 117.743 156.795 117.717C155.654 117.64 154.498 117.782 153.359 117.611C152.555 117.023 152.953 115.846 152.726 114.962C152.337 113.442 152.551 111.48 152.492 109.897L152.328 89.9708C152.34 89.3777 152.334 88.762 152.415 88.1742C152.471 87.7702 152.611 87.3583 152.618 86.9523C152.633 86.1042 152.421 85.2639 152.411 84.4077L152.407 81.4764C152.416 80.9985 152.519 80.3647 152.384 79.9092C152.15 79.1178 152.175 78.0739 152.176 77.2482L152.487 68.8477C152.523 67.2013 152.38 65.5154 152.454 63.8818L152.814 58.8004L152.872 53.974C152.893 53.6127 152.854 53.0844 152.992 52.7599C153.134 52.4282 153.352 52.4068 153.661 52.2761Z" fill="white"/>
<path d="M2.48402 52.2973C3.68738 52.1389 5.0608 52.2661 6.28035 52.2661C8.161 52.2661 10.098 52.173 11.9737 52.2842C12.3806 52.3083 12.5255 52.4513 12.7825 52.7366C13.0411 53.787 12.9109 55.0152 12.912 56.1014L12.913 62.144L13.0307 85.6406C13.0353 85.9004 12.959 86.154 12.9616 86.4116C12.97 87.2213 13.065 88.023 13.0437 88.8489C13.0356 89.1668 12.9269 89.499 12.9372 89.8068C12.9583 90.4302 13.0885 91.0609 13.1156 91.6949L13.2262 97.5752C13.2422 98.6008 13.0476 99.6265 13.0722 100.654C13.1392 103.452 13.2683 106.254 13.088 109.05C13.0668 109.379 13.1871 109.676 13.1463 110.007C12.9329 111.732 13.055 113.599 12.9691 115.346C12.9373 115.992 12.9957 116.791 12.6971 117.373C12.3846 117.704 11.9413 117.697 11.515 117.746C11.1633 117.86 10.7947 117.983 10.4225 117.997C9.64464 118.028 8.86225 117.751 8.085 117.77C7.61285 117.781 7.10723 118.019 6.64657 117.879C5.27971 117.464 3.77538 117.968 2.43314 117.646C1.73545 117.479 1.94561 116.887 1.67086 116.422C1.34571 115.872 1.47652 115.021 1.47367 114.391L1.4399 109.77L1.2485 91.4328L1.31429 88.7539C1.35619 88.1892 1.55297 87.5118 1.46786 86.9632C1.39881 86.5182 1.44305 86.0716 1.42457 85.6235L1.34291 81.7333C1.34896 81.153 1.4836 80.4828 1.32646 79.9223C1.07119 79.0116 1.19435 77.828 1.19923 76.8804L1.45384 67.4437L1.47701 54.9261C1.50135 54.3182 1.61117 53.6111 1.79757 53.0292C1.93388 52.6035 2.10504 52.5011 2.48402 52.2973Z" fill="white"/>
<path d="M204.002 52.2976C205.155 52.1208 206.54 52.2662 207.716 52.266C209.628 52.2658 211.605 52.1657 213.51 52.2841C213.916 52.3093 214.052 52.4614 214.303 52.7479C214.543 53.6191 214.412 54.7803 214.412 55.6919L214.416 61.1903L214.419 84.6667L214.51 89.4657L214.469 93.6176C214.502 94.8022 214.641 96.0117 214.509 97.205C214.409 98.0998 214.603 99.1519 214.628 100.071C214.685 102.353 214.431 104.817 214.816 107.059C215.443 107.256 215.919 107.121 216.555 107.103L219.881 107.023L223.262 107.061C223.559 107.067 223.871 107.179 224.157 107.158C224.498 107.133 224.935 106.942 225.253 106.953C225.585 106.965 226.326 107.459 226.633 107.641C226.783 107.944 227.147 108.538 227.1 108.87C226.891 110.412 226.988 112.084 226.988 113.639C226.99 114.27 226.895 114.912 226.859 115.543C226.828 116.111 226.931 116.842 226.635 117.338C226.221 117.677 226.002 117.655 225.481 117.724C224.997 117.74 224.516 118.024 223.976 118.023C223.183 118.022 222.397 117.795 221.602 117.757C221.012 117.73 220.493 117.966 219.936 117.958C219.533 117.951 219.14 117.729 218.724 117.701C218.181 117.663 217.662 117.725 217.122 117.732L214.647 117.672C213.738 117.688 212.897 117.906 212.002 117.993C210.662 118.123 209.271 118.057 207.921 118.1C206.881 118.133 205.398 118.377 204.403 118.118C204.176 117.767 203.488 117.53 203.359 117.28C203.178 116.931 203.378 116.261 203.15 115.812C202.769 115.054 202.747 114.364 202.721 113.534C202.702 112.932 202.816 112.344 202.805 111.742L202.86 93.1462L202.831 84.4281L202.717 81.8779L202.848 71.38L202.847 62.4434C202.879 61.2103 203.209 59.991 203.259 58.7524L203.236 54.4877C203.253 54.0036 203.236 53.3755 203.371 52.9169C203.486 52.5272 203.679 52.4715 204.002 52.2976Z" fill="white"/>
<path d="M93.9401 52.2976C94.8612 52.19 95.8745 52.2669 96.8065 52.2667L102.362 52.2672L111.488 52.2646L114.102 52.2672C114.702 52.2691 115.319 52.2186 115.898 52.3962C116.222 52.6995 116.324 52.8596 116.358 53.3108C116.477 54.9105 116.374 56.61 116.374 58.2196C116.373 59.6493 116.486 61.1991 116.346 62.6127C116.319 62.887 116.275 63.1424 116.076 63.3455C115.918 63.5067 115.743 63.5776 115.524 63.6084C114.49 63.7538 113.265 63.6281 112.204 63.6296L104.302 63.5919C104.221 65.3488 104.337 67.0914 104.373 68.8462L104.352 74.8715C104.348 76.0436 104.463 77.2232 104.274 78.3862L104.263 78.4522C105.255 78.6017 106.124 78.43 107.108 78.4432C108.223 78.4582 109.371 78.5924 110.478 78.575C111.102 78.5651 111.569 78.2377 112.186 78.5441C112.859 78.8777 112.98 79.3258 113.217 79.9943C113.084 80.3495 113.197 80.6222 113.199 80.9822L113.258 83.6534C113.297 84.7819 113.206 85.9448 113.176 87.071C113.165 87.4736 113.276 87.8924 113.275 88.3034C113.275 88.8933 113.38 89.5795 112.95 90.0086C112.712 90.2448 112.221 90.862 111.945 90.9898C111.73 91.0889 105.465 90.9655 104.657 90.966L104.351 106.204C104.703 106.385 109.237 106.195 109.996 106.178C111.307 106.086 112.497 106.241 113.784 106.217C114.375 106.205 115.533 106.045 115.966 106.474C116.113 106.62 116.28 106.782 116.329 106.991C116.429 107.416 116.366 107.984 116.364 108.421L116.375 111.281C116.396 111.954 116.569 112.598 116.618 113.264C116.687 114.216 116.642 115.195 116.642 116.149C116.642 116.922 116.04 117.472 115.519 117.992C114.648 118.157 113.69 118.074 112.801 118.107L104.621 118.273C102.623 118.311 100.648 118.564 98.6555 118.542C97.8763 118.534 97.1381 118.421 96.3658 118.357C95.9251 118.321 95.3429 118.337 94.9257 118.198C94.1007 117.924 92.8686 117.151 92.5253 116.32C92.3801 115.968 92.4726 115.115 92.6105 114.768C92.7253 114.479 92.7596 114.189 92.8051 113.883C92.71 113.753 92.6105 113.613 92.5684 113.455C92.387 112.775 92.4222 103.739 92.6039 103.413L92.6907 103.247C93.0258 102.404 93.1157 100.573 92.7136 99.7269C92.4436 99.1582 92.5096 98.5555 92.5058 97.9402L92.5013 95.4701L92.5205 86.1215L92.4501 77.1719C92.4594 76.6688 92.5722 76.2081 92.6063 75.716C92.6438 75.1751 92.5829 74.6143 92.6057 74.0679C92.6451 73.1232 92.7515 72.1565 92.741 71.2124C92.7315 70.3543 92.5327 69.4695 92.4763 68.612C92.432 67.9381 92.4977 67.2665 92.5629 66.5963C93.246 66.0022 93.2131 58.5186 93.1929 57.1389C93.1762 56.0095 93.1505 54.9457 93.226 53.8176C93.247 53.5024 93.2005 53.0767 93.3188 52.7834C93.4482 52.462 93.6472 52.4224 93.9401 52.2976Z" fill="white"/>
<path d="M0 18.7283V0H16.585H19.4334C20.0714 0.148301 20.7543 0.417867 21.3859 0.519397C21.8638 0.596226 22.3628 0.559057 22.8441 0.616003C23.9147 0.742652 25.9179 1.31126 26.7664 1.95543C27.0119 2.14184 27.4934 2.11041 27.7959 2.24202C28.3817 2.49686 28.9716 2.8779 29.4967 3.24302C31.9629 4.95793 33.8103 7.62515 35.2603 10.2032C35.5228 10.67 35.8772 11.1316 36.0852 11.6205C36.3672 12.2843 36.481 13.1756 36.5914 13.8932C36.6945 14.5636 36.6948 15.4337 37.0841 16.0031C37.4914 16.5991 37.1407 18.2267 37.2143 19.0003L36.966 18.9712C36.769 20.4762 36.6066 21.9231 36.2067 23.3941C35.0588 27.6166 32.4631 31.7079 28.9103 34.3109C27.6762 35.215 26.0895 35.9884 24.65 36.491C24.0505 36.7005 23.359 36.8215 22.8002 37.1098C22.4719 37.2791 21.0584 37.4926 20.6886 37.4438C20.1369 37.371 19.3995 37.6615 18.8147 37.6795C17.9821 37.7048 17.0958 37.5741 16.2645 37.4991L16.1008 37.2457C15.8873 37.2253 15.7856 37.2543 15.5818 37.3202C14.8621 37.5529 14.4172 36.9948 13.8121 37.0791C13.2736 37.1541 12.0477 36.474 11.5141 36.2465C11.3028 36.1564 11.1668 36.2062 10.9743 36.1515C10.4056 35.9898 9.74045 35.54 9.21072 35.2707C8.92055 35.1231 8.52845 35.0167 8.27152 34.846C7.8985 34.5983 7.58053 34.2209 7.2201 33.944C6.66393 33.5167 6.07472 33.2307 5.59376 32.704C5.16924 32.2391 4.85003 31.6886 4.44602 31.2072C4.09034 30.7836 3.65976 30.4295 3.32238 29.9883C2.53352 28.9571 1.69654 27.5102 1.23576 26.2934C1.08911 25.906 1.04016 25.4965 0.910657 25.1072C0.616588 24.2231 0.333781 23.3669 0.216026 22.4284C0.141866 21.8374 0.112837 21.2738 0 20.6814V18.7283ZM18.6841 2.299C18.221 2.33267 17.6009 2.30614 17.2142 2.56803C16.6425 2.95541 15.3846 2.64702 14.653 2.86543C10.1651 4.20531 5.64183 7.09552 3.64278 11.4751C3.40714 11.9914 3.09491 12.3513 2.97947 12.9191C2.86148 13.4994 2.60986 14.1977 2.56469 14.7654C2.53476 15.1417 2.15443 15.5658 2.05643 16.0024C1.93895 16.5257 2.15333 16.9207 1.98952 17.4934C1.93217 17.694 2.0365 18.0152 2.02536 18.2416C1.95329 19.7066 1.96181 21.1841 2.29959 22.6238C2.44755 23.2543 2.75502 23.96 2.96247 24.5888C3.19347 25.2888 3.40969 26.0686 3.82012 26.6845C4.27584 27.3684 4.61895 28.1369 5.09653 28.7991C7.3374 31.9064 11.177 34.246 14.9294 34.9557C17.2616 35.3969 19.2788 35.2979 21.6228 35.086C22.0667 34.9915 22.666 34.9441 22.9617 34.5715C23.1795 34.5365 23.294 34.6636 23.4119 34.6529C23.545 34.6409 23.5134 34.4953 23.7297 34.5069C24.1474 34.5291 24.8241 34.2645 25.1209 33.9691C25.4166 33.675 25.6507 33.3622 26.0764 33.2698L26.451 33.434C26.5743 33.2753 26.595 33.1234 26.6314 32.9321H26.7719L26.9012 33.1238L27.2391 33.0447L27.601 32.459C28.0126 32.3678 28.4374 32.3824 28.686 32.0314L28.724 31.6615L29.3679 31.6112L29.3972 30.9055L29.6026 30.8572L29.884 31.0752L30.3066 30.6803L30.0162 30.534L30.0309 30.3426C30.3291 30.1334 30.2659 29.8616 30.5593 29.7448L31.1221 29.9334L31.3233 29.7233L31.3126 29.6533C31.2702 29.2584 31.4797 28.9691 31.6714 28.6419L31.9662 28.5228C31.9529 28.8521 31.5981 28.99 31.5722 29.3876C32.0724 29.2121 32.8835 27.6736 33.1828 27.19C33.0488 27.1571 32.9317 27.1378 32.7938 27.1333C32.9886 26.8845 33.2891 26.9093 33.4421 26.6847C33.8033 26.1548 34.0676 25.4002 34.2928 24.7983C35.0383 22.804 35.6467 20.2928 35.3905 18.1571C34.8136 13.346 32.4781 8.50378 28.606 5.4856C25.8893 3.36798 22.1753 1.89752 18.6841 2.299ZM0 18.7283C0.289707 17.9174 0.17389 16.6756 0.215495 15.7922C0.236434 15.3475 0.185557 14.9959 0.496712 14.6424C0.640191 14.4794 0.715981 14.3714 0.793721 14.1603C0.88114 13.923 0.979069 13.7447 1.11611 13.5349C1.22855 13.3627 1.09597 13.2366 1.12962 13.0602C1.18234 12.784 1.5321 12.3279 1.6492 12.0262C1.94848 11.2549 2.06952 10.3649 2.41045 9.62545C2.614 9.18393 2.90293 8.75381 3.16862 8.34688C5.67284 4.51138 8.9974 2.02667 13.3943 0.707803C14.4352 0.395581 15.522 0.223703 16.585 0H0V18.7283Z" fill="white"/>
<path d="M9.57569 11.3887C9.85005 11.4414 10.1308 11.5321 10.3552 11.706C10.6877 11.9636 11.0101 12.4075 11.3175 12.7168L14.0886 15.6005C14.6972 15.4218 15.706 14.0643 16.1637 13.5888C16.4252 13.3171 16.7289 13.093 16.9961 12.8291C17.1861 12.6414 17.3551 12.3302 17.6185 12.2527C18.0385 12.1289 18.2149 11.5875 18.6844 11.4064C19.2035 11.6112 19.5196 11.9941 19.9004 12.3848C20.6539 13.1577 21.2792 13.9092 21.928 14.7495C22.3472 15.2922 23.0623 15.9009 23.5956 16.3439C23.9313 16.096 24.3409 15.8648 24.6482 15.5896C24.8558 15.4037 24.9382 15.1135 25.1263 14.9184C25.3644 14.6713 25.6566 14.4959 25.9011 14.2278C26.5608 13.5042 27.5785 12.0791 28.477 11.7065C28.8782 11.7315 29.3587 11.9344 29.6256 12.2477C30.2747 13.0097 29.1611 18.4737 29.1225 19.813C29.0094 20.4308 29.0028 21.0611 28.8892 21.6702C28.7384 22.4785 28.4334 23.2801 28.3232 24.0935C28.2518 24.6202 28.452 25.3796 28.2027 25.8506C28.0313 26.1742 27.7591 26.3964 27.4128 26.5068C27.0587 26.6194 26.6747 26.724 26.303 26.7401C25.1884 26.7887 24.013 26.6789 22.8889 26.6778L13.8444 26.667C12.5273 26.6594 11.172 26.8701 9.86107 26.794C9.46555 26.7711 8.95157 26.6335 8.61055 26.4318C8.25171 26.2194 8.09828 25.842 8.0136 25.449C7.81012 24.5046 7.88286 23.4628 7.86307 22.5016L7.72264 18.5883C7.6511 16.8602 7.36533 14.9228 7.54009 13.212C7.57678 12.8528 7.76074 12.5238 7.94972 12.2224C8.34705 11.5886 8.89997 11.5445 9.57569 11.3887Z" fill="#5B7E75"/>
<path d="M66.2987 52.1932C70.1806 51.9982 74.481 51.9021 78.2094 53.0947C82.5034 54.4682 85.2611 57.7209 87.2472 61.6213C90.067 67.1589 90.3577 74.1987 88.496 80.0609C88.3006 80.6756 88.2005 81.3849 87.9293 81.9647C87.8129 82.2135 87.6087 82.4128 87.4899 82.658C87.3729 82.8995 87.3389 83.1795 87.2379 83.4283C87.003 84.0061 86.5846 84.733 86.2536 85.2663C85.9253 85.7952 85.4244 85.9813 85.2008 86.6213C85.0667 87.0054 84.6763 87.3768 84.4075 87.6768C83.8284 88.323 83.213 88.6911 82.5517 89.2192C82.232 89.4745 82.0111 89.8016 81.6496 90.0139C81.048 90.367 80.3217 90.6201 79.6825 90.9123C79.2087 91.129 78.7605 91.4121 78.2658 91.577C77.5861 91.8035 76.876 91.873 76.201 92.0797C76.0065 92.1392 75.851 92.2835 75.6489 92.3301C74.9008 92.5026 73.9834 92.1095 73.2751 92.4511C73.041 92.8621 73.1784 93.9271 73.1786 94.4268L73.183 99.3595L72.9489 107.811C73.1282 109.438 73.1789 111.259 73.166 112.901C73.1613 113.492 72.9982 113.95 73.0501 114.559C73.1142 115.311 73.2536 116.8 72.7565 117.37C72.6743 117.464 72.4451 117.623 72.3179 117.644C71.636 117.754 70.8272 117.65 70.1222 117.699C69.4841 117.744 68.8805 117.906 68.2505 117.971C67.4293 118.056 66.5808 118.047 65.756 118.066C65.2329 118.078 64.5987 117.96 64.1011 118.009C63.8867 118.03 63.686 118.184 63.4739 118.181C63.1246 118.175 62.3422 117.648 62.0686 117.409C61.9134 117.273 61.5087 116.948 61.4467 116.782C61.3587 116.548 61.4143 116.016 61.4091 115.754L61.3661 112.798L61.3243 93.612C61.343 92.7668 61.5801 91.9373 61.578 91.1125C61.5761 90.332 61.398 89.5628 61.3744 88.7804L61.3479 84.7433C61.352 84.3795 61.4474 84.0099 61.4379 83.6535C61.4248 83.1651 61.2374 82.6464 61.2051 82.1375C60.9813 78.5909 61.3682 74.9338 61.4406 71.3764L61.4325 64.9825L61.7844 59.0426C61.8248 57.4004 61.7117 55.7518 61.8153 54.1132C61.8458 53.6326 61.8037 52.8452 62.1408 52.4842C62.4953 52.1045 65.5944 52.214 66.2987 52.1932ZM73.3768 63.668L73.4698 68.0952C73.4641 68.9011 73.5068 69.7233 73.1848 70.4807C73.3905 71.2332 73.2456 72.0378 73.4513 72.7325C73.713 73.6164 73.376 74.8699 73.312 75.7842C73.2682 76.4095 73.3474 77.0768 73.2746 77.6863C73.2286 78.0714 73.0893 78.444 73.0624 78.8325C73.0148 79.5176 73.0444 80.1601 72.9351 80.848C74.2696 80.682 75.2118 80.4192 76.3146 79.6083C77.6291 78.2754 78.0613 76.8018 78.0474 74.9485C78.0417 74.2052 78.1665 73.3611 78.1167 72.6459C78.078 72.0904 78.0751 71.4264 77.9786 70.8861C77.8125 69.9583 77.5724 69.0321 77.7206 68.0875C77.313 67.3094 77.1917 66.5059 76.8544 65.7206C76.4222 64.7139 74.9465 64.1745 74.0061 63.8437L73.3768 63.668Z" fill="white"/>
<path d="M178.233 51.9598C178.586 51.8833 178.857 52.1447 179.209 52.1324C179.56 52.1204 179.903 51.9936 180.26 51.981C181.228 51.9467 182.198 52.0536 183.164 52.0535C183.584 52.0533 184.015 51.9355 184.446 51.9248C185.376 51.9017 186.303 51.9859 187.231 52.0324C187.884 52.0652 188.722 52.029 189.34 52.2116C189.681 52.3123 190.04 52.5166 190.209 52.8412C190.396 53.2017 190.262 53.7452 190.367 54.1459C190.56 54.8954 190.926 55.5735 191.071 56.3523C191.241 57.2723 191.24 58.2174 191.367 59.1428C191.409 59.4455 191.55 59.715 191.602 60.0098C191.802 61.1716 191.86 62.4131 192.01 63.59C192.05 63.9064 192.191 64.1916 192.238 64.5048L192.557 67.4285C192.609 67.845 192.648 68.4407 192.852 68.806C193.324 69.6519 192.943 70.7847 193.088 71.7121L193.977 77.0414C194.16 78.0326 194.421 79.0043 194.552 80.0055C194.624 80.5564 194.483 81.0157 194.524 81.5309C194.638 83.0043 194.946 84.5586 195.171 86.0257C195.352 87.2091 195.748 88.2655 195.99 89.4164L196.815 94.3862C196.884 94.7357 197.131 95.0517 197.183 95.3626C197.252 95.7612 197.159 96.2243 197.209 96.6386C197.365 97.9716 197.669 99.3126 197.886 100.639C197.991 101.276 198.038 102.494 198.388 103.018C198.719 103.516 198.533 104.217 198.593 104.794L199.407 110.169C199.484 110.68 199.484 111.665 199.733 112.1C199.976 112.529 199.881 112.904 199.914 113.377C199.959 114.058 200.169 114.762 200.06 115.443L200.05 115.507C200.255 115.715 200.39 115.851 200.474 116.135C200.412 116.561 200.164 116.881 199.853 117.163C199.365 117.608 198.278 118.626 197.586 118.572L195.062 118.346L191.065 118.068C190.688 118.024 190.11 118.09 189.812 117.832C189.567 117.62 188.946 117.292 188.79 117.046C188.695 116.899 188.645 116.365 188.603 116.169L187.934 112.705L187.836 112.622C187.465 112.293 187.655 110.945 187.64 110.449L187.493 108.482L186.746 105.307L180.284 105.153C179.976 106.578 179.767 107.998 179.598 109.447C179.469 110.545 179.483 111.727 179.064 112.758C178.655 113.769 179.05 114.842 178.778 115.855C178.615 116.455 178.188 117.088 177.884 117.634L168.882 117.684C168.325 117.676 167.995 117.737 167.588 117.317C167.339 116.761 167.561 115.918 167.647 115.335L168.321 110.916C168.381 110.342 168.303 109.743 168.352 109.155C168.817 108.685 169.593 102.981 169.661 102.118C169.717 101.403 169.659 100.7 169.736 99.9788C170.211 99.5179 170.258 98.1417 170.357 97.4945C170.587 95.9969 170.928 94.4462 171.055 92.9419C171.112 92.259 171.085 91.5478 171.114 90.8591C171.606 90.3635 172.309 84.9609 172.428 83.8076C172.486 83.231 172.345 82.2941 172.591 81.7917C172.936 81.0878 172.978 80.0498 173.095 79.2755L173.769 74.7174L173.957 72.3252C174.021 71.7979 174.288 71.2979 174.369 70.7621L175.153 65.081C175.226 64.4586 175.017 62.7295 175.334 62.2733C175.378 62.2105 175.398 62.1931 175.433 62.1195C175.788 61.3626 175.786 60.5474 175.883 59.7414L176.203 57.7254C176.307 57.1291 176.71 56.3248 176.526 55.7352C176.381 55.2748 176.588 54.6097 176.626 54.1274C176.634 54.0114 176.641 53.8947 176.676 53.7828C176.984 52.8072 177.35 52.4324 178.233 51.9598ZM183.417 77.9252L182.636 85.0197C182.607 85.3662 182.467 85.686 182.491 86.0341C182.531 86.6404 182.402 87.2233 182.362 87.8191C182.341 88.1329 182.383 88.4673 182.321 88.7762C182.259 89.0869 182.074 89.3497 182.043 89.6769C181.952 90.6445 182.195 91.6104 181.81 92.5345C181.75 92.6817 181.715 92.8398 181.674 92.9938C182.445 92.9141 183.262 92.7474 184.005 93.0236C184.471 93.1014 184.924 93.1069 185.393 93.1107C185.3 92.6548 185.245 92.0538 184.99 91.6681C184.677 91.1998 184.881 89.9845 184.812 89.3955C184.715 88.56 184.519 87.7252 184.476 86.8848C184.45 86.3838 184.584 85.7528 184.503 85.286C184.303 84.126 183.86 82.9717 183.724 81.7917C183.574 80.5016 183.696 79.2109 183.417 77.9252Z" fill="white"/>
<path d="M129.848 51.842C134.148 51.7474 138.731 52.4675 142.222 55.1501C145.964 58.0256 147.492 62.7606 148.029 67.2525C148.321 69.6918 148.326 72.7037 147.948 75.1312C147.804 76.0562 147.474 76.9427 147.294 77.8596C147.127 78.7082 147.081 79.6053 146.856 80.4382C146.647 81.2087 146.215 82.0651 145.839 82.7689C145.412 83.5684 144.932 84.3479 144.355 85.0487C144.044 85.4262 143.543 85.8424 143.303 86.2537C143.131 86.5496 143.462 87.5543 143.543 87.9246L144.259 91.6324L147.58 109.794C147.723 110.462 147.615 111.063 147.699 111.716C147.788 112.412 148.107 113.12 148.304 113.795C148.546 114.629 148.388 115.217 148.417 116.048C148.43 116.435 148.563 116.963 148.349 117.302C148.239 117.476 148.093 117.588 147.892 117.634C146.608 117.928 145.109 117.722 143.792 117.725L139.307 117.713C138.786 117.692 138.105 117.778 137.657 117.486C137.113 116.653 137.145 114.812 136.949 113.789C136.881 113.433 136.698 113.108 136.64 112.757C136.581 112.408 136.633 112.034 136.6 111.68L136.304 109.501L135.667 105.435C135.575 104.947 135.351 104.465 135.288 103.975C135.244 103.627 135.314 103.275 135.269 102.923C135.043 101.156 134.648 99.372 134.301 97.6232C134.257 97.4587 134.213 97.2955 134.141 97.141C133.817 96.4453 133.886 95.997 133.815 95.2703C133.714 94.2441 133.02 91.5001 132.255 90.8629L132.115 90.9151C131.58 92.5349 131.736 94.7484 131.705 96.4558L131.819 110.854L131.736 113.433C131.737 114.012 131.923 114.567 131.967 115.138C132.013 115.735 131.828 116.764 131.603 117.324C130.817 118.266 127.083 117.722 125.895 117.696C125.151 117.679 124.391 117.873 123.632 117.867C123.055 117.862 122.608 117.597 122.049 117.847L121.956 117.891L121.549 117.75C121.139 117.597 120.879 117.465 120.7 117.043L120.652 116.923C120.17 115.755 120.683 113.889 120.664 112.644C120.651 111.816 120.443 110.906 120.395 110.055C120.3 109.982 120.215 109.915 120.13 109.83C120.091 109.159 119.956 108.088 120.365 107.549C120.405 107.215 120.465 106.872 120.315 106.56C119.702 105.286 121.005 103.215 120.148 101.981C120.062 101.029 120.033 99.9965 120.138 99.0467C120.257 97.9772 120.494 97.0206 120.489 95.9293C120.486 95.1687 120.314 94.4589 120.238 93.7084C120.155 92.8989 120.196 92.0441 120.191 91.2298C120.189 90.8106 120.121 90.2517 120.198 89.8456C120.213 89.7674 120.226 89.7305 120.265 89.6658L120.332 89.5641C120.168 88.9991 120.125 88.3513 120.152 87.7627C120.164 87.5224 120.29 87.186 120.241 86.9622C119.945 85.6105 120.392 84.151 120.454 82.8005C120.47 82.4743 120.34 82.2224 120.313 81.9081C120.276 81.4841 120.31 81.0306 120.322 80.6049C120.341 79.9622 120.454 79.3362 120.482 78.6993L120.513 74.8151C120.519 74.3948 120.631 73.9886 120.638 73.5705L120.582 68.5396C120.558 67.5051 120.629 66.2548 120.35 65.2643C120.3 65.0879 120.309 65.087 120.155 64.9998C120.084 64.2679 120.171 63.8589 120.38 63.1599C120.743 61.9472 120.673 60.7687 120.66 59.522L120.673 56.0191C120.67 55.5384 120.545 55.0751 120.54 54.6055C120.532 53.9525 120.698 53.2412 120.813 52.6012C121.088 52.4356 121.464 52.1208 121.755 52.0122C121.86 51.9727 122.188 52.0151 122.31 52.0158L124.038 52.0148L129.848 51.842ZM131.786 63.3556L132.086 80.037C132.912 80.1713 133.769 79.8094 134.424 79.3298C134.618 79.1881 134.774 79.0046 134.923 78.8177C135.379 78.4232 135.766 78.0227 135.858 77.4046C135.989 76.5315 136.208 75.6846 136.275 74.802L136.417 72.0567C136.421 71.3656 136.304 70.5632 136.493 69.8984C136.674 69.2662 135.962 67.8036 135.74 67.1591C135.544 66.5922 135.432 65.9489 135.14 65.4236C134.744 64.7124 133.673 63.761 132.874 63.5506L131.786 63.3556Z" fill="white"/>
<path d="M50.8575 51.8389C51.7601 51.8844 52.5351 52.102 53.4085 52.2177C53.9363 52.2875 54.8265 52.1404 55.2737 52.377C55.6373 52.5694 55.9639 53.134 56.0468 53.5356C56.1234 53.9073 56.0661 54.2866 56.0687 54.6615L56.118 56.6632L56.1672 63.9097L56.3708 67.923L56.3965 98.7985L56.3875 110.646L56.4144 115.82C56.4035 116.067 56.3663 116.265 56.2244 116.475C55.8632 117.008 54.8097 118.389 54.1401 118.342C53.8004 118.319 53.5622 118.067 53.1785 118.14C52.379 118.294 51.4215 118.029 50.6001 118.009C49.3853 117.98 48.1432 118.082 46.9366 118.022C46.3561 117.993 45.7532 117.612 45.3739 117.184L45.324 117.127C45.1025 116.877 44.9037 116.638 44.8737 116.29C44.8396 115.891 45.0772 115.484 45.0415 115.079C44.8418 112.814 44.9111 110.534 44.9134 108.253L44.8842 102.31C44.8947 101.774 44.9861 101.249 44.9911 100.717C44.9972 100.045 44.8287 99.4444 44.7635 98.784C44.6972 98.1115 44.723 97.4163 44.7234 96.7397C44.7246 94.4258 44.9241 91.9768 44.6844 89.6863L43.9596 94.5377L41.9559 105.951L41.3497 109.621C41.2903 110.079 41.3825 110.565 41.2418 111.003C40.6268 112.921 40.7611 115.055 40.2003 116.979C40.1168 117.265 40.0009 117.475 39.718 117.598C38.7663 118.014 38.2092 117.723 37.2816 117.707C36.5472 117.694 35.5813 117.803 34.8763 117.577C34.7915 117.487 34.6366 117.364 34.5778 117.261C34.4451 117.028 34.4285 116.272 34.3844 115.979C34.1285 114.283 33.9718 112.491 33.5975 110.823C33.4966 110.374 33.1949 110.227 33.1449 109.814C33.0597 109.11 33.1635 108.37 33.1078 107.659C33.0258 106.61 32.7801 105.537 32.6272 104.493C32.4772 103.469 32.4342 102.052 31.9844 101.116C31.6003 100.316 31.8387 99.4353 31.7158 98.5782L30.0478 87.517L29.4894 83.5404C29.4001 82.8894 29.3875 82.0965 29.1201 81.4927L29.2239 85.7642L29.4641 105.067C29.4642 108.353 29.1942 111.679 29.5587 114.945C29.6311 115.594 29.4916 116.978 29.0961 117.485C28.9775 117.565 28.8468 117.641 28.7022 117.658C27.3299 117.819 25.8182 117.62 24.4251 117.678C23.7022 117.708 23.0189 117.893 22.2832 117.884C21.8542 117.878 21.4658 117.748 21.0453 117.702C20.6001 117.653 20.1425 117.711 19.6977 117.662C19.3287 117.621 19.2247 117.425 19.0297 117.148C18.9463 116.38 18.9887 115.659 18.9701 114.893L18.8892 110.375L18.8887 103.157C18.8884 102.348 18.8142 101.513 18.8378 100.71C18.8544 100.147 18.9589 99.5878 18.9715 99.0194C18.9858 98.3589 18.8484 97.7128 18.8351 97.0504L18.9222 92.7459C18.9182 92.097 18.7925 91.4509 18.787 90.7994L18.838 85.2904C18.8537 84.7859 18.9416 84.2942 18.9446 83.7868C18.9494 82.9511 18.8135 82.1547 18.7991 81.3384L18.7147 75.5106L18.7822 73.2373L18.6656 71.4371L18.8013 64.5692C18.8096 64.3523 18.6992 64.1182 18.6953 63.8937C18.683 63.2021 18.8075 62.4811 18.8018 61.7734C18.7892 60.2285 18.5147 58.7039 18.5485 57.1504C18.5673 56.2911 18.8272 55.5487 18.9204 54.7178C18.9951 54.0537 18.8551 53.1978 19.1678 52.5997C19.5525 52.2049 20.0089 52.3432 20.4954 52.2253C21.247 52.043 22.0808 52.0751 22.8523 52.0675L26.3315 52.0385L29.4256 52.0152C29.7863 52.018 30.2954 51.967 30.6254 52.0997C30.9641 52.2359 31.4003 52.2311 31.7046 52.4147C32.2423 52.7394 32.2159 53.5452 32.4159 54.0985C32.6499 54.7456 32.9875 55.2778 33.1489 55.9642C33.4468 57.2318 33.3635 58.5249 33.5828 59.7932C33.6963 60.4496 33.8606 61.1892 34.0847 61.8109C34.1797 62.0746 34.3392 62.3306 34.4003 62.6047C34.4646 62.8946 34.4123 63.2213 34.4473 63.5187L34.8065 65.8632C34.9163 66.5368 35.1535 67.1578 35.2928 67.8199L35.7313 70.3187L36.6499 75.5465C36.8542 76.7577 37.0049 77.9613 37.3359 79.149L38.5634 73.3918C38.6537 72.8373 38.5215 71.7685 38.8154 71.3239C39.1858 70.7637 39.1215 69.6834 39.2792 69.0165L41.1901 60.0721L42.1349 55.3421C42.3209 54.3902 42.2963 53.3568 42.8185 52.5125C44.1853 51.6792 46.1437 52.1715 47.668 52.109L50.8575 51.8389Z" fill="white"/>
</g>
<defs>
<clipPath id="clip0_2006_133">
<rect width="230.517" height="140" fill="white"/>
</clipPath>
</defs>
</svg>
