<svg width="26" height="20" viewBox="0 0 26 20" fill="none" xmlns="http://www.w3.org/2000/svg">
<g clip-path="url(#clip0_154_4376)">
<path d="M7.78476 4.2093C7.39751 2.9397 6.34637 3.07885 5.62768 3.67017C3.85728 5.25277 1.55209 8.57454 3.02743 13.3577C4.26301 17.4098 9.40426 20.0012 9.40426 20.0012H3.41093C3.41093 20.0012 0.316316 16.6446 0.0396767 12.6968C-0.310701 7.70557 1.75492 4.55768 4.15233 2.50557C6.40218 0.575114 8.54142 0.0012207 8.54142 0.0012207L12.9174 13.8762L17.2933 0.0012207C17.2933 0.0012207 19.4326 0.575116 21.6824 2.50557C24.0798 4.55768 26.1454 7.70557 25.7951 12.6968C25.5184 16.6446 22.4238 20.0012 22.4238 20.0012H16.4305C16.4305 20.0012 21.5713 17.4098 22.8073 13.3577C24.2826 8.57509 21.9774 5.25331 20.2071 3.67017C19.4878 3.07885 18.4367 2.9397 18.05 4.2093C16.7222 8.26147 12.9179 19.8718 12.9179 19.8718C12.9179 19.8718 9.11364 8.25759 7.78585 4.2093H7.78476Z" fill="#702785"/>
</g>
<defs>
<clipPath id="clip0_154_4376">
<rect width="25.8333" height="20" fill="white"/>
</clipPath>
</defs>
</svg>
