<svg width="26" height="20" viewBox="0 0 26 20" fill="none" xmlns="http://www.w3.org/2000/svg">
<g clip-path="url(#clip0_154_4346)">
<path d="M7.83498 4.2093C7.44523 2.9397 6.38731 3.07885 5.66398 3.67017C3.88217 5.25277 1.5621 8.57454 3.04696 13.3577C4.29051 17.4098 9.46493 20.0012 9.46493 20.0012H3.43293C3.43293 20.0012 0.318352 16.6446 0.039928 12.6968C-0.31271 7.70557 1.76624 4.55768 4.17911 2.50557C6.44348 0.575114 8.59652 0.0012207 8.59652 0.0012207L13.0007 13.8762L17.4049 0.0012207C17.4049 0.0012207 19.5579 0.575116 21.8223 2.50557C24.2352 4.55768 26.3141 7.70557 25.9615 12.6968C25.683 16.6446 22.5685 20.0012 22.5685 20.0012H16.5365C16.5365 20.0012 21.7105 17.4098 22.9544 13.3577C24.4393 8.57509 22.1192 5.25331 20.3374 3.67017C19.6135 3.07885 18.5556 2.9397 18.1664 4.2093C16.8301 8.26147 13.0012 19.8718 13.0012 19.8718C13.0012 19.8718 9.17244 8.25759 7.83607 4.2093H7.83498Z" fill="#0078C9"/>
</g>
<defs>
<clipPath id="clip0_154_4346">
<rect width="26" height="20" fill="white"/>
</clipPath>
</defs>
</svg>
