<svg width="298" height="74" viewBox="0 0 298 74" fill="none" xmlns="http://www.w3.org/2000/svg">
<g clip-path="url(#clip0_154_3109)">
<path d="M156.208 64.051C156.546 64.0065 156.935 64.0202 157.284 64.0129L157.5 64.137L157.44 73.6256L156.375 73.6532L156.166 73.5397L156.208 64.051Z" fill="white"/>
<path d="M170.76 63.8514C171.344 63.8304 171.97 63.7955 172.538 63.8944C173.331 64.0322 173.945 64.3369 174.327 64.7495C174.71 65.1629 175.201 66.0487 174.932 66.5043C174.499 66.5099 174.117 66.5043 173.69 66.4694C173.659 66.0585 173.57 65.6022 173.044 65.2909C172.653 65.0583 171.903 64.9521 171.349 64.9764C170.871 64.9975 170.361 65.145 170.061 65.3558C169.512 65.7416 169.428 66.3867 169.538 66.8576C169.804 67.998 172.324 68.1861 173.685 68.7769C174.579 69.1652 175.057 69.7974 175.158 70.4198C175.322 71.4346 175.113 72.7363 173.827 73.5128C173.011 74.0056 172.12 74.0291 171.009 74.0404C170.541 73.9772 170.036 73.918 169.614 73.7851C168.756 73.516 168.234 73.0532 167.957 72.5312C167.745 72.13 167.535 71.3147 167.888 70.9556L169.192 70.9426L169.459 71.8455C169.598 72.1925 169.964 72.5483 170.539 72.7201C171.148 72.9016 172.17 72.9373 172.812 72.8011C173.321 72.6933 173.648 72.3943 173.819 72.1179C174.06 71.7288 174.116 71.232 174.001 70.8267C173.52 69.1522 169.712 69.3954 168.57 67.9526C167.89 67.0951 168.063 65.7594 168.704 64.9083C169.121 64.3531 169.81 64.0841 170.76 63.8514Z" fill="white"/>
<path d="M123.049 64.0512C123.462 64.0293 123.69 63.9612 124.032 64.1104L127.09 71.1424L127.808 72.7764C127.933 73.0568 128.164 73.3559 128.039 73.6388L126.891 73.6372L125.915 71.3531L124.051 71.3483L121.15 71.3385C120.854 72.0704 120.668 72.9596 120.123 73.6388C119.735 73.6461 119.244 73.7109 118.927 73.5828L123.049 64.0512ZM123.605 65.8076L122.341 68.7416C122.153 69.1761 121.781 69.7402 121.817 70.1779L123.827 70.1836L125.494 70.1738L123.605 65.8076Z" fill="white"/>
<path d="M103.051 64.0137C104.402 64.0088 107.08 63.8021 108.216 64.2098C109.227 64.5729 109.784 65.3316 109.972 65.9743C110.264 66.9713 110.193 68.324 109.084 69.1597C107.918 70.0374 106.268 69.7343 104.612 69.8445L104.579 70.313V73.6483L103.203 73.6475C102.858 73.4035 103.051 65.1038 103.051 64.0137ZM104.579 65.1849V68.645C105.876 68.6417 107.157 68.7576 108.214 68.26C108.84 67.571 108.959 66.7613 108.558 66.0165C108.39 65.7052 108.125 65.4686 107.61 65.3097C106.854 65.0763 105.434 65.1768 104.579 65.1849Z" fill="white"/>
<path d="M138.283 64.0186L142.41 64.0234C143.149 64.0469 143.777 64.2504 144.241 64.5738C145.302 65.3113 145.464 66.4728 145.241 67.3814C145.047 68.166 144.591 68.666 143.466 69.1483C143.293 69.2221 143.254 69.2018 143.277 69.3477C143.325 69.6484 143.653 70.0447 143.812 70.3406L145.108 72.7105C145.265 72.9982 145.719 73.5794 145.544 73.8485C145.106 73.8525 144.765 73.8752 144.35 73.7836L143.458 72.1083L142.048 69.4142L139.597 69.4093L139.603 72.2161C139.603 72.67 139.696 73.1985 139.514 73.6386L138.423 73.6596C138.018 73.3152 138.283 71.7671 138.283 71.2986V64.0186ZM139.597 65.1849V68.2648C140.942 68.2681 142.317 68.4034 143.423 67.922C144.002 67.3652 144.159 66.6049 143.834 65.9768C143.687 65.6923 143.401 65.4118 142.917 65.2749C142.155 65.0576 140.479 65.1662 139.597 65.1849Z" fill="white"/>
<path d="M240.593 1.04974C241.975 0.880104 243.858 1.00298 245.29 1.00282L255.809 1.00347L297.042 1.0046L297.012 2.9547C296.986 3.35801 296.776 3.83873 296.07 4.02158C295.647 4.13108 295.094 4.09128 294.639 4.09209L291.296 4.0955L277.29 4.08999C276.677 4.08958 274.809 3.98113 274.31 4.10944C274.159 4.14794 274.066 4.23523 273.944 4.29813C273.557 5.0827 273.797 6.19198 273.796 7.02567L273.792 12.5026L273.798 36.0981V49.3752L267.69 49.3833C266.563 49.3889 265.266 49.4643 264.155 49.3679C263.772 49.3354 263.343 49.2317 263.049 49.089C262.082 48.6206 261.799 47.7711 261.683 47.0927C261.483 45.9232 261.63 44.6766 261.629 43.4997L261.63 36.3469V13.6853L261.639 8.0962C261.643 6.90637 261.754 5.68411 261.53 4.49995L239.718 4.49087C239.709 3.63197 239.561 2.68358 239.765 1.83546C239.859 1.4482 240.036 1.28131 240.593 1.04974Z" fill="white"/>
<path d="M166.514 0.878234C167.775 0.717833 169.312 0.810959 170.611 0.812013L163.265 8.97819L152.779 20.6427L148.686 25.3411C147.518 26.7039 146.188 28.1016 145.731 29.6094C145.43 30.6014 145.493 31.5732 145.493 32.5742L145.494 36.3861L145.495 49.3754L138.906 49.3827C137.904 49.3827 136.385 49.4889 135.441 49.3024C134.476 49.112 133.919 48.5519 133.669 48.0226C132.964 46.5289 133.336 44.6152 133.339 43.0688C133.342 41.502 133.658 29.8176 133.123 29.2725L123.028 17.8857L114.704 8.62141C112.38 6.07323 110.3 3.07083 106.724 1.00799L114.493 1.002C115.919 1.00232 117.462 0.939423 118.87 1.0593L119.108 1.08102C119.667 1.12722 120.185 1.17286 120.72 1.27928C122.394 1.61183 123.56 2.21153 124.568 3.01491C125.591 3.8294 126.322 4.752 127.09 5.64754L130.353 9.441L144.376 25.6617L158.71 9.21292L163.084 4.18238C163.864 3.28668 164.595 2.32127 165.51 1.47023C165.799 1.20195 166.052 1.05217 166.514 0.878234Z" fill="white"/>
<path d="M71.8774 0.8125L82.7776 0.842489C84.5575 0.962364 85.653 1.58525 86.4949 2.43499C87.9508 3.90437 88.665 5.63344 89.5271 7.2355L92.258 12.154L106.751 36.5373L110.048 41.6954L113.11 46.2846C114.001 47.5052 114.909 48.7096 116.342 49.7633L107.733 49.7649C106.172 49.7641 104.12 49.9011 102.647 49.6158C101.695 49.431 101.078 49.0225 100.585 48.5435C99.2531 47.2483 98.5462 45.6572 97.7277 44.2364L92.7201 35.6571C92.0568 34.5491 91.5308 33.2969 90.6413 32.2513L90.0604 32.2238L64.8019 32.2294C64.0402 32.2578 63.5766 32.398 63.1331 32.7506C62.0381 33.6235 61.5074 34.9187 60.8568 35.9213L55.9066 43.6561L54.1091 46.4872C53.5907 47.3155 53.064 48.3749 51.9607 49.0233C51.0782 49.542 49.5975 49.3913 48.4216 49.3832L75.6151 5.8402C74.7749 4.18538 73.7106 2.19556 71.8774 0.8125ZM77.0856 9.42714C76.5378 10.0826 76.1872 10.7975 75.763 11.4814L73.3325 15.4537L64.7909 29.3173L76.9087 29.3311L88.9745 29.3314L77.4985 9.42365L77.0856 9.42714Z" fill="white"/>
<path d="M0.0479736 1.0491C0.19443 1.02697 0.253805 1.01514 0.421696 1.00704C2.05866 0.92801 3.82289 1.0025 5.47037 1.00266L16.0636 1.00282L26.3937 1.00323C28.4759 1.00363 30.5942 0.957593 32.6712 1.02819C38.3348 1.22069 44.0315 2.19006 48.1956 4.45108C52.8206 6.96229 55.2492 10.7038 55.2845 14.2992C55.3248 18.4118 53.4415 22.894 48.1444 25.8765C44.4771 27.9413 39.5964 28.9846 34.5003 29.2611C32.4056 29.3747 30.2699 29.3362 28.1666 29.3376L19.807 29.3377L14.0275 29.3468L13.9746 49.3761L7.59841 49.3834C6.39182 49.3834 4.2961 49.5471 3.29352 49.1176C2.36172 48.7188 2.01996 47.9099 1.88665 47.2907C1.62544 46.0765 1.79923 44.7586 1.79842 43.5339L1.79624 36.4111L1.7998 12.1397L1.80036 6.26444C1.80036 5.20072 1.93052 4.07589 1.7001 3.02092C1.54206 2.29721 1.10652 1.5089 0.0479736 1.0491ZM13.5776 3.51501L13.5659 19.8813L13.5703 24.0767C13.572 24.8494 13.4375 25.6976 13.7474 26.4523C13.879 26.5083 13.9928 26.5809 14.1422 26.6203C14.2622 26.6519 14.7875 26.6263 14.9315 26.6274L17.65 26.6355L26.2925 26.6358C27.8258 26.6352 29.4435 26.6931 30.9641 26.5964L31.1923 26.5836C34.0199 26.4125 36.4076 25.5642 38.1559 24.3243L38.2477 24.2582C41.5582 21.5827 42.2934 18.3129 42.3212 15.1211C42.3346 13.5921 42.238 12.1066 41.766 10.597C41.0928 8.44416 39.4231 6.20511 36.1401 4.92158L34.9991 4.51876C31.3031 3.25565 26.3134 3.51355 22.1731 3.51469L13.5776 3.51501Z" fill="white"/>
<path d="M203.487 0.0984874C204.816 -0.0336265 206.548 0.0242449 207.895 0.0971913C214.235 0.440201 219.841 1.73078 224.772 4.02519C234.201 8.4125 239.027 15.434 240.056 22.1639C241.224 29.804 238.273 38.115 229.317 44.0853C223.827 47.7456 216.427 50.0799 207.919 50.477L207.416 50.5046C199.549 50.798 191.821 49.1526 185.93 46.2396C176.517 41.5865 171.878 34.4661 171.128 27.5448C170.296 19.8817 173.674 11.7825 182.886 5.95032C188.132 2.6294 195.56 0.36231 203.487 0.0984874ZM204.387 2.56958C199.495 2.8052 195.164 3.85457 191.95 5.99765C184.947 10.6671 183.925 17.9086 183.79 23.7893C183.737 26.1093 183.785 28.4243 184.135 30.7377C184.882 35.6827 186.872 42.1303 193.954 45.5134C197.621 47.2649 202.431 48.0795 207.227 47.8039L207.515 47.7853C212.6 47.5283 216.683 46.405 219.992 44.1817C222.293 42.6361 223.86 40.7281 224.958 38.8194C227.314 34.7214 227.877 30.2704 227.903 25.9865C227.917 23.7944 227.846 21.6124 227.486 19.4284C226.666 14.4491 224.596 8.1687 217.374 4.8015C214.475 3.44948 211.44 2.86283 207.754 2.60111C206.641 2.522 205.506 2.55507 204.387 2.56958Z" fill="white"/>
</g>
<defs>
<clipPath id="clip0_154_3109">
<rect width="297" height="74" fill="white" transform="translate(0.0377197)"/>
</clipPath>
</defs>
</svg>
