<svg width="236" height="140" viewBox="0 0 236 140" fill="none" xmlns="http://www.w3.org/2000/svg">
<g clip-path="url(#clip0_2006_52)">
<path d="M4.48596e-05 27.8166V0H19.5989H20.0405H215.639H216.067H235.624V27.755V28.368V112.075V112.262V140H216.077H215.508H20.1216H19.5683H4.48596e-05V28.3688V27.8166ZM21.5165 7.18789L10.1014 23.3743L7.33392 27.3051C6.9973 27.7852 6.39314 28.4526 6.21893 29.0004C7.84931 34.0555 9.00595 39.2846 9.92275 44.5127C11.092 51.1805 11.8769 57.9394 12.0616 64.7108C12.3359 74.7682 11.3747 84.9663 9.66796 94.8719L7.29754 106.72L6.49453 110.042C6.43176 110.277 6.17956 110.894 6.20254 111.111C6.21551 111.233 6.64584 111.751 6.73234 111.876L8.81164 114.833L21.5196 132.854C28.5707 129.476 35.6983 126.58 43.1762 124.283C55.0611 120.632 67.3018 118.233 79.618 116.611C109.674 112.654 140.719 113.23 170.521 118.92C179.415 120.619 188.384 122.72 196.939 125.725L214.123 132.864L229.472 111.114C227.845 105.129 226.651 99.0026 225.693 92.8779C224.255 83.7035 223.37 74.3952 223.588 65.099C223.772 57.2891 224.74 49.4302 226.248 41.7712L227.931 34.2996C228.365 32.5356 228.805 30.6339 229.472 28.9445L214.118 7.16812C198.235 15.1809 180.57 19.6709 163.066 22.4271C148.032 24.7943 132.913 25.8955 117.699 25.9028C99.7717 25.9112 81.8278 24.3629 64.2206 20.9452C56.6755 19.4807 49.0601 17.7294 41.7554 15.3183L21.5165 7.18789ZM20.0405 0C30.7582 6.06573 42.8004 10.0907 54.7169 13.0221C70.9429 17.0134 87.5611 19.1963 104.236 19.9336L125.29 20.2193C137.405 19.8937 149.499 18.8019 161.474 16.9384C168.474 15.8491 175.612 14.5687 182.446 12.6774L195.702 8.74421C202.613 6.38958 209.179 3.3845 215.639 0H20.0405ZM20.1216 140H215.508C213.982 138.962 212.042 138.194 210.379 137.358C202.293 133.296 193.493 130.319 184.77 127.964L176.369 125.908C175.538 125.672 174.685 125.57 173.842 125.4L169.321 124.48L155.521 122.285C130.706 118.898 105.377 119.032 80.5454 122.217C70.1858 123.545 59.7198 125.405 49.702 128.37L41.0564 130.943C33.8649 133.322 26.7548 136.336 20.1216 140ZM4.48596e-05 28.3688V140H19.5683C19.1115 139.2 18.4917 138.47 17.9678 137.712L14.4317 132.676L3.93302 117.762L0.844325 113.431C0.652952 113.162 0.0752213 112.525 -0.00148279 112.244C-0.054662 112.049 1.37464 107.001 1.55323 106.255L4.67306 90.076C5.58632 84.0255 6.25516 77.7776 6.41018 71.661C6.60092 64.1355 6.0809 56.4473 4.93947 49.0057L3.42924 41.0681C2.60477 36.8065 1.51787 32.4437 4.48596e-05 28.3688ZM235.624 28.368C233.759 33.9709 232.384 39.6263 231.369 45.4395C230.904 48.0983 230.382 50.7674 230.113 53.4564L229.4 61.8782C229.311 63.1541 229.439 64.5155 229.241 65.7723C229.156 66.3119 229.237 66.9282 229.239 67.4775L229.321 71.8606C229.545 78.6154 230.279 85.2309 231.3 91.9099C232.341 98.7006 233.735 105.464 235.624 112.075V28.368ZM4.48596e-05 27.8166L19.5989 0H4.48596e-05V27.8166ZM216.067 0L235.624 27.755V0H216.067ZM235.624 112.262L216.077 140H235.624V112.262Z" fill="white"/>
<path d="M119.673 100.37L119.737 100.35C120.083 100.272 120.717 100.289 121.002 100.485L120.976 100.976L119.711 101.001C119.562 100.697 119.577 100.696 119.673 100.37Z" fill="#5B7E75"/>
<path d="M130.32 98.4141C130.454 98.373 130.397 98.3831 130.545 98.3703C130.841 98.3448 130.881 98.3025 131.111 98.494L131.116 102.493L130.87 102.609L130.468 102.615C130.094 102.202 130.306 99.0789 130.32 98.4141Z" fill="#5B7E75"/>
<path d="M168.504 85.7954C168.578 85.6252 168.653 85.5321 168.622 85.3448C168.38 83.869 168.535 82.1976 168.542 80.6985L168.664 80.5469C168.967 80.65 169.127 80.7346 169.328 80.9859C169.78 82.627 169.293 84.5874 169.548 86.2989C169.091 86.1704 168.806 86.171 168.504 85.7954Z" fill="#5B7E75"/>
<path d="M117.852 38.365C118.099 38.3322 118.367 38.3446 118.618 38.3369L118.737 38.4799C118.741 40.1817 118.906 42.0771 118.675 43.7547C118.459 43.8537 118.105 43.7863 117.87 43.7728C117.71 43.2259 117.784 42.5534 117.781 41.9791C117.777 40.7955 117.69 39.5343 117.852 38.365Z" fill="#5B7E75"/>
<path d="M76.5099 36.4091C76.7659 36.3963 77.0567 36.4529 77.3139 36.4768C77.5784 36.8737 77.426 41.2421 77.3715 41.9054C77.136 41.9514 76.8101 41.8905 76.566 41.8765C76.3891 41.3666 76.4655 40.7173 76.4627 40.1781C76.4568 38.9289 76.4052 37.653 76.5099 36.4091Z" fill="#5B7E75"/>
<path d="M132.159 38.0198L132.941 37.9729L133.043 38.1349L133.048 41.8067C133.048 42.3058 133.13 42.9872 132.941 43.4435L132.251 43.4971L132.088 43.3116L132.079 39.897C132.078 39.2906 132.014 38.6073 132.159 38.0198Z" fill="#5B7E75"/>
<path d="M125.637 98.1572L128.397 98.2554C128.543 98.4798 128.483 98.6181 128.46 98.8798C127.903 98.936 126.948 98.7261 126.482 98.9597C126.473 99.309 126.379 99.7326 126.573 100.025L128.339 100.098L128.408 100.485L128.277 100.751L126.459 100.688C126.463 101.223 126.547 101.897 126.383 102.405L125.751 102.458C125.477 102.153 125.636 98.7748 125.637 98.1572Z" fill="#5B7E75"/>
<path d="M87.1237 37.3291C87.741 37.3556 90.4214 37.335 90.7992 37.6741C90.8092 37.9527 90.8505 38.2235 90.7177 38.4776L89.2946 38.3961L89.2957 41.3842C89.295 41.7526 89.4002 42.6862 89.1646 42.9209L88.4989 42.883C88.3479 42.4298 88.4133 41.8784 88.412 41.4011L88.4118 38.334C87.9187 38.325 87.4897 38.2932 87.0143 38.1575C86.9839 37.7947 86.947 37.66 87.1237 37.3291Z" fill="#5B7E75"/>
<path d="M154.718 100.184C155.636 100.284 156.852 100.255 157.708 100.564C157.754 100.804 157.789 100.948 157.688 101.175L155.607 100.953C155.574 101.312 155.631 101.695 155.659 102.055C156.324 102.109 156.977 102.152 157.624 102.325L157.717 102.67L157.562 102.837L155.951 102.643L155.631 102.733L155.593 103.795C156.26 103.875 157.222 103.848 157.821 104.124L157.833 104.626C157.403 104.868 155.437 104.468 154.801 104.406L154.718 100.184Z" fill="#5B7E75"/>
<path d="M138.622 98.7568L141.481 98.9709L141.583 99.3922C141.286 99.9039 140.047 99.3294 139.474 99.6302L139.452 100.485C139.913 100.88 141.003 100.407 141.497 100.83L141.455 101.258C140.95 101.333 140.357 101.24 139.844 101.211L139.476 101.257C139.458 101.637 139.445 101.991 139.499 102.369L141.57 102.529C141.634 102.792 141.652 102.932 141.57 103.192L138.62 103.021L138.622 98.7568Z" fill="#5B7E75"/>
<path d="M149.596 99.6796C149.929 99.6166 150.385 99.7114 150.725 99.7417C151.408 99.8022 152.268 99.7851 152.908 100.025C152.928 100.224 152.961 100.462 152.882 100.652C152.769 100.923 152.416 101.223 152.21 101.444C151.658 102.037 151.086 102.598 150.636 103.277C151.389 103.38 152.163 103.352 152.903 103.534C153.05 103.772 152.985 103.894 152.95 104.166L150.534 103.956C150.203 103.928 149.792 103.948 149.509 103.767L149.469 103.52C149.417 102.823 151.276 101.153 151.809 100.54L149.681 100.304C149.498 100.074 149.568 99.9649 149.596 99.6796Z" fill="#5B7E75"/>
<path d="M107.089 98.1446C107.833 98.1202 108.701 97.9608 109.339 98.4138C109.504 98.7154 109.55 98.8772 109.497 99.219C109.2 99.3565 109.158 99.3971 108.842 99.3341L108.57 98.8556C108.138 98.7629 107.699 98.8248 107.263 98.8605L107.083 99.104C107.035 99.3952 107.027 99.5501 107.17 99.813C107.754 99.8584 108.502 99.8391 109.056 100.008C109.286 100.078 109.463 100.196 109.563 100.417C109.723 100.77 109.702 101.507 109.537 101.865C109.374 102.218 109.063 102.261 108.731 102.382L107.685 102.416C107.101 102.414 106.726 102.472 106.294 102.037C106.191 101.721 106.15 101.505 106.2 101.175C106.421 101.056 106.581 101.086 106.825 101.114C106.935 101.382 107.024 101.561 107.228 101.769L108.09 101.8C108.427 101.778 108.589 101.7 108.801 101.45C108.816 101.143 108.855 100.997 108.697 100.714C108.081 100.533 107.442 100.635 106.825 100.507C106.626 100.465 106.437 100.349 106.332 100.175C106.139 99.8578 106.141 99.2037 106.253 98.8585C106.406 98.3873 106.683 98.3325 107.089 98.1446Z" fill="#5B7E75"/>
<path d="M102.239 98.4144C102.539 98.3643 102.789 98.3753 103.09 98.4144L103.277 98.6811C103.697 99.4861 103.944 100.558 104.255 101.423C104.378 101.765 104.617 102.188 104.524 102.537L103.949 102.595C103.663 102.381 103.62 102.14 103.488 101.817L102.999 101.795C102.551 101.803 102.067 101.759 101.664 101.981C101.551 102.259 101.456 102.472 101.238 102.685C101.15 102.771 100.752 102.729 100.612 102.728L100.534 102.556L101.931 98.5295L102.239 98.4144Z" fill="#5B7E75"/>
<path d="M102.551 99.0984C102.777 99.5797 103.263 100.682 103.159 101.175L102.683 101.219L102.05 101.218L101.909 101.06L102.551 99.0984Z" fill="black"/>
<path d="M80.6648 100.586C80.9694 100.56 81.3784 100.487 81.6723 100.577C81.928 100.655 82.0038 100.696 82.1222 100.936C82.4139 101.527 82.3417 102.18 82.1551 102.786C81.6256 103.455 80.4732 103.469 79.6727 103.602L79.6558 104.051L79.7025 104.799C79.4867 105.003 79.2138 104.972 78.9247 105.003C78.7358 104.743 78.813 104.297 78.8099 103.976L78.78 100.835L80.6648 100.586Z" fill="#5B7E75"/>
<path d="M80.5556 101.268C80.7539 101.229 81.0166 101.262 81.222 101.265L81.3983 101.501C81.4274 101.786 81.5034 102.159 81.363 102.42C81.2611 102.609 80.9444 102.657 80.7441 102.725C80.3777 102.773 79.9689 102.921 79.6526 102.723C79.6361 102.3 79.5351 101.774 79.7336 101.405L80.5556 101.268Z" fill="black"/>
<path d="M143.554 99.0723L144.902 99.2292C145.66 100.213 146.17 101.618 146.777 102.718C146.821 101.679 146.61 100.426 146.826 99.4237C147.133 99.4206 147.365 99.3527 147.603 99.5641L147.637 103.67L146.277 103.537C145.509 102.618 144.949 101.16 144.386 100.081C144.395 101.124 144.537 102.362 144.351 103.38C144.098 103.391 143.888 103.391 143.641 103.332C143.41 102 143.561 100.432 143.554 99.0723Z" fill="#5B7E75"/>
<path d="M163.209 35.5974C163.436 35.5448 163.543 35.5472 163.769 35.6037L163.775 36.3958L161.327 36.6687L161.321 38.0939C161.861 38.0259 163.147 37.719 163.628 37.9044C163.649 38.1691 163.678 38.3648 163.563 38.6101L161.31 38.8608L161.333 40.2626L161.474 40.3755L162.566 40.2516C162.975 40.1947 163.379 40.1104 163.79 40.1842C163.809 40.4963 163.892 40.7494 163.708 41.0105L160.412 41.3785L160.413 35.9092L163.209 35.5974Z" fill="#5B7E75"/>
<path d="M80.3397 36.8693C80.56 36.7875 80.8188 36.81 81.0533 36.804C81.1161 36.845 81.2059 36.8611 81.2416 36.9269C81.2869 37.0105 81.2422 37.5548 81.2422 37.6764C81.2435 38.6507 81.0254 40.4322 81.4531 41.2983C81.8685 41.6278 82.6229 41.5426 83.1242 41.5286C83.9328 41.056 83.2475 37.9785 83.5845 37.0349C83.9012 37.0364 84.1231 37.0384 84.4133 37.1833L84.452 37.7035L84.4486 40.5484C84.4427 41.0038 84.4561 41.6509 84.2042 42.0452C84.0581 42.2738 83.7895 42.4012 83.5305 42.4468C82.6907 42.5948 81.404 42.4534 80.7081 41.9631C80.2524 41.3941 80.3439 40.5533 80.3401 39.8677L80.3397 36.8693Z" fill="#5B7E75"/>
<path d="M104.896 38.2189C105.59 38.1783 106.666 38.05 107.297 38.3542C107.578 38.4895 107.756 38.655 107.849 38.9656C107.944 39.282 108.072 39.806 107.906 40.0907C107.586 40.1363 107.401 40.0974 107.103 39.9757C107.054 39.7866 107.011 39.5877 106.917 39.4151C106.799 39.1977 106.762 39.1781 106.52 39.1219C106.102 39.0249 105.305 39.0685 104.956 39.2855C104.715 40.2871 104.729 41.561 104.984 42.5577C105.518 42.9066 106.169 42.8165 106.785 42.7366C107.109 42.4491 106.99 42.1059 107.228 41.7835C107.567 41.7764 107.735 41.7228 108.025 41.9312L107.988 42.6681C107.933 43.0309 107.795 43.3202 107.495 43.5418C106.784 43.8152 105.574 43.8014 104.84 43.6088C104.522 43.5255 104.283 43.3541 104.134 43.0618C103.707 42.2284 103.698 39.8158 104.021 38.9403C104.173 38.5264 104.523 38.3917 104.896 38.2189Z" fill="#5B7E75"/>
<path d="M133.205 98.4548C134.087 98.457 135.745 98.3891 136.457 98.9269C136.664 99.2 136.703 99.4947 136.725 99.8272C136.761 100.38 136.641 100.662 136.288 101.06L136.491 101.351C136.751 101.761 136.76 102.339 136.654 102.815L136.108 102.854L135.873 102.671C135.885 102.264 135.91 101.95 135.702 101.581C135.308 101.265 134.519 101.34 134.025 101.323C134.031 101.719 134.142 102.419 133.919 102.727L133.344 102.722C133.137 102.439 133.22 102.007 133.218 101.659L133.205 98.4548Z" fill="#5B7E75"/>
<path d="M134.044 99.1738C134.605 99.1958 135.444 99.1458 135.828 99.5459C135.86 99.92 135.929 100.272 135.705 100.6C135.241 100.758 134.536 100.655 134.041 100.647L134.044 99.1738Z" fill="black"/>
<path d="M97.1737 98.7514L97.966 98.7129C98.3755 98.7453 98.5421 98.8605 98.7987 99.1649C98.9222 99.8871 98.9697 100.445 98.5411 101.058L98.5868 101.141L98.6561 101.269C98.7363 101.395 98.8105 101.483 98.8446 101.635C98.9236 101.985 98.9613 102.591 98.7712 102.874L98.2536 102.94C97.9864 102.743 98.1376 102.234 98.0119 101.914C97.9092 101.653 97.746 101.66 97.5057 101.579L96.1662 101.668C96.2072 102.11 96.3056 102.618 96.1601 103.042C95.8367 103.106 95.6853 103.201 95.3896 103.015L95.3613 98.8904L97.1737 98.7514Z" fill="#5B7E75"/>
<path d="M96.7902 99.4405C97.1515 99.4142 97.4896 99.4234 97.8497 99.4497L98.0282 99.6799C98.0453 99.9247 98.0975 100.249 98.0255 100.484C97.9453 100.745 97.7191 100.77 97.4908 100.868C97.1012 100.894 96.5628 100.998 96.2092 100.83C96.1933 100.443 96.0998 99.8699 96.2983 99.5324L96.7902 99.4405Z" fill="black"/>
<path d="M85.8304 99.8967C86.3171 99.8266 86.7764 99.8435 87.2661 99.8694C87.5557 100.111 87.6564 100.189 87.7342 100.573C87.8231 101.012 87.8255 101.513 87.5532 101.891C87.463 102.016 87.4126 102.079 87.3812 102.237L87.6818 102.556C87.809 102.998 87.7945 103.366 87.7597 103.821C87.4835 103.922 87.2826 104.021 86.9879 103.936C86.9788 103.583 86.9325 103.287 86.8369 102.946C86.7874 102.77 86.6156 102.73 86.4606 102.642L85.0385 102.779C85.0563 103.234 85.1209 103.757 84.9957 104.197C84.7378 104.279 84.5645 104.312 84.2957 104.268C84.1346 103.895 84.1989 103.394 84.1959 102.992L84.1843 100.103L85.8304 99.8967Z" fill="#5B7E75"/>
<path d="M85.6999 100.577L86.6907 100.542C86.9444 100.868 86.8747 101.114 86.8802 101.52C86.7037 101.844 86.5778 101.853 86.2491 101.991C85.8717 102.023 85.3883 102.139 85.0484 101.98C85.04 101.583 84.9453 101.021 85.146 100.687L85.6999 100.577Z" fill="black"/>
<path d="M110.706 38.3649C111.038 38.2395 111.275 38.2412 111.592 38.3649L111.622 40.5368L113.965 40.5498C113.961 39.9367 113.827 38.8965 114.038 38.342L114.763 38.3421C114.959 38.6975 114.871 39.3636 114.871 39.7787L114.862 43.5416L114.748 43.7915L114.13 43.82C113.842 43.4978 113.959 41.9435 113.952 41.4353L111.609 41.4412C111.616 42.1072 111.744 43.1505 111.552 43.7715L110.852 43.8161L110.69 43.6565L110.706 38.3649Z" fill="#5B7E75"/>
<path d="M127.082 38.1111C127.563 38.0526 128.515 38.0218 128.894 38.3536C129.212 38.6325 129.248 38.9831 129.286 39.378C129.305 39.5736 129.262 39.5589 129.145 39.7032L128.512 39.6955C128.345 39.5355 128.285 39.3619 128.2 39.1491L128.163 39.0548C128.038 38.9912 127.905 38.9392 127.764 38.9297C127.372 38.9034 126.818 38.9182 126.52 39.1968C126.388 39.5365 126.418 39.7972 126.457 40.1477C127.03 40.5864 128.236 40.378 128.98 40.6653C129.267 40.9903 129.306 41.1095 129.379 41.5377C129.457 41.9932 129.416 42.8374 129.113 43.2055C128.782 43.6073 128.132 43.6063 127.657 43.654C127.139 43.6456 126.288 43.7282 125.844 43.4463C125.642 43.3175 125.54 43.043 125.481 42.8215C125.4 42.5171 125.362 42.2293 125.519 41.9559C126.72 41.8476 126.003 42.3027 126.671 42.783C127.15 42.7924 127.944 42.912 128.331 42.6102C128.455 42.1939 128.482 41.9559 128.374 41.53C127.791 41.1263 126.663 41.2991 125.923 41.0696C125.696 40.9015 125.573 40.7568 125.495 40.4801C125.353 39.9749 125.349 39.065 125.652 38.6197C125.947 38.1881 126.615 38.1693 127.082 38.1111Z" fill="#5B7E75"/>
<path d="M70.8583 35.749L72.2754 35.8939C72.547 36.6605 73.9721 41.0883 73.805 41.5587C73.5961 41.5499 73.3216 41.5625 73.1301 41.4737C72.8578 41.3473 72.7424 40.6747 72.6514 40.3828L70.5674 40.1136C70.4635 40.4645 70.3877 40.8473 70.1668 41.144C69.8355 41.1038 69.5167 41.1442 69.2842 40.896L70.8583 35.749Z" fill="#5B7E75"/>
<path d="M71.4866 36.9841L71.6077 36.9668L71.6792 37.0548C71.9239 37.3762 72.3749 39.1212 72.3311 39.5149H71.9184L70.8086 39.3869L71.4866 36.9841Z" fill="black"/>
<path d="M94.5136 37.7803L95.8787 37.8478C95.9286 37.8991 95.9407 37.9059 95.9796 37.9786C96.22 38.4275 97.6076 43.1217 97.5057 43.417L96.8153 43.3919C96.4962 43.1733 96.4314 42.6848 96.3128 42.316L94.1973 42.21C94.0982 42.568 94.0069 42.8998 93.8241 43.2269C93.5338 43.2147 93.265 43.1888 92.9809 43.1276C92.9595 42.5234 93.3112 41.7645 93.4908 41.186L94.5136 37.7803Z" fill="#5B7E75"/>
<path d="M95.2394 38.6543C95.3831 39.1012 96.1122 41.1268 95.9484 41.4708L95.5789 41.4947C95.1995 41.4712 94.8029 41.5236 94.4927 41.2982L95.2394 38.6543Z" fill="black"/>
<path d="M149.065 36.9844C149.182 37.0146 149.27 37.0739 149.375 37.1334L150.5 40.6856C150.646 41.1638 150.952 41.8056 150.912 42.2983L150.199 42.3821C149.871 42.2042 149.812 41.7279 149.691 41.378L148.013 41.5154C147.23 41.6533 147.711 42.1082 147.246 42.5565C147.083 42.714 146.635 42.66 146.402 42.668L146.354 42.4487L147.485 38.555C147.583 38.2082 147.716 37.3891 147.941 37.1303C148.022 37.0364 148.891 37.0007 149.065 36.9844Z" fill="#5B7E75"/>
<path d="M148.64 37.9229C148.859 38.5539 149.476 39.9268 149.397 40.5534L148.79 40.6861C148.457 40.6975 148.168 40.7737 147.883 40.5901L148.64 37.9229Z" fill="black"/>
<path d="M181.077 50.9043L181.242 50.941C181.681 51.4109 182.078 51.8727 182.207 52.5215C182.316 53.066 182.258 53.7196 182.261 54.2776L182.261 57.5057C182.258 58.5436 182.392 59.7856 182.234 60.7976C182.208 60.9686 182.127 61.1157 182.031 61.2576C181.439 61.6776 180.714 61.6193 180.001 61.6491L176.467 61.7827C176.306 61.7273 176.152 61.6472 175.997 61.5755C175.849 61.3261 175.69 61.1738 175.74 60.8767L179.309 60.7C179.717 60.6768 180.28 60.7057 180.666 60.5755C180.948 60.4801 181.126 60.2967 181.242 60.0141C181.48 59.4337 181.331 58.2387 181.332 57.5978C181.337 55.7118 181.461 53.7184 181.305 51.8425C181.278 51.5195 181.187 51.2075 181.077 50.9043Z" fill="#5B7E75"/>
<path d="M112.342 98.05C113.029 98.0214 113.751 97.9263 114.421 98.1172C114.735 98.2063 114.874 98.3546 115.013 98.6418C115.298 99.2313 115.288 100.973 115.029 101.578C114.828 102.047 114.613 102.087 114.167 102.262C113.593 102.32 113.025 102.352 112.449 102.288C112.122 102.252 111.76 102.164 111.575 101.865C111.205 101.268 111.275 99.3528 111.519 98.7059C111.673 98.2949 111.981 98.2177 112.342 98.05Z" fill="#5B7E75"/>
<path d="M112.623 98.7594C113.093 98.6279 113.775 98.6742 114.188 98.9C114.463 99.4451 114.406 100.735 114.219 101.308C114.17 101.461 113.983 101.505 113.843 101.576C113.369 101.668 112.775 101.711 112.347 101.455C112.034 100.975 112.15 99.6471 112.261 99.0914C112.295 98.922 112.483 98.8542 112.623 98.7594Z" fill="black"/>
<path d="M91.8172 99.2073C92.1949 99.1759 92.5592 99.2548 92.9305 99.3167C93.1017 99.4905 93.2737 99.6134 93.3371 99.8551C93.5354 100.609 93.6996 102.21 93.2435 102.901C92.9289 103.378 92.1751 103.436 91.6599 103.544C91.1582 103.554 90.621 103.606 90.1423 103.433C89.8915 103.24 89.7177 103.037 89.662 102.715C89.5383 102.001 89.4788 100.327 89.9426 99.7579C90.326 99.2876 91.2681 99.2645 91.8172 99.2073Z" fill="#5B7E75"/>
<path d="M91.8152 99.8877C92.0062 99.8877 92.1981 99.9384 92.3858 99.9735C92.7838 100.536 92.6328 101.761 92.5753 102.441C92.225 102.761 91.8344 102.78 91.3803 102.885C91.0779 102.87 90.8695 102.859 90.6025 102.71C90.5546 102.613 90.51 102.511 90.487 102.405C90.3696 101.864 90.3449 100.668 90.6375 100.173C91.0005 99.9759 91.4115 99.9476 91.8152 99.8877Z" fill="black"/>
<path d="M140.676 37.5708L142.203 37.4691C142.627 37.4504 143.271 37.4223 143.592 37.7487C143.958 38.1194 143.955 38.7917 143.943 39.2761C143.928 39.8687 143.789 40.1249 143.374 40.5155C143.445 40.7036 143.557 40.8092 143.696 40.9482C143.768 41.0193 143.751 40.9816 143.772 41.0668C143.881 41.4925 144.007 42.514 143.791 42.8705C143.481 42.8914 143.214 42.9762 142.951 42.7997L142.893 41.7009C142.86 41.5481 142.786 41.4136 142.72 41.2724C142.22 41.0036 141.403 41.1654 140.846 41.2006C140.853 41.7755 140.925 42.4388 140.799 42.9986L140.074 43.1183L139.917 42.9662L139.902 39.4636C139.901 38.8781 139.833 38.2046 139.959 37.6352L140.676 37.5708Z" fill="#5B7E75"/>
<path d="M142.137 38.3603C142.352 38.3324 142.557 38.3963 142.766 38.4428C142.828 38.5302 142.884 38.6079 142.919 38.7102C143.032 39.0413 143.028 39.5877 142.856 39.9019C142.711 40.1662 142.373 40.1784 142.099 40.2524C141.699 40.2734 141.252 40.3476 140.872 40.2056C140.861 39.7344 140.725 38.8577 140.965 38.4597L142.137 38.3603Z" fill="black"/>
<path d="M129.474 77.5928L129.566 77.6401C129.98 77.9122 130.42 78.5942 130.528 79.0774C130.688 79.7923 130.59 80.7028 130.592 81.4364L130.591 86.8591C130.588 88.544 130.759 90.4247 130.576 92.0874C130.558 92.246 130.476 92.3927 130.39 92.5241C130.214 92.6739 130.059 92.7536 129.83 92.7927C129.238 92.8932 128.534 92.786 127.932 92.7742L123.766 92.722C123.679 92.7185 123.589 92.7193 123.507 92.6847C123.155 92.5351 123.098 92.367 122.945 92.0418L123.022 91.8414C124.479 91.7477 125.963 91.8217 127.424 91.828C127.933 91.8302 128.624 91.9215 129.101 91.7885C129.353 91.7184 129.485 91.5093 129.596 91.2821C129.793 90.8818 129.717 79.4996 129.654 78.4556C129.636 78.1618 129.561 77.8732 129.474 77.5928Z" fill="#5B7E75"/>
<path d="M126.054 74.0759L126.236 73.649C126.765 72.4134 128.625 71.8155 129.146 70.5248C129.534 69.566 129.312 67.8214 129.313 66.7755L129.314 59.1444L129.308 56.2042C129.307 55.6762 129.37 55.0867 129.194 54.585L129.317 54.5222C129.637 54.8366 130.115 55.3231 130.23 55.7687C130.36 56.2662 130.256 57.2028 130.26 57.7432L130.262 70.9275C130.272 71.4302 129.926 71.8883 129.582 72.2296C128.824 72.9816 127.257 73.9761 127.068 75.0474L126.054 74.0759Z" fill="#5B7E75"/>
<path d="M75.9157 78.0527C76.0288 78.0712 75.9931 78.0506 76.0732 78.1112C76.6212 78.5273 76.9301 79.1623 77.0145 79.8319C77.1196 80.6642 77.0616 81.5582 77.0634 82.3988L77.0681 86.871L77.064 91.132C77.0626 91.8599 77.1233 92.6567 77.0446 93.3771C77.0188 93.6108 76.9633 93.782 76.8119 93.9672C76.685 94.1225 76.5505 94.1963 76.3567 94.2529C75.7993 94.4155 75.0268 94.3899 74.4364 94.4357L70.3193 94.7693C70.1233 94.7817 69.9389 94.699 69.7555 94.6377C69.5484 94.3982 69.4339 94.2468 69.395 93.9277C69.7504 93.7217 70.3136 93.7457 70.723 93.7133C71.4993 93.6518 75.2267 93.5376 75.6459 93.2242C75.7608 93.1384 75.8929 92.9442 75.9911 92.8328C76.1447 92.2668 76.0897 91.6508 76.0911 91.067L76.0942 87.9537L76.0885 81.7913C76.0879 80.6248 76.2532 79.1698 75.9157 78.0527Z" fill="#5B7E75"/>
<path d="M148.439 81.428C148.52 81.8191 148.526 82.2138 148.543 82.6116L144.817 82.5109C144.424 82.5207 144.12 82.7127 143.929 83.0567C143.703 83.4646 143.714 84.4373 143.664 84.9113L143.131 89.967C143.054 90.7532 143.068 91.7499 142.84 92.498C142.781 92.6918 142.627 92.8518 142.491 92.9963C142.349 93.0727 142.193 93.1446 142.03 93.1544C140.89 93.2231 139.67 93.0609 138.524 93.0272C137.729 93.0038 136.309 93.1491 135.589 92.8925C135.226 92.7629 135.184 92.5202 135.058 92.2021C135.333 91.9457 135.57 92.0348 135.937 92.0411C137.576 92.0692 139.335 92.323 140.961 92.2143C141.238 92.1956 141.521 92.1019 141.707 91.8812C142.043 91.4844 142.037 90.5119 142.094 90.0004L142.686 84.2745C142.767 83.5433 142.728 82.3371 143.225 81.7716C143.628 81.4865 144.127 81.5707 144.598 81.5776L148.24 81.6601L148.439 81.428Z" fill="#5B7E75"/>
<path d="M155.839 36.4009C156.297 36.3515 156.654 36.4023 157.102 36.5052C157.438 36.7667 157.642 37.0149 157.725 37.4442C157.904 38.3655 157.966 40.5028 157.384 41.255C156.981 41.7765 156.238 41.8189 155.636 41.8849L153.494 42.116L153.492 36.6073L155.839 36.4009Z" fill="#5B7E75"/>
<path d="M155.168 37.3078C155.705 37.2895 156.153 37.1805 156.619 37.4686C156.945 38.0582 156.903 39.5568 156.758 40.205C156.67 40.5957 156.509 40.6992 156.19 40.9132L154.472 41.1066C154.468 39.9317 154.336 38.599 154.52 37.4442L155.168 37.3078Z" fill="black"/>
<path d="M75.6093 53.1484C76.3384 53.7986 76.6741 54.3595 76.7248 55.3433L76.7415 65.5857L76.7348 69.1281C76.733 69.748 76.7955 70.4525 76.6902 71.0625C76.6036 71.5638 76.3364 71.9512 75.9971 72.3184C75.1484 73.2374 73.6249 74.2005 73.6008 75.5127C73.2354 75.2828 72.943 74.885 72.6587 74.5608C72.662 74.3106 72.6406 73.9535 72.7472 73.7245C72.8603 73.482 73.1645 73.2381 73.3567 73.0434C74.0271 72.364 75.3434 71.3608 75.6238 70.4745L75.646 70.4018C75.8596 69.711 75.7817 68.9194 75.7835 68.204L75.7852 64.2183L75.7809 57.6436C75.7825 56.1674 75.8948 54.5987 75.6093 53.1484Z" fill="#5B7E75"/>
<path d="M74.3834 51.7939C74.6532 52.1374 75.1798 53.0343 75.6092 53.148C75.8947 54.5983 75.7824 56.1669 75.7808 57.6431L75.7851 64.2178L75.7834 68.2036C75.7816 68.9189 75.8596 69.7106 75.6459 70.4014L75.6237 70.474C75.3433 71.3604 74.027 72.3635 73.3566 73.0429C73.1644 73.2377 72.8603 73.4816 72.7472 73.7241C72.6405 73.953 72.6619 74.3102 72.6586 74.5603C72.3236 74.1778 71.979 73.8071 71.7169 73.3691C71.7124 73.2269 71.6749 73.0101 71.7012 72.876C71.8445 72.1474 73.9981 70.7038 74.4696 69.8502L74.5057 69.7837L74.6569 69.4866C74.9063 68.847 74.7883 67.9022 74.789 67.2169L74.7935 62.4359L74.791 56.2363C74.7892 55.2007 74.8505 54.1199 74.7769 53.0889C74.7451 52.644 74.5477 52.2029 74.3834 51.7939Z" fill="black"/>
<path d="M119.893 77.0366C120.242 77.3543 120.469 77.7186 120.717 78.1162C119.795 77.9212 118.028 77.9098 117.122 78.1676C116.92 78.4113 116.829 78.4873 116.781 78.803C116.617 79.8812 116.762 81.2135 116.762 82.3142L116.756 91.7419C116.744 92.1191 116.645 92.3343 116.374 92.5961C115.895 92.7895 110.068 92.8963 109.701 92.7274C109.351 92.5664 109.294 92.3516 109.151 92.0296C109.253 91.8827 109.248 91.8959 109.431 91.8719C110.758 91.697 112.216 91.8052 113.559 91.7963C114.135 91.7926 114.789 91.859 115.338 91.6824C115.555 91.4712 115.673 91.3944 115.748 91.0961C115.913 90.4379 115.776 89.3696 115.777 88.6733L115.774 80.6067C115.774 79.8576 115.582 78.3108 115.85 77.6498C116.191 76.8077 118.119 77.047 118.905 77.0781C119.172 77.0885 119.529 77.1912 119.779 77.0898L119.893 77.0366Z" fill="#5B7E75"/>
<path d="M67.1035 78.7932C66.313 78.7143 65.4708 78.7743 64.6756 78.793C64.3956 78.7995 63.9858 78.7639 63.738 78.9098C63.4796 79.062 63.3801 79.212 63.3082 79.492C63.1158 80.2423 63.2768 81.4719 63.2766 82.2643L63.2784 90.93L63.2764 93.515C63.2756 93.9527 63.3263 94.4347 63.159 94.8478C63.0634 95.0841 62.8652 95.3556 62.6104 95.4351C62.0166 95.6205 56.6491 96.1491 56.3172 96.0621C56.2106 96.0342 56.0741 95.9409 55.9722 95.8901C55.8073 95.6197 55.6752 95.5066 55.7235 95.1767C57.0353 94.8327 58.5751 94.8204 59.9349 94.6951C60.5791 94.6358 61.3189 94.6503 61.9 94.342C62.0828 94.1526 62.2157 93.9701 62.2644 93.7074C62.4515 92.7021 62.3229 91.4543 62.3241 90.4228L62.3235 82.3388C62.3225 81.1312 62.1896 79.7604 62.3412 78.5701C62.3714 78.332 62.5144 78.1446 62.7123 78.0129C63.1896 77.6954 65.484 77.7189 66.0917 77.8285L66.4789 77.9159C66.7047 78.1977 66.9423 78.468 67.1035 78.7932Z" fill="#5B7E75"/>
<path d="M181.135 71.4951L181.378 71.5756C181.811 72.0475 182.155 72.5535 182.435 73.1311C182.641 73.5553 182.713 74.0063 182.747 74.4726C182.95 77.3327 182.774 80.3322 182.773 83.205L182.77 88.5142C182.768 89.3546 182.899 90.5428 182.615 91.3272L182.589 91.3965C182.297 92.2051 179.732 95.0353 179.01 95.4972C178.758 95.659 178.4 95.7742 178.099 95.7903C177.555 95.8196 176.931 95.7004 176.384 95.6541L172.64 95.3055C170.862 95.1333 168.916 95.1433 167.188 94.7475C166.807 94.5266 166.326 94.2297 166.167 93.8123C166.914 94.0322 167.772 94.0245 168.548 94.0899L172.864 94.4761C174.201 94.5971 175.678 94.9014 177.006 94.8792C177.323 94.8739 177.664 94.7813 177.938 94.622C178.751 94.1494 181.537 91.0246 181.725 90.1289C181.858 89.4962 181.781 88.722 181.782 88.0738L181.786 84.0091L181.782 76.7315C181.781 75.5327 181.875 74.2441 181.749 73.0542C181.684 72.4435 181.476 71.9974 181.135 71.4951Z" fill="#5B7E75"/>
<path d="M152.81 49.9838L152.934 49.9543C153.045 49.9439 153.243 50.0021 153.323 50.0747C153.587 50.3127 153.687 50.5247 153.747 50.8764L155.003 60.7067L157.289 78.7431L158.617 89.2095C158.773 90.4876 159.086 91.9039 159.11 93.1802C159.117 93.5503 158.984 93.6785 158.746 93.9279C158.1 94.0832 157.266 93.9387 156.603 93.899L152.235 93.6202L152.181 93.5968C151.942 93.5 151.777 93.425 151.62 93.2147C151.48 93.0249 151.431 92.9836 151.465 92.7384C152.888 92.7201 154.334 92.8843 155.756 92.9675C156.453 93.0084 157.364 93.178 157.976 92.8395C158.096 92.6518 158.162 92.4888 158.147 92.2618C158.036 90.6231 157.734 88.9788 157.534 87.3485L156.225 76.8318L152.81 49.9838Z" fill="#5B7E75"/>
<path d="M102.184 54.2402C102.493 54.4087 102.958 55.0329 103.103 55.3494C103.24 55.6506 103.298 56.0341 103.312 56.363L103.32 62.1468L103.323 73.4573L103.32 83.6626L103.319 86.593C103.317 87.091 103.366 87.7 103.164 88.1652L103.107 88.2913C102.638 89.3575 101.255 90.483 100.447 91.3412C99.9682 91.85 99.4043 92.6256 98.7717 92.9299L98.6562 92.9804C98.0157 93.271 97.1166 93.2136 96.4201 93.2427L92.3472 93.3968C90.9362 93.4622 89.4822 93.6521 88.0716 93.6195C87.7981 93.6132 87.5294 93.5535 87.2669 93.4801C86.8569 93.2625 86.3719 92.8987 86.0835 92.5337C86.9488 92.7151 87.8108 92.6238 88.6866 92.5914L93.0819 92.3852C94.382 92.3328 96.1085 92.472 97.3593 92.1496C98.4981 91.8563 99.8373 90.0174 100.638 89.1597C101.107 88.6578 101.765 88.0898 102.094 87.4931C102.259 87.194 102.358 86.8074 102.379 86.4673C102.485 84.7598 102.391 82.9827 102.392 81.2691L102.393 70.6081L102.39 60.9433L102.396 57.0856C102.394 56.1244 102.439 55.177 102.184 54.2402Z" fill="#5B7E75"/>
<path d="M206.813 48.6641L207.579 49.5928C207.989 50.1966 208.143 50.7501 208.186 51.4749C208.364 54.3997 208.203 57.4464 208.205 60.3856L208.207 78.5381L208.203 88.232C208.201 89.6729 208.39 91.424 208.109 92.834C207.836 94.2057 206.428 95.5063 205.562 96.5655C205.056 97.1854 204.49 98.0613 203.807 98.4886C203.554 98.6476 203.277 98.7116 202.976 98.7104C202.342 98.7079 201.681 98.5543 201.05 98.4689L197.506 97.9788C195.891 97.7497 194.214 97.6566 192.625 97.2949C192.161 97.0986 191.825 96.7339 191.466 96.3913L199.324 97.429C200.255 97.5488 201.673 97.9684 202.576 97.6868C203.261 97.4736 206.487 93.4947 206.874 92.7199C207.11 92.2506 207.198 91.7301 207.22 91.2101L207.228 83.4225L207.229 67.7632L207.226 56.0418C207.224 54.0799 207.334 52.0427 207.194 50.0878C207.161 49.6016 206.972 49.1202 206.813 48.6641Z" fill="#5B7E75"/>
<path d="M49.5912 50.9043L49.6817 50.9133C50.238 51.3473 50.7489 52.1398 50.8647 52.8405C51.021 53.7868 50.9213 54.9011 50.9229 55.8638V62.0994L50.9246 70.7692C50.9233 72.137 51.0232 73.6006 50.894 74.9584C50.8427 75.4954 50.6395 75.9356 50.3265 76.3704L48.1193 79.1684C47.4044 80.0842 46.3663 81.894 45.3034 82.3568C44.5076 82.7033 43.3324 82.6217 42.46 82.6698C41.3528 82.731 39.9799 82.6533 38.9113 82.8846C38.5858 82.9551 38.368 83.1273 38.2416 83.4379C37.929 84.2052 38.1196 85.7074 38.1186 86.5656C38.1171 87.9424 38.3299 97.387 37.9459 97.9545C37.8652 98.0735 37.6861 98.2734 37.5643 98.3488C37.1848 98.5834 36.3782 98.5824 35.9246 98.6451L31.4079 99.3092L31.0531 99.2198C30.7695 98.9879 30.69 98.8257 30.604 98.4721C30.8663 98.208 31.639 98.1888 32.0232 98.134L34.8415 97.7283C35.4604 97.6419 36.1319 97.607 36.7014 97.3348C36.9036 97.112 37.0784 96.9156 37.1381 96.6118C37.3012 95.7799 37.1618 94.6528 37.163 93.7916L37.1602 86.3453C37.1599 85.2241 37.0464 83.9606 37.1901 82.8608C37.2264 82.583 37.3454 82.2922 37.5643 82.1054C37.9934 81.7392 42.2548 81.687 43.0605 81.6338C43.4516 81.6081 44.1983 81.6165 44.4986 81.3683C45.6527 80.4146 46.5161 79.0274 47.4462 77.8573C48.182 76.9315 49.2972 75.8237 49.7583 74.7424C49.9059 74.396 49.9745 74.0108 50.0041 73.6373C50.0944 72.4949 50.0196 71.2832 50.0214 70.1318L50.0259 63.3291L50.0214 56.2618C50.02 54.9971 50.0882 53.6919 49.9912 52.4341C49.948 51.8739 49.8111 51.4193 49.5912 50.9043Z" fill="#5B7E75"/>
<path d="M120.088 108.185C132.018 108.056 143.99 108.964 155.833 110.342C174.058 112.462 192.167 115.851 209.908 120.53L224.636 109.888L214.691 121.867L211.645 125.521C211.29 125.63 209.786 124.819 209.362 124.638C199.874 120.589 189.666 118.053 179.594 115.928C161.653 112.143 143.162 109.759 124.83 109.104L110.892 109.019C108.71 109.061 106.532 109.275 104.351 109.225C105.362 108.886 106.726 108.877 107.801 108.784L120.088 108.185Z" fill="#5B7E75"/>
<path d="M23.4212 14.917C26.6893 16.2072 29.8512 17.6109 33.2002 18.7096C41.6893 21.4944 50.4628 23.4298 59.2355 25.0749C72.4454 27.5517 85.8675 29.2763 99.2722 30.258L117.179 31.1159C109.742 31.479 102.417 31.2094 94.9783 31.0533L81.2832 30.1161C62.3779 28.4019 43.2109 25.7666 25.0708 20.0066L10.478 30.5787C10.6304 30.1887 11.0519 29.7654 11.316 29.4383L13.7344 26.5493L23.4212 14.917Z" fill="#5B7E75"/>
<path d="M169.548 86.2993C170.368 86.377 171.552 86.5641 172.301 86.1907C172.882 85.9009 173.279 85.2933 173.466 84.689C173.625 84.1749 173.685 76.7486 173.575 76.5212C173.465 76.297 172.179 75.8532 171.869 75.7239L166.129 73.3872C165.451 73.1102 164.591 72.893 163.981 72.4991C163.772 72.3643 163.651 72.2168 163.536 71.9981C164.073 71.7181 172.702 76.0247 173.393 75.7521C173.298 75.5002 173.187 75.3343 172.965 75.1766C172.155 74.6013 170.888 74.2414 169.967 73.8652L164.304 71.5521C163.567 71.2607 161.822 70.8099 161.513 70.0278C161.303 69.4971 161.402 68.695 161.401 68.122L161.397 64.173C161.394 60.3863 161.207 56.4946 161.415 52.7175C161.429 52.4621 161.484 52.2388 161.595 52.0089L161.629 51.9396C162.12 50.9099 163.156 49.9403 163.885 49.0563C164.404 48.4276 164.951 47.5483 165.646 47.1244L165.706 47.0883C166.539 46.5726 168.229 46.6575 169.224 46.5628C171.314 46.3635 173.602 45.9763 175.694 46.0001C176.451 46.0085 176.7 46.1161 177.232 46.6639L179.023 48.5723C179.379 48.9534 179.823 49.363 180.061 49.8307C180.503 50.6992 180.323 52.1612 180.325 53.1293L180.319 58.2798C180.313 58.6708 180.334 59.1277 180.006 59.4083C179.634 59.7269 178.898 59.6702 178.427 59.6904C177.065 59.7489 175.661 59.8817 174.302 59.8037C174.048 59.6182 173.903 59.5457 173.78 59.2461C173.667 58.97 173.727 58.4785 173.726 58.1799C173.722 57.1504 173.905 55.823 173.529 54.857C172.488 54.8921 171.477 54.8087 170.715 55.6448C170.342 56.0534 170.015 56.6136 169.886 57.1547C169.68 58.0104 169.796 59.0688 169.794 59.9537L169.787 65.4269L176.296 68.0947C177.215 68.4741 178.444 68.8246 179.227 69.4292C179.789 69.8633 180.12 70.4602 180.461 71.0695C180.648 71.4053 180.734 71.7184 180.768 72.1013C180.87 73.2274 180.804 74.4075 180.806 75.5387L180.808 81.864L180.8 86.787C180.798 87.6138 180.906 88.6416 180.68 89.4368C180.481 90.1389 177.649 93.2349 176.967 93.6152C176.684 93.7731 176.408 93.8756 176.08 93.8765C174.233 93.8816 172.263 93.4993 170.414 93.3303L167.119 93.0762C166.553 93.0287 165.868 93.0155 165.328 92.8359C164.306 92.4958 163.205 90.8494 162.5 90.0331C162.077 89.5438 161.548 89.038 161.28 88.4466C160.915 87.6419 161.035 86.4491 161.033 85.5767L161.034 81.3965C161.036 80.7232 160.892 79.509 161.146 78.904C161.253 78.6489 161.42 78.5936 161.646 78.4591L165.796 78.5197C166.274 78.5429 166.826 78.517 167.226 78.8097C168.037 79.9187 167.166 83.016 167.697 84.4775C167.88 84.9802 168.153 85.3923 168.504 85.7958C168.806 86.1714 169.09 86.1708 169.548 86.2993Z" fill="white"/>
<path d="M168.757 64.9775C168.603 64.8754 168.451 64.7676 168.324 64.6321C168.113 64.4083 167.936 64.1485 167.875 63.8433C167.74 63.1689 167.846 62.2525 167.843 61.5566L167.853 55.85C167.878 55.0371 168.335 54.0744 168.942 53.5391C169.582 52.9754 170.632 52.8585 171.454 52.9249C172.121 52.9787 172.543 53.4431 172.953 53.9104L173.529 54.8563C172.488 54.8914 171.477 54.8079 170.715 55.644C170.342 56.0526 170.016 56.6128 169.886 57.154C169.68 58.0097 169.797 59.068 169.794 59.953L169.787 65.4262L168.757 64.9775Z" fill="black"/>
<path d="M172.953 53.9111L173.529 54.857C172.488 54.8921 171.477 54.8087 170.715 55.6447C170.342 56.0534 170.016 56.6135 169.886 57.1547C169.68 58.0104 169.797 59.0688 169.794 59.9537L169.787 65.4269L168.757 64.9782C168.915 64.4323 168.834 63.7341 168.833 63.1666L168.823 58.7607C168.822 57.9374 168.74 56.9334 168.95 56.1358C169.094 55.5896 169.395 55.0726 169.787 54.6685C170.645 53.7829 171.815 53.9435 172.953 53.9111Z" fill="#5B7E75"/>
<path d="M148.439 81.428C148.276 81.1531 148.118 80.8354 147.783 80.7569C147.185 80.6165 146.456 80.6599 145.841 80.644C144.862 80.6187 142.946 80.3473 142.145 80.8806C141.779 81.5083 141.782 82.4938 141.701 83.2089L141.091 89.0387C141.035 89.5217 141.054 90.2223 140.858 90.6539C140.736 90.9213 140.563 91.1118 140.273 91.1876C139.647 91.3507 133.671 91.0332 133.371 90.831C133.262 90.7576 133.188 90.5382 133.126 90.419C133.138 88.7822 133.516 86.9886 133.736 85.3565L134.979 76.0303L138.365 49.9575C138.411 49.638 138.418 49.2534 138.654 49.0069C138.756 48.8993 138.961 48.7307 139.096 48.6708C139.347 48.5604 139.94 48.5622 140.237 48.5439L143.476 48.4029L148.136 48.0907C149.028 48.0216 150.123 47.8461 151.004 47.9586C151.298 47.9961 151.465 48.1282 151.631 48.3688C151.775 48.5789 151.809 48.8985 151.843 49.145L155.844 80.6685L156.838 88.5879C156.943 89.4337 157.3 90.7546 157.13 91.5506C157.087 91.7523 156.971 91.8287 156.831 91.9722C156.209 92.1611 150.41 91.811 150.014 91.6072C149.751 91.4717 149.54 91.2247 149.462 90.9368C149.242 90.1298 149.261 89.1023 149.172 88.2605L148.543 82.6116C148.526 82.2138 148.52 81.8192 148.439 81.428ZM144.808 74.3194C145.532 74.3412 146.874 74.5132 147.438 74.0872C147.521 73.9666 147.598 73.8307 147.607 73.6813C147.669 72.6697 147.361 71.4788 147.257 70.4636L146.322 61.6344C146.215 61.7605 146.115 61.8991 146.077 62.0625C145.844 63.0578 145.854 64.2253 145.736 65.2503L144.808 74.3194Z" fill="white"/>
<path d="M143.755 74.3761C143.239 74.2838 143.114 74.2308 142.781 73.8536C142.693 72.5449 142.994 71.0718 143.121 69.7586L144.178 59.7625C144.326 58.4538 144.294 56.8113 144.632 55.5627C144.721 55.2363 144.86 55.112 145.136 54.9453C145.479 55.1224 145.503 55.2402 145.668 55.5736C145.87 56.006 145.723 56.3734 145.765 56.8232C145.835 57.5706 146.476 61.1964 146.322 61.6341C146.215 61.7602 146.115 61.8988 146.077 62.0621C145.844 63.0575 145.854 64.225 145.736 65.2499L144.808 74.3191C144.451 74.3036 144.11 74.3376 143.755 74.3761Z" fill="black"/>
<path d="M145.668 55.5742C145.87 56.0066 145.723 56.374 145.765 56.8238C145.835 57.5711 146.476 61.197 146.322 61.6347C146.215 61.7607 146.115 61.8994 146.077 62.0627C145.844 63.058 145.854 64.2256 145.736 65.2505L144.808 74.3197C144.451 74.3042 144.109 74.3381 143.755 74.3766L145.093 61.3537C145.293 59.4738 145.671 57.4584 145.668 55.5742Z" fill="#5B7E75"/>
<path d="M119.893 77.0366C119.489 76.6302 119.114 76.3079 118.549 76.1513C117.833 75.9523 115.736 75.9262 115.108 76.2895C115.04 76.39 114.904 76.5396 114.865 76.6484C114.611 77.3459 114.8 78.8427 114.801 79.6177L114.804 86.4131C114.803 87.5629 114.868 88.7556 114.797 89.9013C114.769 90.3405 114.636 90.4454 114.324 90.7195C113.183 90.8978 111.917 90.7768 110.758 90.7978C109.871 90.8137 108.783 90.9732 107.922 90.8238C107.772 90.7978 107.515 90.7285 107.422 90.5958C107.231 90.3221 107.23 89.9673 107.223 89.6451L107.217 79.5641L107.217 59.4832L107.217 52.3809C107.215 51.5036 107.05 50.2681 107.25 49.4327C107.324 49.1193 107.492 49.0594 107.745 48.9078C109.623 48.8047 111.536 48.9685 113.42 48.9899L119.393 49.0337C120.623 49.0376 122.489 48.8194 123.639 49.2683C124.506 49.6072 127.869 52.7864 128.18 53.6372C128.444 54.3594 128.402 69.0745 128.141 69.5978L128.077 69.7122C127.651 70.5083 126.608 71.2332 125.942 71.8607C125.625 72.1588 125.278 72.43 125.188 72.8759C125.325 73.378 125.705 73.7106 126.054 74.0758L127.068 75.0474C127.602 75.6003 128.279 76.1615 128.527 76.9021L128.568 77.0146C128.757 77.5821 128.803 89.7532 128.548 90.4383C128.281 90.7109 128.167 90.8534 127.764 90.8721C126.626 90.9249 125.451 90.8165 124.309 90.8112C123.558 90.8075 122.167 90.9738 121.494 90.7433C121.397 90.7101 121.23 90.5438 121.141 90.4764C120.782 89.7218 120.934 88.5681 120.933 87.7383L120.933 81.3189C120.932 80.3968 121.128 78.92 120.718 78.1162C120.469 77.7185 120.242 77.3543 119.893 77.0366ZM116.815 69.598C117.392 69.6031 118.027 69.6498 118.597 69.5658C119.341 69.4562 120.108 68.7399 120.521 68.1357C120.724 67.8378 120.832 67.4526 120.868 67.0968C121.016 65.6106 120.893 63.9646 120.893 62.4611C120.894 60.8518 121.111 58.8398 120.78 57.2913C119.802 57.2314 118.042 57.0117 117.179 57.3914C117.107 57.4873 116.95 57.6432 116.909 57.7484C116.685 58.3265 116.841 59.535 116.84 60.1909L116.837 66.4096C116.837 67.4497 116.918 68.5669 116.815 69.598Z" fill="white"/>
<path d="M115.758 69.594C115.364 69.5166 115.29 69.4699 114.983 69.2076C114.793 68.5555 114.861 67.8136 114.859 67.1368L114.852 63.485L114.853 58.7621C114.855 57.8012 114.8 56.8031 114.928 55.8504C115.051 55.6821 115.143 55.4972 115.333 55.401C115.808 55.1593 118.376 55.2099 118.915 55.3864L119.02 55.4245C119.59 55.6232 119.922 55.9898 120.327 56.4161C120.572 56.6769 120.663 56.9626 120.78 57.2915C119.802 57.2316 118.042 57.0118 117.179 57.3916C117.107 57.4874 116.95 57.6433 116.909 57.7486C116.685 58.3266 116.841 59.5352 116.84 60.191L116.837 66.4097C116.837 67.4498 116.918 68.5671 116.815 69.5981L115.758 69.594Z" fill="black"/>
<path d="M115.758 69.5939C116.02 69.0286 115.86 67.7152 115.86 67.0641L115.857 60.0971C115.857 59.1467 115.735 58.0061 115.871 57.0744C115.91 56.8093 116.003 56.6544 116.182 56.4585C116.91 56.0106 119.461 56.2649 120.327 56.416C120.572 56.6768 120.663 56.9625 120.78 57.2914C119.801 57.2315 118.042 57.0118 117.179 57.3915C117.107 57.4874 116.95 57.6433 116.909 57.7485C116.685 58.3266 116.84 59.5351 116.839 60.1909L116.837 66.4097C116.837 67.4497 116.918 68.567 116.815 69.598L115.758 69.5939Z" fill="#5B7E75"/>
<path d="M29.062 42.3912L29.1338 42.3722C29.8287 42.2104 30.8115 42.5483 31.5241 42.6651L35.5689 43.2931L43.5083 44.4775C43.7879 44.5317 44.0367 44.6076 44.275 44.7657L44.3357 44.8069C44.8415 45.1457 45.1596 45.6063 45.5445 46.0675L47.4929 48.4882C47.9313 49.0386 48.6046 49.7048 48.8142 50.3834L48.8352 50.4529C49.0761 51.2251 49.0207 52.0467 49.0213 52.847L49.0186 56.295L49.0215 67.259L49.0166 71.1694C49.0152 71.8108 49.09 72.5641 48.9437 73.1885C48.6347 74.5074 47.4668 75.5879 46.6497 76.6341L44.9112 78.877C44.5727 79.3155 44.2197 79.8423 43.7755 80.1771C43.0736 80.7066 42.167 80.6491 41.3305 80.6882L38.1728 80.8352C37.6418 80.8619 37.0551 80.8223 36.5862 81.1039C35.9222 81.8643 36.1992 83.9453 36.2004 84.9549L36.2018 92.6667C36.2006 93.5175 36.4021 95.1129 36.0844 95.8476C35.9485 96.1616 35.7136 96.4098 35.3783 96.506C34.9508 96.6287 34.4485 96.6389 34.0062 96.7039L30.797 97.166C30.4227 97.2196 29.6173 97.4287 29.2805 97.3527C29.1731 97.3285 29.018 97.2209 28.9149 97.1693C28.7097 96.8899 28.6504 96.637 28.6363 96.2963L28.628 87.3938L28.6265 69.5437L28.6296 52.0172L28.6408 43.1964C28.6565 42.8277 28.7975 42.6376 29.062 42.3912ZM38.205 72.3551C38.6071 72.3628 39.0181 72.3807 39.4051 72.2518C40.2025 71.9862 40.9274 71.126 41.2612 70.3835C41.6942 69.4208 41.5328 68.1532 41.5359 67.1115L41.5426 62.0558C41.5422 59.7661 41.6689 57.3922 41.5241 55.111C41.4998 54.7253 41.3484 54.355 41.2096 53.9982C40.4214 53.916 39.0609 53.6014 38.4066 54.0652C38.0666 54.6543 38.1885 55.5575 38.1881 56.2218L38.1934 60.3293L38.205 72.3551Z" fill="white"/>
<path d="M37.1627 72.3513C36.8839 72.3061 36.75 72.3065 36.5362 72.1048C36.1876 71.7759 36.244 71.2729 36.2397 70.8336L36.233 58.7218C36.2342 56.7681 36.0734 54.691 36.2505 52.7575C36.2819 52.4137 36.4409 52.203 36.6756 51.9635C36.8867 51.8794 37.0221 51.8753 37.2442 51.8885C38.7355 51.9764 39.6486 51.9521 40.693 53.1235L41.2096 53.9981C40.4214 53.9158 39.0609 53.6013 38.4066 54.0651C38.0665 54.6541 38.1885 55.5573 38.1881 56.2216L38.1934 60.3291L38.205 72.355L37.1627 72.3513Z" fill="black"/>
<path d="M37.1626 72.3514C37.4408 70.7693 37.2407 68.9083 37.2407 67.2821L37.2396 56.3588C37.24 55.7289 37.0411 53.8447 37.334 53.3239C37.4029 53.2014 37.582 53.0447 37.6792 52.9357C38.3466 52.6793 39.9485 53.0457 40.6928 53.1237L41.2094 53.9982C40.4213 53.9159 39.0607 53.6014 38.4065 54.0652C38.0664 54.6542 38.1883 55.5575 38.188 56.2217L38.1933 60.3292L38.2048 72.3551L37.1626 72.3514Z" fill="#5B7E75"/>
<path d="M85.4512 48.2176C87.3448 47.9146 89.6367 48.3081 91.5595 48.3817L95.0024 48.4935C95.5139 48.52 96.1248 48.496 96.6005 48.6873C97.3539 48.99 100.966 52.7465 101.247 53.5028C101.439 54.0236 101.37 54.7238 101.371 55.2724L101.373 58.4415L101.377 69.388L101.374 79.9946L101.359 85.6559C101.35 85.8725 101.31 86.0724 101.218 86.2691L101.156 86.393L101.037 86.6275C100.724 87.1666 100.118 87.6842 99.6929 88.1443C98.9187 88.9815 98.0009 90.1726 97.0836 90.84C96.791 91.0529 96.4413 91.1414 96.0937 91.2204L88.5864 91.5563C87.6684 91.5954 86.3931 91.8463 85.5172 91.6033C84.6797 91.3708 81.122 87.6911 80.7018 86.8768C80.5412 86.5658 80.4495 86.1654 80.4404 85.8179L80.4306 62.9146L80.4361 56.2483C80.4371 55.3297 80.271 54.0434 80.5339 53.18C80.8439 52.1617 84.4335 48.768 85.4512 48.2176ZM90.0576 85.394L90.9526 85.3761C91.8001 85.3523 92.5115 85.3449 93.1247 84.6663C93.4881 84.2642 93.6295 83.8336 93.6837 83.3008C93.8172 81.9878 93.7239 80.5902 93.7251 79.265L93.7269 71.5126L93.7206 61.7605C93.719 59.9786 93.8001 58.1543 93.6715 56.3794C92.5888 56.3718 91.598 56.1285 90.7647 56.9322C90.3999 57.284 90.1501 57.8238 90.0881 58.3223C89.9551 59.3905 90.036 60.5352 90.0354 61.6138L90.0341 67.5242L90.0576 85.394Z" fill="white"/>
<path d="M89.1524 85.0862C88.8681 84.8635 88.6123 84.5621 88.4269 84.2513C88.2559 83.9646 88.1453 83.5509 88.1239 83.223C88.0185 81.6164 88.1125 79.9372 88.1108 78.3241L88.1061 68.2744L88.1114 59.8954C88.1127 58.8247 87.9125 57.2134 88.1995 56.2071C88.3808 55.5707 88.7305 54.9803 89.3295 54.66L89.3943 54.6263C89.9699 54.3188 90.6977 54.3906 91.3318 54.4258C92.2362 54.476 92.6729 54.7433 93.2719 55.4099L93.6713 56.3791C92.5886 56.3714 91.5978 56.1282 90.7645 56.9318C90.3997 57.2837 90.1499 57.8235 90.0879 58.322C89.9549 59.3902 90.0358 60.5349 90.0352 61.6135L90.0339 67.5239L90.0574 85.3937C89.7358 85.3161 89.4491 85.2403 89.1524 85.0862Z" fill="black"/>
<path d="M93.2719 55.4099L93.6713 56.3791C92.5886 56.3715 91.5978 56.1282 90.7645 56.9318C90.3996 57.2837 90.1499 57.8235 90.0878 58.322C89.9549 59.3902 90.0358 60.5349 90.0352 61.6135L90.0338 67.5239L90.0574 85.3937C89.7358 85.3161 89.4491 85.2403 89.1524 85.0862L89.1701 85.0171C89.2722 84.699 89.11 84.366 89.0982 84.0345L89.0904 81.0344L89.0902 65.1143L89.0945 60.1952C89.0953 59.2985 89.0371 58.3519 89.1324 57.4616C89.1632 57.1724 89.2687 56.8894 89.3967 56.6299C90.0315 55.3435 91.1016 55.3522 92.3577 55.4474C92.5888 55.4649 92.9668 55.5413 93.1784 55.4529L93.2719 55.4099Z" fill="#5B7E75"/>
<path d="M66.4791 77.9163C66.2199 77.6528 65.977 77.3475 65.6809 77.1254C65.0294 76.6367 62.9007 76.7297 62.0807 76.8772C61.7247 76.9412 61.4901 77.1631 61.3664 77.5053C61.1241 78.1753 61.3128 79.656 61.3124 80.398C61.3116 81.938 61.5476 92.5599 61.0946 93.1641C60.9144 93.4047 60.6489 93.491 60.3636 93.5405C59.416 93.7047 54.5117 94.3199 53.9945 93.9485C53.8152 93.7135 53.7538 93.5423 53.7345 93.2476C53.5853 90.9514 53.7265 88.5374 53.7255 86.2291L53.722 71.7838L53.7239 54.9133L53.7365 46.4165C53.7504 46.133 53.8125 45.9439 54.0065 45.7275C54.16 45.6346 54.304 45.5722 54.4854 45.5753C55.4352 45.5914 56.3818 45.7884 57.3237 45.8952L63.1501 46.5425L67.7832 46.9745C68.5245 47.0509 69.4785 47.0548 70.1397 47.4259C70.6969 47.7389 71.0702 48.276 71.5029 48.7309L74.3835 51.7942C74.5478 52.2032 74.7451 52.6442 74.7769 53.0892C74.8506 54.1202 74.7893 55.201 74.7911 56.2365L74.7936 62.4362L74.7891 67.2172C74.7883 67.9025 74.9063 68.8473 74.657 69.4868L74.5058 69.7839L74.4697 69.8505C73.9982 70.704 71.8446 72.1476 71.7013 72.8763C71.675 73.0104 71.7125 73.2272 71.717 73.3693C71.9791 73.8074 72.3237 74.1781 72.6587 74.5606C72.943 74.8848 73.2354 75.2826 73.6008 75.5125C74.1192 76.0439 74.8068 76.6367 75.0198 77.3691C75.1581 77.844 75.117 78.4319 75.1176 78.9232L75.1216 81.5712L75.1129 91.3651C75.1094 91.5831 75.0408 91.7647 74.9444 91.9585C74.8451 92.0492 74.7224 92.1969 74.6104 92.264C74.1726 92.5268 68.906 92.8219 68.0526 92.824C67.7656 92.6491 67.5606 92.5698 67.4867 92.2122C67.3361 91.4851 67.4343 90.5646 67.4341 89.8155L67.4337 83.1996C67.4331 82.024 67.7149 79.7907 67.1037 78.7936C66.9424 78.4684 66.7049 78.1981 66.4791 77.9163ZM63.3258 69.5768C63.9343 69.5797 64.6463 69.6378 65.234 69.4741C65.9746 69.2675 66.6868 68.5271 67.0394 67.8685C67.1906 67.5865 67.2933 67.2859 67.3185 66.9659C67.4704 65.0172 67.3342 62.9483 67.332 60.9887L67.3295 57.7433C67.3277 57.0376 67.3746 56.3176 67.1749 55.6341C66.225 55.5681 64.3472 55.1945 63.5656 55.6716C63.0615 56.3759 63.3229 58.8033 63.3231 59.731L63.3258 69.5768Z" fill="white"/>
<path d="M62.3212 69.6465C61.9105 69.5408 61.7665 69.4591 61.4948 69.1334C61.3369 68.5765 61.3923 67.9555 61.3903 67.3794L61.3837 64.4855V57.0372C61.3852 56.219 61.1783 54.5412 61.5292 53.8286C61.7361 53.6299 61.8877 53.496 62.185 53.4913C63.0835 53.4766 64.8972 53.4825 65.6561 53.8775C66.0176 54.0656 66.3363 54.4362 66.6175 54.7264C66.8405 55.0223 67.0117 55.3013 67.1749 55.6339C66.225 55.5679 64.3472 55.1943 63.5655 55.6714C63.0615 56.3757 63.3228 58.8031 63.323 59.7308L63.3258 69.5766L62.3212 69.6465Z" fill="black"/>
<path d="M62.3213 69.6463L62.3778 55.1026C62.4634 54.9357 62.5475 54.7411 62.7048 54.6305C63.1945 54.2865 65.9269 54.6423 66.6175 54.7262C66.8406 55.0221 67.0118 55.3011 67.1749 55.6337C66.225 55.5677 64.3473 55.1941 63.5656 55.6712C63.0615 56.3755 63.3229 58.8029 63.3231 59.7306L63.3258 69.5764L62.3213 69.6463Z" fill="#5B7E75"/>
<path d="M200.345 43.0643C200.693 42.9756 201.19 42.962 201.533 43.0704C202.344 43.3251 205.49 47.1218 205.882 47.9099C206.102 48.3523 206.181 48.787 206.203 49.2779L206.218 56.7311L206.222 71.4174L206.22 84.9579L206.216 89.1031C206.212 89.778 206.301 90.6311 206.077 91.2709L206.053 91.3394C205.676 92.4321 204.53 93.5366 203.795 94.4329C203.259 95.0884 202.682 95.9339 202.018 96.4585C201.767 96.6574 201.478 96.7595 201.158 96.7746C200.406 96.8104 199.554 96.593 198.804 96.4976L192.403 95.6393C191.826 95.5828 191.1 95.5692 190.572 95.3254C190.25 95.1771 189.972 94.924 189.735 94.6654C188.992 93.8519 188.382 92.8493 187.721 91.9612C187.034 91.0378 185.998 89.9519 185.601 88.8797C185.373 88.2651 185.429 87.5466 185.428 86.9006L185.425 83.7468L185.421 74.0194L185.423 59.3711L185.438 51.7013C185.45 51.3188 185.472 50.9795 185.645 50.6304L185.681 50.5587C186.372 49.1442 187.771 47.7177 188.75 46.4561C189.214 45.8588 189.716 44.9907 190.386 44.6141L190.454 44.5768C191.239 44.1297 192.395 44.1486 193.282 44.0231L200.345 43.0643ZM198.543 52.9586C197.545 53.0432 196.624 52.9969 195.915 53.818C195.453 54.3521 195.144 55.034 195.06 55.7356C194.869 57.3223 195.007 59.0705 195.006 60.6725L195.004 70.402L195.007 82.0045C195.009 83.9995 194.876 86.1005 195.061 88.0844L195.142 88.6501L196.581 88.7644C197.102 88.7499 197.587 88.5963 197.946 88.2093C198.317 87.8093 198.515 87.1987 198.568 86.664C198.7 85.3286 198.59 83.8723 198.59 82.5261L198.594 74.0813L198.596 60.7157L198.543 52.9586Z" fill="white"/>
<path d="M194.316 88.2948C193.931 87.9928 193.611 87.5987 193.409 87.1522C193.231 86.7561 193.094 86.2959 193.068 85.861C192.976 84.2827 193.056 82.6516 193.054 81.0686L193.05 71.7555L193.057 59.5258L193.057 55.5676C193.055 54.8024 192.964 53.8968 193.24 53.1775C193.518 52.4559 193.839 51.8042 194.525 51.3931C194.994 51.1123 196.379 50.8584 196.917 51.0245L197.025 51.0626C197.573 51.2529 197.848 51.5435 198.221 51.98C198.323 52.2977 198.403 52.6578 198.543 52.9586C197.545 53.0432 196.624 52.9969 195.915 53.818C195.453 54.3521 195.144 55.0341 195.06 55.7356C194.869 57.3224 195.007 59.0705 195.006 60.6725L195.003 70.4021L195.007 82.0046C195.009 83.9995 194.876 86.1005 195.061 88.0845L195.142 88.6502C194.842 88.5539 194.582 88.4699 194.316 88.2948Z" fill="black"/>
<path d="M198.221 51.9795C198.323 52.2972 198.403 52.6573 198.543 52.9581C197.545 53.0427 196.624 52.9964 195.914 53.8176C195.453 54.3516 195.144 55.0336 195.06 55.7351C194.869 57.3219 195.007 59.07 195.006 60.6721L195.003 70.4016L195.007 82.0041C195.008 83.999 194.876 86.1 195.061 88.084L195.142 88.6497C194.842 88.5535 194.582 88.4694 194.315 88.2943C194.449 88.016 194.118 87.3211 194.088 86.9795C193.917 85.0431 194.076 82.9413 194.075 80.9903L194.074 68.4168L194.075 59.1542C194.073 57.7181 193.918 56.0631 194.107 54.6477C194.196 53.985 194.555 53.2856 195 52.794C195.785 51.9259 197.141 52.0142 198.221 51.9795Z" fill="#5B7E75"/>
</g>
<defs>
<clipPath id="clip0_2006_52">
<rect width="235.624" height="140" fill="white"/>
</clipPath>
</defs>
</svg>
