<svg width="26" height="26" viewBox="0 0 26 26" fill="none" xmlns="http://www.w3.org/2000/svg">
<rect width="26" height="26" rx="8" fill="#717976"/>
<path d="M4.24166 12.5818C5.8785 11.7654 7.70567 11.0839 9.41288 10.399C12.3499 9.2771 15.2987 8.17468 18.2772 7.14833C18.8567 6.97346 19.8979 6.80247 20 7.58015C19.9441 8.68099 19.7141 9.77539 19.5564 10.8698C19.156 13.2765 18.6932 15.6749 18.2419 18.0736C18.0864 18.8727 16.9811 19.2863 16.2739 18.7749C14.5743 17.7353 12.8616 16.7058 11.1837 15.642C10.634 15.1363 11.1437 14.4099 11.6346 14.0488C13.0345 12.7995 14.519 11.738 15.8457 10.4242C16.2036 9.64159 15.1462 10.3011 14.7974 10.5032C12.881 11.6992 11.0115 12.9681 8.99097 14.0192C7.95889 14.5337 6.75599 14.094 5.72439 13.8069C4.79944 13.4601 3.44412 13.1106 4.24166 12.5818Z" fill="#091218"/>
</svg>
