<svg width="26" height="26" viewBox="0 0 26 26" fill="none" xmlns="http://www.w3.org/2000/svg">
<rect width="26" height="26" rx="8" fill="#717976"/>
<path fill-rule="evenodd" clip-rule="evenodd" d="M21.5764 8.69395C21.7099 8.30249 21.5764 8.01779 20.9855 8.01779H19.0219C18.5263 8.01779 18.2975 8.2669 18.1641 8.53381C18.1641 8.53381 17.1537 10.8114 15.743 12.2883C15.2855 12.7153 15.0758 12.8577 14.828 12.8577C14.6946 12.8577 14.523 12.7153 14.523 12.3238V8.67616C14.523 8.21352 14.3705 8 13.9511 8H10.8628C10.5578 8 10.3672 8.21352 10.3672 8.42705C10.3672 8.87189 11.0725 8.97865 11.1488 10.2242V12.9288C11.1488 13.516 11.0344 13.6228 10.7866 13.6228C10.1193 13.6228 8.49895 11.3274 7.52672 8.71174C7.33609 8.19573 7.14546 8 6.64981 8H4.66722C4.09532 8 4 8.24911 4 8.51601C4 8.99644 4.66722 11.4164 7.10733 14.6192C8.72772 16.8078 11.0344 17.9822 13.1123 17.9822C14.3705 17.9822 14.523 17.7153 14.523 17.2705V15.6157C14.523 15.0819 14.6374 14.9929 15.0377 14.9929C15.3236 14.9929 15.8384 15.1352 17.0012 16.1851C18.3357 17.4306 18.5644 18 19.3079 18H21.2714C21.8433 18 22.1102 17.7331 21.9577 17.2171C21.7861 16.7011 21.138 15.9537 20.2992 15.0641C19.8417 14.5658 19.1554 14.0142 18.9457 13.7473C18.6597 13.3915 18.736 13.2491 18.9457 12.9288C18.9266 12.9288 21.3286 9.76156 21.5764 8.69395Z" fill="#091218"/>
</svg>
