<svg width="140" height="94" viewBox="0 0 140 94" fill="none" xmlns="http://www.w3.org/2000/svg">
<path d="M122.051 43.7374C124.721 37.6771 126.811 31.3978 128.973 25.1459C129.352 24.8573 129.441 24.4771 129.337 24.1001C129.516 23.58 129.701 23.0663 129.874 22.5519C131.837 16.9752 132.851 10.3457 136.303 5.44461C136.572 5.19892 136.846 4.97149 137.115 4.7258C137.422 4.44584 137.555 4.1638 137.561 3.8819C138.06 3.32268 138.594 2.78909 139.192 2.3005C140.668 1.09018 137.669 -0.183871 136.548 0.586654C126.495 7.44486 113.082 6.11357 101.656 4.3822C91.4166 2.83201 81.1875 0.639873 70.7836 1.72385C48.3413 4.06209 27.1202 17.2103 22.2635 40.2987C20.2863 49.7174 20.7861 60.2778 26.677 68.1225C26.2116 68.329 25.9362 68.7185 26.1297 69.2318C17.4924 76.1197 9.30541 83.5509 1.41099 91.2899C-0.258414 92.9295 3.42736 94.7037 4.71354 93.4486C12.2628 86.0478 20.0761 78.9235 28.3 72.2866C29.5096 73.9879 30.7504 75.6606 32.3791 76.9791C35.0164 79.1129 38.3894 80.3563 41.5594 81.4401C47.6514 83.5122 54.0817 85.2638 60.4617 86.1184C72.7382 87.7632 86.0699 86.1787 96.3325 78.7839C108.102 70.3002 116.287 56.8108 122.039 43.7488L122.051 43.7374ZM130.104 10.8306C129.751 11.877 129.433 12.9609 129.114 14.0689C128.284 16.9663 127.34 19.8405 126.361 22.701C121.668 23.8821 116.902 24.4053 112.107 24.5069C118.293 20.249 124.293 15.7003 130.104 10.8306ZM107.782 27.4102C113.622 27.5972 119.439 27.321 125.157 26.1815C124.265 28.6979 123.362 31.2017 122.459 33.6935C118.172 45.5326 112.394 57.1464 104.28 66.8565C103.995 66.7832 103.702 66.7636 103.418 66.8045C95.4473 67.9774 87.0425 66.0741 79.5129 63.521C72.35 61.093 64.9429 57.807 59.3502 52.588C63.2209 50.7203 67.153 48.9576 71.1201 47.2205C84.0307 41.5817 96.2328 34.9914 107.794 27.4107L107.782 27.4102ZM105.194 7.18828C112.991 8.18673 121.41 8.67373 129.12 6.72619C121.786 13.0802 114.137 19.0533 106.099 24.486C105.447 24.5639 105.098 24.8598 104.979 25.2326C104.168 25.7774 103.352 26.3158 102.53 26.8481C95.7385 31.2339 88.7076 35.0563 81.5154 38.5889C82.1783 26.7136 89.3291 15.6979 96.8715 6.95794C97.1562 6.62893 97.1825 6.30593 97.0514 6.01165C99.7467 6.42499 102.46 6.84517 105.194 7.18828ZM93.0085 5.39162C84.6177 15.1249 77.1732 27.3518 77.32 40.6036C73.5061 42.4079 69.6526 44.1563 65.7648 45.867C58.0381 49.2668 50.4587 52.8656 43.2576 57.1424C41.3776 48.8775 43.4148 40.1401 46.288 32.3181C49.4749 23.646 54.0541 15.3929 59.609 8.01962C59.9725 7.53816 59.8785 7.08349 59.5469 6.70785C61.166 6.20663 62.8069 5.75447 64.4577 5.35079C74.1373 2.99634 83.5311 3.9849 93.0147 5.38591L93.0085 5.39162ZM33.1774 63.8072C31.8492 64.7902 30.5382 65.792 29.2329 66.8002C22.1301 56.8998 23.9095 42.1764 28.5732 31.6036C33.5835 20.2543 43.1728 13.0144 54.1918 8.60866C49.1926 15.6355 45.1102 23.3773 42.1352 31.4648C38.9274 40.2019 36.7758 50.1708 39.6925 59.2944C39.6982 59.3007 39.7097 59.3132 39.7149 59.3315C37.4971 60.7475 35.3182 62.2314 33.1894 63.8077L33.1774 63.8072ZM65.7115 84.2907C59.1998 83.9704 52.8522 82.3848 46.6037 80.5936C42.9044 79.5332 38.7701 78.3986 35.5718 76.1907C33.4743 74.7484 32.0186 72.6394 30.5556 70.5601C31.0115 70.4312 31.353 70.1768 31.3986 69.8247C32.8597 68.6857 34.3203 67.5587 35.8101 66.4511C42.2541 61.6469 49.1048 57.69 56.184 54.1341C62.5411 59.9891 70.8758 63.7504 79.0143 66.3798C86.1997 68.7068 93.9107 70.4158 101.505 69.9999C101.474 70.0285 101.449 70.0633 101.417 70.0919C91.8462 80.3167 79.7058 84.9646 65.7182 84.2731L65.7115 84.2907Z" fill="#141D23"/>
</svg>
