<svg width="185" height="70" viewBox="0 0 185 70" fill="none" xmlns="http://www.w3.org/2000/svg">
<path d="M98.1905 37.2798C85.159 26.6589 72.9808 14.8506 63.8544 0.634394C55.5563 -12.2814 49.4717 -26.4675 46.2046 -41.4845C42.877 -56.7551 42.361 -72.424 42.6246 -88C47.0765 -77.5166 50.9205 -66.781 55.4502 -56.3263C60.7122 -44.188 67.4377 -33.0043 74.7118 -21.979C82.1652 -10.6778 90.0838 0.313584 98.3638 11.028C106.77 21.9055 115.599 32.4614 123.446 43.7665C127.259 49.2636 130.487 54.8942 133.558 60.8313C134.826 63.2776 136.153 65.7187 137.709 67.9756C124.828 57.4481 111.114 47.8026 98.2002 37.2762L98.1905 37.2798Z" fill="#141D23"/>
<path d="M101.472 -26.4092C110.379 -14.8335 118.358 -2.45142 124.322 10.9128C129.391 22.2611 131.414 34.5525 134.296 46.5706C136.165 54.3485 138.297 62.4816 141.944 69.7404C138.503 66.253 136.254 61.6297 134.058 57.3127C131.533 52.3607 128.739 47.6796 125.594 43.0949C118.219 32.3219 109.894 22.2478 101.858 11.968C93.7868 1.64003 86.0419 -8.94081 78.7234 -19.8172C71.3362 -30.7896 64.1935 -41.9075 58.7142 -53.9766C54.0425 -64.2629 50.2016 -74.9003 45.9144 -85.3562C65.2806 -66.5372 84.9669 -47.8529 101.472 -26.4092Z" fill="#141D23"/>
</svg>
