<svg width="199" height="208" viewBox="0 0 199 208" fill="none" xmlns="http://www.w3.org/2000/svg">
<path d="M36.7103 109.555C44.0459 113.42 52.6092 113.106 60.6505 112.514C62.0517 112.409 63.6795 114.208 61.6868 114.754C52.5796 117.259 46.3125 122.734 40.714 129.724C53.8403 125.909 68.1015 124.461 81.7056 124.922C94.4396 125.347 108.133 126.756 119.699 120.538C115.588 117.49 111.427 114.488 107.157 111.612C100.501 107.121 93.8154 102.662 87.0997 98.2337C87.0108 98.2541 86.917 98.2675 86.8114 98.2788C80.6804 98.846 74.854 100.686 68.87 101.987C63.6608 103.111 58.4578 103.396 53.1423 103.564C43.4435 103.861 33.622 103.727 24.0963 101.73C28.4484 104.085 32.2789 107.234 36.6964 109.565L36.7103 109.555Z" fill="#141D23"/>
<path d="M20.6064 59.6854C20.0646 59.6175 19.6991 59.4172 19.4665 59.1557C26.5249 69.5098 26.6093 86.5497 39.3823 91.4202C39.9005 91.6178 40.1921 91.89 40.324 92.1696C41.4269 92.8692 40.0169 94.3302 38.4881 93.9978C33.9273 92.9931 28.8215 96.4988 24.567 99.5074C34.6012 101.689 45.0571 101.547 55.2665 101.154C65.1517 100.77 74.3386 97.4569 84.0323 96.2153C77.883 92.1882 71.7225 88.1896 65.5256 84.2574C58.423 79.7467 51.1528 75.5891 43.7058 71.6674C39.9265 69.6781 36.1172 67.72 32.345 65.7259C30.4564 64.7254 28.5539 63.7346 26.6905 62.696C24.8486 61.6735 22.745 59.9459 20.6133 59.6806L20.6064 59.6854Z" fill="#141D23"/>
<path d="M65.0603 62.5757C64.6056 63.4369 63.2028 63.3161 62.5029 62.9455C55.3929 59.2128 47.5471 57.0514 39.574 56.1943C33.6849 55.5634 28.2936 56.8861 22.7333 57.831C23.8705 58.208 24.87 58.773 26.034 59.4715C29.1815 61.3521 32.4521 63.0237 35.7046 64.7286C41.6023 67.8271 47.5476 70.8307 53.3607 74.06C65.027 80.5319 76.0195 88.0992 87.1374 95.4457C91.3133 98.2011 95.5123 100.93 99.6973 103.669C98.9819 98.5889 96.4484 94.098 94.1004 89.5921C91.5551 84.6972 89.2379 79.6855 86.9584 74.6683C81.922 63.5732 77.1563 52.3628 71.4931 41.5679C68.7678 48.3615 68.5252 56.0016 65.0485 62.5735L65.0603 62.5757Z" fill="#141D23"/>
<path d="M112.769 73.7961C113.107 74.5822 112.289 74.9633 111.372 74.9491C111.235 75.8375 108.846 76.0187 108.104 75.1106C101.94 67.4762 95.1946 61.5326 87.1867 55.9381C83.5932 53.4285 80.5747 50.4692 77.8288 47.2488C81.9771 55.7228 85.7317 64.3871 89.6073 72.9881C92.2692 78.8845 95.0125 84.7347 98.0145 90.4676C100.308 94.8358 102.609 99.3026 103.118 104.278C103.178 104.855 102.824 105.224 102.327 105.413C108.263 109.31 114.164 113.262 119.955 117.382C120.862 118.022 121.746 118.688 122.643 119.344C123.407 119.464 124.147 119.952 124.229 120.503C129.547 124.446 134.734 128.542 139.917 132.661C140.441 117.838 136.476 105.001 128.864 92.227C122.103 80.8735 114.099 70.0615 110.4 57.2669C110.232 62.8869 110.472 68.4409 112.772 73.8149L112.769 73.7961Z" fill="#141D23"/>
<path d="M152.294 97.0534C151.695 98.1075 149.341 97.8626 149.056 96.6479C147.797 91.4082 146.167 86.1986 142.789 81.9013C138.901 76.9575 133.329 74.6123 128.232 71.2269C122.598 67.4821 117.792 62.7309 113.802 57.3423C117.927 71.2738 127.185 82.7639 134.177 95.359C140.939 107.547 143.922 120.157 143.248 134.063C143.229 134.437 143.013 134.69 142.691 134.851C145.778 137.299 148.865 139.747 151.985 142.152C154.074 143.756 156.106 145.44 158.114 147.162C162.363 136.572 159.128 124.641 158.279 113.655C157.69 106.034 157.034 96.6354 160.777 89.5394C157.316 91.1943 154.296 93.5442 152.288 97.0582L152.294 97.0534Z" fill="#141D23"/>
<path d="M167.43 155.479C168.601 154.163 169.559 152.675 170.201 150.983C171.508 145.326 173.508 139.746 174.015 133.932C174.54 127.86 172.975 122.193 171.111 116.496C168.179 107.561 163.679 97.4341 165.713 87.842C159.49 95.8211 161.057 108.454 162.006 117.814C163.063 128.254 165.383 139.087 160.933 149.075C160.879 149.205 160.787 149.31 160.685 149.401C162.951 151.408 165.187 153.446 167.435 155.486L167.43 155.479Z" fill="#141D23"/>
<path d="M97.9473 167.595C108.095 168.616 118.345 168.504 128.5 167.705C136.604 167.07 144.887 166.321 152.654 163.817C156.961 162.431 161.812 160.462 165.471 157.382C160.641 153.028 155.837 148.636 150.787 144.559C142.563 154.069 129.894 156.134 118.09 158.034C111.836 159.047 105.36 159.905 99.5575 162.584C96.7135 163.894 93.9623 165.398 91.0867 166.514C93.5281 166.884 95.9202 167.392 97.9473 167.595Z" fill="#141D23"/>
<path d="M66.3389 142.688C78.386 148.103 91.2786 148.727 103.76 144.173C104.953 143.739 107.271 145.256 105.575 146.214C96.7791 151.162 90.2615 157.481 84.9526 165.693C90.4116 164.869 95.1064 161.38 100.231 159.48C105.05 157.688 110.233 156.912 115.278 156.086C127.098 154.165 139.94 152.557 148.167 142.89C148.237 142.812 148.315 142.747 148.411 142.691C148.33 142.634 148.251 142.565 148.177 142.503C139.437 135.776 130.88 128.913 122.1 122.308C111.431 128.183 98.9336 127.862 87.0453 127.408C71.669 126.814 56.0729 127.733 41.2375 132.175C50.1025 134.29 58.0019 138.94 66.3341 142.681L66.3389 142.688Z" fill="#141D23"/>
</svg>
