<svg width="105" height="186" viewBox="0 0 105 186" fill="none" xmlns="http://www.w3.org/2000/svg">
<path d="M70.904 146.977C64.9328 144.464 59.8273 137.935 52.809 141.15C50.717 142.109 45.4314 145.228 46.183 147.997C45.8158 148.17 45.5676 148.464 45.7252 148.8C45.9035 149.18 46.0976 149.56 46.295 149.931C46.2756 149.956 46.2545 149.985 46.2444 150.013C45.7486 151.022 43.7751 151.551 42.8012 151.962C41.579 152.478 40.4047 153.021 39.2509 153.683C37.067 154.94 35.0218 156.411 32.9842 157.889C35.4507 144.66 38.2871 131.47 41.6288 118.409C44.557 117.042 47.1073 115.076 49.9473 113.545C51.7613 112.57 53.8003 112.049 55.4794 110.893C59.7583 112.748 63.9835 114.81 68.6745 112.769C72.3864 111.154 74.4178 107.391 76.813 104.354C77.1829 103.882 76.8379 103.469 76.3281 103.395C70.8017 102.578 65.011 99.0262 59.3461 101.099C55.8932 102.361 53.7936 105.847 54.7727 109.224C54.3125 109.421 53.9564 109.839 54.1326 110.181C52.2726 111.503 49.5978 112.11 47.7061 113.257C45.8287 114.393 44.0178 115.622 42.0882 116.656C45.5125 103.483 49.4619 90.4583 54.0653 77.6904C57.9376 75.0916 62.5361 74.1379 66.9813 72.9238C68.6201 74.3568 69.5149 76.7148 71.6006 77.7253C73.4389 78.6202 75.7466 78.8116 77.6813 78.1427C81.9878 76.6577 83.429 71.5723 87.4954 69.7324C87.8403 69.5782 88.3563 68.8916 87.7873 68.6178C82.5019 66.0843 78.4322 60.6345 71.9948 63.0699C68.6387 64.3405 64.2518 67.5634 65.17 71.4444C65.1175 71.6043 65.1513 71.7584 65.2983 71.8904C65.3085 71.9203 65.3204 71.9457 65.3306 71.9757C61.7143 72.9473 58.1004 73.8831 54.8092 75.6294C57.7043 67.74 60.8581 59.9493 64.3014 52.2894C65.1871 50.3163 66.1083 48.3614 67.0558 46.4211C71.1302 41.7182 79.0273 43.4119 84.2436 40.4989C86.5287 43.4482 90.352 45.6327 94.0814 45.3382C98.1181 45.0231 100.176 41.433 103.842 40.411C104.34 40.2699 104.972 39.6408 104.379 39.2006C100.254 36.134 97.4604 30.5139 91.5488 30.8516C87.168 31.1004 82.8085 34.8011 83.0395 39.3911C83.0426 39.4554 83.0538 39.512 83.0712 39.5656C78.6581 41.8851 72.8765 41.2654 68.4887 43.515C69.7496 40.9833 71.0384 38.4616 72.3226 35.9383C74.7244 31.2364 77.0923 26.3224 80.7304 22.4348C83.236 26.0264 89.8869 24.3253 92.3251 21.2562C96.7558 15.6828 93.0011 7.67015 95.1284 1.41252C95.4876 0.359009 93.8392 0.584356 93.4097 1.06036C89.5902 5.26105 83.4764 6.05692 79.4111 9.94801C75.6101 13.5875 77.4745 17.4839 79.6453 21.3911C76.6814 24.4598 74.4807 28.109 72.4883 31.8806C70.7407 35.178 69.0223 38.4964 67.3534 41.8379C66.8391 38.2658 64.7932 34.6245 63.4422 31.6075C63.4363 31.5949 63.4257 31.5805 63.4197 31.5678C66.578 28.1065 67.4319 24.3131 63.7094 20.7713C60.557 17.7772 55.1034 15.5931 53.9246 11.0501C53.7416 10.3478 52.4757 10.6061 52.1687 11.0632C49.2085 15.5057 47.1597 22.3911 48.8621 27.6541C50.4193 32.4599 57.4084 35.1246 61.9845 33.1112C63.7652 36.846 66.4959 41.7808 65.298 45.7551C65.259 45.8778 65.2563 45.9872 65.2759 46.0785C65.2709 46.0924 65.2675 46.1017 65.2625 46.1157C65.2414 46.1449 65.2157 46.1724 65.19 46.2C65.0607 46.3689 65.0103 46.5084 65.0182 46.6322C60.5815 55.9371 56.7063 65.5078 53.202 75.2017C51.7587 71.4205 47.4881 69.106 44.7209 66.2246C44.8394 65.9255 44.692 65.6199 44.3524 65.4973C44.2454 65.4587 44.13 65.4433 44.0095 65.4419C43.9973 65.4322 43.9867 65.4179 43.9744 65.4082C45.7394 60.5185 42.3746 55.4757 38.3617 52.7967C36.4884 51.5474 34.7276 51.2536 32.5034 51.2238C30.5109 51.1935 25.9706 51.8842 25.145 49.4512C24.8765 48.6654 23.5555 49.0615 23.2784 49.6399C17.8193 61.1366 30.967 77.8141 42.37 68.8624C42.5299 68.7835 42.6781 68.6791 42.7906 68.5567C42.8277 68.5122 42.8648 68.4678 42.9065 68.425C42.9912 68.3505 43.079 68.2822 43.1637 68.2076C43.3189 68.0691 43.4035 67.9366 43.4409 67.8186C43.486 67.7665 43.5294 67.7191 43.5745 67.667C46.7502 70.6696 51.1436 73.081 51.582 77.6355C51.6046 77.8644 51.3159 77.8338 51.7878 77.9831L51.7627 78.0529C47.1916 90.7168 43.5699 103.708 40.1542 116.726C39.1716 115.077 37.3755 113.803 36.1154 112.56C33.2423 109.724 31.2064 106.244 28.4197 103.33C28.8137 102.835 28.2791 102.306 27.607 102.405C25.7069 93.9313 15.4609 93.2672 9.61982 88.398C9.21206 88.0563 8.38231 88.33 8.09625 88.7001C4.45165 93.4214 6.27479 100.579 10.6551 104.221C15.3144 108.096 21.7666 106.712 26.8124 104.301C29.2772 106.884 31.2104 109.89 33.6077 112.543C35.3317 114.454 39.3326 116.671 39.0394 119.552C39.0063 119.877 39.2037 120.058 39.4806 120.121C37.3473 128.464 35.3959 136.857 33.6359 145.288C32.8324 149.131 32.0678 152.983 31.3374 156.842C28.8657 154.162 26.1099 151.774 23.4134 149.323C23.3977 149.265 23.3772 149.205 23.3331 149.152C23.2424 149.025 23.1096 148.956 22.9696 148.921C22.8777 148.84 22.7921 148.757 22.7003 148.676C23.5966 145.319 19.8152 140.993 17.6912 138.996C16.3211 137.708 14.9369 136.924 13.0716 136.556C9.73498 135.893 5.78475 136.639 3.31055 133.806C2.86477 133.292 1.79415 133.563 1.52763 134.156C-0.712862 139.168 -0.603249 145.829 3.42406 149.954C7.54754 154.176 13.98 153.401 19.1852 151.699C19.5824 151.895 20.1272 151.755 20.4635 151.508C20.9608 151.135 21.4959 150.818 22.0505 150.535C25.0226 153.227 28.0478 155.86 30.6607 158.907C30.7277 158.983 30.8123 159.04 30.9083 159.08C29.31 167.616 27.8708 176.178 26.5545 184.764C26.4105 185.716 28.3546 185.429 28.4882 184.578C29.7437 176.365 31.1136 168.141 32.618 159.923C35.8149 157.622 38.9636 155.12 42.583 153.513C43.9419 152.91 45.8711 152.402 47.1329 151.353C49.9624 155.898 54.3358 159.501 60.0954 158.667C66.0387 157.804 68.113 152.232 71.1758 147.885C71.4432 147.508 71.341 147.15 70.912 146.969L70.904 146.977ZM57.5832 104.002C59.1839 102.029 61.7213 101.73 64.1103 101.988C67.715 102.374 71.0808 103.888 74.6258 104.6C72.9342 106.897 71.3436 109.599 68.916 111.095C64.9854 113.52 60.9387 111.576 57.1631 109.871C57.1572 109.858 57.1559 109.847 57.1483 109.839C56.0281 107.931 56.1776 105.74 57.5862 104.008L57.5832 104.002ZM73.5875 63.9604C78.1575 62.9543 81.7454 67.1311 85.46 69.2817C82.6529 71.1292 81.2321 74.3078 78.4454 76.2152C75.9372 77.9339 72.7581 77.0388 70.8901 74.8133C69.6285 73.3114 68.8126 71.7549 67.034 70.9131C66.2511 67.5752 70.715 64.5905 73.5828 63.9587L73.5875 63.9604ZM94.4311 32.9332C97.5759 34.3313 99.5275 37.4179 102.089 39.6464C100.039 40.6473 98.5174 42.3434 96.4179 43.3524C92.3281 45.3153 87.4506 42.1034 85.2919 38.6581C85.218 38.5421 85.1088 38.4659 84.9786 38.4188C85.2869 33.9078 90.2511 31.0668 94.4328 32.9286L94.4311 32.9332ZM79.0078 14.1829C79.1911 11.2569 82.1456 9.39432 84.4766 8.13751C87.2642 6.63537 90.2014 5.47639 92.7173 3.63429C92.1311 7.35613 92.8025 11.2217 92.5236 14.9808C92.3459 17.3671 91.78 20.2023 89.7214 21.7099C87.5256 23.3206 83.2183 23.8903 82.0615 20.8014C81.9956 20.6198 81.8529 20.5052 81.6808 20.4431C81.5619 20.3791 81.4173 20.3427 81.2643 20.3295C80.1899 18.4693 78.8694 16.373 79.0062 14.1875L79.0078 14.1829ZM61.3747 31.508C61.1837 31.702 61.1423 31.8606 61.1797 31.9898C58.7628 32.9895 55.4577 31.8754 53.3957 30.5368C51.4322 29.2602 50.5676 27.2706 50.3247 25.0006C49.9193 21.1996 50.9038 16.8696 52.7316 13.3645C54.3533 16.3163 57.7229 18.2425 60.2742 20.2361C61.8292 21.4494 63.6709 22.903 64.2495 24.884C65.0083 27.4874 63.0727 29.7756 61.3747 31.508ZM41.4064 67.7732C31.748 75.7086 21.8832 61.2994 24.4432 51.6431C26.7659 53.3229 31.3252 52.434 33.7265 52.7012C38.9815 53.2939 44.0511 60.3298 42.0778 65.4177C41.9708 65.6999 42.0426 65.8941 42.2022 66.0201C42.1932 66.1325 42.2294 66.2507 42.3252 66.3642C42.3739 66.4186 42.4273 66.4747 42.476 66.5291C42.1246 66.9491 41.7702 67.3628 41.4128 67.7702L41.4064 67.7732ZM11.9397 102.95C8.58438 99.935 6.80165 94.3117 9.05701 90.2195C14.6598 94.2191 23.5324 95.2498 25.5796 102.457C25.3886 102.651 25.3359 102.884 25.5655 103.093C25.6328 103.154 25.6968 103.225 25.7641 103.286C21.3559 105.344 15.8904 106.5 11.9397 102.95ZM20.3738 149.877C20.3062 149.889 20.2306 149.909 20.1517 149.939C15.0294 151.834 8.19249 153.147 4.35632 148.187C1.66506 144.702 1.42414 139.877 2.77814 135.79C6.23092 138.215 10.9283 136.55 14.5594 138.786C16.9606 140.263 21.7605 145.482 20.7532 148.768C20.647 148.887 20.586 149.012 20.6125 149.143C20.6092 149.152 20.6058 149.161 20.6008 149.175C20.4805 149.421 20.5215 149.599 20.6468 149.718C20.5548 149.769 20.4612 149.824 20.3675 149.88L20.3738 149.877ZM61.2967 157.029C55.5957 158.852 50.9792 154.319 48.3816 149.701C49.0108 149.502 49.5537 148.93 48.9552 148.52C45.6214 146.217 52.9195 142.315 54.8605 141.775C59.8623 140.388 64.8215 145.806 69.1539 147.964C67.0154 151.252 65.2457 155.762 61.2984 157.024L61.2967 157.029Z" fill="#141D23"/>
</svg>
