<svg width="176" height="186" viewBox="0 0 176 186" fill="none" xmlns="http://www.w3.org/2000/svg">
<path d="M28.1744 118.215C30.4221 117.491 32.4833 116.416 34.4941 115.034C34.8739 114.771 34.7582 114.256 34.4408 114.055C27.2163 109.501 22.1433 101.87 14.2343 98.4054C17.714 97.2026 21.0764 95.4325 24.7181 95.1502C28.2532 94.8772 31.6978 95.4945 35.2486 94.9906C35.7475 94.9187 36.1053 94.4276 35.7493 94.0063C33.8403 91.7523 31.6195 89.8195 29.6921 87.59C27.5393 85.1078 26.1946 82.2048 25.0899 79.0608C23.1098 73.4245 22.2355 67.5084 21.9647 61.4202C25.4638 62.9219 29.0953 64.0376 33.0507 64.0617C33.6157 64.0651 34.2143 63.6273 33.7921 63.0606C29.2598 56.9353 29.2712 49.002 30.8707 41.3691C31.9957 35.9925 33.396 29.1299 37.159 24.6261C41.4532 33.2302 51.269 37.5675 53.0887 47.7728C53.2054 48.4421 54.6983 48.9391 54.9504 48.0362C55.6245 45.6235 56.5262 43.1649 58.3553 41.4805C62.0613 50.773 70.7636 57.3138 72.4766 67.5986C72.5917 68.2857 74.0676 68.7508 74.3383 67.862C77.2447 58.3053 86.2106 48.4262 96.0344 46.4059C95.0759 50.0678 93.1379 53.4527 92.8551 57.2587C92.8024 57.9666 94.0291 58.1484 94.4897 57.824C101.676 52.7139 113.379 45.9165 121.71 49.6923C109.113 60.392 96.3674 70.9545 83.9276 81.881C83.8175 74.1247 88.2001 66.4327 89.77 58.8159C89.9558 57.9078 88.1103 57.4905 87.9287 58.3698C86.2198 66.6615 81.2698 75.0065 82.1406 83.4628C78.0364 87.09 73.9709 90.7592 69.9523 94.4827C70.1494 91.1872 69.1711 87.7741 68.3799 84.8277C68.1681 84.0358 66.311 84.0697 66.5846 85.1062C67.5138 88.5846 68.7284 92.8271 67.6809 96.6073C61.2244 102.669 54.9115 108.89 48.8234 115.356C46.8695 117.432 44.9499 119.54 43.0458 121.666C42.7557 115.736 42.5578 109.792 42.3977 103.845C45.9876 98.6999 48.5527 92.9181 50.6989 87.1021C51.0175 86.2429 49.1811 85.7749 48.8576 86.656C47.0855 91.4692 45.0251 96.2379 42.316 100.64C42.0827 91.1107 41.928 81.5703 41.6774 72.0407C41.801 71.9931 41.9151 71.9192 41.9949 71.8132C46.1128 66.3242 51.3874 61.188 53.1961 54.4281C53.4352 53.5347 51.5946 53.0955 51.3548 53.982C49.7653 59.9293 45.402 64.6011 41.6038 69.385C41.3272 59.7656 40.941 50.1596 40.2298 40.5966C40.1681 39.7451 38.2746 39.5473 38.3476 40.5159C39.0674 50.2386 39.4621 60.0044 39.7368 69.782C36.8801 67.652 33.3649 66.234 29.828 65.7006C28.6856 65.5311 28.2473 66.837 29.4251 67.0139C33.2504 67.5918 36.9605 69.2331 39.7952 71.7811C40.0533 81.6741 40.2087 91.5792 40.4569 101.478C38.1826 99.7792 35.4307 98.9099 32.7916 97.7742C31.8589 97.3727 30.7696 98.4316 31.9155 98.9232C34.7279 100.132 37.8983 100.958 40.1098 103.152C40.2096 103.253 40.3476 103.318 40.504 103.359C40.6825 110.068 40.9123 116.771 41.2554 123.463C36.705 122.41 31.5725 121.321 28.1751 118.222L28.1744 118.215Z" fill="#141D23"/>
<path d="M97.5125 143.816C97.0611 143.591 95.8634 143.744 96.1786 144.531C97.5787 148.006 97.5401 151.829 100.068 154.459C87.81 156.105 78.7565 145.186 71.8122 136.907C71.428 136.445 69.6239 136.455 70.1233 137.355C74.0929 144.539 72.8534 153.063 71.7417 161.261C68.1 158.572 65.2867 154.564 62.6343 150.965C60.7948 148.463 59.4433 145.919 58.485 142.891C57.5419 139.914 56.7869 136.911 55.2251 134.235C54.9718 133.802 54.3372 133.509 53.8203 133.753C51.3705 134.894 50.1455 137.02 49.1603 139.332C48.8385 136.976 48.5675 134.606 48.0799 132.29C47.497 129.526 46.7752 126.114 44.3867 124.49C44.175 124.343 43.891 124.308 43.6168 124.339C43.567 124.218 43.4733 124.109 43.3364 124.019C43.5048 123.826 43.6807 123.639 43.8491 123.446C48.4261 122.52 52.9813 122.369 57.506 122.655C59.4731 125.617 60.8353 128.987 62.7803 131.971C63.2324 132.669 65.0007 132.325 64.3664 131.356C62.5879 128.625 61.2993 125.586 59.59 122.817C66.4621 123.445 73.2443 124.97 79.8852 126.215L79.9733 126.231C79.5373 126.343 79.2329 126.67 79.5548 127.168C82.2393 131.277 84.2534 135.834 87.2393 139.728C87.7388 140.379 89.5238 140.029 88.8254 139.114C85.8432 135.222 83.8253 130.662 81.1409 126.553C81.1327 126.541 81.1178 126.529 81.1097 126.517C81.1747 126.508 81.2366 126.504 81.2965 126.479C93.4945 128.762 105.798 131.022 117.31 135.415C118.249 135.777 119.355 134.711 118.186 134.266C107.052 130.017 95.2213 127.703 83.4178 125.487C88.9575 122.946 94.643 120.873 100.285 118.632C101.412 118.184 100.074 117.068 99.2668 117.387C93.0815 119.845 86.8391 122.106 80.803 124.996C80.3514 124.911 79.9316 124.87 79.4831 124.782C73.1734 123.594 66.7841 122.262 60.2506 121.589C63.8366 116.761 68.6371 113.312 73.1678 109.546C74.0302 108.828 72.4286 107.923 71.7652 108.478C67.1384 112.325 62.3025 115.945 58.5291 120.735C58.4493 120.841 58.4135 120.936 58.4055 121.032C57.9959 120.487 56.7008 120.637 56.6721 121.235C52.9423 121.036 49.1885 121.125 45.4262 121.7C52.5195 113.843 59.9684 106.33 67.6413 99.0565C67.7046 99.0657 67.7671 99.0681 67.8359 99.0623C73.9239 98.5696 80.0378 97.7003 85.9691 95.6969C87.1064 95.3131 85.7597 94.1785 84.9512 94.4519C79.8617 96.1687 74.6249 97.0078 69.3969 97.5086C69.4157 97.4525 69.4383 97.3992 69.4503 97.3443C73.6963 93.3574 78.0041 89.4361 82.3588 85.5692C82.4951 85.8315 82.7934 86.0495 83.1999 86.0615C92.1839 86.3164 101.607 84.9848 110.281 81.544C111.409 81.0954 110.071 79.9802 109.263 80.2991C101.239 83.4817 92.5364 84.8055 84.1934 84.6941C84.1547 84.4734 84.1228 84.2513 84.0977 84.028C90.2352 78.6081 96.4471 73.2762 102.682 67.9996C109.124 62.5406 115.586 57.1094 122.024 51.6475C121.792 55.8686 120.326 60.3371 118.945 64.2882C117.594 68.153 115.757 73.9395 112.23 76.6277C112.077 76.6844 111.974 76.7667 111.906 76.8565C111.812 76.9197 111.729 76.9913 111.634 77.0476C110.716 77.6221 112.298 78.5443 113.024 78.0934C113.145 78.0183 113.257 77.9306 113.374 77.8458C116.333 77.2031 119.324 76.8211 122.275 76.9586C116.093 84.6772 110.42 94.5741 100.339 96.6178C99.3504 96.8196 99.696 97.776 100.43 97.9513C109.592 100.148 115.89 107.87 121.28 115.133C118.682 115.996 116.081 116.716 113.402 117.065C112.595 117.173 112.625 118.051 113.253 118.32C124.328 123.023 128.019 134.879 134.256 144.369C121.815 147.846 108.891 149.444 97.536 143.808L97.5125 143.816Z" fill="#141D23"/>
</svg>
