<svg width="254" height="273" viewBox="0 0 254 273" fill="none" xmlns="http://www.w3.org/2000/svg">
<path d="M65.2636 113.96C66.5161 124.231 71.4352 133.817 75.5965 143.146C79.3903 151.649 83.7936 160.872 83.2647 170.417C83.2302 171.029 82.6318 171.693 81.9559 171.46C70.5188 167.422 64.8785 151.404 52.2088 150.905C50.7369 150.85 49.4067 150.989 48.1985 151.282C52.4046 164.947 64.5168 175.846 73.0748 186.814C79.6747 195.261 86.8773 205.486 87.1213 216.55C91.5256 207.839 95.8919 199.113 99.7664 190.141C102.487 183.855 105.254 177.591 108.036 171.339C93.3045 145.829 90.6445 115.453 76.5351 89.7464C67.928 94.0622 64.16 104.99 65.2515 113.976L65.2636 113.96Z" fill="#141D23"/>
<path d="M103.225 56.7281C100.173 62.3899 99.6482 68.9496 100.202 75.256C101.243 87.0567 105.711 98.1919 107.449 109.865C107.554 110.557 107.238 111.245 106.53 111.389C99.7585 112.794 95.3305 107.366 92.1442 102.184C89.3575 97.6521 85.7769 87.3335 79.0879 88.7627C92.7478 113.819 95.6385 143.255 109.416 168.287C114.288 157.388 119.228 146.516 124.138 135.633C126.712 129.925 129.274 124.233 131.884 118.577C131.689 118.355 131.517 118.101 131.401 117.789C122.971 94.9605 113.662 72.2217 112.064 47.6585C112.03 47.1205 112.142 46.7546 112.324 46.5287C108.451 49.2219 105.013 53.4314 103.227 56.7422L103.225 56.7281Z" fill="#141D23"/>
<path d="M181.732 31.0509C177.414 22.6798 165.677 32.0613 161.66 35.7104C155.67 41.1541 150.742 47.5325 145.254 53.4406C142.658 56.2307 139.933 59.2247 137.126 61.7806C135.703 63.0756 134.876 63.443 133.558 61.6021C133.024 60.8637 132.829 59.7415 132.45 58.9313C131.317 56.5425 129.643 54.6092 128.002 52.564C125.694 49.6924 122.915 43.4024 118.562 43.8853C116.608 44.1059 114.606 44.9904 112.701 46.261C113.555 45.9896 114.998 47.0486 115.075 48.3447C116.606 71.7818 125.289 93.5241 133.391 115.306C138.507 104.316 143.847 93.4436 149.882 82.8439C159.673 65.647 170.267 48.9287 179.815 31.5876C180.35 30.626 181.254 30.8546 181.925 31.509C181.862 31.361 181.81 31.197 181.74 31.0569L181.732 31.0509Z" fill="#141D23"/>
<path d="M195.958 86.4732C192.197 82.2225 183.21 85.428 178.303 84.9685C172.129 84.396 169.246 79.8919 169.129 73.9378C168.994 66.9077 172.836 60.8265 175.771 54.6886C178.182 49.6463 183.379 40.6801 182.594 34.0495C173.049 51.3686 162.467 68.071 152.689 85.252C148.922 91.8652 145.435 98.5887 142.086 105.378C161.301 103.64 180.647 98.5481 197.021 88.172C196.771 87.5718 196.425 86.9996 195.958 86.4732Z" fill="#141D23"/>
<path d="M198.833 138.009C195.628 136.215 191.332 136.49 187.792 136.707C179.125 137.239 158.584 142.008 163.917 126.066C166.749 117.6 174.854 113.37 181.946 108.841C186.064 106.206 190.354 103.525 193.638 99.8513C195.24 98.0525 196.835 95.3617 197.363 92.644C180.244 103.048 159.972 107.957 140.135 109.391C135.58 118.851 131.277 128.426 126.937 138.035C123.956 144.651 120.959 151.255 117.978 157.871C146.045 153.489 174.775 151.206 201.323 140.405C200.784 139.475 199.974 138.654 198.819 138.011L198.833 138.009Z" fill="#141D23"/>
<path d="M79.0279 240.963C90.3317 235.671 103.301 233.506 115.259 230.807C129.418 227.609 146.578 224.428 156.906 213.275C156.766 213.095 156.608 212.939 156.448 212.769C156.428 213.229 156.25 213.633 155.813 213.83C135.5 223.524 113.114 215.413 91.7627 217.698C91.4107 217.734 91.0628 217.597 90.759 217.369C86.8013 225.202 82.7896 233.007 79.0259 240.949L79.0279 240.963Z" fill="#141D23"/>
<path d="M92.5555 213.778C112.831 212.211 134.163 219.393 153.39 210.546C144.465 205.744 127.251 206.133 130.532 193.49C135.661 173.692 165.474 176.675 179.77 168.966C187.723 164.671 196.496 157.854 200.668 149.669C201.511 148.013 202.108 146.136 202.196 144.338C175.192 155.096 146.02 157.335 117.547 161.874C117.121 161.942 116.717 161.764 116.379 161.448C111.714 171.788 107.086 182.145 102.589 192.562C99.4836 199.759 96.0625 206.795 92.5575 213.792L92.5555 213.778Z" fill="#141D23"/>
<path d="M38.1416 177.559C40.0286 187.219 46.4776 194.151 52.9366 201.154C59.1937 207.943 65.8208 214.721 70.2689 222.903C73.908 229.613 75.2828 236.774 73.6337 243.815C73.6937 243.785 73.7598 243.747 73.8118 243.711C73.8259 243.659 73.8338 243.615 73.8559 243.569C77.1371 236.354 80.6882 229.278 84.2553 222.215C83.8317 221.696 83.5442 221.03 83.6666 220.434C86.4648 206.302 75.0802 193.486 66.7815 183.388C59.0083 173.922 49.4973 164.14 45.604 152.223C37.545 156.325 36.4778 169.018 38.1416 177.559Z" fill="#141D23"/>
</svg>
