<svg width="198" height="213" viewBox="0 0 198 213" fill="none" xmlns="http://www.w3.org/2000/svg">
<path d="M50.8905 88.8623C51.8672 96.8712 55.703 104.346 58.9478 111.62C61.9061 118.25 65.3397 125.442 64.9272 132.886C64.9004 133.363 64.4337 133.88 63.9067 133.699C54.9884 130.55 50.5902 118.06 40.7109 117.67C39.5631 117.628 38.5259 117.736 37.5837 117.965C40.8635 128.62 50.3082 137.119 56.9815 145.671C62.1279 152.258 67.7443 160.231 67.9345 168.859C71.3689 162.066 74.7736 155.261 77.7948 148.266C79.9162 143.364 82.0734 138.48 84.2431 133.605C72.7559 113.712 70.6818 90.0259 59.6797 69.9811C52.9681 73.3464 50.03 81.8671 50.8812 88.8747L50.8905 88.8623Z" fill="#141D23"/>
<path d="M80.4913 44.2344C78.1113 48.6493 77.7022 53.7643 78.1337 58.6818C78.9458 67.8837 82.4298 76.5666 83.7847 85.669C83.867 86.2087 83.6201 86.745 83.068 86.8569C77.7882 87.9525 74.3353 83.7206 71.8507 79.6796C69.6777 76.1456 66.8858 68.0995 61.6699 69.2139C72.3214 88.7517 74.5755 111.705 85.3191 131.224C89.118 122.726 92.9699 114.248 96.7985 105.762C98.8057 101.311 100.804 96.8726 102.839 92.4621C102.686 92.2889 102.552 92.0908 102.462 91.8474C95.8888 74.0468 88.6296 56.3158 87.3833 37.1622C87.3571 36.7427 87.4446 36.4574 87.5867 36.2813C84.5659 38.3813 81.8858 41.6638 80.4928 44.2454L80.4913 44.2344Z" fill="#141D23"/>
<path d="M141.709 24.2122C138.342 17.6847 129.19 25.0001 126.058 27.8456C121.387 32.0904 117.544 37.0641 113.264 41.671C111.24 43.8466 109.116 46.1812 106.926 48.1743C105.817 49.1841 105.172 49.4706 104.144 48.0351C103.728 47.4593 103.576 46.5843 103.28 45.9525C102.397 44.0897 101.091 42.5823 99.8122 40.9875C98.0126 38.7483 95.8452 33.8436 92.4514 34.2201C90.9276 34.3921 89.366 35.0818 87.8806 36.0726C88.5467 35.861 89.6721 36.6868 89.7322 37.6974C90.9261 55.9729 97.6962 72.9269 104.014 89.9117C108.003 81.3418 112.167 72.864 116.874 64.5988C124.508 51.1892 132.769 38.1528 140.214 24.6307C140.631 23.8809 141.336 24.0591 141.86 24.5695C141.81 24.454 141.77 24.3261 141.715 24.2169L141.709 24.2122Z" fill="#141D23"/>
<path d="M152.802 67.4289C149.869 64.1143 142.862 66.6139 139.035 66.2556C134.221 65.8092 131.973 62.297 131.881 57.6542C131.776 52.1723 134.772 47.4304 137.06 42.6443C138.941 38.7125 142.993 31.7209 142.381 26.5506C134.938 40.0555 126.687 53.0795 119.062 66.4766C116.125 71.6334 113.406 76.8762 110.794 82.1704C125.778 80.8151 140.863 76.8445 153.63 68.7535C153.436 68.2855 153.166 67.8393 152.802 67.4289Z" fill="#141D23"/>
<path d="M155.043 107.615C152.544 106.216 149.194 106.43 146.434 106.6C139.676 107.014 123.658 110.733 127.817 98.3021C130.026 91.7006 136.346 88.4021 141.875 84.8706C145.086 82.8159 148.431 80.7254 150.993 77.8608C152.241 76.4581 153.486 74.3599 153.897 72.2408C140.548 80.3532 124.741 84.1813 109.273 85.2992C105.721 92.6764 102.366 100.143 98.9808 107.635C96.6564 112.794 94.3197 117.944 91.9953 123.102C113.881 119.686 136.284 117.905 156.985 109.483C156.564 108.758 155.933 108.118 155.032 107.617L155.043 107.615Z" fill="#141D23"/>
<path d="M61.6232 187.894C70.4375 183.768 80.5508 182.08 89.8752 179.975C100.915 177.481 114.297 175 122.35 166.304C122.241 166.164 122.118 166.042 121.993 165.909C121.977 166.268 121.838 166.583 121.498 166.737C105.659 174.295 88.2027 167.971 71.5534 169.753C71.2789 169.781 71.0076 169.674 70.7707 169.496C67.6846 175.604 64.5565 181.691 61.6216 187.883L61.6232 187.894Z" fill="#141D23"/>
<path d="M72.1719 166.697C87.9818 165.475 104.616 171.075 119.609 164.177C112.65 160.432 99.2264 160.736 101.785 150.877C105.784 135.439 129.032 137.765 140.179 131.753C146.381 128.405 153.221 123.089 156.475 116.706C157.132 115.415 157.598 113.951 157.666 112.549C136.609 120.939 113.862 122.684 91.6595 126.224C91.3273 126.277 91.0124 126.138 90.749 125.891C87.111 133.954 83.5026 142.03 79.9956 150.153C77.5742 155.765 74.9066 161.252 72.1735 166.708L72.1719 166.697Z" fill="#141D23"/>
<path d="M29.7414 138.453C31.2128 145.985 36.2415 151.391 41.278 156.851C46.1571 162.145 51.3247 167.431 54.7932 173.81C57.6309 179.043 58.7029 184.627 57.417 190.117C57.4638 190.094 57.5153 190.064 57.5558 190.036C57.5668 189.995 57.573 189.961 57.5902 189.925C60.1488 184.299 62.9179 178.782 65.6994 173.274C65.369 172.87 65.1448 172.35 65.2403 171.886C67.4223 160.866 58.5448 150.872 52.0738 142.998C46.0125 135.617 38.5962 127.989 35.5603 118.696C29.2761 121.895 28.444 131.793 29.7414 138.453Z" fill="#141D23"/>
</svg>
