<svg width="290" height="151" viewBox="0 0 290 151" fill="none" xmlns="http://www.w3.org/2000/svg">
<path d="M82.6679 148.805C80.4552 138.996 84.1085 126.654 73.6984 120.695C70.5941 118.919 61.8696 115.063 59.0425 118.513C58.4924 118.205 57.8956 118.157 57.6131 118.659C57.2932 119.227 56.987 119.816 56.6956 120.4C56.647 120.398 56.591 120.398 56.5466 120.41C54.8206 120.696 52.3683 118.681 50.9681 117.823C49.2108 116.746 47.4616 115.754 45.5816 114.894C42.0168 113.272 38.3074 112.018 34.5949 110.78C53.5727 101.947 72.8355 93.6159 92.3904 86.04C96.7668 88.5026 101.561 89.9468 106.064 92.1504C108.938 93.5599 111.439 95.6641 114.419 96.7407C115.936 103.819 117.143 111.016 123.964 115.096C129.363 118.324 135.963 117.491 141.972 117.772C142.903 117.813 143.115 117.004 142.748 116.294C138.789 108.578 138.055 98.0582 130.313 92.7771C125.596 89.557 119.286 90.0541 115.895 94.3404C115.23 93.9371 114.378 93.8653 114.104 94.397C110.751 93.2419 107.566 90.4126 104.404 89.06C101.269 87.7159 98.0775 86.5393 95.0256 85.0363C114.797 77.4633 134.856 70.6867 155.181 64.968C161.97 67.5104 167.331 72.4555 172.884 76.9719C172.55 80.3353 170.373 83.5947 170.978 87.1409C171.506 90.2703 173.348 93.3571 175.943 95.1959C181.713 99.2924 189.454 96.5193 195.457 99.9922C195.964 100.288 197.3 100.32 197.132 99.3541C195.565 90.3923 198.789 80.3316 189.89 74.4028C185.249 71.3126 177.205 68.6842 173.121 73.3486C172.871 73.4268 172.707 73.6087 172.672 73.9134C172.644 73.9533 172.622 73.9912 172.593 74.0312C168.096 70.3425 163.647 66.6245 158.462 64.046C171.067 60.5762 183.78 57.5224 196.589 54.9521C199.887 54.2885 203.195 53.6861 206.507 53.1302C216.143 54.0275 221.132 65.5285 229.533 69.4841C227.863 75.0331 228.551 81.8337 232.293 86.2768C236.339 91.0892 242.744 90.4459 247.35 94.1518C247.978 94.6531 249.346 94.8829 249.367 93.7365C249.523 85.7579 254.115 77.1548 248.347 69.9954C244.074 64.6885 235.451 62.5262 229.848 66.9634C229.769 67.0253 229.708 67.0904 229.655 67.1609C222.732 63.6835 218.294 55.8235 211.481 52.3148C215.826 51.6204 220.183 50.9704 224.538 50.3129C232.661 49.0991 241.022 47.651 249.231 48.7338C246.947 55.1412 255.109 62.0028 261.197 62.3096C272.257 62.8705 279.01 50.893 288.854 47.9275C290.513 47.4296 288.738 45.5518 287.748 45.4394C278.979 44.4104 272.448 37.4094 263.849 35.7904C255.807 34.2779 252.558 40.1512 249.572 46.4209C243.009 45.4499 236.4 45.9669 229.825 46.8575C224.071 47.6288 218.318 48.4561 212.579 49.3667C216.637 45.4911 219.399 39.6192 221.999 35.1885C222.009 35.1696 222.018 35.1433 222.029 35.1243C229.264 35.9861 234.839 33.6383 235.96 25.7393C236.903 19.0547 234.742 10.196 239.429 4.60458C240.153 3.73927 238.682 2.37416 237.826 2.39939C229.527 2.67376 218.958 6.30521 213.833 13.2081C209.155 19.5147 212.095 30.7463 218.778 34.7059C215.658 40.3275 211.877 48.2323 205.763 50.3091C205.572 50.3706 205.431 50.466 205.333 50.5733C205.311 50.5795 205.296 50.5837 205.274 50.5899C205.218 50.5897 205.16 50.5821 205.102 50.5745C204.771 50.5638 204.549 50.6262 204.399 50.748C188.61 53.5496 172.992 57.3001 157.552 61.6303C161.036 56.393 160.108 48.9101 161.256 42.8138C161.742 42.6933 161.996 42.2312 161.844 41.6917C161.797 41.5217 161.712 41.3621 161.605 41.2087C161.606 41.1845 161.614 41.1581 161.616 41.1339C169.401 38.9463 172.746 30.1434 172.513 22.6569C172.402 19.1632 171.184 16.6745 169.212 13.8392C167.45 11.2959 162.474 6.18673 164.809 2.94695C165.561 1.89822 163.866 0.588118 162.884 0.760533C143.396 4.25057 134.157 35.914 155.793 42.2277C156.037 42.3583 156.303 42.4511 156.56 42.4827C156.65 42.4894 156.739 42.4961 156.831 42.5101C157.002 42.5498 157.168 42.5989 157.339 42.6386C157.654 42.7094 157.899 42.6966 158.082 42.6372C158.188 42.6471 158.288 42.6591 158.394 42.669C157.462 49.3906 158.452 57.382 153.082 62.0489C152.812 62.2842 152.665 62.158 152.902 62.8888L152.791 62.9201C132.628 68.5856 112.833 75.4792 93.265 82.9232C94.4643 80.1939 94.4175 76.6423 94.8537 73.928C95.8482 67.7393 98.3962 61.9595 99.5692 55.8084C100.551 55.8596 100.728 54.6694 99.995 53.9104C109.007 43.858 100.588 30.3061 101.476 18.5331C101.54 17.7096 100.442 16.9017 99.7152 16.8747C90.4449 16.5368 83.0295 25.3032 82.3727 34.1164C81.6762 43.4989 89.2568 50.3963 96.8689 54.5894C95.8252 60.0343 93.7653 65.1905 92.5717 70.6138C91.7101 74.5163 92.5172 81.5704 88.6025 83.7947C88.1617 84.0462 88.1099 84.4595 88.2801 84.8662C75.7895 89.7076 63.4 94.8236 51.136 100.215C45.5441 102.672 39.9763 105.185 34.4304 107.748C35.5908 102.207 36.125 96.57 36.7922 90.9518C36.8518 90.8792 36.9092 90.7993 36.9361 90.696C37.0154 90.4664 36.9828 90.2363 36.9004 90.0282C36.9193 89.8395 36.9477 89.6561 36.9666 89.4674C42.0273 87.567 44.0878 78.8857 44.6977 74.4C45.0915 71.5062 44.8331 69.0508 43.6143 66.3629C41.4391 61.5513 36.926 57.237 38.2784 51.5539C38.5255 50.5275 37.2153 49.4203 36.2242 49.619C27.8536 51.317 19.5201 57.4705 17.9356 66.2812C16.314 75.3017 23.1069 82.7233 29.9645 87.7584C30.0753 88.437 30.7446 88.9986 31.3607 89.2003C32.2818 89.4918 33.1666 89.8811 34.0267 90.3253C33.3027 96.5097 32.7023 102.707 31.2054 108.758C31.1687 108.912 31.1732 109.07 31.2094 109.227C18.9576 114.919 6.81673 120.834 -5.24259 126.926C-6.57855 127.604 -4.45912 129.8 -3.26095 129.2C8.27191 123.368 19.9224 117.67 31.6862 112.148C37.4876 114.106 43.5005 115.822 48.8047 118.941C50.7961 120.112 53.182 122.089 55.6494 122.736C52.4515 130.413 51.8404 139.189 58.1 145.708C64.5613 152.433 73.4902 150.02 81.7617 149.961C82.4803 149.958 82.8409 149.506 82.6827 148.801L82.6679 148.805Z" fill="#141D23"/>
</svg>
