<svg width="141" height="214" viewBox="0 0 141 214" fill="none" xmlns="http://www.w3.org/2000/svg">
<path d="M116.214 159.853C116.244 159.492 116.053 159.278 115.746 159.125C111.598 157.039 109.671 152.017 104.36 152.652C100.922 153.066 97.354 155.364 96.7907 158.953C91.9445 158.788 87.1181 158.209 82.3055 158.709C82.2119 158.62 82.1051 158.544 81.9559 158.503C84.6715 155.497 85.6657 151.447 88.2396 148.309C88.2684 148.275 88.2835 148.241 88.3042 148.211C92.8734 147.567 97.0464 145.062 98.8787 140.615C99.875 138.201 100.024 135.508 99.4162 132.975C99.0395 131.41 98.5766 128.734 96.6906 128.467C92.5232 127.887 86.8007 132.28 84.5459 135.396C81.7376 139.272 81.4542 144.683 85.2122 148.012C85.3564 148.137 85.5422 148.202 85.751 148.23C83.3983 151.502 82.3267 155.604 79.3434 158.402C79.0873 158.64 79.0243 158.853 79.0801 159.026C71.8476 160.891 65.1212 164.199 58.6744 167.956C53.3136 171.08 47.0877 173.745 42.2417 177.82C44.5541 172.125 46.861 166.427 49.1901 160.739C49.7341 160.591 50.1984 160.219 50.1049 159.701C50.0591 159.432 49.9916 159.167 49.9403 158.896C52.3375 153.058 54.76 147.239 57.26 141.441C61.7099 131.13 66.4143 120.894 71.3746 110.775C71.8217 110.81 72.3146 110.686 72.5732 110.368C79.7216 101.698 92.3653 100.69 102.763 98.0653C102.773 98.2643 102.914 98.4557 103.232 98.6135C107.271 100.556 111.143 102.067 115.623 101.59C116.907 104.586 119.159 106.929 122.423 107.829C125.968 108.803 129.028 107.373 132.399 106.426C132.799 106.313 133.625 105.945 133.431 105.367C131.813 100.593 131.765 92.9407 125.283 92.1658C120.577 91.6022 116.439 95.5371 115.579 99.9291C111.822 100.366 108.456 98.9235 105.125 97.3296C105.654 96.9472 105.683 96.3373 105.286 96.0432C106.582 93.2355 108.495 90.8286 110.454 88.4364C113.477 88.9055 116.867 89.233 119.272 87.0704C122.604 84.0823 121.982 78.5809 122.644 74.5811C122.72 74.1332 122.296 73.8401 121.903 73.7752C117.764 73.0872 112.951 73.3056 109.583 76.1094C105.999 79.0903 106.428 83.4518 108.165 87.3427C108.231 87.4932 108.347 87.5927 108.489 87.664C106.265 90.3716 104.086 93.0994 102.739 96.3595C92.9071 98.9065 81.1596 100.04 73.3055 106.835C79.0185 95.3695 85.0603 84.0667 91.4311 73.0004C94.9189 66.9347 98.6425 61.0297 102.371 55.1137C105.664 49.8906 108.645 44.0836 113.685 40.3044C114.092 40.0002 114.182 39.6993 114.091 39.4568C116.594 38.1426 119.28 37.2259 121.934 36.2612C123.669 40.305 129.32 42.0085 133.115 39.9211C137.574 37.4654 138.603 31.7293 140.175 27.3388C140.286 27.0344 139.961 26.6994 139.707 26.6104C135.019 25.0166 130.465 23.6174 126.037 26.5961C123.435 28.3481 120.733 31.4417 121.773 34.5332C119.187 35.4954 116.577 36.3793 114.086 37.5456C115.184 31.7742 116.613 26.0727 117.805 20.317C120.714 19.7363 123.099 17.812 124.352 14.8912C126.339 10.2535 124.393 5.75858 123.815 1.06111C123.7 0.131415 122.079 0.433368 121.651 0.902183C118.318 4.57298 111.845 4.90083 109.733 9.82978C107.83 14.2706 111.518 16.6433 114.403 19.22C114.025 19.6979 114.158 20.4086 115.173 20.4809C115.244 20.4865 115.312 20.484 115.378 20.4871C114.102 26.6199 112.556 32.697 111.44 38.8623C111.431 38.8981 111.437 38.9279 111.436 38.9607C111.043 39.2781 111.102 39.5927 111.367 39.8206C107.952 42.6233 105.413 46.2462 103.064 49.9686C99.9361 54.9318 96.7774 59.8741 93.7392 64.8913C93.6337 65.0645 93.5337 65.2401 93.4282 65.4133C91.7006 57.0248 88.9279 48.9118 86.0613 40.8433C87.0902 38.2091 87.7389 35.496 88.1827 32.7165C91.6194 31.2701 94.3913 29.4546 94.9425 25.4043C95.4179 21.8755 95.0233 17.1877 92.5154 14.4472C91.8963 13.7706 90.7957 14.0209 90.2857 14.7002C88.3469 17.2828 86.0467 18.4885 83.5524 20.3431C82.231 21.3304 81.2153 22.5168 81.0916 24.2225C80.8646 27.3081 83.466 30.0643 85.948 31.6945C85.939 31.744 85.9355 31.796 85.9265 31.8455C85.4029 32.1703 85.4392 32.6222 85.7652 32.9244C85.4164 35.1106 84.9437 37.274 84.2277 39.3671C83.7479 39.4774 83.3482 39.7513 83.3076 40.1214C81.5468 39.1204 79.4505 38.7842 77.7972 37.5909C77.8324 37.4395 77.8292 37.2839 77.7486 37.1067C76.2703 33.829 75.4677 28.6209 71.1429 28.0025C66.7494 27.3729 63.8376 31.8312 59.651 31.8985C58.9679 31.9097 58.0354 32.4105 58.3825 33.198C61.9202 41.2231 69.1757 43.6956 76.7152 39.3369C78.7284 40.4324 81.1459 40.7269 82.8264 42.4216C83.1251 42.7248 83.653 42.7302 84.109 42.5689C87.0811 50.9668 89.9133 59.4216 91.5003 68.2084C91.5206 68.3114 91.5591 68.3892 91.6113 68.4665C85.6415 78.5762 80.1166 88.9483 74.7919 99.4114C65.4761 117.728 57.0607 136.353 49.1093 155.243C45.8988 142.596 39.2341 131.08 35.9387 118.429C35.8747 118.186 35.7046 118.028 35.482 117.927C36.8729 113.595 37.1425 109.041 37.4566 104.508C50.5172 103.247 42.1665 87.1671 40.4873 79.6916C40.2933 78.8331 38.7592 78.9734 38.3239 79.5326C35.0239 83.7811 29.2836 87.6377 28.3527 93.2774C27.5535 98.1395 30.8927 101.888 35.1219 103.588C34.7658 108.524 34.6378 113.638 32.9576 118.341C29.998 117.599 26.8325 117.621 24.1134 116.158C24.3813 116.012 24.5753 115.792 24.6028 115.509C25.1871 109.525 21.28 103.864 14.978 104.169C10.0023 104.407 3.85021 106.643 0.429397 110.375C0.164198 110.663 0.0757432 111.138 0.446677 111.401C3.17977 113.306 3.22204 116.715 4.92929 119.326C6.36357 121.518 8.95713 122.918 11.5012 123.377C16.2727 124.239 20.6768 121.771 23.1139 117.841C26.2722 119.209 29.6935 119.082 32.9574 120.277C33.2402 120.379 33.5916 120.344 33.9207 120.225C37.6355 133.476 44.8115 145.566 47.4854 159.127C45.7817 163.217 44.0948 167.314 42.4331 171.429C36.8942 185.097 31.3473 198.769 25.3 212.226C24.7424 213.453 27.1096 213.578 27.5354 212.626C32.012 202.655 36.2109 192.571 40.3374 182.455C40.4309 182.397 40.5077 182.331 40.5784 182.249C45.285 176.309 52.9119 173.383 59.2874 169.621C65.58 165.908 72.1299 162.56 79.2091 160.692C79.4115 160.764 79.6583 160.782 79.9596 160.725C84.9912 159.728 90.073 160.336 95.1468 160.591C94.6582 166.646 100.401 172.257 106.418 172.003C112.809 171.738 115.683 165.427 116.203 159.848L116.214 159.853ZM127.091 95.0711C129.733 97.4573 129.879 101.865 130.829 105.197C128.783 105.888 126.68 106.748 124.531 106.455C121.188 105.995 118.842 103.415 117.732 100.392C117.845 100.275 117.927 100.139 117.957 99.9847C118.683 96.0809 123.24 91.5929 127.091 95.0711ZM111.33 77.1109C113.736 75.0821 117.133 74.9041 120.156 75.2995C119.78 78.0765 119.833 80.9745 118.923 83.6425C117.627 87.4414 114.362 87.2377 111.123 86.7437C110.952 86.5861 110.686 86.492 110.398 86.4615C110.393 86.459 110.392 86.4454 110.389 86.4373C108.987 83.3016 108.408 79.568 111.324 77.1083L111.33 77.1109ZM127.816 27.5719C129.65 26.4021 131.556 26.2565 133.669 26.6876C134.499 26.8568 135.792 26.9955 136.517 27.5125C137.186 27.9907 137.405 27.9363 137.456 27.899C137.43 27.9409 137.368 28.0933 137.37 28.5766C137.377 29.5648 136.568 31.0796 136.232 32.012C135.668 33.578 135.016 35.2045 134.037 36.5617C131.658 39.862 126.277 39.869 124.422 35.9579C124.79 35.7233 124.979 35.367 124.702 34.9865C122.618 32.1104 125.375 29.1159 127.813 27.5638L127.816 27.5719ZM117.671 18.6017C117.449 18.5005 117.163 18.4644 116.866 18.497C113.83 15.6036 108.898 12.4651 113.492 8.14783C115.841 5.93266 119.088 5.11022 121.722 3.3189C122.21 5.81875 122.959 8.30914 122.878 10.8515C122.762 14.4028 120.954 17.7616 117.677 18.6042L117.671 18.6017ZM65.8779 38.9549C63.6562 37.6976 62.2099 35.6202 61.1104 33.3856C63.5796 32.8126 65.4637 31.2369 67.9077 30.217C72.6587 28.2423 73.8769 33.8805 75.2533 37.3529C75.0194 37.6017 74.9464 37.9102 75.1849 38.2128C72.2707 39.8832 68.9937 40.7122 65.8779 38.9549ZM88.4104 30.7968C85.6603 29.1655 81.7491 25.3318 84.4574 22.1342C85.6454 20.7312 87.5512 20.0832 88.9766 18.9556C89.826 18.283 90.5676 17.5079 91.2636 16.6853C92.4632 18.818 92.7516 21.5818 92.6766 23.9192C92.6358 25.1467 92.555 26.6842 91.971 27.7922C91.2088 29.248 89.8585 30.1217 88.4129 30.7913L88.4104 30.7968ZM37.4869 102.432C32.7719 100.899 29.1979 96.5889 31.2743 91.5165C32.7731 87.8632 35.9966 85.1275 38.685 82.1956C40.8052 88.6856 46.377 101.587 37.9595 102.78C37.9022 102.641 37.758 102.515 37.4838 102.424L37.4869 102.432ZM21.6512 116.051C19.2942 121.15 13.3287 123.906 8.50713 119.933C5.5515 117.498 5.77678 113.146 2.9384 110.63C5.52005 108.199 9.47557 106.734 12.8621 106.122C15.0427 105.726 17.1665 105.633 18.9879 107.077C21.4915 109.058 22.525 112.502 22.2262 115.569C21.9704 115.673 21.7551 115.837 21.6486 116.056L21.6512 116.051ZM87.0213 146.69C84.1453 144.05 84.2751 139.775 86.2376 136.593C88.249 133.334 91.9725 131.448 95.447 130.347C95.5395 130.336 95.6234 130.313 95.7185 130.296C95.6959 130.494 95.9041 130.863 96.3598 131.412C96.6665 132.214 96.9435 133.023 97.1233 133.869C97.5018 135.695 97.4623 137.6 96.9235 139.392C95.61 143.746 91.7345 146.379 87.2821 146.648C87.1921 146.654 87.1052 146.668 87.0238 146.684L87.0213 146.69ZM103.4 169.674C99.9871 168.143 97.2967 164.415 97.5544 160.627C98.0038 160.509 98.317 160.189 98.4082 159.856C98.7995 159.718 99.1123 159.459 99.1615 159.099C99.4861 156.493 101.802 154.618 104.373 154.353C107.119 154.073 108.765 156.02 110.513 157.759C111.312 158.557 113.407 159.589 113.762 160.581C114.151 161.676 112.893 164.608 112.497 165.493C110.863 169.179 107.431 171.471 103.406 169.663L103.4 169.674Z" fill="#141D23"/>
</svg>
