<svg width="158" height="168" viewBox="0 0 158 168" fill="none" xmlns="http://www.w3.org/2000/svg">
<path d="M25.3134 40.5921C25.4634 41.8859 25.5647 43.2146 25.6612 44.5712C25.909 48.1179 26.2928 51.6658 26.7208 55.2067C31.8417 57.7301 37.2078 59.5131 42.711 60.8171C36.6228 54.3761 30.8193 47.6457 25.3134 40.5921Z" fill="#141D23"/>
<path d="M46.9915 65.2436C40.2142 64.0141 33.5752 62.2556 27.2628 59.5265C27.6745 62.6489 28.1024 65.7596 28.5327 68.8564C30.576 83.5698 34.3932 98.3923 41.3688 111.598C41.7153 111.584 42.0582 111.634 42.3756 111.751C51.2768 115.076 61.4322 114.962 70.7378 113.881C79.59 112.854 88.9339 110.899 96.6594 106.265C92.6545 103.153 88.5531 100.147 84.4052 97.1619C70.9025 87.4642 58.4495 76.8445 46.9775 65.2413L46.9915 65.2436Z" fill="#141D23"/>
<path d="M54.9274 42.5656C45.695 41.7873 35.8697 40.265 27.4577 36.1108C34.3575 45.2533 41.7119 54.0342 49.6486 62.2885C50.3809 62.5396 50.7111 62.9673 50.7565 63.4265C51.5575 64.2553 52.3666 65.0783 53.1839 65.8955C59.9394 72.634 67.1087 78.7819 74.535 84.6357C76.6789 70.7777 71.1331 56.3052 64.5784 44.3599C64.3308 43.9101 64.3796 43.5311 64.6028 43.2242C61.3943 43.0337 58.1638 42.8468 54.9274 42.5656Z" fill="#141D23"/>
<path d="M69.4152 43.5097C76.7046 56.8103 82.2924 72.7522 78.8779 87.9971C82.8328 91.0216 86.847 93.9916 90.91 96.9266C98.9849 102.759 106.841 108.785 114.095 115.499C118.287 106.434 118.078 95.8544 116.682 86.1234C115.131 75.3345 111.873 64.6841 107.275 54.8068C106.974 54.1616 107.194 53.6606 107.668 53.3095C105.924 52.3308 104.143 51.4033 102.339 50.5292C91.7569 45.4184 80.6854 44.2333 69.4093 43.5015L69.4152 43.5097Z" fill="#141D23"/>
<path d="M124.084 125.68C125.375 127.142 126.641 128.622 127.898 130.108C138.511 120.449 140.066 103.031 137.279 89.6845C134.282 75.3571 125 64.635 113.376 56.8273C117.419 66.1675 120.229 76.1054 121.678 86.1677C123.236 97.0368 123.275 109.065 117.678 118.864C117.67 118.87 117.654 118.881 117.644 118.901C119.854 121.083 122.002 123.333 124.07 125.678L124.084 125.68Z" fill="#141D23"/>
<path d="M81.5618 141.247C89.147 142.49 96.8531 142.232 104.495 141.713C109.02 141.406 114.063 141.121 118.291 139.367C121.063 138.223 123.257 136.151 125.453 134.116C124.959 133.854 124.628 133.476 124.661 133.059C123.256 131.384 121.848 129.723 120.402 128.077C114.15 120.942 107.221 114.683 99.9306 108.831C91.1682 114.009 80.6386 116.283 70.6123 117.301C61.7589 118.206 52.4509 118.268 43.7973 115.909C43.8264 115.949 43.8473 115.996 43.8764 116.037C52.4063 130.196 65.2638 138.561 81.5583 141.225L81.5618 141.247Z" fill="#141D23"/>
</svg>
