<svg width="109" height="204" viewBox="0 0 109 204" fill="none" xmlns="http://www.w3.org/2000/svg">
<path d="M70.4715 38.7117C73.3538 41.2284 76.0439 45.0767 77.5462 49.1453C78.1183 44.9611 78.6009 40.7693 79.0042 36.5672C78.7385 36.2054 78.4727 35.8437 78.2105 35.4755C77.8874 35.4138 77.5462 35.1716 77.3025 34.6945C73.4982 27.2249 72.0684 17.9939 74.7652 9.92436C76.2467 5.50001 81.4839 -3.47156 86.9907 1.5965C91.7321 5.96341 91.9912 14.411 91.2755 20.3116C90.4744 26.8967 87.7597 34.2834 81.4486 37.357C81.4377 37.5893 81.3612 37.8019 81.2005 37.9674C81.1063 38.0594 81.0109 38.1082 80.9098 38.1367C80.4105 43.1792 79.8124 48.2005 79.0788 53.2054C82.6071 49.3228 87.9256 46.3491 92.3202 44.28C96.9801 42.0869 104.363 39.486 107.438 45.3547C110.555 51.2986 104.268 57.4169 99.725 60.3738C93.0552 64.7112 84.2736 63.6508 78.1971 58.8853C76.6298 68.4048 74.6267 77.8507 72.1002 87.1822C77.7937 83.2348 84.4965 79.9634 91.3648 78.9816C96.8469 78.1942 104.418 79.8199 105.826 86.1859C107.099 91.9402 100.495 96.0845 95.9317 97.7099C88.1004 100.503 78.5568 99.4497 72.3335 93.6994C71.9702 93.3597 71.8227 92.8172 71.8509 92.3562C71.5476 92.016 71.2341 91.6787 70.9408 91.3356C70.6582 92.3269 70.3756 93.3182 70.0799 94.3023C67.423 103.152 64.2495 111.738 60.6734 120.116C70.2423 114.387 87.7253 110.204 93.5916 121.792C94.998 124.572 95.7348 128.153 93.984 130.945C91.8378 134.367 87.0426 135.189 83.3259 135.288C74.8228 135.524 66.3848 131.889 60.4431 125.879C59.7254 125.792 59.0136 125.649 58.3171 125.463C54.8553 133.105 51.0623 140.577 46.9751 147.936C57.381 143.511 74.5414 143.721 77.6955 155.833C81.0825 168.868 64.7793 167.189 57.1698 164.4C51.9769 162.497 45.8946 159.415 43.4648 154.128C41.0549 158.28 38.5598 162.4 35.9899 166.487C33.0099 171.231 29.958 175.951 26.7548 180.56C29.0268 179.423 31.3863 178.615 34.1009 178.467C37.2522 178.298 40.4911 178.673 43.5762 179.277C49.2322 180.384 56.8012 182.97 57.7442 189.604C58.7047 196.358 50.6134 198.81 45.297 199.043C36.5178 199.422 28.9065 193.338 22.7504 187.787C22.4633 187.524 22.3079 187.147 22.2724 186.77C18.0004 192.467 13.4175 197.913 8.32663 202.914C7.37447 203.854 5.9476 201.581 6.79473 200.753C11.1782 196.438 15.1913 191.796 18.9545 186.947C11.7978 181.312 4.32754 174.276 1.28953 165.575C-1.10961 158.714 1.47861 148.846 10.3805 149.753C18.4153 150.565 23.7141 160.141 25.3333 167.179C25.8723 169.516 26.4354 173.254 26.2839 176.839C28.2015 174.039 30.0643 171.199 31.8911 168.348C35.0746 163.378 38.2033 158.369 41.2385 153.299C35.5223 152.482 30.4468 145.807 27.4284 141.724C23.0904 135.846 18.3144 126.402 23.4771 119.585C25.7678 116.559 29.7133 114.562 33.451 115.932C36.7801 117.149 39.1738 120.295 40.9289 123.228C45.2012 130.363 46.2132 137.938 45.5685 145.871C47.6725 142.145 49.7051 138.378 51.6175 134.553C53.2392 131.322 54.7795 128.055 56.2578 124.762C52.4925 123.198 49.0852 120.387 46.3401 117.641C42.2889 113.592 38.1553 108.109 37.7852 102.171C37.456 96.9203 41.632 91.8505 47.1172 91.8483C52.6456 91.8448 55.7986 97.9534 57.4056 102.413C58.8267 106.368 59.9725 111.088 60.1308 115.656C63.4349 107.475 66.3146 99.1251 68.7905 90.6593C68.7213 90.6461 68.6492 90.6228 68.5678 90.5857C61.2072 87.3833 54.5856 82.04 52.4808 73.9382C51.3283 69.5035 52.4689 60.7157 59.111 62.5706C63.8556 63.8908 66.8114 70.0167 68.5886 74.1116C69.5609 76.3592 70.597 78.949 71.2677 81.5982C72.9997 74.8107 74.4822 67.9516 75.7073 61.0504C75.9295 59.7869 76.1352 58.5226 76.3445 57.2517C76.3222 57.2307 76.2999 57.2097 76.2776 57.1887C76.1762 57.0808 76.0922 56.9571 76.0284 56.8278C71.8579 55.8206 67.6485 52.8757 64.4851 50.4654C61.5759 48.2401 56.4162 43.9966 57.7659 39.6858C59.5381 34.0278 67.2539 35.8964 70.4743 38.7217L70.4715 38.7117Z" fill="#141D23"/>
</svg>
