<svg width="139" height="145" viewBox="0 0 139 145" fill="none" xmlns="http://www.w3.org/2000/svg">
<path d="M80.8437 106.939C86.5381 95.1188 91.2365 82.7416 92.9808 69.6727C94.5702 57.7971 94.1745 45.7564 91.5125 34.0612C88.8093 22.1666 83.987 10.9213 78.6445 -0.000203709C78.9683 8.883 79.8053 17.7432 80.0647 26.6319C80.3639 36.9529 79.3126 47.0837 77.8211 57.2841C76.2943 67.739 74.3362 78.1288 72.0309 88.4425C69.6903 98.9133 66.9447 109.297 65.1412 119.884C64.2656 125.032 63.848 130.08 63.6431 135.293C63.5567 137.442 63.4271 139.606 63.0739 141.717C68.693 130.012 75.1931 118.655 80.8356 106.94L80.8437 106.939Z" fill="#141D23"/>
<path d="M57.442 63.0103C54.9785 74.1404 53.4376 85.5333 53.647 96.9529C53.8206 106.652 56.4598 116.009 58.4009 125.457C59.6551 131.573 60.8406 138.027 60.6657 144.365C61.9433 140.761 62.0022 136.749 62.1254 132.971C62.2705 128.635 62.696 124.401 63.4013 120.12C65.047 110.064 67.5961 100.188 69.8733 90.2623C72.1587 80.291 74.13 70.2488 75.7022 60.1389C77.291 49.9384 78.6589 39.716 78.5363 29.3719C78.433 20.5553 77.6263 11.7655 77.1952 2.95628C69.7373 22.6681 62.0086 42.3906 57.442 63.0103Z" fill="#141D23"/>
</svg>
