<svg width="247" height="181" viewBox="0 0 247 181" fill="none" xmlns="http://www.w3.org/2000/svg">
<path d="M192.654 45.6127C192.219 45.5334 191.937 45.7394 191.716 46.0923C188.704 50.8638 182.393 52.5984 182.542 59.1006C182.642 63.3101 185.009 67.9018 189.292 69.0109C188.526 74.8557 187.261 80.6275 187.304 86.5109C187.184 86.6136 187.08 86.7337 187.013 86.9094C183.688 83.2651 178.896 81.5798 175.395 78.0913C175.357 78.0525 175.319 78.0302 175.284 78.0014C175.038 72.3954 172.49 67.0472 167.316 64.3005C164.507 62.8073 161.262 62.3063 158.121 62.7401C156.181 63.0097 152.885 63.2512 152.341 65.5017C151.15 70.4757 155.805 77.9239 159.317 81.0236C163.685 84.8835 170.209 85.8708 174.681 81.7194C174.85 81.5599 174.95 81.3429 175.008 81.0934C178.698 84.3302 183.543 86.1154 186.585 90.0588C186.844 90.3972 187.094 90.4987 187.31 90.4518C188.725 99.4262 191.947 107.96 195.745 116.209C198.904 123.068 201.405 130.92 205.777 137.269C199.146 133.793 192.512 130.323 185.892 126.827C185.776 126.151 185.38 125.545 184.741 125.596C184.41 125.619 184.081 125.67 183.746 125.699C176.953 122.103 170.185 118.479 163.452 114.763C151.478 108.15 139.626 101.238 127.944 94.0307C128.039 93.4939 127.946 92.8826 127.591 92.5318C117.921 82.8489 118.178 67.4283 116.213 54.5335C116.455 54.5447 116.704 54.3966 116.932 54.0309C119.758 49.3747 122.042 44.8689 121.988 39.3908C125.767 38.1932 128.869 35.7469 130.341 31.9047C131.937 27.7304 130.562 23.8571 129.808 19.665C129.718 19.167 129.368 18.1243 128.646 18.2906C122.672 19.6793 113.394 18.8261 111.697 26.5787C110.464 32.2059 114.748 37.6817 119.97 39.2464C120.06 43.8447 117.918 47.7465 115.598 51.5877C115.196 50.9013 114.461 50.794 114.058 51.2391C110.807 49.3366 108.114 46.7354 105.445 44.079C106.367 40.4767 107.16 36.4141 104.821 33.245C101.589 28.8576 94.8505 28.9557 90.0814 27.6776C89.5476 27.5324 89.1429 28.0107 89.0182 28.4792C87.7008 33.4057 87.4029 39.2553 90.4065 43.6656C93.5995 48.357 98.9345 48.3577 103.852 46.7192C104.042 46.6574 104.176 46.529 104.279 46.3654C107.3 49.379 110.351 52.3411 114.143 54.3593C116.08 66.5601 116.081 80.9112 123.396 91.2249C110.171 82.9461 97.1817 74.2887 84.5174 65.2614C77.5753 60.3184 70.8556 55.1092 64.123 49.8926C58.1792 45.2858 51.4913 40.987 47.5013 34.4373C47.1802 33.9089 46.826 33.7645 46.5216 33.8461C45.2219 30.6596 44.4251 27.3002 43.5664 23.9738C48.669 22.3564 51.3937 15.7205 49.308 10.8793C46.8538 5.19058 40.0236 3.26294 34.8873 0.837937C34.5315 0.666814 34.0878 1.01958 33.9501 1.31751C31.471 6.79996 29.2432 12.1444 32.3349 17.858C34.1536 21.2155 37.5862 24.8529 41.4536 23.9635C42.3173 27.207 43.0832 30.4712 44.2053 33.6238C37.3405 31.6076 30.5991 29.1994 23.7643 27.0718C23.4006 23.4822 21.3477 20.367 17.9551 18.5026C12.5678 15.5466 6.89389 17.3661 1.13442 17.5063C-0.0054994 17.5344 0.170894 19.5319 0.68894 20.1055C4.74722 24.5758 4.38779 32.4486 10.1133 35.5912C15.2717 38.4236 18.5779 34.2422 22.0372 31.0585C22.5721 31.5732 23.4488 31.496 23.6551 30.277C23.6702 30.1914 23.6752 30.1084 23.6866 30.0292C30.9686 32.3034 38.1514 34.8979 45.4914 36.9826C45.5337 36.9984 45.5706 36.994 45.6102 36.9997C45.9488 37.5126 46.3368 37.4793 46.6441 37.1849C49.6409 41.6514 53.7339 45.1554 57.9698 48.4416C63.6179 52.8177 69.2373 57.2286 74.9615 61.5028C75.1589 61.6511 75.3601 61.7929 75.5575 61.9413C65.1913 63.0331 55.0368 65.4222 44.9251 67.9304C41.8535 66.3715 38.6419 65.2635 35.3259 64.3955C33.975 60.0643 32.0992 56.4938 27.2559 55.3444C23.0356 54.3489 17.3094 54.2682 13.6955 56.9767C12.8033 57.6454 12.9779 59.0071 13.7414 59.7053C16.644 62.359 17.8362 65.286 19.7918 68.5252C20.8336 70.2419 22.1525 71.6124 24.2047 71.9652C27.917 72.6074 31.5609 69.7874 33.8263 66.978C33.8852 66.9948 33.9477 67.0053 34.0066 67.0221C34.339 67.6944 34.8909 67.7042 35.2952 67.3458C37.9034 68.0282 40.4696 68.8578 42.922 69.9735C42.9996 70.5672 43.2848 71.0835 43.7285 71.1767C42.3097 73.1883 41.6573 75.6852 40.0181 77.5438C39.8387 77.4831 39.6499 77.4685 39.4256 77.5449C35.2813 78.9436 28.8769 79.2947 27.6219 84.4546C26.3455 89.6964 31.4072 93.751 30.9994 98.8253C30.9331 99.6533 31.4309 100.841 32.4257 100.515C42.5632 97.1897 46.4073 88.704 42.0072 79.0611C43.57 76.7553 44.2094 73.8648 46.4594 72.0329C46.8617 71.7076 46.9299 71.0694 46.7878 70.4984C57.3109 67.9017 67.8866 65.4813 78.719 64.6071C78.8462 64.5948 78.945 64.5575 79.0448 64.5036C90.5968 72.9316 102.519 80.8527 114.574 88.5421C135.679 101.997 157.264 114.398 179.223 126.27C163.524 128.649 148.791 135.343 133.076 137.824C132.774 137.873 132.563 138.06 132.414 138.317C127.328 136.118 121.842 135.25 116.386 134.33C116.385 118.375 95.9243 126.565 86.67 127.707C85.607 127.84 85.5977 129.713 86.2244 130.306C90.9865 134.806 94.9885 142.211 101.713 144.009C107.511 145.556 112.443 141.961 114.998 137.046C120.937 138.064 127.119 138.828 132.621 141.422C131.376 144.915 131.026 148.744 128.942 151.864C128.796 151.523 128.552 151.262 128.213 151.195C121.03 149.775 113.714 153.829 113.348 161.492C113.054 167.541 115.044 175.252 119.166 179.836C119.484 180.192 120.05 180.355 120.411 179.938C123.039 176.857 127.174 177.212 130.538 175.457C133.362 173.982 135.361 171.01 136.215 167.986C137.817 162.315 135.342 156.691 130.864 153.274C132.891 149.615 133.137 145.46 134.967 141.652C135.123 141.322 135.122 140.893 135.017 140.48C151.507 137.563 166.995 130.319 183.74 128.698C188.496 131.246 193.263 133.776 198.055 136.276C213.97 144.607 229.887 152.948 245.486 161.868C246.908 162.689 247.335 159.839 246.232 159.21C234.673 152.606 222.946 146.324 211.17 140.126C211.111 140.006 211.04 139.905 210.949 139.81C204.301 133.406 201.648 123.828 197.834 115.665C194.071 107.608 190.78 99.2833 189.344 90.494C189.455 90.2576 189.506 89.9612 189.472 89.5897C188.853 83.3821 190.182 77.3049 191.085 71.1953C198.365 72.5076 205.834 66.2264 206.23 58.9149C206.656 51.1492 199.345 46.9196 192.646 45.6256L192.654 45.6127Z" fill="#141D23"/>
</svg>
