<svg width="108" height="167" viewBox="0 0 108 167" fill="none" xmlns="http://www.w3.org/2000/svg">
<path d="M101.483 89.0159C91.8285 85.0018 86.3919 96.3968 78.3365 98.8822C79.1013 92.9176 83.0904 87.3843 86.0984 82.388C89.3809 76.9289 92.9475 71.2165 94.2256 64.8811C95.4304 58.9073 93.8584 53.2904 89.5733 48.8991C89.0977 48.4093 88.6129 48.0064 88.126 47.6641C88.4423 46.7465 87.4921 46.167 86.6911 46.8747C84.1297 45.8303 81.5355 46.735 79.1773 49.27C76.1647 52.5096 72.966 60.1325 67.6604 59.0773C71.1547 47.3123 80.4736 33.0661 72.1662 21.3704C69.5628 17.7077 64.6006 12.4902 60.1057 16.1184C57.9504 17.8607 55.9203 20.1542 54.0236 22.1777C53.2605 22.9896 52.5559 23.8643 51.9591 24.8103C51.0463 23.3184 48.6056 20.9276 48.1848 20.3912C46.7637 18.5843 45.5459 16.6154 44.2574 14.717C41.1985 10.2262 37.9232 5.29621 33.4092 2.12837C30.1544 -0.155987 25.8645 -0.788371 23.0982 2.62081C20.2327 6.15403 21.3868 11.5225 22.4462 15.5055C23.7221 20.3136 26.4033 25.1785 26.9426 30.1374C27.1938 32.5013 26.974 35.939 24.1643 36.4188C22.1869 36.7593 20.0246 36.0338 18.0966 35.6628C14.5381 34.9866 10.7532 34.8048 8.66477 38.3346C5.81537 43.1428 8.30485 48.0739 11.8308 51.664C16.035 55.9535 23.0277 59.3152 25.46 65.0216C26.197 66.7487 27.4855 70.2801 24.9263 70.8082C22.9245 71.2222 20.4637 70.4167 18.5282 69.9684C14.354 69.0094 9.22611 67.2206 5.00287 68.8509C0.596636 70.5498 -0.56221 75.5618 0.924943 79.6688C2.89311 85.1238 7.52874 89.8396 11.9823 93.3912C16.9229 97.337 23.2698 98.8596 29.0574 101.136C32.398 102.45 35.9091 103.97 38.5868 106.425C40.3322 108.022 43.5688 112.306 41.9786 114.784C40.8571 116.53 37.2929 116.718 35.4835 117.029C33.1468 117.428 30.7421 117.748 28.5095 118.585C26.6261 119.294 24.9843 120.384 23.8538 122.076C23.6051 122.442 23.3966 123.045 23.6718 123.458C28.9922 131.43 39.0209 135.013 47.6298 138.154C57.298 141.678 68.1949 144.425 76.2149 151.187C78.3411 156.684 81.4896 161.613 84.6598 166.566C85.3364 167.623 87.0511 165.734 86.4476 164.791C83.8616 160.747 81.2535 156.716 79.2559 152.355C79.5818 151.981 79.7796 151.488 79.632 151.091C74.4664 137.061 90.2433 128.155 98.8012 120.035C103.323 115.746 106.339 110.789 107.338 104.548C108.245 98.8949 107.509 91.5256 101.483 89.0159ZM92.0406 66.0319C90.4474 72.4899 86.5684 78.2268 83.1927 83.8586C80.1152 88.9915 76.5932 94.5371 76.1925 100.67C76.1672 101.063 76.4976 101.533 76.9467 101.437C84.5545 99.7444 89.391 89.9581 97.5114 90.6196C98.4546 90.6984 99.2924 90.89 100.04 91.1705C96.3008 99.5661 87.7319 105.585 81.4247 111.922C76.5616 116.803 71.1765 122.771 70.1654 129.813C68.0294 123.913 65.919 118.006 64.1412 111.981C62.8918 107.759 61.6114 103.547 60.3199 99.342C71.6895 84.2009 75.735 65.0209 86.7228 49.7068C91.8795 53.127 93.4381 60.3922 92.047 66.0431L92.0406 66.0319ZM72.2475 26.5642C73.7566 30.4136 73.5841 34.6406 72.7435 38.6225C71.1667 46.0731 67.4557 52.8339 65.4447 60.1493C65.3239 60.5828 65.4726 61.0462 65.9132 61.1926C70.1237 62.6131 73.368 59.492 75.8011 56.4312C77.9292 53.7544 81.011 47.4462 85.1674 48.8757C74.5166 63.8095 70.3966 82.3719 59.6723 97.2813C57.4073 89.9491 55.0968 82.6282 52.8063 75.3033C51.6057 71.4612 50.4115 67.6304 49.1839 63.8187C49.326 63.6921 49.4552 63.5432 49.5532 63.353C56.6954 49.4363 64.392 35.6447 67.3107 20.0923C67.3738 19.7515 67.3305 19.5093 67.2317 19.3511C69.4946 21.3696 71.3616 24.3219 72.2451 26.573L72.2475 26.5642ZM24.1544 4.10403C27.556 -0.904344 34.3174 5.99084 36.5974 8.63039C39.9974 12.5679 42.6482 17.0198 45.6922 21.2149C47.1325 23.1963 48.6387 25.3179 50.2322 27.1663C51.0397 28.1028 51.5384 28.4012 52.5219 27.3283C52.9193 26.8983 53.1305 26.1973 53.4352 25.7095C54.3422 24.2726 55.5599 23.1684 56.7645 21.99C58.4587 20.3359 60.718 16.5366 63.457 17.1815C64.6865 17.4734 65.8956 18.1929 67.0125 19.1511C66.4886 18.9119 65.4861 19.4761 65.3367 20.2973C62.5479 35.1363 55.3284 48.3404 48.4759 61.6147C46.0622 54.205 43.4967 46.8534 40.4661 39.6219C35.5506 27.8895 30.0854 16.4004 25.3354 4.59475C25.0686 3.93969 24.4744 4.01569 23.9954 4.38144C24.0476 4.2919 24.0934 4.19122 24.1488 4.10725L24.1544 4.10403ZM10.7978 38.3793C13.5255 35.9575 19.0099 38.6984 22.176 38.7847C26.1583 38.897 28.3454 36.2455 28.8809 32.4547C29.5105 27.9786 27.5297 23.8003 26.1324 19.6562C24.984 16.2517 22.3625 10.1275 23.376 5.95664C28.1252 17.7479 33.584 29.2259 38.4931 40.9471C40.3845 45.4591 42.0889 50.0197 43.7001 54.6118C31.5773 52.0161 19.6307 47.2699 9.98847 39.3812C10.1941 39.0175 10.4588 38.6791 10.7978 38.3793ZM4.97596 71.0414C7.15894 70.1442 9.87819 70.652 12.1196 71.0646C17.6067 72.0744 30.3411 76.7071 28.1716 66.1203C27.0196 60.4983 22.1765 57.1716 18.0032 53.7328C15.5802 51.7326 13.051 49.6898 11.2398 47.0912C10.3575 45.8193 9.54748 43.9786 9.42083 42.2034C19.5368 50.1672 32.0882 54.8685 44.6311 57.318C46.8051 63.7081 48.8095 70.1516 50.8356 76.6198C52.2255 81.0725 53.6265 85.5189 55.0163 89.9717C37.4514 85.0041 19.3016 81.3245 3.20221 72.3778C3.61818 71.8257 4.19793 71.3646 4.98474 71.0438L4.97596 71.0414ZM73.4407 146.019C66.6392 141.767 58.5335 139.383 51.1143 136.735C42.3302 133.599 31.6298 130.241 25.904 122.324C26.0071 122.22 26.1199 122.133 26.235 122.037C26.2124 122.332 26.2949 122.603 26.5579 122.763C38.7658 130.521 53.6728 127.077 67.1161 130.187C67.3379 130.237 67.5703 130.177 67.7818 130.054C69.7007 135.36 71.6562 140.651 73.443 146.01L73.4407 146.019ZM66.9134 127.624C54.1013 125.055 39.9381 127.988 28.3578 120.855C34.422 118.481 45.3726 120.061 44.2572 111.738C42.5168 98.7061 23.2682 98.3039 14.7453 92.2777C10.0041 88.9219 4.93514 83.8923 2.90678 78.3459C2.49691 77.2242 2.26105 75.9798 2.34438 74.8256C18.7379 83.7806 37.1731 87.4661 54.9849 92.5657C55.2514 92.6419 55.5228 92.5593 55.7627 92.3836C57.9392 99.3439 60.0903 106.311 62.1537 113.307C63.578 118.141 65.2163 122.896 66.9111 127.633L66.9134 127.624ZM104.424 108.718C102.473 114.737 97.8235 118.662 93.162 122.632C88.6458 126.48 83.8943 130.294 80.4243 135.171C77.5841 139.172 76.1534 143.636 76.6609 148.257C76.625 148.233 76.5858 148.204 76.5554 148.177C76.5504 148.142 76.5487 148.114 76.5382 148.083C75.0031 143.224 73.2849 138.434 71.5557 133.65C71.866 133.352 72.1009 132.949 72.0689 132.559C71.3766 123.324 79.6298 116.025 85.7042 110.223C91.3945 104.783 98.2179 99.2753 101.623 91.9712C106.446 95.2126 106.146 103.396 104.424 108.718Z" fill="#141D23"/>
</svg>
