<svg width="137" height="70" viewBox="0 0 137 70" fill="none" xmlns="http://www.w3.org/2000/svg">
<path d="M2.6435 47.3236C1.47864 54.2549 1.99341 61.3393 0.838251 68.2681C0.692291 69.1476 1.92759 69.2155 2.47183 69.1132C14.8518 66.713 27.7664 68.1581 40.3106 67.3963C50.8281 66.755 61.3252 65.0809 71.1159 61.1123C91.8091 52.7307 109.703 34.2143 117.166 13.2122C122.012 -0.422783 121.947 -15.08 121.945 -29.3905C122.091 -29.4861 122.218 -29.5924 122.302 -29.7236C126.312 -35.7719 129.923 -42.4831 135.632 -47.1426C137.065 -48.3158 134.88 -49.2591 133.824 -48.3986C128.831 -44.3226 125.342 -38.8637 121.883 -33.4696C121.853 -33.4619 121.822 -33.4638 121.793 -33.4562C121.705 -33.4331 121.621 -33.4161 121.534 -33.393C120.886 -33.6527 119.716 -33.4627 119.29 -32.8673C97.0735 -27.7011 74.3402 -25.3571 53.3131 -15.984C43.7512 -11.7281 34.6127 -6.35389 26.8174 0.653386C18.6194 8.01625 12.8457 16.934 8.65837 27.078C5.98009 33.5684 3.81191 40.3861 2.6435 47.3236ZM4.79981 66.7901C4.46552 66.8421 4.1286 66.8844 3.79078 66.9426C4.50928 61.8526 4.42808 56.7092 4.87415 51.5925C8.28225 49.9339 12.4529 49.5894 16.1351 49.1507C20.4815 48.63 24.923 48.2295 29.2871 48.7889C26.0952 51.5117 22.9182 54.2512 19.5512 56.7504C15.0055 60.1372 9.65505 62.2262 5.23258 65.7985C4.78141 66.1669 4.68207 66.5098 4.80335 66.784L4.79981 66.7901ZM38.9486 65.3686C38.9045 65.4166 38.8823 65.4691 38.8479 65.5146C28.5819 65.9908 18.1493 65.2601 7.92913 66.3834C12.4995 62.9537 17.8511 60.7346 22.3794 57.2071C27.5273 53.2043 32.3479 48.8001 37.4571 44.7504C41.5184 41.5331 45.7161 38.4927 49.9376 35.4822C49.1053 45.7827 45.5365 57.362 38.9389 65.3711L38.9486 65.3686ZM83.0874 52.4406C79.5512 54.8339 75.825 56.9296 71.9389 58.6472C62.4732 62.8361 52.2061 64.6103 41.9072 65.3288C48.4384 56.922 52.0577 45.1269 52.7853 34.6516C52.816 34.2283 52.5792 33.9691 52.2425 33.84C57.8278 29.8773 63.4193 25.9182 68.7617 21.6356C78.8559 13.538 87.6413 4.37439 96.2827 -5.22352C97.3374 -6.39511 98.3894 -7.57638 99.4476 -8.75409C100.456 0.836736 98.3438 11.3458 96.1782 20.5089C93.6034 31.4206 89.7165 42.3261 83.2493 51.5621C83.0027 51.918 82.9731 52.2113 83.091 52.4345L83.0874 52.4406ZM119.156 -28.7467C119.16 -16.7466 119.207 -4.56594 116.272 7.12606C113.358 18.74 107.127 29.3461 99.2049 38.2401C95.7255 42.1445 91.8814 45.7975 87.7319 49.0536C92.9333 40.6141 96.3207 31.1436 98.6846 21.5231C101.231 11.1588 103.621 -0.79914 101.934 -11.5084C104.666 -14.5457 107.419 -17.5625 110.277 -20.4617C113.115 -23.34 116.471 -25.7478 119.162 -28.7432L119.156 -28.7467ZM117.743 -30.5587C114.756 -26.6806 110.402 -23.8117 107.037 -20.2905C106.749 -19.9912 106.477 -19.6909 106.189 -19.3916C101.797 -22.5648 96.0022 -22.5126 90.7978 -22.5853C87.3888 -22.6341 83.9626 -22.9951 80.5597 -23.0404C81.9747 -23.3832 83.3852 -23.7041 84.7948 -24.0093C95.74 -26.3884 106.811 -28.1312 117.737 -30.5623L117.743 -30.5587ZM26.4657 3.9542C38.7247 -8.1779 54.8982 -15.7386 71.5147 -20.6341C71.7559 -20.3397 72.2213 -20.1772 72.8618 -20.3464C78.033 -21.6977 83.2325 -20.7622 88.4853 -20.6452C93.7955 -20.5279 100.027 -21.0382 104.466 -17.5606C102.868 -15.8455 101.278 -14.1171 99.6966 -12.3756C99.4326 -12.2176 99.2295 -12.0082 99.1418 -11.7566C97.1146 -9.513 95.0998 -7.2623 93.0726 -5.01871C87.1977 1.49654 81.2147 7.72887 74.8073 13.5855C70.1384 8.17012 60.6297 8.2178 54.1281 7.60041C48.7895 7.09089 43.3899 7.19959 38.0517 7.5724C32.7073 7.94166 27.4349 9.16918 22.0678 8.82291C23.4354 7.13777 24.892 5.51215 26.4622 3.96032L26.4657 3.9542ZM20.5826 10.726C24.8209 11.0903 28.9654 10.5347 33.1751 10.0086C38.1609 9.39147 43.2186 9.13437 48.2483 9.25317C52.6229 9.35309 57.0832 9.84558 61.4243 10.4734C65.4657 11.0507 70.2306 11.8987 72.7984 15.3986C70.2509 17.6603 67.6303 19.8635 64.9181 21.9975C55.0608 29.7418 44.3965 36.4485 34.6378 44.3069C33.5421 45.1935 32.4552 46.0933 31.3771 47.0063C26.0647 46.0954 20.5922 46.6438 15.2914 47.3078C11.9575 47.727 8.32556 48.1212 5.1174 49.3481C5.83605 43.5884 7.41085 37.8983 9.34415 32.4561C12.1144 24.6384 15.6909 17.2617 20.5923 10.7235L20.5826 10.726Z" fill="#141D23"/>
</svg>
