<svg width="199" height="208" viewBox="0 0 199 208" fill="none" xmlns="http://www.w3.org/2000/svg">
<path d="M161.907 109.554C154.572 113.419 146.009 113.104 137.967 112.513C136.566 112.408 134.938 114.207 136.931 114.753C146.038 117.258 152.305 122.732 157.904 129.723C144.777 125.908 130.516 124.46 116.912 124.921C104.178 125.346 90.4842 126.754 78.9189 120.537C83.0296 117.489 87.1911 114.487 91.4609 111.611C98.1166 107.12 104.802 102.661 111.518 98.2326C111.607 98.253 111.701 98.2664 111.806 98.2777C117.937 98.8449 123.764 100.685 129.748 101.986C134.957 103.11 140.16 103.395 145.475 103.563C155.174 103.86 164.996 103.726 174.521 101.729C170.169 104.084 166.339 107.233 161.921 109.564L161.907 109.554Z" fill="#141D23"/>
<path d="M178.011 59.6844C178.553 59.6164 178.919 59.4161 179.151 59.1547C172.093 69.5088 172.008 86.5487 159.235 91.4192C158.717 91.6168 158.426 91.8889 158.294 92.1686C157.191 92.8682 158.601 94.3292 160.13 93.9968C164.69 92.9921 169.796 96.4977 174.051 99.5064C164.017 101.688 153.561 101.546 143.351 101.153C133.466 100.769 124.279 97.4559 114.585 96.2142C120.735 92.1872 126.895 88.1885 133.092 84.2563C140.195 79.7456 147.465 75.5881 154.912 71.6664C158.691 69.6771 162.5 67.719 166.273 65.7249C168.161 64.7244 170.064 63.7335 171.927 62.6949C173.769 61.6724 175.873 59.9448 178.004 59.6795L178.011 59.6844Z" fill="#141D23"/>
<path d="M133.557 62.5747C134.012 63.4359 135.415 63.3151 136.115 62.9445C143.225 59.2118 151.071 57.0505 159.044 56.1934C164.933 55.5624 170.324 56.8851 175.884 57.83C174.747 58.207 173.748 58.7721 172.584 59.4705C169.436 61.3511 166.166 63.0228 162.913 64.7276C157.015 67.8261 151.07 70.8297 145.257 74.059C133.591 80.5309 122.598 88.0982 111.48 95.4447C107.304 98.2001 103.105 100.929 98.9203 103.668C99.6358 98.5879 102.169 94.097 104.517 89.5911C107.063 84.6962 109.38 79.6845 111.659 74.6674C116.696 63.5723 121.461 52.3618 127.125 41.5669C129.85 48.3605 130.092 56.0007 133.569 62.5725L133.557 62.5747Z" fill="#141D23"/>
<path d="M85.8488 73.7952C85.5105 74.5812 86.3286 74.9624 87.2455 74.9481C87.3824 75.8366 89.7717 76.0177 90.5141 75.1096C96.6781 67.4752 103.423 61.5316 111.431 55.9371C115.024 53.4275 118.043 50.4682 120.789 47.2479C116.641 55.7218 112.886 64.3861 109.01 72.9872C106.349 78.8835 103.605 84.7337 100.603 90.4666C98.3092 94.8348 96.0089 99.3016 95.4997 104.277C95.4401 104.854 95.7932 105.223 96.2904 105.413C90.355 109.309 84.4539 113.261 78.6626 117.381C77.7558 118.021 76.872 118.687 75.9743 119.343C75.2107 119.463 74.4711 119.951 74.3884 120.502C69.0703 124.445 63.8835 128.541 58.7009 132.66C58.1771 117.837 62.1421 105 69.7536 92.2261C76.5148 80.8726 84.5192 70.0605 88.2179 57.266C88.3859 62.8859 88.1461 68.4399 85.8461 73.8139L85.8488 73.7952Z" fill="#141D23"/>
<path d="M46.3231 97.0523C46.9225 98.1065 49.2771 97.8616 49.5619 96.6469C50.8207 91.4072 52.4504 86.1975 55.8289 81.9003C59.717 76.9564 65.2887 74.6112 70.3854 71.2259C76.0196 67.4811 80.8257 62.7298 84.8158 57.3412C80.6903 71.2728 71.433 82.7629 64.4405 95.3579C57.6785 107.546 54.6952 120.156 55.3692 134.062C55.3884 134.436 55.6049 134.689 55.9264 134.85C52.8393 137.298 49.7522 139.746 46.633 142.151C44.5434 143.755 42.5111 145.439 40.504 147.161C36.2551 136.571 39.4895 124.64 40.3382 113.654C40.9273 106.033 41.5832 96.6343 37.8409 89.5383C41.3015 91.1933 44.322 93.5431 46.3301 97.0572L46.3231 97.0523Z" fill="#141D23"/>
<path d="M31.1876 155.478C30.0171 154.162 29.0588 152.674 28.4167 150.982C27.1095 145.325 25.11 139.746 24.6023 133.932C24.078 127.859 25.6429 122.192 27.5069 116.495C30.439 107.56 34.9387 97.4332 32.9047 87.8411C39.1272 95.8202 37.5607 108.453 36.6117 117.813C35.5542 128.253 33.2346 139.086 37.6846 149.074C37.7387 149.204 37.8309 149.309 37.9327 149.4C35.6666 151.407 33.4306 153.445 31.1828 155.485L31.1876 155.478Z" fill="#141D23"/>
<path d="M100.67 167.594C90.5228 168.615 80.2731 168.503 70.118 167.705C62.014 167.069 53.7311 166.32 45.9635 163.816C41.6567 162.43 36.8056 160.461 33.147 157.381C37.9766 153.027 42.7809 148.635 47.8312 144.558C56.0547 154.068 68.7232 156.133 80.5274 158.033C86.7821 159.046 93.2582 159.904 99.0602 162.583C101.904 163.894 104.655 165.397 107.531 166.513C105.09 166.883 102.697 167.391 100.67 167.594Z" fill="#141D23"/>
<path d="M132.279 142.687C120.232 148.102 107.339 148.726 94.8582 144.172C93.6649 143.738 91.3465 145.255 93.0428 146.213C101.839 151.162 108.356 157.48 113.665 165.692C108.206 164.868 103.511 161.379 98.3864 159.479C93.5674 157.687 88.3848 156.911 83.3395 156.085C71.5192 154.164 58.678 152.556 50.4502 142.889C50.3811 142.811 50.3024 142.746 50.207 142.69C50.2879 142.633 50.3667 142.564 50.4407 142.502C59.1808 135.775 67.7377 128.912 76.518 122.307C87.187 128.182 99.684 127.861 111.572 127.407C126.949 126.813 142.545 127.732 157.38 132.174C148.515 134.29 140.616 138.939 132.284 142.68L132.279 142.687Z" fill="#141D23"/>
</svg>
